<svg width="45" height="38" viewBox="0 0 45 38" fill="none" xmlns="http://www.w3.org/2000/svg">
<path d="M41.1793 22.7536C40.8154 21.9936 39.7908 21.6263 38.8908 21.9338C37.9907 22.241 37.556 23.1062 37.9199 23.8663L39.9901 28.1907L33.8415 25.9018C33.3964 25.7362 32.8899 25.7336 32.4425 25.8948C30.3412 26.6519 28.0902 27.0358 25.752 27.0358C16.3413 27.0358 10.0196 20.8136 10.0196 15.0023C10.0196 8.36696 17.0771 2.96874 25.752 2.96874C34.4268 2.96874 41.4844 8.36696 41.4844 15.0023C41.4844 15.5199 41.4272 16.1398 41.3278 16.7028C41.1846 17.5137 41.8468 18.269 42.807 18.39C43.7673 18.5112 44.6618 17.9517 44.8049 17.1409C44.9307 16.4291 45 15.6696 45 15.0023C45 10.97 42.978 7.18644 39.3062 4.34869C35.6779 1.54441 30.8642 0 25.752 0C20.6397 0 15.8261 1.54441 12.1978 4.34862C8.91663 6.88452 6.95421 10.176 6.57356 13.725C2.44649 16.0329 5.86063e-05 19.7312 5.86063e-05 23.7147C5.86063e-05 26.2031 0.928445 28.5641 2.69566 30.596L0.128203 35.9592C-0.139951 36.5193 0.020625 37.1607 0.534345 37.5813C0.869119 37.8554 1.31024 38 1.75822 38C1.99754 37.9999 2.23889 37.9587 2.46688 37.8738L9.8698 35.1181C11.732 35.7035 13.7005 35.9998 15.7324 35.9998C15.7763 35.9998 15.8195 35.9969 15.8626 35.9942C18.8014 35.9755 21.6585 35.3227 24.1329 34.1012C26.3494 33.0069 28.1726 31.5036 29.4507 29.7284C30.6987 29.5392 31.9184 29.2533 33.1023 28.8711L42.5331 32.3817C42.7611 32.4665 43.0024 32.5078 43.2417 32.5078C43.6897 32.5078 44.1309 32.3632 44.4657 32.0891C44.9794 31.6686 45.14 31.0272 44.8718 30.467L41.1793 22.7536ZM15.7325 33.0273C15.7085 33.0273 15.6852 33.0295 15.6613 33.0303C13.8664 33.0226 12.1389 32.7247 10.5255 32.1434C10.0782 31.9821 9.57168 31.9847 9.1266 32.1505L5.01008 33.6828L6.33801 30.9089C6.58349 30.3961 6.47091 29.8105 6.04604 29.3896C4.39063 27.7496 3.51568 25.7873 3.51568 23.7147C3.51568 21.3426 4.69736 19.095 6.7649 17.3908C7.40861 20.354 9.22486 23.1886 11.9647 25.4153C15.374 28.1861 19.8837 29.7913 24.7533 29.9845C22.4671 31.8849 19.1954 33.0273 15.7325 33.0273Z" fill="black"/>
<path d="M25.6635 16.5508C26.6343 16.5508 27.4213 15.8862 27.4213 15.0664C27.4213 14.2466 26.6343 13.582 25.6635 13.582C24.6927 13.582 23.9057 14.2466 23.9057 15.0664C23.9057 15.8862 24.6927 16.5508 25.6635 16.5508Z" fill="black"/>
<path d="M32.6948 16.5508C33.6656 16.5508 34.4526 15.8862 34.4526 15.0664C34.4526 14.2466 33.6656 13.582 32.6948 13.582C31.7239 13.582 30.937 14.2466 30.937 15.0664C30.937 15.8862 31.7239 16.5508 32.6948 16.5508Z" fill="black"/>
<path d="M18.6323 16.5508C19.6031 16.5508 20.3901 15.8862 20.3901 15.0664C20.3901 14.2466 19.6031 13.582 18.6323 13.582C17.6614 13.582 16.8745 14.2466 16.8745 15.0664C16.8745 15.8862 17.6614 16.5508 18.6323 16.5508Z" fill="black"/>
</svg>
