<?xml version="1.0" standalone="no"?>
<!DOCTYPE svg PUBLIC "-//W3C//DTD SVG 20010904//EN"
 "http://www.w3.org/TR/2001/REC-SVG-20010904/DTD/svg10.dtd">
<svg version="1.0" xmlns="http://www.w3.org/2000/svg"
 width="512.000000pt" height="512.000000pt" viewBox="0 0 512.000000 512.000000"
 preserveAspectRatio="xMidYMid meet">

<g transform="translate(0.000000,512.000000) scale(0.100000,-0.100000)"
fill="#000000" stroke="none">
<path d="M465 4170 c-219 -29 -414 -216 -454 -435 -8 -40 -11 -411 -11 -1179
0 -1242 -2 -1186 66 -1317 46 -87 136 -177 223 -223 134 -70 43 -67 1633 -64
l1433 3 59 23 c174 66 298 198 350 371 13 43 16 102 16 283 0 168 3 228 12
228 6 0 275 -144 598 -320 417 -228 595 -320 618 -320 43 0 76 17 95 50 16 26
17 131 17 1295 l0 1267 -34 34 c-62 62 -43 70 -702 -290 -326 -178 -595 -321
-598 -318 -3 3 -6 107 -6 232 0 170 -4 240 -15 285 -46 174 -188 319 -375 381
-52 18 -125 19 -1460 20 -773 1 -1432 -2 -1465 -6z m2859 -225 c101 -26 171
-87 218 -191 l23 -49 3 -1100 c2 -770 0 -1119 -8 -1165 -20 -115 -97 -209
-204 -249 l-57 -21 -1409 0 c-1408 0 -1409 0 -1465 21 -77 29 -156 108 -184
184 l-21 57 2 1146 3 1147 24 47 c45 88 129 156 218 177 21 5 654 9 1418 10
1201 1 1388 -1 1439 -14z m1574 -1909 l-3 -525 -555 303 -555 304 0 442 0 442
555 303 555 304 3 -525 c1 -288 1 -760 0 -1048z"/>
</g>
</svg>
