<svg width="60" height="60" viewBox="0 0 60 60" fill="none" xmlns="http://www.w3.org/2000/svg">
<path d="M1.50099 36.003C1.82999 36.003 2.16099 35.896 2.43799 35.674C3.24199 35.03 4.16799 34.611 5.15399 34.405C5.93999 38.856 9.82699 42.25 14.5 42.25C15.329 42.25 16 41.579 16 40.75C16 37.628 18.213 35.015 21.152 34.393C21.934 38.85 25.823 42.25 30.5 42.25C31.329 42.25 32 41.579 32 40.75C32 37.628 34.213 35.015 37.152 34.393C37.934 38.85 41.823 42.25 46.5 42.25C47.329 42.25 48 41.579 48 40.75C48 37.625 50.218 35.009 53.161 34.39C53.645 37.127 55.301 39.566 57.75 40.98C57.986 41.117 58.245 41.182 58.499 41.182C59.017 41.182 59.521 40.913 59.799 40.432C60.214 39.715 59.968 38.797 59.251 38.383C57.246 37.225 56 35.066 56 32.75C56 31.921 55.329 31.25 54.5 31.25C49.823 31.25 45.934 34.651 45.152 39.107C42.213 38.485 40 35.872 40 32.75C40 31.921 39.329 31.25 38.5 31.25C33.823 31.25 29.934 34.651 29.152 39.107C26.213 38.485 24 35.872 24 32.75C24 31.921 23.329 31.25 22.5 31.25C17.823 31.25 13.934 34.651 13.152 39.107C10.213 38.485 7.99999 35.872 7.99999 32.75C7.99999 31.921 7.32899 31.25 6.49999 31.25C4.34699 31.25 2.23799 31.989 0.561994 33.332C-0.0840058 33.85 -0.188006 34.794 0.328994 35.441C0.625994 35.811 1.06099 36.003 1.50099 36.003Z" fill="white"/>
<path d="M59.251 46.383C57.246 45.225 56 43.066 56 40.75C56 39.921 55.329 39.25 54.5 39.25C49.823 39.25 45.934 42.651 45.152 47.107C42.213 46.485 40 43.872 40 40.75C40 39.921 39.329 39.25 38.5 39.25C33.823 39.25 29.934 42.651 29.152 47.107C26.213 46.485 24 43.872 24 40.75C24 39.921 23.329 39.25 22.5 39.25C17.823 39.25 13.934 42.651 13.152 47.107C10.213 46.485 7.99999 43.872 7.99999 40.75C7.99999 39.921 7.32899 39.25 6.49999 39.25C4.34699 39.25 2.23799 39.989 0.561994 41.332C-0.0840058 41.85 -0.188006 42.794 0.328994 43.441C0.624994 43.811 1.06099 44.003 1.50099 44.003C1.82999 44.003 2.16099 43.896 2.43799 43.674C3.24199 43.03 4.16799 42.611 5.15399 42.405C5.93999 46.856 9.82699 50.25 14.5 50.25C15.329 50.25 16 49.579 16 48.75C16 45.628 18.213 43.015 21.152 42.393C21.934 46.85 25.823 50.25 30.5 50.25C31.329 50.25 32 49.579 32 48.75C32 45.628 34.213 43.015 37.152 42.393C37.934 46.85 41.823 50.25 46.5 50.25C47.329 50.25 48 49.579 48 48.75C48 45.625 50.218 43.009 53.161 42.39C53.645 45.127 55.301 47.566 57.75 48.98C57.986 49.117 58.245 49.182 58.499 49.182C59.017 49.182 59.521 48.913 59.799 48.432C60.214 47.715 59.968 46.798 59.251 46.383Z" fill="white"/>
<path d="M59.251 54.383C57.246 53.225 56 51.066 56 48.75C56 47.921 55.329 47.25 54.5 47.25C49.823 47.25 45.934 50.651 45.152 55.107C42.213 54.485 40 51.872 40 48.75C40 47.921 39.329 47.25 38.5 47.25C33.823 47.25 29.934 50.651 29.152 55.107C26.213 54.485 24 51.872 24 48.75C24 47.921 23.329 47.25 22.5 47.25C17.823 47.25 13.934 50.651 13.152 55.107C10.213 54.485 7.99999 51.872 7.99999 48.75C7.99999 47.921 7.32899 47.25 6.49999 47.25C4.34699 47.25 2.23799 47.989 0.561994 49.332C-0.0840058 49.85 -0.188006 50.794 0.328994 51.441C0.624994 51.811 1.06099 52.003 1.50099 52.003C1.82999 52.003 2.16099 51.896 2.43799 51.674C3.24199 51.03 4.16799 50.611 5.15399 50.405C5.93999 54.856 9.82699 58.25 14.5 58.25C15.329 58.25 16 57.579 16 56.75C16 53.628 18.213 51.015 21.152 50.393C21.934 54.85 25.823 58.25 30.5 58.25C31.329 58.25 32 57.579 32 56.75C32 53.628 34.213 51.015 37.152 50.393C37.934 54.85 41.823 58.25 46.5 58.25C47.329 58.25 48 57.579 48 56.75C48 53.625 50.218 51.009 53.161 50.39C53.645 53.127 55.301 55.566 57.75 56.98C57.986 57.117 58.245 57.182 58.499 57.182C59.017 57.182 59.521 56.913 59.799 56.432C60.214 55.715 59.968 54.798 59.251 54.383Z" fill="white"/>
<path d="M40 30.75C45.238 30.75 49.5 26.488 49.5 21.25C49.5 16.012 45.238 11.75 40 11.75H20C19.171 11.75 18.5 12.421 18.5 13.25C18.5 14.079 19.171 14.75 20 14.75H40C43.584 14.75 46.5 17.666 46.5 21.25C46.5 24.834 43.584 27.75 40 27.75C39.171 27.75 38.5 28.421 38.5 29.25C38.5 30.079 39.171 30.75 40 30.75Z" fill="white"/>
<path d="M38.5 26.75C41.533 26.75 44 24.283 44 21.25C44 18.217 41.533 15.75 38.5 15.75C37.671 15.75 37 16.421 37 17.25C37 18.079 37.671 18.75 38.5 18.75C39.878 18.75 41 19.872 41 21.25C41 22.628 39.878 23.75 38.5 23.75C37.122 23.75 36 22.628 36 21.25C36 20.421 35.329 19.75 34.5 19.75C33.671 19.75 33 20.421 33 21.25C33 24.283 35.467 26.75 38.5 26.75Z" fill="white"/>
<path d="M34 17.25C34 16.421 33.329 15.75 32.5 15.75H26.5C25.671 15.75 25 16.421 25 17.25C25 18.079 25.671 18.75 26.5 18.75H32.5C33.329 18.75 34 18.079 34 17.25Z" fill="white"/>
<path d="M11 4.75H42C42.829 4.75 43.5 4.079 43.5 3.25C43.5 2.421 42.829 1.75 42 1.75H11C10.171 1.75 9.5 2.421 9.5 3.25C9.5 4.079 10.171 4.75 11 4.75Z" fill="white"/>
<path d="M13.5 8.25C13.5 9.079 14.171 9.75 15 9.75H51C51.829 9.75 52.5 9.079 52.5 8.25C52.5 7.421 51.829 6.75 51 6.75H15C14.171 6.75 13.5 7.422 13.5 8.25Z" fill="white"/>
</svg>
