<svg width="28" height="24" viewBox="0 0 28 24" fill="none" xmlns="http://www.w3.org/2000/svg">
<path d="M27.2348 10.6257L13.8934 1.16498C13.2915 0.738667 12.5104 0.691731 11.8654 1.04516C11.2193 1.39752 10.8157 2.0917 10.8157 2.84687V6.65345L3.07767 1.1662C2.47579 0.739659 1.6947 0.6928 1.04973 1.04508C0.403436 1.39874 0 2.09285 0 2.84809V21.5367C0 22.2955 0.405941 22.9908 1.05533 23.3419C1.70376 23.6943 2.48595 23.6438 3.0879 23.2115L10.8157 17.6609V21.5355C10.8157 22.2942 11.2216 22.9896 11.87 23.3419C12.5195 23.693 13.3028 23.6425 13.9036 23.2103L27.2439 13.6276C27.7188 13.2859 28.0022 12.7232 28 12.1243C27.9989 11.524 27.712 10.9639 27.2348 10.6257Z" fill="white"/>
</svg>
