<svg width="26" height="24" viewBox="0 0 26 24" fill="none" xmlns="http://www.w3.org/2000/svg">
<path d="M1.33301 3.95175V20.0488C1.33301 22.2315 2.89964 24 4.83235 24C6.76526 24 8.33283 22.2314 8.33283 20.0488V3.95175C8.33283 1.77007 6.76526 0.000732625 4.83235 0.000732625C2.89964 4.03288e-05 1.33301 1.77007 1.33301 3.95175Z" fill="white"/>
<path d="M21.1664 0C19.2339 0 17.6672 1.76934 17.6672 3.95102V20.048C17.6672 22.2308 19.2339 23.9986 21.1664 23.9986C23.0989 23.9986 24.6668 22.2307 24.6668 20.048V3.95171C24.6659 1.77003 23.0989 0 21.1664 0Z" fill="white"/>
<rect x="0.5" y="0.5" width="25" height="23" stroke="black"/>
</svg>
