<svg width="60" height="64" viewBox="0 0 60 64" fill="none" xmlns="http://www.w3.org/2000/svg">
<path d="M29.9073 12.8C17.029 12.8 6.49219 23.3601 6.49219 36.2667C6.49219 42.6122 9.04033 48.3893 13.1603 52.6243C13.2012 52.6858 13.2488 52.7447 13.304 52.7999C13.3643 52.8604 13.4249 52.9113 13.4877 52.9547C17.722 57.1402 23.5268 59.7333 29.9074 59.7333C42.7857 59.7333 53.3226 49.1733 53.3226 36.2667C53.3226 23.3601 42.7856 12.8 29.9073 12.8ZM48.0009 37.3334H51.167C50.9147 42.4048 48.8738 47.0244 45.6675 50.5683L43.4243 48.3202C42.9986 47.8936 42.36 47.8936 41.9342 48.3202C41.5085 48.7468 41.5085 49.3868 41.9342 49.8136L44.1774 52.0617C40.6414 55.2751 36.0318 57.3204 30.9716 57.5733V54.4001C30.9716 53.7601 30.5459 53.3334 29.9073 53.3334C29.2687 53.3334 28.843 53.7601 28.843 54.4001V57.5732C23.7562 57.3189 19.1249 55.2533 15.5816 52.0107L17.774 49.8134C18.1997 49.3868 18.1997 48.7468 17.774 48.3201C17.3483 47.8934 16.7097 47.8934 16.2839 48.3201L14.0971 50.5118C10.9198 46.9754 8.89864 42.3781 8.64757 37.3334H11.8137C12.3459 37.3334 12.878 36.9068 12.878 36.2668C12.878 35.6268 12.4523 35.2002 11.8137 35.2002H8.64757C8.89989 30.1288 10.9408 25.5092 14.1471 21.9653L16.3903 24.2134C16.6032 24.4268 16.816 24.5334 17.1353 24.5334C17.3482 24.5334 17.6675 24.4268 17.8803 24.2134C18.306 23.7868 18.306 23.1468 17.8803 22.72L15.6371 20.4719C19.173 17.2585 23.7827 15.2132 28.8429 14.9603V18.1334C28.8429 18.7734 29.2686 19.2001 29.9072 19.2001C30.4394 19.2001 30.9715 18.7734 30.9715 18.1334V14.9603C36.0317 15.2132 40.6412 17.2585 44.1773 20.4719L41.9341 22.72C41.5084 23.1467 41.5084 23.7867 41.9341 24.2134C42.147 24.4268 42.3598 24.5334 42.6791 24.5334C42.9984 24.5334 43.2113 24.4268 43.4241 24.2134L45.6673 21.9653C48.8736 25.5091 50.9145 30.1288 51.1668 35.2002H48.0006C47.362 35.2002 46.9364 35.6268 46.9364 36.2668C46.9364 36.9068 47.3623 37.3334 48.0009 37.3334Z" fill="white"/>
<path d="M56.5156 19.3066C57.3671 19.3066 58.2185 18.9866 58.857 18.3466C60.1342 17.0666 60.1342 14.9332 58.857 13.6532L54.5998 9.38663C53.3226 8.10663 51.1939 8.10663 49.9167 9.38663C48.8795 10.4261 48.6847 12.0282 49.332 13.2793L47.6159 14.9991C43.8433 11.8359 39.2258 9.65588 34.1646 8.864V6.4H36.1868C37.464 6.4 38.4219 5.44 38.4219 4.26662V2.24C38.4219 0.96 37.464 0 36.1868 0H23.5215C22.3507 0 21.3928 0.96 21.3928 2.24V4.16C21.3928 5.44 22.3507 6.4 23.5215 6.4H25.6502V8.864C20.6149 9.65175 16.0185 11.8131 12.2567 14.9502L10.5179 13.2076C11.1218 11.9676 10.9159 10.4065 9.89823 9.38663C8.62104 8.10663 6.49235 8.10663 5.21515 9.38663L0.957893 13.6532C-0.319298 14.9332 -0.319298 17.0666 0.957893 18.3466C1.59649 18.9866 2.44799 19.3066 3.29937 19.3066C4.05521 19.3066 4.81067 19.0539 5.41758 18.5495L7.25392 20.3899C4.09499 24.8953 2.23496 30.3735 2.23496 36.2665C2.23496 51.52 14.6876 64 29.9075 64C45.1274 64 57.58 51.52 57.58 36.2666C57.58 30.4009 55.7369 24.9464 52.6047 20.4529L54.4564 18.5971C55.0528 19.0697 55.7841 19.3066 56.5156 19.3066ZM51.4068 10.88C51.6197 10.6666 51.939 10.56 52.2583 10.56C52.5776 10.56 52.8969 10.6666 53.1098 10.88L57.3671 15.1466C57.7928 15.68 57.8993 16.4266 57.3671 16.8533C56.8349 17.2799 56.0899 17.2799 55.6642 16.8533L55.4717 16.6604C55.4186 16.5385 55.3412 16.4229 55.2384 16.3199L51.5132 12.5865C51.4435 12.5166 51.3675 12.4592 51.2882 12.4122C50.9869 11.9002 51.0257 11.262 51.4068 10.88ZM50.6618 14.8266L52.8969 17.0666L51.3004 18.6666C50.6618 17.8132 49.9168 17.0666 49.1717 16.32L50.6618 14.8266ZM23.5215 2.13337L36.2934 2.24V4.16C36.2934 4.26662 36.2934 4.26662 36.187 4.26662L23.5215 4.16V2.13337ZM27.7788 6.4H32.036V8.61525C31.3333 8.561 30.6234 8.53325 29.9073 8.53325C29.1913 8.53325 28.4815 8.561 27.7787 8.61525V6.4H27.7788ZM9.15312 14.8266L10.6432 16.32C9.89823 17.0666 9.15312 17.8134 8.51452 18.6666L6.91803 17.0666L9.15312 14.8266ZM2.44787 16.8534C2.02218 16.32 2.02218 15.5734 2.44787 15.1468L6.70513 10.88C6.91803 10.6666 7.23733 10.56 7.55663 10.56C7.87593 10.56 8.19523 10.6666 8.40813 10.88C8.83382 11.4134 8.83382 12.16 8.40813 12.5866L4.68295 16.32L4.15075 16.8534C3.72506 17.28 2.87355 17.28 2.44787 16.8534ZM29.9075 61.8666C15.8584 61.8666 4.36365 50.3466 4.36365 36.2666C4.36365 30.558 6.2535 25.2705 9.43662 21.0006C9.48402 20.9696 9.53141 20.9383 9.57881 20.9066C10.5367 19.52 11.7075 18.3466 12.9847 17.1733C13.0281 17.1297 13.0659 17.0811 13.1004 17.0305C16.8336 13.748 21.5204 11.5319 26.6753 10.8721C26.7236 10.8767 26.7722 10.8799 26.8209 10.8799C28.9496 10.6665 30.8654 10.6665 32.9939 10.8799H33.1003C33.1217 10.8799 33.1447 10.878 33.1679 10.8759C45.6923 12.4934 55.4513 23.2932 55.4513 36.2666C55.4513 50.3466 43.9566 61.8666 29.9075 61.8666Z" fill="white"/>
<path d="M30.9717 32.1361V22.4001C30.9717 21.7601 30.546 21.3335 29.9074 21.3335C29.2688 21.3335 28.8431 21.7601 28.8431 22.4001V32.1361C27.0123 32.6129 25.6501 34.2881 25.6501 36.2669C25.6501 38.6135 27.5659 40.5335 29.9074 40.5335C32.2489 40.5335 34.1647 38.6135 34.1647 36.2669C34.1647 34.2881 32.8025 32.6129 30.9717 32.1361ZM29.9074 38.4001C28.7366 38.4001 27.7787 37.4401 27.7787 36.2667C27.7787 35.0934 28.7366 34.1334 29.9074 34.1334C31.0782 34.1334 32.0361 35.0934 32.0361 36.2667C32.0361 37.4401 31.0782 38.4001 29.9074 38.4001Z" fill="white"/>
</svg>
