<svg width="219" height="245" viewBox="0 0 219 245" fill="none" xmlns="http://www.w3.org/2000/svg">
<path d="M110.749 229.184C170.534 229.184 219 182.285 219 124.432C219 66.5784 170.534 19.6792 110.749 19.6792C50.9636 19.6792 2.49805 66.5784 2.49805 124.432C2.49805 182.285 50.9636 229.184 110.749 229.184Z" fill="#6F5987"/>
<path d="M110.749 220.434C165.541 220.434 209.958 177.452 209.958 124.432C209.958 71.4108 165.541 28.429 110.749 28.429C55.9573 28.429 11.5399 71.4108 11.5399 124.432C11.5399 177.452 55.9573 220.434 110.749 220.434Z" fill="#4C3B64"/>
<path d="M110.749 212.477C160.999 212.477 201.735 173.058 201.735 124.432C201.735 75.8053 160.999 36.386 110.749 36.386C60.4986 36.386 19.7627 75.8053 19.7627 124.432C19.7627 173.058 60.4986 212.477 110.749 212.477Z" fill="#6F5987"/>
<path d="M56.1824 15.1407C56.1824 15.1407 109.946 -4.4723 164.575 15.1407V23.2884H55.3318L56.1824 15.1407Z" fill="#853B39"/>
<path d="M57.1591 23.2884H59.4589V14.0674C58.4823 14.3764 57.7104 14.6203 57.1591 14.7992V23.2884Z" fill="#73312F"/>
<path d="M163.677 23.2884H161.377V14.0674C162.354 14.3764 163.126 14.6203 163.677 14.7992V23.2884Z" fill="#73312F"/>
<path d="M56.1824 15.1407L55.3318 23.2884H55.5366L56.1982 17.011C56.1982 17.011 109.961 -2.60207 164.591 17.011V15.1407C109.961 -4.4723 56.1824 15.1407 56.1824 15.1407Z" fill="#AD4F4D"/>
<path d="M168.576 21.5159H52.9375V245H168.576V21.5159Z" fill="#853B39"/>
<path d="M58.4036 9.13965H52.9375V66.824H58.4036V9.13965Z" fill="#853B39"/>
<path d="M55.4736 12.2297C58.7447 12.2297 61.3965 9.49196 61.3965 6.11483C61.3965 2.7377 58.7447 0 55.4736 0C52.2024 0 49.5507 2.7377 49.5507 6.11483C49.5507 9.49196 52.2024 12.2297 55.4736 12.2297Z" fill="#853B39"/>
<path d="M59.207 1.36597C59.7898 2.30921 60.1364 3.43135 60.1364 4.65107C60.1364 8.03374 57.4742 10.7659 54.2134 10.7659C52.7957 10.7659 51.504 10.2618 50.4801 9.39983C51.5355 11.1074 53.3786 12.2458 55.4894 12.2458C58.7659 12.2458 61.4123 9.49741 61.4123 6.13099C61.4123 4.19571 60.5459 2.4881 59.207 1.36597Z" fill="#73312F"/>
<path d="M53.599 6.44008C54.6691 6.44008 55.5366 5.54451 55.5366 4.43977C55.5366 3.33502 54.6691 2.43945 53.599 2.43945C52.529 2.43945 51.6615 3.33502 51.6615 4.43977C51.6615 5.54451 52.529 6.44008 53.599 6.44008Z" fill="#AD4F4D"/>
<path d="M168.482 9.13965H163.016V66.824H168.482V9.13965Z" fill="#853B39"/>
<path d="M165.568 12.2297C168.839 12.2297 171.49 9.49196 171.49 6.11483C171.49 2.7377 168.839 0 165.568 0C162.296 0 159.645 2.7377 159.645 6.11483C159.645 9.49196 162.296 12.2297 165.568 12.2297Z" fill="#853B39"/>
<path d="M169.301 1.36597C169.884 2.30921 170.23 3.43135 170.23 4.65107C170.23 8.03374 167.568 10.7659 164.307 10.7659C162.89 10.7659 161.598 10.2618 160.574 9.39983C161.63 11.1074 163.473 12.2458 165.583 12.2458C168.86 12.2458 171.506 9.49741 171.506 6.13099C171.506 4.19571 170.64 2.4881 169.301 1.36597Z" fill="#73312F"/>
<path d="M163.677 6.44008C164.747 6.44008 165.615 5.54451 165.615 4.43977C165.615 3.33502 164.747 2.43945 163.677 2.43945C162.607 2.43945 161.74 3.33502 161.74 4.43977C161.74 5.54451 162.607 6.44008 163.677 6.44008Z" fill="#AD4F4D"/>
<path d="M166.166 25.6462H55.3318V240.869H166.166V25.6462Z" fill="#F5D8DC"/>
<path d="M146.885 37.3393C146.885 37.3393 135.685 31.0131 119.681 30.1837C103.676 29.3542 76.2038 38.1687 73.5259 38.9981C70.8637 39.8275 76.7237 55.7976 77.2592 61.3107C77.7948 66.8238 73.7937 73.9795 77.527 73.9795C81.2604 73.9795 106.874 67.6533 119.681 68.7429C132.487 69.8487 146.617 73.9795 148.224 72.5972C149.831 71.2148 146.617 56.0741 146.617 53.3257C146.617 50.561 146.885 37.3393 146.885 37.3393Z" fill="#F15F60"/>
<path d="M148.208 72.5973C149.815 71.215 146.602 56.0743 146.602 53.3259C146.602 50.5774 146.869 37.3558 146.869 37.3558C146.869 37.3558 146.019 36.8841 144.491 36.1848C146.318 43.9422 145.656 55.9279 141.277 53.0657C135.402 49.2114 127.667 49.7643 127.667 49.7643C127.667 49.7643 132.739 50.3172 139.938 55.0009C147.137 59.6846 145.011 69.052 129.809 66.0109C114.608 62.986 88.727 70.6946 82.8671 69.0358C76.9914 67.377 81.7959 57.4729 83.6705 55.8141C85.5293 54.1553 97.0128 50.5774 97.0128 50.5774C97.0128 50.5774 87.9394 52.2363 82.6151 53.0494C77.275 53.8788 75.4162 45.0643 75.4162 40.6571C75.4162 39.7952 75.6997 38.9658 76.1566 38.2014C74.8491 38.608 73.9355 38.8845 73.5574 39.0146C70.8952 39.844 76.7551 55.8141 77.2907 61.3272C77.8263 66.8403 73.8252 73.9959 77.5585 73.9959C81.2919 73.9959 106.905 67.6697 119.712 68.7593C132.472 69.8489 146.617 73.9634 148.208 72.5973Z" fill="#E14B4E"/>
<path d="M110.465 70.9386C110.465 70.9386 103.393 66.1248 101.928 67.9138C100.463 69.7027 105.125 71.3615 104.527 74.3864C104.527 74.3864 104.322 75.2158 101.266 74.1099C98.1942 73.004 96.0677 72.1746 95.1383 69.1497C94.2089 66.1248 95.406 61.5712 95.406 61.5712C95.406 61.5712 93.6733 66.938 94.8705 70.9386C94.8705 70.9386 93.4055 70.5321 93.5315 60.6117C93.6575 50.6914 94.6027 40.2344 95.5321 36.7867C96.4615 33.3389 101.266 25.5003 112.734 26.0532C124.202 26.6061 131.668 35.8272 132.865 49.7319C134.063 63.6366 134.063 66.1086 136.063 67.6373C138.064 69.1497 139.261 66.4013 139.261 66.4013C139.261 66.4013 139.797 69.1497 136.063 69.2961C132.33 69.4262 130.455 65.9947 130.455 65.9947C130.455 65.9947 132.314 67.7837 131.526 72.0608C130.723 76.3216 126.864 77.4275 126.864 77.4275C126.864 77.4275 129.258 76.3216 129.668 73.9798C130.061 71.6379 129.526 70.402 127.132 70.402C124.737 70.402 125.399 73.0203 123.524 74.5327C121.665 76.0452 118.452 76.468 118.452 76.468C118.452 76.468 121.382 75.785 121.382 73.7196C121.413 71.6379 110.465 70.9386 110.465 70.9386Z" fill="#3C2415"/>
<path d="M98.9346 58.4814C100.37 58.4814 101.534 56.7704 101.534 54.6597C101.534 52.549 100.37 50.8379 98.9346 50.8379C97.4991 50.8379 96.3354 52.549 96.3354 54.6597C96.3354 56.7704 97.4991 58.4814 98.9346 58.4814Z" fill="#E6A95D"/>
<path d="M126.943 54.6597C126.943 56.7738 125.777 58.4814 124.343 58.4814C122.91 58.4814 121.744 56.7738 121.744 54.6597C121.744 52.5455 122.91 50.8379 124.343 50.8379C125.777 50.8379 126.943 52.5455 126.943 54.6597Z" fill="#E6A95D"/>
<path d="M99.8798 188.129C99.8798 188.129 101.912 192.081 103.33 193.918C104.747 195.756 109.646 199.448 110.67 202.31C111.694 205.172 116.105 213.336 115.884 213.694C115.648 214.052 110.009 216.247 106.622 212.523C103.235 208.799 101.124 202.082 101.124 202.082C101.124 202.082 99.5806 199.643 99.234 197.643C98.8874 195.642 95.7369 192.243 95.7369 192.243L99.8798 188.129Z" fill="#FDC07D"/>
<path d="M106.606 212.539C106.937 212.897 107.284 213.19 107.662 213.45C108.276 213.775 109.442 214.36 109.379 214.295C107.362 211.856 101.991 204.196 101.88 202.57C101.77 200.944 100.699 199.708 100.73 198.098C100.762 196.488 97.8793 192.259 97.8793 192.259C97.8793 192.259 97.2649 191.771 96.4616 191.544L95.7212 192.276C95.7212 192.276 98.8559 195.674 99.2182 197.675C99.5648 199.675 101.109 202.115 101.109 202.115C101.109 202.115 103.219 208.815 106.606 212.539ZM112.828 214.409C112.86 214.491 112.828 214.556 112.813 214.621C113.317 214.572 113.774 214.491 114.183 214.377C114.026 214.23 113.852 214.068 113.679 213.84C112.813 212.702 112.435 212.23 112.435 212.23C112.435 212.23 112.45 213.401 112.828 214.409Z" fill="#EDAA69"/>
<path d="M118.94 194.455C118.94 194.455 118.468 199.074 118.468 200.928C118.468 202.782 118.673 212.214 118.673 214.085C118.673 215.939 119.145 216.979 119.145 216.979C119.145 216.979 124.406 216.573 125.273 212.979C126.139 209.401 124.8 201.692 124.8 201.692C124.8 201.692 125.604 200.928 125.462 199.35C125.336 197.773 124.721 197.285 124.721 197.074C124.721 196.862 124.863 193.008 124.926 192.813C125.005 192.601 118.94 194.455 118.94 194.455Z" fill="#FDC07D"/>
<path d="M121.681 215.597C121.618 214.491 121.209 214.491 121.146 214.702C121.083 214.914 121.681 215.597 120.673 216.491C120.515 216.638 120.358 216.719 120.2 216.8C120.768 216.686 121.492 216.491 122.232 216.166C121.917 216.101 121.697 215.889 121.681 215.597ZM124.8 201.692C124.8 201.692 125.604 200.928 125.462 199.35C125.336 197.773 124.721 197.285 124.721 197.073C124.721 196.862 124.863 193.008 124.926 192.813C124.973 192.666 122.185 193.479 120.389 194.016C119.807 194.39 119.271 194.732 118.861 194.975C118.83 195.284 118.798 195.707 118.751 196.195C119.192 196.732 119.87 197.415 120.642 197.773C122.043 198.391 123.713 197.561 123.713 197.561C123.713 197.561 124.249 198.114 124.375 199.35C124.501 200.586 124.17 202.31 124.17 202.31C124.17 202.31 124.91 208.1 124.706 212.36C124.658 213.515 124.406 214.361 124.076 214.962C124.611 214.442 125.036 213.808 125.241 212.995C126.139 209.401 124.8 201.692 124.8 201.692Z" fill="#EDAA69"/>
<path d="M95.7369 130.77C95.7369 136.966 90.1291 165.263 91.7358 179.721C93.3426 194.179 98.1313 198.716 98.5409 199.757C98.9347 200.798 106.149 202.034 108.339 196.862C110.544 191.707 104.543 183.852 104.543 178.68C104.543 173.509 108.938 153.066 110.749 149.147C112.545 145.227 113.758 165.881 113.758 172.484C113.758 179.087 116.766 191.072 116.766 194.374C116.766 197.675 125.572 199.952 127.163 190.454C128.77 180.957 126.769 137.161 125.556 129.94C124.359 122.703 114.75 115.483 114.75 115.483L95.7369 130.77Z" fill="#DF7A86"/>
<path d="M104.543 74.3864C104.543 74.3864 94.9336 77.2812 92.933 81.412C90.9324 85.5427 92.3344 148.545 93.5316 149.163C93.9254 149.374 108.938 152.676 108.938 152.676L110.339 134.396L111.143 152.464C111.143 152.464 125.336 146.008 126.155 144.821C128.549 141.308 131.558 87.3967 129.164 83.0708C126.769 78.7286 122.359 74.5978 117.16 73.3619C111.93 72.1096 104.543 74.3864 104.543 74.3864Z" fill="#F9B9BD"/>
<path d="M129.148 83.0544C128.093 81.1517 126.643 79.314 124.942 77.7202C124.296 80.0621 123.162 87.2015 123.761 108.034C124.564 136.543 121.555 145.618 121.555 145.618L111.048 150.074L111.159 152.432C111.159 152.432 125.352 145.975 126.171 144.788C128.549 141.308 131.542 87.3966 129.148 83.0544ZM103.361 148.626C103.361 148.626 101.329 143.991 99.7381 131.192C98.1313 118.394 98.1313 87.8194 98.1313 82.6479C98.1313 80.6801 97.1704 79.2814 95.9732 78.3057C94.6185 79.2164 93.4843 80.2735 92.9173 81.4119C90.9167 85.5427 92.3187 148.545 93.5159 149.163C93.9097 149.374 108.922 152.676 108.922 152.676L109.709 142.446L107.725 150.805L103.361 148.626Z" fill="#F7A5AA"/>
<path d="M109.536 68.8079C109.536 68.8079 103.739 71.4912 102.731 75.2154C101.723 78.9396 106.134 83.0704 106.134 83.0704L107.929 80.387L111.332 91.3319L115.538 79.3462L118.137 81.8181C118.137 81.8181 120.531 77.8988 118.735 73.5566C116.94 69.2144 114.545 68.8079 109.536 68.8079Z" fill="#F7A5AA"/>
<path d="M109.93 67.5723C109.93 67.5723 107.536 72.321 107.536 74.3864C107.536 76.4518 111.332 78.1106 111.332 78.1106C111.332 78.1106 114.341 77.4926 114.53 74.3864C114.734 71.2802 112.529 67.7837 112.529 67.7837L109.93 67.5723Z" fill="#E6A95D"/>
<path d="M99.5333 38.0388C99.5333 38.0388 105.33 40.5108 108.134 40.7222C110.938 40.9336 112.734 41.3402 112.734 41.3402L109.536 39.6814C109.536 39.6814 115.932 40.2994 119.539 40.2994C123.146 40.2994 123.335 39.0634 123.335 39.0634C123.335 39.0634 125.541 58.2698 123.131 63.848C120.736 69.4261 110.733 72.7275 110.733 72.7275C110.733 72.7275 102.731 70.2555 100.337 63.6365C97.9266 57.0338 99.5333 38.0388 99.5333 38.0388Z" fill="#FDC07D"/>
<path d="M114.482 53.7976C114.482 53.7976 115.286 55.3101 118.357 55.0336C121.429 54.7571 122.091 54.0741 122.091 54.0741C122.091 54.0741 121.555 56.3509 118.216 56.6274C114.876 56.9038 114.482 53.7976 114.482 53.7976Z" fill="#3C2415"/>
<path d="M122.28 49.1138C122.28 49.1138 120.405 47.3249 118.483 47.6014C116.546 47.8778 114.876 49.3252 114.876 49.3252C114.876 49.3252 114.278 49.6668 114.01 48.9837C113.742 48.3007 115.806 46.9183 118.279 46.7882C120.752 46.6419 122.28 49.1138 122.28 49.1138Z" fill="#3C2415"/>
<path d="M108.985 53.7976C108.985 53.7976 108.181 55.3101 105.11 55.0336C102.038 54.7571 101.376 54.0741 101.376 54.0741C101.376 54.0741 101.912 56.3509 105.251 56.6274C108.591 56.9038 108.985 53.7976 108.985 53.7976Z" fill="#3C2415"/>
<path d="M101.187 49.1138C101.187 49.1138 103.062 47.3249 104.984 47.6014C106.921 47.8778 108.591 49.3252 108.591 49.3252C108.591 49.3252 109.19 49.6668 109.457 48.9837C109.725 48.3007 107.662 46.9183 105.188 46.7882C102.715 46.6419 101.187 49.1138 101.187 49.1138Z" fill="#3C2415"/>
<path d="M108.071 66.9542C108.071 66.9542 110.339 66.4663 111.269 66.4663C112.198 66.4663 114.01 66.9542 114.01 66.9542C114.01 66.9542 110.418 67.5071 108.071 66.9542Z" fill="#3C2415"/>
<path d="M93.1062 131.941C93.1062 131.941 94.3191 134.689 94.8705 135.275C95.4375 135.876 96.7765 134.494 98.1155 135.893C99.4544 137.275 102.951 139.21 103.834 139.503C104.716 139.796 103.062 141.162 100.762 140.381C98.462 139.6 98.9031 139.324 98.9031 139.324C98.9031 139.324 102.747 146.87 103.361 148.61C103.975 150.35 103.014 150.627 101.628 148.643C100.242 146.642 99.2339 144.739 99.2339 144.739C99.2339 144.739 101.077 151.001 101.707 152.416C102.337 153.83 100.841 154.448 100.022 153.05C99.2024 151.651 97.1861 146.138 97.1861 146.138C97.1861 146.138 97.9895 151.684 98.2257 152.058C98.4463 152.448 97.5641 153.212 96.7923 151.895C96.0204 150.578 94.8232 146.463 94.8232 146.463C94.8232 146.463 94.9335 150.318 95.2485 151.18C95.5478 152.041 94.6814 153.017 93.8938 151.505C93.1062 149.992 89.1051 140.088 89.7824 138.608C90.444 137.129 90.9008 136.852 90.9008 136.852L89.9084 133.762L93.1062 131.941Z" fill="#FDC07D"/>
<path d="M103.849 139.519C102.952 139.226 99.4545 137.291 98.1313 135.909C96.7923 134.526 95.4534 135.892 94.8863 135.291C94.6342 135.014 94.2562 134.315 93.9096 133.615C92.7597 135.209 90.6646 138.25 89.814 140.104C89.9242 140.657 90.0818 141.324 90.3023 142.056C90.8064 142.267 91.594 142.446 92.8542 142.446C96.0992 142.446 97.7847 140.706 97.7847 140.706C97.7847 140.706 101.88 147.276 103.471 148.903C103.44 148.805 103.424 148.724 103.393 148.61C102.857 147.081 99.8168 141.048 99.0922 139.633C99.3127 139.795 99.7853 140.039 100.793 140.381C103.078 141.161 104.732 139.795 103.849 139.519Z" fill="#E29C63"/>
<path d="M87.8607 82.2412C87.8607 82.2412 82.6624 122.394 85.9704 133.03C86.5532 134.884 87.8449 139.015 88.6798 140.007C92.6022 144.658 98.2888 140.852 97.9265 138.071C96.0835 130.835 93.9411 128.997 95.1226 119.353C96.304 109.709 99.1552 85.0709 99.8483 82.046C100.557 79.0211 99.7065 76.7769 99.7065 76.7769C99.7065 76.7769 93.7048 77.6063 87.8607 82.2412Z" fill="#F9B9BD"/>
<path d="M127.966 131.941C127.966 131.941 126.753 134.689 126.202 135.275C125.635 135.876 124.296 134.494 122.957 135.893C121.618 137.275 118.121 139.21 117.239 139.503C116.357 139.796 118.011 141.162 120.311 140.381C122.611 139.6 122.17 139.324 122.17 139.324C122.17 139.324 118.326 146.87 117.712 148.61C117.097 150.35 118.058 150.627 119.444 148.643C120.831 146.642 121.839 144.739 121.839 144.739C121.839 144.739 119.996 151.001 119.366 152.416C118.735 153.83 120.232 154.448 121.051 153.05C121.87 151.651 123.902 146.138 123.902 146.138C123.902 146.138 123.099 151.684 122.863 152.058C122.642 152.448 123.524 153.212 124.296 151.895C125.068 150.578 126.265 146.463 126.265 146.463C126.265 146.463 126.155 150.318 125.84 151.18C125.541 152.041 126.407 153.017 127.195 151.505C127.982 149.992 131.983 140.088 131.306 138.608C130.644 137.129 130.188 136.852 130.188 136.852L131.18 133.762L127.966 131.941Z" fill="#FDC07D"/>
<path d="M117.223 139.519C118.121 139.226 121.618 137.291 122.941 135.909C124.28 134.526 125.619 135.893 126.186 135.291C126.438 135.014 126.816 134.315 127.163 133.616C128.313 135.209 130.408 138.251 131.259 140.105C131.148 140.657 130.991 141.324 130.77 142.056C130.266 142.268 129.479 142.446 128.218 142.446C124.973 142.446 123.288 140.706 123.288 140.706C123.288 140.706 119.192 147.276 117.601 148.903C117.633 148.805 117.649 148.724 117.68 148.61C118.216 147.081 121.256 141.048 121.98 139.633C121.76 139.796 121.287 140.04 120.279 140.381C117.995 141.162 116.341 139.796 117.223 139.519Z" fill="#E29C63"/>
<path d="M133.212 82.2412C133.212 82.2412 138.41 122.394 135.102 133.03C134.519 134.884 133.228 139.015 132.393 140.007C128.47 144.658 122.784 140.852 123.146 138.071C124.989 130.835 127.132 128.997 125.95 119.353C124.769 109.709 121.917 85.0709 121.224 82.046C120.515 79.0211 121.366 76.7769 121.366 76.7769C121.366 76.7769 127.368 77.6063 133.212 82.2412Z" fill="#F9B9BD"/>
<path d="M51.0314 102.927C51.0314 102.927 46.731 100.455 53.1738 98.4869C59.6165 96.5191 112.639 101.935 131.275 99.7229C149.91 97.5112 162.086 92.5672 165.914 98.4869C169.742 104.407 166.875 209.936 167.584 220.052C168.293 230.167 171.648 230.411 148.476 231.647C125.304 232.883 72.061 233.013 61.0815 231.289C53.0792 230.037 55.2058 227.939 54.0086 214.62C54.0086 214.604 48.6371 127.841 51.0314 102.927Z" fill="#293D3F"/>
<path d="M154.872 231.29C170.971 230.265 168.23 229.127 167.584 220.068C166.859 209.953 169.726 104.423 165.914 98.5035C165.741 98.2433 165.536 98.0319 165.347 97.8042C159.141 97.8205 151.343 97.853 143.294 97.9018C139.655 98.5523 135.654 99.2191 131.29 99.7395C121.855 100.862 103.613 100.032 87.0573 99.1865C72.8958 100.13 52.7012 101.463 52.7012 101.463C52.7012 101.463 61.0657 103.935 85.1828 105.415C109.3 106.895 116.231 110.343 126.501 110.099C136.772 109.855 137.969 117.255 135.575 123.174C133.181 129.094 125.777 129.094 125.777 129.094L122.201 130.33L119.444 134.135C119.444 134.135 119.57 137.486 121.713 136.754C123.855 136.022 121.476 140.706 121.476 140.706C121.476 140.706 122.784 139.779 125.588 138.266C128.392 136.754 128.392 139.958 130.062 138.722C131.731 137.486 132.204 138.722 136.504 133.046C140.805 127.37 150.114 121.955 150.114 129.354C150.114 136.754 149.39 162.4 136.268 176.451C123.13 190.502 114.53 205.79 96.8554 196.178C79.1811 186.567 63.6491 169.052 63.6491 169.052C63.6491 169.052 83.4657 207.513 109.268 205.302C135.071 203.09 147.484 174.727 152.493 170.532C157.502 166.336 150.335 211.709 132.424 219.597C114.514 227.484 93.7364 224.28 93.7364 224.28C93.7364 224.28 108.071 234.884 134.583 222.069C161.094 209.254 157.991 194.698 162.291 195.69C166.592 196.682 163.725 221.581 159.188 227.988C158.227 229.371 156.667 230.428 154.872 231.29Z" fill="#DE6A81"/>
<path d="M53.6621 90.8435C53.6621 90.8435 45.2975 95.0393 49.1254 100.715C52.9532 106.391 54.8593 103.919 59.396 103.919C63.9327 103.919 66.3271 102.195 85.4348 103.187C104.543 104.179 126.754 109.595 141.088 106.147C155.423 102.699 161.63 106.391 165.442 101.707C169.269 97.0234 172.609 91.5916 163.299 90.6158C153.99 89.6238 131.527 93.8196 111.474 94.0636C91.3892 94.3075 60.8294 89.3636 53.6621 90.8435Z" fill="#FCDAE1"/>
<path d="M85.4191 103.171C104.527 104.163 126.738 109.578 141.073 106.131C155.407 102.683 161.614 106.375 165.426 101.691C169.254 97.0073 172.593 91.5755 163.284 90.5997C162.244 90.4859 161.015 90.4534 159.676 90.4534C161.11 92.7627 165.127 98.0644 163.047 99.219C160.417 100.699 146.098 105.871 146.098 103.171C146.098 101.187 145.972 94.9094 145.53 91.4454C143.388 91.6568 141.136 91.9008 138.82 92.1284C138.662 94.6654 140.836 104.651 140.836 104.651C140.836 104.651 138.694 106.131 128.171 105.887C117.664 105.643 99.5175 104.407 96.8869 101.447C94.9021 99.2191 95.5007 95.2997 95.926 93.5108C95.2014 93.462 94.4925 93.4132 93.7679 93.3644L91.6413 94.0637L88.5381 100.975L59.396 103.935C63.9327 103.919 66.3113 102.195 85.4191 103.171Z" fill="#E2B5BF"/>
<path d="M142.727 97.0696C142.727 97.0848 142.743 97.1001 142.743 97.1153C142.743 97.1001 142.727 97.0848 142.727 97.0696Z" fill="#D1D3D4"/>
<path d="M152.383 89.9817C152.855 88.5793 153.123 87.1007 153.296 85.6373C153.328 85.302 153.659 84.0216 153.438 83.7167L151.233 80.6375L147.452 79.7991C147.074 79.7229 145.972 80.4699 145.657 80.6223C144.302 81.3082 142.994 82.1009 141.829 83.046C138.032 86.0946 138.017 90.6829 142.238 93.4572C146.444 96.2162 150.855 94.5242 152.383 89.9817Z" fill="#C56A4B"/>
<path d="M144.499 90.1975C146.406 91.4511 149.255 90.61 150.864 88.3189C152.472 86.0277 152.23 83.1542 150.323 81.9006C148.416 80.6471 145.566 81.4882 143.958 83.7793C142.349 86.0704 142.591 88.944 144.499 90.1975Z" fill="#F58961"/>
<path d="M138.962 82.1006C140.411 81.0641 142.506 80.2714 143.215 80.119C144.57 79.8294 145.972 79.7684 147.358 79.8599C147.799 79.8903 148.744 80.1952 149.154 80.0733C146.996 80.7287 144.837 81.5976 142.9 82.7256C142.317 83.061 141.766 83.4573 141.23 83.8841C140.821 84.2195 140.443 84.5853 139.986 84.8597C139.356 85.2255 138.379 85.6219 137.812 84.9359C136.993 83.9908 137.765 82.9695 138.962 82.1006Z" fill="#C56A4B"/>
<path d="M153.722 92.6794C154.462 91.094 154.84 88.9447 154.84 88.2435C154.856 86.9021 154.62 85.5607 154.242 84.265C154.116 83.8535 153.612 83.0303 153.659 82.6035C153.438 84.7833 153.013 87.0088 152.273 89.0667C152.052 89.6917 151.769 90.3014 151.453 90.8807C151.201 91.338 150.902 91.7648 150.729 92.2678C150.477 92.9385 150.304 93.9445 151.091 94.3561C152.225 94.9354 153.107 94.0055 153.722 92.6794Z" fill="#C56A4B"/>
<path d="M139.923 87.1919C139.923 87.1919 138.867 88.137 138.174 88.4571L137.591 88.5638C137.591 88.5638 136.693 88.4266 136.772 90.0577C136.851 91.6277 137.575 92.3747 138.19 92.5118C138.206 92.5118 138.206 92.5118 138.221 92.5271C138.237 92.5271 138.253 92.5271 138.269 92.5271L138.253 92.5423C138.253 92.5423 140.962 92.2375 142.002 91.018C142.427 90.4997 139.923 87.1919 139.923 87.1919ZM138.269 92.5271C138.284 92.5271 138.347 92.5271 138.442 92.5118C138.395 92.5271 138.332 92.5423 138.269 92.5271Z" fill="#C56A4B"/>
<path d="M137.192 90.6368C137.327 91.4771 137.756 92.1102 138.152 92.051C138.547 91.9917 138.759 91.2625 138.625 90.4223C138.49 89.582 138.061 88.9489 137.665 89.0082C137.27 89.0674 137.058 89.7966 137.192 90.6368Z" fill="#F58961"/>
<path d="M144.837 93.1217C144.05 94.5089 144.759 97.0545 144.759 97.0545L144.774 97.0393C144.79 97.0545 144.79 97.0697 144.806 97.085L144.822 97.1002C145.168 97.6033 146.161 97.9691 147.704 97.4661C149.311 96.9478 148.839 96.1856 148.839 96.1856L148.728 95.6216C148.791 94.89 149.295 93.579 149.295 93.579C149.295 93.579 145.184 92.5273 144.837 93.1217ZM144.711 96.8563C144.727 96.9478 144.759 97.0088 144.759 97.024C144.743 96.963 144.727 96.9173 144.711 96.8563Z" fill="#C56A4B"/>
<path d="M146.669 95.9432C145.812 96.132 145.19 96.5911 145.278 96.9687C145.367 97.3462 146.134 97.4993 146.991 97.3105C147.847 97.1218 148.47 96.6627 148.381 96.2851C148.292 95.9075 147.526 95.7545 146.669 95.9432Z" fill="#F58961"/>
<path d="M151.42 67.1683C153.335 68.4266 155.976 67.8942 157.32 65.9791C158.665 64.064 158.203 61.4915 156.288 60.2332C154.374 58.9749 151.733 59.5073 150.388 61.4224C149.044 63.3375 149.506 65.91 151.42 67.1683Z" fill="#C56A4B"/>
<path d="M152.491 65.6426C153.564 66.3474 155.043 66.0494 155.796 64.977C156.549 63.9045 156.29 62.4637 155.218 61.7589C154.145 61.054 152.666 61.3521 151.913 62.4245C151.16 63.497 151.419 64.9377 152.491 65.6426Z" fill="#F58961"/>
<path d="M164.488 75.7682C166.402 77.0265 169.044 76.4941 170.388 74.579C171.732 72.6639 171.27 70.0914 169.356 68.833C167.442 67.5747 164.8 68.1072 163.456 70.0223C162.112 71.9373 162.574 74.5099 164.488 75.7682Z" fill="#C56A4B"/>
<path d="M165.559 74.2424C166.631 74.9472 168.111 74.6492 168.864 73.5768C169.616 72.5043 169.357 71.0636 168.285 70.3587C167.213 69.6539 165.733 69.9519 164.981 71.0243C164.228 72.0968 164.487 73.5375 165.559 74.2424Z" fill="#F58961"/>
<path d="M149.307 83.7593C155.424 87.7802 163.228 86.9864 166.738 81.9863C170.248 76.9861 168.134 69.6732 162.017 65.6523C155.9 61.6314 148.096 62.4252 144.586 67.4253C141.076 72.4254 143.19 79.7384 149.307 83.7593Z" fill="#C56A4B"/>
<path d="M165.898 69.2659C167.379 72.6651 167.269 76.3998 165.205 79.3417C161.692 84.3415 153.879 85.1342 147.767 81.1252C146.208 80.1039 144.916 78.8692 143.908 77.5125C144.948 79.9057 146.791 82.1313 149.327 83.7775C155.439 87.8018 163.252 87.0091 166.765 81.9941C169.38 78.2594 168.86 73.2444 165.898 69.2659Z" fill="#A95B3F"/>
<path d="M151.121 74.3913C151.423 74.59 151.965 74.3276 152.332 73.8053C152.699 73.283 152.751 72.6986 152.449 72.4999C152.146 72.3012 151.604 72.5635 151.238 73.0858C150.871 73.6081 150.819 74.1926 151.121 74.3913Z" fill="#753E27"/>
<path d="M157.641 78.683C157.944 78.8817 158.486 78.6193 158.853 78.097C159.219 77.5748 159.271 76.9903 158.969 76.7916C158.667 76.5929 158.125 76.8553 157.758 77.3776C157.391 77.8999 157.339 78.4843 157.641 78.683Z" fill="#753E27"/>
<path d="M153.769 79.2198L151.737 77.8936C151.091 77.4668 150.209 77.6344 149.768 78.2594C149.327 78.8844 149.5 79.738 150.146 80.1649C150.587 80.4545 151.123 80.4697 151.564 80.2563C151.532 80.7289 151.737 81.2014 152.178 81.4911C152.824 81.9179 153.706 81.7502 154.147 81.1252C154.572 80.5002 154.415 79.6466 153.769 79.2198Z" fill="#F58961"/>
<path d="M153.218 78.1526C153.186 78.1374 153.139 78.1069 153.092 78.0612C152.682 77.7868 151.8 77.2075 151.642 77.7715C151.642 77.7868 151.642 77.802 151.627 77.8173C151.532 78.2898 151.816 78.7014 152.036 78.9605C152.194 79.1434 152.399 79.2654 152.619 79.3416C152.95 79.4483 153.454 79.5398 153.864 79.2806C154.431 78.9453 153.501 78.3356 153.218 78.1526Z" fill="#753E27"/>
<path d="M186.195 84.2195L187.581 81.3527C187.486 81.2602 185.2 79.2072 181.797 78.7449C178.878 78.3565 174.587 79.0963 170.256 84.5709C169.731 85.2367 169.718 86.3834 170.243 87.0677C170.713 87.6966 171.467 87.6966 171.964 87.0862C179.12 78.042 185.899 83.9605 186.195 84.2195Z" fill="#FDD4B5"/>
<path d="M171.789 82.8137C171.278 83.3316 170.767 83.9234 170.243 84.5708C169.718 85.2366 169.704 86.3833 170.229 87.0676C170.7 87.6965 171.453 87.6965 171.951 87.0861C172.502 86.3833 173.054 85.7915 173.605 85.2551C173.269 83.757 172.408 83.0911 171.789 82.8137Z" fill="#776970"/>
<path d="M203.748 87.4191L201.717 85.4216C201.65 85.5511 200.063 88.6213 199.605 93.2821C199.215 97.2771 199.605 103.196 203.425 109.354C203.896 110.113 204.73 110.15 205.241 109.465C205.712 108.837 205.752 107.801 205.322 107.117C199 96.9257 203.546 87.8075 203.748 87.4191Z" fill="#FDD4B5"/>
<path d="M202.215 107.153C202.578 107.875 202.982 108.596 203.439 109.336C203.91 110.094 204.744 110.131 205.255 109.447C205.725 108.818 205.766 107.782 205.335 107.098C204.851 106.321 204.434 105.526 204.071 104.768C202.941 105.156 202.444 106.303 202.215 107.153Z" fill="#776970"/>
<path d="M183.074 55.9403C183.074 55.9403 175.932 49.6519 171.292 53.5544C166.651 57.4569 169.422 67.9437 177.358 75.4528C182.469 80.28 187.876 63.098 187.876 63.098L183.074 55.9403Z" fill="#FDD4B5"/>
<path d="M211.94 89.2502C213.231 85.1812 211.886 80.4464 208.927 78.6524H208.913C209.142 78.227 209.344 77.7646 209.505 77.2467C210.675 73.5847 209.465 69.3123 206.802 67.7217C206.425 67.4997 206.035 67.3333 205.645 67.2408C205.578 63.9671 204.165 60.8784 201.838 59.4728C200.291 58.548 198.624 58.5295 197.144 59.2508C196.888 57.7342 196.135 56.4026 195.019 55.7182C193.485 54.7935 191.75 55.4038 190.714 57.0684C190.136 55.8847 189.316 54.9045 188.293 54.2941C186.545 53.2399 184.621 53.4988 183.101 54.738C182.927 54.5161 182.725 54.3126 182.496 54.1461C181.164 53.2029 179.523 53.9242 178.837 55.7552C178.326 57.1424 178.488 58.7515 179.174 59.8797C177.936 59.9722 176.78 60.9894 176.241 62.654C175.757 64.1891 175.919 65.8722 176.551 67.1483C175.609 67.9436 174.816 69.1273 174.345 70.6254C173.094 74.5279 174.399 79.0778 177.237 80.7978C177.425 80.9088 177.613 81.0013 177.802 81.0938C177.089 83.905 178.057 87.0492 180.075 88.2699C180.976 88.8063 181.945 88.8803 182.832 88.5658C182.98 91.784 184.406 94.7802 186.706 96.1674C187.89 96.8887 189.154 97.0737 190.351 96.7962C191.024 97.8135 191.844 98.6458 192.813 99.2376C195.422 100.81 198.341 100.125 200.399 97.7765C200.601 97.9984 200.829 98.1834 201.085 98.3313C202.807 99.3671 204.797 98.2943 205.551 95.927C205.752 95.2981 205.833 94.6323 205.833 94.0034C208.335 94.4473 210.864 92.5978 211.94 89.2502Z" fill="#FCF1CD"/>
<path d="M178.044 59.7503C178.004 59.8058 178.649 62.0437 178.676 62.2102C178.945 63.5973 178.69 65.7428 179.927 66.1312C181.501 66.612 182.752 64.5406 182.402 62.4506C182.12 60.7675 181.259 59.4359 180.411 58.2337C179.994 57.6418 179.55 57.0685 179.133 56.4396C178.959 56.1807 178.057 55.145 178.071 54.8121C178.071 54.7936 178.044 59.7503 178.044 59.7503Z" fill="#FDD4B5"/>
<path d="M169.866 59.6023C169.866 59.6023 170.606 61.2669 172.139 60.86C172.139 60.86 170.471 62.1361 169.866 59.6023Z" fill="#D0976F"/>
<path d="M175.636 57.1426C175.97 57.1426 176.241 56.77 176.241 56.3103C176.241 55.8507 175.97 55.478 175.636 55.478C175.302 55.478 175.031 55.8507 175.031 56.3103C175.031 56.77 175.302 57.1426 175.636 57.1426Z" fill="#776970"/>
</svg>
