<svg width="374" height="338" viewBox="0 0 374 338" fill="none" xmlns="http://www.w3.org/2000/svg">
<g clip-path="url(#clip0_638_1926)">
<path d="M373.995 -0.00390625H0.00506592V338H373.995V-0.00390625Z" fill="#F7F3F0"/>
<path d="M323.842 236.78C333.515 236.78 341.356 234.942 341.356 232.674C341.356 230.407 333.515 228.569 323.842 228.569C314.169 228.569 306.328 230.407 306.328 232.674C306.328 234.942 314.169 236.78 323.842 236.78Z" fill="#B3B3B3"/>
<path d="M335.934 119.812C335.934 119.812 332.865 118.899 332.271 114.191C331.677 109.483 338.062 110.762 339.177 118.085L335.934 119.812Z" fill="#F0A379"/>
<path d="M308.052 160.501C307.388 160.501 306.738 160.14 306.356 159.48L299.987 148.493C299.642 147.898 299.577 147.158 299.813 146.502L305.064 131.926C305.472 130.795 306.638 130.241 307.669 130.688C308.7 131.135 309.206 132.414 308.798 133.545L303.923 147.077L309.744 157.117C310.339 158.143 310.062 159.504 309.127 160.156C308.793 160.39 308.42 160.501 308.052 160.501Z" fill="#F0A379"/>
<path d="M343.673 138.123C343.359 138.123 343.042 138.042 342.75 137.876L329.292 130.228C328.308 129.668 327.923 128.34 328.433 127.26C328.944 126.18 330.155 125.758 331.139 126.318L339.794 131.237L335.353 119.114C334.94 117.986 335.439 116.704 336.468 116.25C337.496 115.797 338.665 116.344 339.078 117.472L345.536 135.1C345.849 135.955 345.645 136.932 345.024 137.551C344.646 137.928 344.162 138.123 343.673 138.123Z" fill="#F0A379"/>
<path d="M319.161 165.12L325.702 194.641L321.942 224.201L327.332 225.601L332.244 195.004L329.906 165.12H319.161Z" fill="#1A365E"/>
<path d="M329.903 226.868C328.289 226.427 327.308 224.634 327.711 222.865L327.995 221.617L322.221 220.036L321.208 224.488L320.675 226.831L320.467 227.744C320.317 228.404 320.683 229.073 321.285 229.238L332.735 232.373L332.788 232.138C333.318 229.809 332.026 227.45 329.903 226.868Z" fill="#797D86"/>
<path d="M320.542 227.416L320.467 227.744C320.317 228.404 320.683 229.073 321.285 229.237L332.734 232.372L332.788 232.138C332.89 231.689 332.924 231.238 332.898 230.799L320.542 227.416Z" fill="#2B2B2B"/>
<path d="M328.603 225.766L325.043 224.791C324.492 224.641 324.158 224.029 324.295 223.425C324.432 222.821 324.99 222.454 325.54 222.605L327.677 223.189C328.463 223.405 328.942 224.279 328.745 225.141L328.603 225.766Z" fill="#2B2B2B"/>
<path d="M310.931 165.12L312.679 192.972L313.21 223.981H318.693L319.777 193.367L321.676 165.12H310.931Z" fill="#1A365E"/>
<path d="M331.655 166.508H309.182L309.347 126.138C309.351 125.246 310.106 124.525 311.038 124.525H328.617C329.753 124.525 330.68 125.393 330.706 126.481L331.655 166.508Z" fill="#5DC4C9"/>
<path d="M321.502 115.134H317.704V125.491H321.502V115.134Z" fill="#F0A379"/>
<path d="M319.292 129.76H321.197C323.833 129.76 325.969 127.416 325.969 124.525H314.519C314.519 127.416 316.656 129.76 319.292 129.76Z" fill="#1A365E"/>
<path d="M321.188 128.717H319.3C317.173 128.717 315.448 126.825 315.448 124.491H325.041C325.041 126.825 323.316 128.717 321.188 128.717Z" fill="#F0A379"/>
<path d="M312.99 110.143C314.231 110.143 315.238 109.039 315.238 107.678C315.238 106.316 314.231 105.213 312.99 105.213C311.749 105.213 310.743 106.316 310.743 107.678C310.743 109.039 311.749 110.143 312.99 110.143Z" fill="#F0A379"/>
<path d="M312.99 109.282C313.798 109.282 314.453 108.564 314.453 107.678C314.453 106.792 313.798 106.073 312.99 106.073C312.182 106.073 311.528 106.792 311.528 107.678C311.528 108.564 312.182 109.282 312.99 109.282Z" fill="#D39271"/>
<path d="M327.878 109.282C329.12 109.282 330.126 108.178 330.126 106.817C330.126 105.455 329.12 104.352 327.878 104.352C326.637 104.352 325.631 105.455 325.631 106.817C325.631 108.178 326.637 109.282 327.878 109.282Z" fill="#F0A379"/>
<path d="M327.878 108.421C328.686 108.421 329.341 107.703 329.341 106.817C329.341 105.931 328.686 105.213 327.878 105.213C327.071 105.213 326.416 105.931 326.416 106.817C326.416 107.703 327.071 108.421 327.878 108.421Z" fill="#D39271"/>
<path d="M321.199 118.937C317.278 118.937 314.099 115.45 314.099 111.149V96.7957H328.299V111.149C328.299 115.45 325.12 118.937 321.199 118.937Z" fill="#F0A379"/>
<path d="M315.86 99.8599V109.922C315.86 109.922 315.567 114.671 322.318 114.671C322.318 114.671 328.299 115.395 328.299 110.163C328.299 110.163 330.024 117.649 328.299 118.937C326.575 120.225 316.521 122.962 314.393 116.764C312.264 110.566 313.659 100.021 313.659 100.021L315.86 99.8599Z" fill="#4D371F"/>
<path d="M328.299 100.101C328.299 100.101 313.659 104.287 308.228 98.9745C308.228 98.9745 311.688 96.9119 314.274 94.7653C317.126 92.3974 320.709 91.2807 324.258 91.7604C327.758 92.2333 330.666 94.1853 328.299 100.101Z" fill="#4D371F"/>
<path d="M323.933 107.014C323.933 107.014 324.538 110.032 325.116 110.545C325.694 111.058 323.603 112.598 322.557 111.451C321.511 110.304 323.933 107.014 323.933 107.014Z" fill="#D39271"/>
<path d="M341.46 130.943L338.926 136.352L328.076 130.237C326.715 129.47 326.178 127.636 326.877 126.143C327.577 124.649 329.248 124.06 330.61 124.828L341.46 130.943Z" fill="#5DC4C9"/>
<path d="M308.731 156.417C308.731 156.417 311.903 156.182 313.866 160.419C315.829 164.656 309.413 165.734 306.179 159.211L308.731 156.417Z" fill="#F0A379"/>
<path d="M302.253 138.235L307.206 140.924L312.621 128.923C313.298 127.423 312.738 125.605 311.37 124.862C310.002 124.12 308.345 124.734 307.668 126.234L302.253 138.235Z" fill="#5DC4C9"/>
<path d="M322.172 228.569C320.509 228.569 319.161 227.091 319.161 225.267V223.981H313.21V228.569V230.984V231.925C313.21 232.606 313.713 233.157 314.333 233.157H326.134V232.916C326.134 230.515 324.36 228.569 322.172 228.569Z" fill="#797D86"/>
<path d="M313.21 231.588V231.926C313.21 232.606 313.713 233.157 314.333 233.157H326.134V232.916C326.134 232.453 326.068 232.007 325.945 231.588H313.21Z" fill="#2B2B2B"/>
<path d="M320.667 227.845H316.998C316.431 227.845 315.971 227.34 315.971 226.718C315.971 226.096 316.431 225.591 316.998 225.591H319.199C320.01 225.591 320.667 226.312 320.667 227.201V227.845Z" fill="#2B2B2B"/>
<path d="M302.253 138.235L307.206 140.924L307.591 140.07L302.616 137.432L302.253 138.235Z" fill="#1A365E"/>
<path d="M341.46 130.943L338.987 136.222L338.413 135.546L340.657 130.49L341.46 130.943Z" fill="#1A365E"/>
<path d="M168.93 236.78C178.603 236.78 186.444 234.942 186.444 232.674C186.444 230.407 178.603 228.569 168.93 228.569C159.257 228.569 151.416 230.407 151.416 232.674C151.416 234.942 159.257 236.78 168.93 236.78Z" fill="#B3B3B3"/>
<path d="M176.302 126.421C176.302 126.421 179.894 126.363 180.885 132.822L181.148 137.554C181.226 138.966 181.826 140.282 182.81 141.197L188.645 146.627L186.895 149.945L180.464 144.597C178.254 142.758 176.9 139.941 176.765 136.902L176.302 126.421Z" fill="#FFBCA4"/>
<path d="M176.202 107.769C176.615 104.782 175.738 101.754 173.82 99.5857C171.573 97.0458 168.119 94.6562 163.876 96.6076C160.457 98.1797 156.877 103.805 156.713 107.867C156.389 115.933 156.393 130.963 150.888 133.89C150.888 133.89 164.234 136.383 169.505 130.065C173.301 125.515 175.352 113.908 176.202 107.769Z" fill="#4D371F"/>
<path d="M167.665 168.781L169.414 197.704L170.895 227.922C170.95 229.035 171.759 229.906 172.737 229.906C173.73 229.906 174.544 229.012 174.581 227.882L175.543 198.114L176.423 168.781H167.665Z" fill="#FFBCA4"/>
<path d="M170.882 227.642L170.442 233.226H182.771V232.793C182.771 231.273 181.853 229.938 180.521 229.522L174.515 227.642C173.246 228.165 172.023 228.273 170.882 227.642Z" fill="#0083CA"/>
<path d="M156.318 168.781L158.067 197.704L159.548 227.922C159.603 229.035 160.411 229.906 161.39 229.906C162.382 229.906 163.197 229.012 163.234 227.882L164.196 198.114L165.076 168.781H156.318Z" fill="#FFBCA4"/>
<path d="M178.346 164.53C170.855 165.88 163.364 165.88 155.873 164.53L156.038 127.673C156.042 126.859 156.798 126.201 157.729 126.201H175.308C176.444 126.201 177.371 126.994 177.397 127.986L178.346 164.53Z" fill="#3090CD"/>
<path d="M168.193 116.802H164.395V127.16H168.193V116.802Z" fill="#FFBCA4"/>
<path d="M167.879 130.386H165.991C163.864 130.386 162.139 128.494 162.139 126.16H171.732C171.732 128.494 170.007 130.386 167.879 130.386Z" fill="#FFBCA4"/>
<path d="M160.406 114.061C161.647 114.061 162.653 112.957 162.653 111.596C162.653 110.235 161.647 109.131 160.406 109.131C159.165 109.131 158.159 110.235 158.159 111.596C158.159 112.957 159.165 114.061 160.406 114.061Z" fill="#FFBCA4"/>
<path d="M160.406 113.2C161.214 113.2 161.868 112.482 161.868 111.596C161.868 110.71 161.214 109.992 160.406 109.992C159.598 109.992 158.944 110.71 158.944 111.596C158.944 112.482 159.598 113.2 160.406 113.2Z" fill="#F4A989"/>
<path d="M175.218 115.72C176.459 115.72 177.466 114.616 177.466 113.254C177.466 111.893 176.459 110.789 175.218 110.789C173.977 110.789 172.971 111.893 172.971 113.254C172.971 114.616 173.977 115.72 175.218 115.72Z" fill="#FFBCA4"/>
<path d="M175.218 114.858C176.026 114.858 176.681 114.14 176.681 113.254C176.681 112.369 176.026 111.65 175.218 111.65C174.41 111.65 173.756 112.369 173.756 113.254C173.756 114.14 174.41 114.858 175.218 114.858Z" fill="#F4A989"/>
<path d="M167.657 123.621C163.752 123.233 160.872 119.447 161.225 115.163L162.041 105.272C162.336 101.691 165.223 99.0499 168.488 99.3738L170.806 99.6037C174.071 99.9276 176.479 103.094 176.184 106.675L175.368 116.566C175.015 120.849 171.562 124.008 167.657 123.621Z" fill="#FFBCA4"/>
<path d="M171.359 112.016C171.359 112.016 171.714 115.082 172.247 115.65C172.781 116.218 170.571 117.545 169.624 116.299C168.677 115.053 171.359 112.016 171.359 112.016Z" fill="#F4A989"/>
<path d="M155.873 164.53L154.081 198.212C163.07 199.721 172.06 199.721 181.05 198.212L178.346 164.53C170.623 166.363 163.132 166.363 155.873 164.53Z" fill="#F190AC"/>
<path d="M159.535 227.642L159.095 233.226H171.424V232.793C171.424 231.273 170.506 229.938 169.174 229.522L163.168 227.642C161.899 228.165 160.676 228.273 159.535 227.642Z" fill="#0083CA"/>
<path d="M160.854 166.389C160.854 166.389 163.799 167.702 163.871 172.454C163.942 177.207 157.745 175.091 157.444 167.673L160.854 166.389Z" fill="#FFBCA4"/>
<path d="M157.434 167.958L161.143 166.631L158.685 156.959C157.387 151.852 157.142 146.493 157.97 141.27L159.794 129.761C160.11 128.123 159.157 126.515 157.664 126.167C156.171 125.82 154.705 126.866 154.388 128.503L153.015 142.211C152.532 147.036 152.952 151.918 154.248 156.559L157.434 167.958Z" fill="#FFBCA4"/>
<path d="M185.201 153.565H171.121C170.285 153.565 169.657 152.726 169.821 151.827L173.779 130.072C173.897 129.425 174.415 128.958 175.017 128.958H189.097C189.933 128.958 190.561 129.797 190.397 130.697L186.439 152.451C186.322 153.099 185.803 153.565 185.201 153.565Z" fill="#FFC851"/>
<path d="M189.084 148.925C188.268 149.703 187.099 149.863 186.141 149.314C185.155 148.749 183.989 147.655 183.17 145.539C181.712 141.773 186.302 140.81 189.406 144.921C190.312 146.121 190.156 147.903 189.084 148.925Z" fill="#FFBCA4"/>
<path d="M170.806 99.6037L168.488 99.3738C165.223 99.0499 162.336 101.691 162.041 105.272L161.652 109.992C161.652 109.992 168.956 110.163 173.755 105.213L176.148 107.104L176.183 106.675C176.479 103.093 174.071 99.9274 170.806 99.6037Z" fill="#4D371F"/>
<path d="M269.23 236.78C278.903 236.78 286.745 234.942 286.745 232.674C286.745 230.407 278.903 228.569 269.23 228.569C259.557 228.569 251.716 230.407 251.716 232.674C251.716 234.942 259.557 236.78 269.23 236.78Z" fill="#B3B3B3"/>
<path d="M265.882 168.781L267.631 197.704L269.112 227.922C269.167 229.035 269.975 229.906 270.954 229.906C271.946 229.906 272.761 229.012 272.797 227.882L273.759 198.114L274.64 168.781H265.882Z" fill="#F0A379"/>
<path d="M269.099 227.642L268.659 233.226H280.988V232.793C280.988 231.273 280.069 229.938 278.737 229.522L272.732 227.642C271.463 228.165 270.24 228.273 269.099 227.642Z" fill="#D84C61"/>
<path d="M285.782 168.833C285.085 168.833 284.407 168.434 284.037 167.723L275.808 151.914C275.648 151.608 275.558 151.264 275.545 150.912L274.961 135.208C274.916 133.993 275.778 132.968 276.885 132.918C277.993 132.87 278.928 133.813 278.973 135.029L279.537 150.197L287.524 165.539C288.073 166.595 287.739 167.94 286.776 168.543C286.462 168.74 286.119 168.833 285.782 168.833Z" fill="#F0A379"/>
<path d="M280.961 164.964L286.4 161.44L281.671 151.968C280.835 150.295 280.332 148.448 280.192 146.547L278.961 129.752C278.952 128.079 277.707 126.73 276.181 126.741C274.655 126.751 273.426 128.116 273.435 129.79L274.723 149.056C274.842 150.829 275.277 152.56 276.006 154.149L280.961 164.964Z" fill="#D84C61"/>
<path d="M259.727 101.111C259.454 101.406 259.096 101.573 258.719 101.651C257.954 101.808 256.769 103.257 257.626 111.339C258.837 122.749 257.241 123.775 256.03 123.594C256.03 123.594 258.268 125.345 260.176 123.594C260.176 123.594 260.048 125.647 259.168 125.948C259.168 125.948 261.069 127.277 264.026 123.835C264.026 123.835 265.958 125.767 266.856 125.707C266.856 125.707 270.331 123.352 270.941 122.326C270.941 122.326 272.601 125.164 275.599 124.56C275.599 124.56 273.726 122.266 273.602 120.877C273.602 120.877 275.074 122.447 276.945 121.904C276.945 121.904 275.566 121.602 275.485 113.029C275.485 113.029 276.674 104.275 275.599 102.102C274.58 100.043 262.915 97.6587 259.727 101.111Z" fill="#938780"/>
<path d="M256.364 168.781L258.113 197.704L259.594 227.922C259.649 229.035 260.457 229.906 261.436 229.906C262.428 229.906 263.243 229.012 263.28 227.882L264.242 198.114L265.122 168.781H256.364Z" fill="#F0A379"/>
<path d="M250.113 169.088C249.053 169.088 248.167 168.178 248.11 167.003L247.229 148.825C247.212 148.473 247.273 148.122 247.405 147.8L253.313 133.481C253.77 132.373 254.959 131.881 255.969 132.383C256.979 132.884 257.428 134.189 256.971 135.296L251.265 149.127L252.119 166.769C252.178 167.984 251.328 169.02 250.221 169.085C250.185 169.087 250.149 169.088 250.113 169.088Z" fill="#F0A379"/>
<path d="M278.154 164.53C270.834 166.541 263.347 166.588 255.681 164.53L255.846 127.673C255.85 126.859 256.606 126.201 257.537 126.201H275.117C276.252 126.201 277.179 126.994 277.205 127.986L278.154 164.53Z" fill="#ED5665"/>
<path d="M268.001 116.802H264.203V127.16H268.001V116.802Z" fill="#F0A379"/>
<path d="M267.688 130.386H265.8C263.672 130.386 261.947 128.494 261.947 126.16H271.54C271.54 128.494 269.815 130.386 267.688 130.386Z" fill="#F0A379"/>
<path d="M259.49 114.8C260.731 114.8 261.737 113.696 261.737 112.335C261.737 110.974 260.731 109.87 259.49 109.87C258.248 109.87 257.242 110.974 257.242 112.335C257.242 113.696 258.248 114.8 259.49 114.8Z" fill="#F0A379"/>
<path d="M259.49 113.939C260.297 113.939 260.952 113.221 260.952 112.335C260.952 111.449 260.297 110.731 259.49 110.731C258.682 110.731 258.027 111.449 258.027 112.335C258.027 113.221 258.682 113.939 259.49 113.939Z" fill="#D39271"/>
<path d="M274.378 114.988C275.619 114.988 276.625 113.885 276.625 112.523C276.625 111.162 275.619 110.058 274.378 110.058C273.136 110.058 272.13 111.162 272.13 112.523C272.13 113.885 273.136 114.988 274.378 114.988Z" fill="#F0A379"/>
<path d="M274.378 114.127C275.185 114.127 275.84 113.409 275.84 112.523C275.84 111.637 275.185 110.919 274.378 110.919C273.57 110.919 272.915 111.637 272.915 112.523C272.915 113.409 273.57 114.127 274.378 114.127Z" fill="#D39271"/>
<path d="M267.698 121.981C263.777 121.981 260.598 118.494 260.598 114.193V101.453H274.799V114.193C274.799 118.494 271.62 121.981 267.698 121.981Z" fill="#F0A379"/>
<path d="M270.432 111.671C270.432 111.671 271.038 114.689 271.615 115.203C272.193 115.716 270.102 117.255 269.056 116.108C268.01 114.961 270.432 111.671 270.432 111.671Z" fill="#D39271"/>
<path d="M286.326 164.53C286.326 164.53 289.493 164.846 290.823 169.369C292.153 173.893 285.662 173.849 283.405 166.848L286.326 164.53Z" fill="#F0A379"/>
<path d="M251.595 166.495C251.595 166.495 254.193 168.504 253.285 173.151C252.376 177.799 246.774 174.202 248.008 166.901L251.595 166.495Z" fill="#F0A379"/>
<path d="M246.491 163.023L252.793 162.553L252.489 153.108C252.399 150.313 252.849 147.53 253.807 144.938L259.12 130.576C259.797 129.076 259.237 127.258 257.869 126.516C256.501 125.773 254.844 126.387 254.167 127.887L247.869 144.576C246.959 146.985 246.491 149.567 246.491 152.174V163.023H246.491Z" fill="#ED5665"/>
<path d="M270.836 109.974H259.5C259.287 109.974 259.114 109.785 259.114 109.551C259.114 109.317 259.287 109.127 259.5 109.127H270.836V109.974Z" fill="#E0E0E0"/>
<path d="M263.339 109.551V110.35C263.339 110.984 263.673 111.498 264.084 111.498H268.254C268.665 111.498 268.999 110.984 268.999 110.35V108.752C268.999 108.118 268.665 107.604 268.254 107.604H264.084C263.673 107.604 263.339 108.118 263.339 108.752V109.551Z" fill="#F7F3F0"/>
<path d="M268.254 111.752H264.084C263.537 111.752 263.108 111.136 263.108 110.349V108.752C263.108 107.966 263.537 107.349 264.084 107.349H268.254C268.802 107.349 269.23 107.966 269.23 108.752V110.349C269.23 111.136 268.802 111.752 268.254 111.752ZM264.084 107.858C263.806 107.858 263.571 108.267 263.571 108.752V110.349C263.571 110.834 263.806 111.244 264.084 111.244H268.254C268.532 111.244 268.767 110.834 268.767 110.349V108.752C268.767 108.267 268.532 107.858 268.254 107.858H264.084Z" fill="#E0E0E0"/>
<path d="M275.702 111.498H271.63C271.192 111.498 270.837 111.109 270.837 110.628V108.474C270.837 107.993 271.192 107.604 271.63 107.604H275.702C276.14 107.604 276.496 107.993 276.496 108.474V110.628C276.496 111.109 276.14 111.498 275.702 111.498Z" fill="#F7F3F0"/>
<path d="M275.751 111.752H271.581C271.042 111.752 270.605 111.273 270.605 110.682V108.42C270.605 107.829 271.042 107.35 271.581 107.35H275.751C276.29 107.35 276.727 107.829 276.727 108.42V110.682C276.727 111.273 276.29 111.752 275.751 111.752ZM271.581 107.858C271.298 107.858 271.068 108.109 271.068 108.42V110.682C271.068 110.992 271.298 111.244 271.581 111.244H275.751C276.034 111.244 276.264 110.992 276.264 110.682V108.42C276.264 108.109 276.034 107.858 275.751 107.858H271.581Z" fill="#E0E0E0"/>
<path d="M269.24 102.824C269.24 102.824 261.809 106.952 259.718 107.227C257.626 107.502 253.058 107.227 253.058 107.227C253.058 107.227 255.15 105.52 256.114 104.426C257.078 103.333 257.242 103.038 256.415 103.374C253.426 104.59 253.333 104.269 253.333 104.269C253.333 104.269 257.992 100.829 258.91 99.1774C259.699 97.7575 263.996 93.0862 267.564 94.5427C268.419 94.8919 269.353 95.0161 270.229 94.7343C271.058 94.4676 272.511 94.8608 274.964 97.6638C278.631 101.854 277.661 103.65 279.697 104.269C279.697 104.269 279.092 104.131 277.661 103.65C277.661 103.65 278.376 106.195 279.917 106.539C279.917 106.539 274.138 107.778 269.24 102.824Z" fill="#B2A499"/>
<path d="M255.682 164.53L251.381 198.212H284.57L278.154 164.53C270.784 166.238 263.3 166.328 255.682 164.53Z" fill="#00A8DE"/>
<path d="M259.581 227.642L259.141 233.226H271.47V232.793C271.47 231.273 270.552 229.938 269.22 229.522L263.214 227.642C261.945 228.165 260.722 228.273 259.581 227.642Z" fill="#E25969"/>
<path d="M277.669 145.852C270.372 146.886 263.075 146.886 255.778 145.852V142.924C263.084 144.184 270.381 144.187 277.669 142.924V145.852Z" fill="#FFC851"/>
<path d="M277.669 151.024C270.459 152.123 263.16 152.097 255.778 151.024V148.096C263.16 149.289 270.459 149.318 277.669 148.096V151.024Z" fill="#FFC851"/>
<path d="M112.718 236.78C123.829 236.78 132.835 234.942 132.835 232.674C132.835 230.407 123.829 228.569 112.718 228.569C101.608 228.569 92.6014 230.407 92.6014 232.674C92.6014 234.942 101.608 236.78 112.718 236.78Z" fill="#B3B3B3"/>
<path d="M101.339 160.139C100.476 160.139 99.6465 159.606 99.2485 158.694L92.7539 143.813C92.398 142.998 92.464 142.036 92.927 141.289L102.629 125.622C103.348 124.462 104.788 124.16 105.846 124.948C106.905 125.737 107.18 127.317 106.461 128.478L97.5069 142.936L103.427 156.5C103.979 157.766 103.492 159.283 102.338 159.889C102.015 160.058 101.675 160.139 101.339 160.139Z" fill="#C98461"/>
<path d="M129.531 160.139C129.196 160.139 128.856 160.058 128.533 159.889C127.379 159.283 126.892 157.766 127.444 156.5L133.339 142.993L123.736 128.665C122.978 127.534 123.2 125.944 124.231 125.113C125.261 124.282 126.711 124.525 127.469 125.655L137.894 141.211C138.401 141.967 138.486 142.967 138.117 143.813L131.622 158.694C131.224 159.606 130.395 160.138 129.531 160.139Z" fill="#C98461"/>
<path d="M103.65 165.12V191.115L112.822 191.381L115.363 165.12H103.65Z" fill="#12242E"/>
<path d="M114.857 165.12L116.903 191.319H125.066L127.258 165.12H114.857Z" fill="#12242E"/>
<path d="M127.752 165.12H103.114L103.295 126.084C103.299 125.222 104.127 124.525 105.148 124.525H124.421C125.666 124.525 126.683 125.364 126.711 126.416L127.752 165.12Z" fill="#6DC065"/>
<path d="M114.617 128.927C113.568 128.927 112.718 127.994 112.718 126.844V117.336H116.516V126.844C116.516 127.994 115.666 128.927 114.617 128.927Z" fill="#C98461"/>
<path d="M108.004 112.345C109.246 112.345 110.252 111.241 110.252 109.88C110.252 108.518 109.246 107.415 108.004 107.415C106.763 107.415 105.757 108.518 105.757 109.88C105.757 111.241 106.763 112.345 108.004 112.345Z" fill="#C98461"/>
<path d="M108.004 111.484C108.812 111.484 109.467 110.766 109.467 109.88C109.467 108.994 108.812 108.276 108.004 108.276C107.197 108.276 106.542 108.994 106.542 109.88C106.542 110.766 107.197 111.484 108.004 111.484Z" fill="#A86E54"/>
<path d="M123.298 111.681C124.539 111.681 125.545 110.577 125.545 109.216C125.545 107.854 124.539 106.751 123.298 106.751C122.057 106.751 121.05 107.854 121.05 109.216C121.05 110.577 122.057 111.681 123.298 111.681Z" fill="#C98461"/>
<path d="M123.298 110.82C124.106 110.82 124.76 110.102 124.76 109.216C124.76 108.33 124.106 107.612 123.298 107.612C122.49 107.612 121.836 108.33 121.836 109.216C121.836 110.102 122.49 110.82 123.298 110.82Z" fill="#A86E54"/>
<path d="M116.213 121.139C111.801 121.139 108.224 117.216 108.224 112.376V106.236C108.224 101.397 111.801 97.4736 116.213 97.4736C120.625 97.4736 124.202 101.397 124.202 106.236V112.376C124.202 117.216 120.626 121.139 116.213 121.139Z" fill="#C98461"/>
<path d="M118.947 109.216C118.947 109.216 119.552 112.234 120.13 112.747C120.708 113.261 118.617 114.8 117.571 113.653C116.525 112.506 118.947 109.216 118.947 109.216Z" fill="#A86E54"/>
<path d="M102.077 155.852C102.077 155.852 105.227 156.324 106.37 160.909C107.513 165.493 101.031 165.128 99.0633 158.024L102.077 155.852Z" fill="#C98461"/>
<path d="M110.071 233.157H107.502V232.031L105.448 233.157H97.2285V232.111C97.2285 230.599 98.3456 229.374 99.7237 229.374C102.439 229.374 104.641 228.801 104.641 225.823L110.051 226.064L110.071 233.157Z" fill="#12242E"/>
<path d="M117.243 233.157H119.811V232.031L121.866 233.157H130.085V232.111C130.085 230.599 128.968 229.374 127.59 229.374C124.874 229.374 122.673 228.801 122.673 225.823L117.263 226.064L117.243 233.157Z" fill="#12242E"/>
<path d="M131.538 157.321C131.538 157.321 132.492 160.648 129.198 163.737C125.904 166.825 123.442 160.238 128.462 155.257L131.538 157.321Z" fill="#C98461"/>
<path d="M132.175 143.521L137.789 139.1L128.607 125.839C128.067 125.059 127.231 124.591 126.337 124.57L124.421 124.525V134.023L132.175 143.521Z" fill="#B2D235"/>
<path d="M98.5836 143.521L92.9696 139.1L102.151 125.839C102.692 125.059 103.528 124.591 104.421 124.57L106.337 124.525V134.023L98.5836 143.521Z" fill="#B2D235"/>
<path d="M104.417 191.137L104.82 225.823L109.932 226.059L111.92 191.355L104.417 191.137Z" fill="#C98461"/>
<path d="M124.36 191.287L122.469 225.831L117.517 226.052L117.167 191.319L124.36 191.287Z" fill="#C98461"/>
<path d="M219.65 236.78C229.323 236.78 237.164 234.942 237.164 232.674C237.164 230.407 229.323 228.569 219.65 228.569C209.977 228.569 202.136 230.407 202.136 232.674C202.136 234.942 209.977 236.78 219.65 236.78Z" fill="#B3B3B3"/>
<path d="M219.65 233.157H222.219V232.031L224.273 233.157H232.493V232.111C232.493 230.599 231.376 229.374 229.998 229.374C227.282 229.374 225.081 226.96 225.081 223.981H219.67L219.65 233.157Z" fill="#F4783B"/>
<path d="M240.26 132.761C240.26 132.761 239.619 129.345 243.181 126.639C246.744 123.932 248.584 130.759 243.129 135.156L240.26 132.761Z" fill="#F0A379"/>
<path d="M239.854 132.154L233.436 140L233.007 138.863L228.364 126.479C227.784 124.931 226.169 124.192 224.758 124.829C223.347 125.466 222.673 127.237 223.253 128.785L227.897 141.168L230.49 146.505C231.41 148.399 233.793 148.653 235.028 146.988L243.887 135.05L239.854 132.154Z" fill="#688089"/>
<path d="M207.018 165.12L207.75 192.951L209.297 223.981H214.78L215.222 193.434L217.763 165.12H207.018Z" fill="#142630"/>
<path d="M217.257 165.12L219.005 192.972L219.536 223.981H225.019L226.103 193.367L228.002 165.12H217.257Z" fill="#142630"/>
<path d="M228.046 165.12H207.62L207.77 126.085C207.773 125.222 208.46 124.525 209.306 124.525H225.285C226.317 124.525 227.16 125.365 227.183 126.416L228.046 165.12Z" fill="#FEFFFF"/>
<path d="M217.017 126.725C215.969 126.725 215.118 125.792 215.118 124.642V115.134H218.916V124.642C218.916 125.792 218.066 126.725 217.017 126.725Z" fill="#F0A379"/>
<path d="M210.404 110.143C211.646 110.143 212.652 109.039 212.652 107.678C212.652 106.316 211.646 105.213 210.404 105.213C209.163 105.213 208.157 106.316 208.157 107.678C208.157 109.039 209.163 110.143 210.404 110.143Z" fill="#F0A379"/>
<path d="M210.404 109.282C211.212 109.282 211.867 108.564 211.867 107.678C211.867 106.792 211.212 106.074 210.404 106.074C209.597 106.074 208.942 106.792 208.942 107.678C208.942 108.564 209.597 109.282 210.404 109.282Z" fill="#D39271"/>
<path d="M225.292 109.282C226.534 109.282 227.54 108.178 227.54 106.817C227.54 105.455 226.534 104.352 225.292 104.352C224.051 104.352 223.045 105.455 223.045 106.817C223.045 108.178 224.051 109.282 225.292 109.282Z" fill="#F0A379"/>
<path d="M225.292 108.421C226.1 108.421 226.755 107.703 226.755 106.817C226.755 105.931 226.1 105.213 225.292 105.213C224.485 105.213 223.83 105.931 223.83 106.817C223.83 107.703 224.485 108.421 225.292 108.421Z" fill="#D39271"/>
<path d="M218.614 118.937C214.692 118.937 211.513 115.45 211.513 111.149V103.06C211.513 98.7587 214.692 95.272 218.613 95.272H218.614C222.535 95.272 225.714 98.7587 225.714 103.06V111.149C225.714 115.45 222.535 118.937 218.614 118.937Z" fill="#F0A379"/>
<path d="M213.274 99.8599L213.707 109.44C213.707 109.44 212.981 114.671 219.732 114.671C219.732 114.671 225.713 115.395 225.713 110.163C225.713 110.163 227.438 117.649 225.713 118.937C223.989 120.225 214.331 123 212.202 116.802C210.716 112.473 210.518 112.184 210.584 107.014C210.602 105.591 211.98 99.9545 213.274 99.8599Z" fill="#4D371F"/>
<path d="M221.347 107.014C221.347 107.014 221.953 110.032 222.53 110.545C223.108 111.058 221.017 112.598 219.971 111.451C218.925 110.304 221.347 107.014 221.347 107.014Z" fill="#D39271"/>
<path d="M215.118 124.491V168.762H206.05L206.288 139.126L206.807 125.882C206.838 125.104 207.421 124.491 208.131 124.491H215.118V124.491Z" fill="#819BA8"/>
<path d="M218.916 124.491V168.762H228.289L228.042 139.126L227.505 125.882C227.474 125.104 226.871 124.491 226.137 124.491H218.916V124.491Z" fill="#819BA8"/>
<path d="M214.569 142.522C214.569 142.522 216.378 139.654 220.622 140.609C224.867 141.565 221.638 147.741 214.971 146.452L214.569 142.522Z" fill="#F0A379"/>
<path d="M209.277 233.157H211.846V232.031L213.901 233.157H222.12V232.111C222.12 230.599 221.003 229.374 219.625 229.374C216.909 229.374 214.708 226.96 214.708 223.981H209.297L209.277 233.157Z" fill="#372322"/>
<path d="M226.48 156.064H220.921V157.212H226.48V156.064Z" fill="#688089"/>
<path d="M213.404 156.064H207.845V157.212H213.404V156.064Z" fill="#688089"/>
<path d="M226.48 137.058H220.921V138.205H226.48V137.058Z" fill="#688089"/>
<path d="M213.404 137.058H207.845V138.205H213.404V137.058Z" fill="#688089"/>
<path d="M214.739 141.78L205.133 142.11L205.587 140.985L206.329 139.152L207.671 124.604C207.143 124.604 206.101 124.6 205.493 126.287L200.537 138.524L198.81 144.267C198.197 146.306 199.676 148.37 201.626 148.2L215.616 146.98L214.739 141.78Z" fill="#688089"/>
<path d="M209.277 233.157H211.846V232.031L213.901 233.157H222.12V232.111C222.12 230.599 221.003 229.374 219.625 229.374C216.909 229.374 214.708 226.96 214.708 223.981H209.297L209.277 233.157Z" fill="#F4783B"/>
<path d="M53.7985 236.78C63.0394 236.78 70.5306 234.942 70.5306 232.674C70.5306 230.407 63.0394 228.569 53.7985 228.569C44.5577 228.569 37.0665 230.407 37.0665 232.674C37.0665 234.942 44.5577 236.78 53.7985 236.78Z" fill="#B3B3B3"/>
<path d="M62.7699 148.881H44.827V157.597H62.7699V148.881Z" fill="#F9C5AC"/>
<path d="M50.7805 226.878L53.1264 228.025L53.5447 226.996L55.0032 228.943L62.5102 232.613L62.8987 231.658C63.4597 230.277 62.8942 228.659 61.6357 228.044V228.044C57.0277 225.57 60.7192 215.302 61.8247 212.581L57.4944 210.464L50.7805 226.878Z" fill="#111111"/>
<path d="M58.5308 214.804L60.6255 215.829C60.8199 215.924 61.0476 215.828 61.1343 215.615C61.2209 215.401 61.1337 215.152 60.9393 215.057L58.8446 214.032C58.6502 213.937 58.4225 214.033 58.3357 214.246C58.2492 214.459 58.3366 214.709 58.5308 214.804Z" fill="#999999"/>
<path d="M57.9364 216.86L60.0311 217.884C60.2255 217.979 60.4532 217.883 60.5399 217.67C60.6265 217.457 60.5393 217.207 60.3448 217.112L58.2503 216.088C58.0559 215.993 57.8283 216.089 57.7415 216.302C57.6548 216.515 57.742 216.765 57.9364 216.86Z" fill="#999999"/>
<path d="M57.4397 218.964L59.5344 219.988C59.7288 220.083 59.9565 219.987 60.0433 219.774C60.1298 219.561 60.0426 219.311 59.8482 219.216L57.7535 218.191C57.5591 218.097 57.3314 218.192 57.2447 218.405C57.1581 218.619 57.2455 218.868 57.4397 218.964Z" fill="#999999"/>
<path d="M57.1569 221.172L59.2515 222.196C59.4459 222.291 59.6735 222.195 59.7603 221.982C59.8469 221.769 59.7596 221.519 59.5652 221.424L57.4705 220.399C57.2761 220.305 57.0485 220.4 56.9617 220.613C56.8751 220.827 56.9625 221.077 57.1569 221.172Z" fill="#999999"/>
<path d="M62.8257 99.1339C62.6858 95.1185 60.1211 91.684 56.5688 90.7021C54.0394 90.003 50.9456 90.0034 47.6565 91.9433C39.4234 96.799 45.0161 112.296 44.5659 121.835H65.29C62.1944 115.152 63.0824 106.508 62.8257 99.1339Z" fill="#1E345D"/>
<path d="M41.6868 160.5C41.0231 160.501 40.3736 160.14 39.991 159.48L33.6216 148.492C33.2527 147.856 33.2065 147.057 33.4988 146.374L42.1481 126.189C42.6195 125.088 43.8153 124.616 44.8188 125.133C45.8221 125.65 46.2532 126.961 45.7818 128.062L37.6021 147.152L43.3792 157.117C43.9741 158.143 43.6979 159.504 42.7623 160.157C42.4281 160.389 42.0552 160.5 41.6868 160.5Z" fill="#F9C5AC"/>
<path d="M73.9081 159.764C68.1075 153.192 62.3657 133.694 60.5801 127.251C60.2672 126.121 60.8593 124.931 61.8939 124.607C62.9084 124.289 63.9667 124.925 64.2686 126.034C65.9539 132.225 71.3552 150.965 76.5059 156.801L73.9081 159.764Z" fill="#F9C5AC"/>
<path d="M43.8406 157.597L45.7072 184.838L46.2738 215.167H52.1271L53.2841 185.224L55.3112 157.597H43.8406Z" fill="#00A9A3"/>
<path d="M51.6691 157.597L60.2932 185.163L56.6643 210.624L62.2894 213.557L66.6778 186.382L63.1397 157.597H51.6691Z" fill="#00A9A3"/>
<path d="M63.2257 148.881C56.9305 149.688 50.6138 149.683 44.2765 148.881L42.982 125.688C42.9856 125.045 43.7414 124.525 44.6724 124.525H62.2522C63.3874 124.525 64.315 125.151 64.3407 125.935L64.7329 134.633L63.6017 141.143L63.2257 148.881Z" fill="#EC008C"/>
<path d="M55.1368 115.134H51.3391V125.491H55.1368V115.134Z" fill="#F9C5AC"/>
<path d="M55.9173 129.76H51.8412C49.5728 129.76 47.7341 127.743 47.7341 125.255V124.491H60.0245V125.255C60.0245 127.743 58.1857 129.76 55.9173 129.76Z" fill="#F9C5AC"/>
<path d="M46.6251 110.143C47.8663 110.143 48.8725 109.039 48.8725 107.678C48.8725 106.316 47.8663 105.213 46.6251 105.213C45.3838 105.213 44.3776 106.316 44.3776 107.678C44.3776 109.039 45.3838 110.143 46.6251 110.143Z" fill="#F9C5AC"/>
<path d="M46.6251 109.282C47.4328 109.282 48.0876 108.564 48.0876 107.678C48.0876 106.792 47.4328 106.073 46.6251 106.073C45.8173 106.073 45.1625 106.792 45.1625 107.678C45.1625 108.564 45.8173 109.282 46.6251 109.282Z" fill="#DDA792"/>
<path d="M61.5133 109.282C62.7545 109.282 63.7607 108.178 63.7607 106.817C63.7607 105.455 62.7545 104.352 61.5133 104.352C60.272 104.352 59.2658 105.455 59.2658 106.817C59.2658 108.178 60.272 109.282 61.5133 109.282Z" fill="#F9C5AC"/>
<path d="M61.5133 108.421C62.3209 108.421 62.9757 107.703 62.9757 106.817C62.9757 105.931 62.3209 105.213 61.5133 105.213C60.7056 105.213 60.0508 105.931 60.0508 106.817C60.0508 107.703 60.7056 108.421 61.5133 108.421Z" fill="#DDA792"/>
<path d="M54.8341 118.937C50.9129 118.937 47.7341 115.096 47.7341 110.358V103.126C47.7341 98.388 50.9129 94.5474 54.8341 94.5474C58.7554 94.5474 61.9342 98.388 61.9342 103.126V110.358C61.9344 115.096 58.7555 118.937 54.8341 118.937Z" fill="#F9C5AC"/>
<path d="M57.5679 107.014C57.5679 107.014 58.1733 110.032 58.7511 110.545C59.3289 111.058 57.2375 112.598 56.1919 111.451C55.1461 110.304 57.5679 107.014 57.5679 107.014Z" fill="#DDA792"/>
<path d="M76.1391 156.499C76.1391 156.499 79.3055 156.815 80.6354 161.339C81.9653 165.863 75.4748 165.818 73.2176 158.817L76.1391 156.499Z" fill="#F9C5AC"/>
<path d="M42.3657 156.417C42.3657 156.417 45.5378 156.181 47.501 160.419C49.4643 164.656 43.0484 165.734 39.8137 159.211L42.3657 156.417Z" fill="#F9C5AC"/>
<path d="M62.9757 94.5473C62.9757 94.5473 61.3939 102.396 52.1473 101.309C52.1473 101.309 53.7416 101.55 55.3111 100.101C55.3111 100.101 49.8618 100.909 47.8674 101.471C47.8674 101.471 47.7154 86.3371 62.9757 94.5473Z" fill="#1E345D"/>
<path d="M46.8167 233.157H49.3853V232.031L51.44 233.157H59.6592V232.111C59.6592 230.599 58.5422 229.374 57.164 229.374C52.037 229.173 51.5968 218.146 51.5968 215.167H46.8557L46.8167 233.157Z" fill="#111111"/>
<path d="M49.4137 218.668H51.7071C51.9198 218.668 52.0923 218.479 52.0923 218.246C52.0923 218.012 51.9198 217.823 51.7071 217.823H49.4137C49.2009 217.823 49.0284 218.012 49.0284 218.246C49.0284 218.479 49.2009 218.668 49.4137 218.668Z" fill="#999999"/>
<path d="M49.6338 220.812H51.9272C52.1399 220.812 52.3124 220.622 52.3124 220.389C52.3124 220.156 52.1399 219.966 51.9272 219.966H49.6338C49.421 219.966 49.2485 220.156 49.2485 220.389C49.2485 220.622 49.421 220.812 49.6338 220.812Z" fill="#999999"/>
<path d="M49.9611 222.955H52.2544C52.4671 222.955 52.6396 222.766 52.6396 222.532C52.6396 222.299 52.4671 222.11 52.2544 222.11H49.9611C49.7484 222.11 49.5759 222.299 49.5759 222.532C49.5759 222.766 49.7484 222.955 49.9611 222.955Z" fill="#999999"/>
<path d="M50.5224 225.098H52.8158C53.0285 225.098 53.201 224.909 53.201 224.675C53.201 224.442 53.0285 224.253 52.8158 224.253H50.5224C50.3097 224.253 50.1372 224.442 50.1372 224.675C50.1372 224.909 50.3097 225.098 50.5224 225.098Z" fill="#999999"/>
</g>
<defs>
<clipPath id="clip0_638_1926">
<rect width="374" height="338" fill="white"/>
</clipPath>
</defs>
</svg>
