<?xml version="1.0" encoding="utf-8"?>
<!-- Generator: Adobe Illustrator 20.1.0, SVG Export Plug-In . SVG Version: 6.00 Build 0)  -->
<svg version="1.1" xmlns="http://www.w3.org/2000/svg" xmlns:xlink="http://www.w3.org/1999/xlink" x="0px" y="0px"
	 viewBox="0 0 2800 2800" style="enable-background:new 0 0 2800 2800;" xml:space="preserve">
<g id="Layer_2">
	<rect x="-51.4" y="-56.4" style="fill:#E1DDDD;" width="2902.8" height="2912.7"/>
</g>
<g id="Capa_3">
	<g>
		<g>
			<path style="fill:#ED8D86;" d="M1587.9,1390.4h-375.9v-100.8c0-28.9,23.5-52.4,52.4-52.4h271.1c28.9,0,52.4,23.5,52.4,52.4
				V1390.4z"/>
			<path style="fill:#443E4D;" d="M1587.9,1397.9h-375.9c-4.1,0-7.5-3.4-7.5-7.5v-100.8c0-33,26.9-59.9,59.9-59.9h271.1
				c33,0,59.9,26.9,59.9,59.9v100.8C1595.4,1394.5,1592.1,1397.9,1587.9,1397.9z M1219.6,1382.9h360.9v-93.3
				c0-24.7-20.1-44.9-44.9-44.9h-271.1c-24.7,0-44.9,20.1-44.9,44.9V1382.9z"/>
		</g>
		<g>
			<polygon style="fill:#ED8D86;" points="1212.1,1351.7 1212.1,1472.5 1212.1,1504.9 1212.1,1562.8 1250.4,1562.8 1250.4,1504.9 
				1549.6,1504.9 1549.6,1562.8 1587.9,1562.8 1587.9,1504.9 1587.9,1472.5 1587.9,1351.7 			"/>
			<path style="fill:#443E4D;" d="M1587.9,1570.3h-38.3c-4.1,0-7.5-3.4-7.5-7.5v-50.4h-284.2v50.4c0,4.1-3.4,7.5-7.5,7.5h-38.3
				c-4.1,0-7.5-3.4-7.5-7.5v-211.1c0-4.1,3.4-7.5,7.5-7.5h375.9c4.1,0,7.5,3.4,7.5,7.5v211.1
				C1595.4,1567,1592.1,1570.3,1587.9,1570.3z M1557.1,1555.3h23.3v-196.1h-360.9v196.1h23.3v-50.4c0-4.1,3.4-7.5,7.5-7.5h299.2
				c4.1,0,7.5,3.4,7.5,7.5V1555.3z"/>
		</g>
		<g>
			<path style="fill:#DDE4F5;" d="M1368.3,1351.7h-112v-27.4c0-7.9,6.4-14.2,14.2-14.2h83.5c7.9,0,14.2,6.4,14.2,14.2V1351.7z"/>
			<path style="fill:#443E4D;" d="M1368.3,1359.2h-112c-4.1,0-7.5-3.4-7.5-7.5v-27.4c0-12,9.8-21.7,21.7-21.7h83.5
				c12,0,21.7,9.8,21.7,21.7v27.4C1375.8,1355.8,1372.5,1359.2,1368.3,1359.2z M1263.8,1344.2h97v-19.9c0-3.7-3-6.7-6.7-6.7h-83.5
				c-3.7,0-6.7,3-6.7,6.7V1344.2z"/>
		</g>
		<g>
			<path style="fill:#DDE4F5;" d="M1543.7,1351.7h-112v-27.4c0-7.9,6.4-14.2,14.2-14.2h83.5c7.9,0,14.2,6.4,14.2,14.2V1351.7z"/>
			<path style="fill:#443E4D;" d="M1543.7,1359.2h-112c-4.1,0-7.5-3.4-7.5-7.5v-27.4c0-12,9.8-21.7,21.7-21.7h83.5
				c12,0,21.7,9.8,21.7,21.7v27.4C1551.2,1355.8,1547.8,1359.2,1543.7,1359.2z M1439.2,1344.2h97v-19.9c0-3.7-3-6.7-6.7-6.7h-83.5
				c-3.7,0-6.7,3-6.7,6.7V1344.2z"/>
		</g>
	</g>
	<g>
		<g>
			<path style="fill:#DDE4F5;" d="M1578,458.8c-15.2,0-28,10-32.3,23.7c-51.9-7.7-174.6-24.4-240.4-19.4
				c-3-15.6-16.7-27.3-33.1-27.3c-18.6,0-33.8,15.1-33.8,33.8c0,9.9,4.3,18.8,11.1,25c-18.2,36-24.4,99.9-26.5,144.2
				c-0.3,0-0.7,0-1,0c-18.6,0-33.8,15.1-33.8,33.8s15.1,33.8,33.8,33.8c7.3,0,14.1-2.3,19.7-6.3l40.5,26.7
				c37.7,24.9,80.7,40.8,125.6,46.3l50.7,6.2c-0.1,0.9-0.1,1.7-0.1,2.6c0,18.6,15.1,33.8,33.8,33.8c18.6,0,33.8-15.1,33.8-33.8
				c0-10.4-4.7-19.8-12.2-26c63.6-63.8,65.5-171.6,61-229.7c1.1,0.1,2.2,0.2,3.3,0.2c18.6,0,33.8-15.1,33.8-33.8
				S1596.7,458.8,1578,458.8z"/>
			<path style="fill:#443E4D;" d="M1492.1,823c-21.4,0-39-16.4-41.1-37.2l-44.2-5.4c-45.8-5.6-90.4-22-128.9-47.5l-36.5-24.1
				c-6,3.2-12.6,4.9-19.5,4.9c-22.8,0-41.3-18.5-41.3-41.3c0-20.7,15.3-37.8,35.1-40.8c2.4-44,8.7-100.2,24.7-135.7
				c-6.1-7.4-9.6-16.7-9.6-26.4c0-22.8,18.5-41.3,41.3-41.3c17.5,0,32.8,11,38.7,27c65.5-3.5,178,11.4,230.1,19c6.9-14,21-23,37-23
				c22.8,0,41.3,18.5,41.3,41.3c0,21.2-16,38.6-36.5,41c3.6,59.4-0.6,158.8-58.6,222.2c5.9,7.3,9.2,16.4,9.2,26
				C1533.4,804.5,1514.9,823,1492.1,823z M1241.6,692.4c1.4,0,2.9,0.4,4.1,1.2l40.5,26.7c36.6,24.2,78.9,39.8,122.4,45.1l50.7,6.2
				c4,0.5,6.9,4,6.6,8c-0.1,0.8-0.1,1.4-0.1,2c0,14.5,11.8,26.3,26.3,26.3s26.3-11.8,26.3-26.3c0-7.8-3.5-15.2-9.5-20.2
				c-1.6-1.3-2.6-3.3-2.7-5.4c-0.1-2.1,0.7-4.2,2.2-5.6c26.4-26.4,69.1-90.7,58.8-223.8c-0.2-2.2,0.6-4.4,2.2-5.9
				c1.6-1.6,3.8-2.3,6-2.1c0.9,0.1,1.7,0.1,2.6,0.1c14.5,0,26.3-11.8,26.3-26.3c0-14.5-11.8-26.3-26.3-26.3
				c-11.6,0-21.7,7.4-25.1,18.5c-1.1,3.5-4.6,5.7-8.3,5.2c-50-7.5-173.5-24.3-238.8-19.4c-3.8,0.3-7.2-2.3-7.9-6.1
				c-2.4-12.3-13.2-21.3-25.8-21.3c-14.5,0-26.3,11.8-26.3,26.3c0,7.4,3.1,14.5,8.6,19.5c2.5,2.3,3.2,5.9,1.7,8.9
				c-9.6,19-21.8,58.8-25.7,141.1c-0.2,4.1-3.6,7.2-7.7,7.1l-0.3,0c-0.2,0-0.3,0-0.5,0c-14.5,0-26.3,11.8-26.3,26.3
				s11.8,26.3,26.3,26.3c5.5,0,10.8-1.7,15.3-4.9C1238.6,692.8,1240.1,692.4,1241.6,692.4z"/>
		</g>
		<g>
			<path style="fill:#443E4D;" d="M1475.9,721.3c-3.3,0-6.3-2.2-7.2-5.5c-0.3-1.1-7.6-27.6-5.4-63.8c2.8-48.1,21.2-90.5,53.2-122.4
				c2.9-2.9,7.7-2.9,10.6,0c2.9,2.9,2.9,7.7,0,10.6c-29.6,29.6-46,67.4-48.8,112.2c-2.1,33.8,4.8,59.2,4.9,59.4
				c1.1,4-1.2,8.1-5.2,9.2C1477.3,721.2,1476.6,721.3,1475.9,721.3z"/>
		</g>
	</g>
	<g>
		<g>
			<path style="fill:#FCE6B4;" d="M1502.1,2428.2c-104.8,0-189.8-85-189.8-189.8c0-57.2,25.3-108.5,65.3-143.3
				c-92.6,12.6-164,92-164,188c0,104.8,85,189.8,189.8,189.8c47.6,0,91.1-17.5,124.4-46.5
				C1519.4,2427.6,1510.8,2428.2,1502.1,2428.2z"/>
			<path style="fill:#443E4D;" d="M1403.4,2480.5c-108.8,0-197.3-88.5-197.3-197.3c0-48,17.5-94.3,49.2-130.3
				c31.4-35.7,74.5-58.8,121.4-65.2c3.3-0.4,6.5,1.3,7.8,4.3c1.4,3,0.6,6.6-1.9,8.8c-39.9,34.7-62.8,84.8-62.8,137.6
				c0,100.5,81.8,182.3,182.3,182.3c8.2,0,16.5-0.6,24.7-1.7c3.3-0.4,6.5,1.3,7.8,4.3c1.4,3,0.6,6.6-1.9,8.8
				C1496.9,2463.3,1451,2480.5,1403.4,2480.5z M1354.5,2107.6c-33.8,9.4-64.4,28.5-88,55.2c-29.3,33.3-45.4,76-45.4,120.4
				c0,100.5,81.8,182.3,182.3,182.3c35.7,0,70.3-10.4,99.8-29.8c-0.4,0-0.7,0-1.1,0c-108.8,0-197.3-88.5-197.3-197.3
				C1304.8,2189.9,1322.7,2143.5,1354.5,2107.6z"/>
		</g>
		<g>
			<path style="fill:#FCE6B4;" d="M1516.3,2180l21.8,11.9l-21.8,11.9c-6.9,3.7-12.5,9.4-16.2,16.2l-11.9,21.8l-11.9-21.8
				c-3.7-6.9-9.4-12.5-16.2-16.2l-21.8-11.9l21.8-11.9c6.9-3.7,12.5-9.4,16.2-16.2l11.9-21.8l11.9,21.8
				C1503.8,2170.6,1509.5,2176.2,1516.3,2180z"/>
			<path style="fill:#443E4D;" d="M1488.1,2249.4L1488.1,2249.4c-2.7,0-5.3-1.5-6.6-3.9l-11.9-21.8c-3.1-5.6-7.7-10.2-13.3-13.3
				l-21.8-11.9c-2.4-1.3-3.9-3.8-3.9-6.6s1.5-5.3,3.9-6.6l21.8-11.9c5.6-3.1,10.2-7.7,13.3-13.3l11.9-21.8c1.3-2.4,3.8-3.9,6.6-3.9
				s5.3,1.5,6.6,3.9l11.9,21.8c3.1,5.6,7.6,10.2,13.3,13.3l21.8,11.9c2.4,1.3,3.9,3.8,3.9,6.6s-1.5,5.3-3.9,6.6l-21.8,11.9
				c-5.6,3.1-10.2,7.6-13.3,13.3l-11.9,21.8C1493.4,2247.9,1490.9,2249.4,1488.1,2249.4z M1453.8,2191.9l9.8,5.4
				c8.1,4.4,14.8,11.1,19.2,19.2l5.4,9.8l5.4-9.8c4.4-8.1,11.1-14.8,19.2-19.2l9.8-5.4l-9.8-5.4c0,0,0,0,0,0
				c-8.1-4.4-14.8-11.1-19.2-19.2l-5.4-9.8l-5.4,9.8c-4.4,8.1-11.1,14.8-19.2,19.2L1453.8,2191.9z"/>
		</g>
		<g>
			<path style="fill:#FCE6B4;" d="M1572.9,2261.8l13.5,7.4l-13.5,7.4c-4.2,2.3-7.7,5.8-10,10l-7.4,13.5l-7.4-13.5
				c-2.3-4.2-5.8-7.7-10-10l-13.5-7.4l13.5-7.4c4.2-2.3,7.7-5.8,10-10l7.4-13.5l7.4,13.5C1565.2,2256,1568.7,2259.5,1572.9,2261.8z"
				/>
			<path style="fill:#443E4D;" d="M1555.5,2307.5c-2.7,0-5.3-1.5-6.6-3.9l-7.4-13.5c-1.6-3-4.1-5.4-7-7l-13.5-7.4
				c-2.4-1.3-3.9-3.8-3.9-6.6s1.5-5.3,3.9-6.6l13.5-7.4c3-1.6,5.4-4.1,7-7l7.4-13.5c1.3-2.4,3.8-3.9,6.6-3.9s5.3,1.5,6.6,3.9
				l7.4,13.5c1.6,3,4.1,5.4,7,7l13.5,7.4c2.4,1.3,3.9,3.8,3.9,6.6s-1.5,5.3-3.9,6.6l-13.5,7.4c-3,1.6-5.4,4.1-7,7l-7.4,13.5
				C1560.8,2306,1558.3,2307.5,1555.5,2307.5z M1540.3,2269.1l1.4,0.8c5.5,3,10,7.5,13,13l0.8,1.4l0.8-1.4c3-5.5,7.5-10,13-13
				l1.4-0.8l-1.4-0.8h0c-5.5-3-10-7.5-13-13l-0.8-1.4l-0.8,1.4c-3,5.5-7.5,10-13,13L1540.3,2269.1z"/>
		</g>
		<g>
			<g>
				<path style="fill:#443E4D;" d="M1470.8,2327.4c-4.1,0-7.5-3.4-7.5-7.5v-40c0-4.1,3.4-7.5,7.5-7.5s7.5,3.4,7.5,7.5v40
					C1478.3,2324.1,1474.9,2327.4,1470.8,2327.4z"/>
			</g>
			<g>
				<path style="fill:#443E4D;" d="M1490.8,2307.5h-40c-4.1,0-7.5-3.4-7.5-7.5s3.4-7.5,7.5-7.5h40c4.1,0,7.5,3.4,7.5,7.5
					S1494.9,2307.5,1490.8,2307.5z"/>
			</g>
		</g>
		<g>
			<g>
				<path style="fill:#443E4D;" d="M1566.4,2169.4c-4.1,0-7.5-3.4-7.5-7.5v-40c0-4.1,3.4-7.5,7.5-7.5s7.5,3.4,7.5,7.5v40
					C1573.9,2166,1570.5,2169.4,1566.4,2169.4z"/>
			</g>
			<g>
				<path style="fill:#443E4D;" d="M1586.4,2149.4h-40c-4.1,0-7.5-3.4-7.5-7.5s3.4-7.5,7.5-7.5h40c4.1,0,7.5,3.4,7.5,7.5
					S1590.5,2149.4,1586.4,2149.4z"/>
			</g>
		</g>
	</g>
	<g>
		<g>
			<circle style="fill:#DDE4F5;" cx="2202.2" cy="1400" r="177.6"/>
			<path style="fill:#443E4D;" d="M2202.2,1585.1c-102,0-185.1-83-185.1-185.1c0-102,83-185.1,185.1-185.1
				c102,0,185.1,83,185.1,185.1C2387.3,1502,2304.3,1585.1,2202.2,1585.1z M2202.2,1229.9c-93.8,0-170.1,76.3-170.1,170.1
				c0,93.8,76.3,170.1,170.1,170.1s170.1-76.3,170.1-170.1C2372.3,1306.2,2296,1229.9,2202.2,1229.9z"/>
		</g>
		<g>
			<circle style="fill:#FFFFFF;" cx="2202.2" cy="1400" r="125.6"/>
			<path style="fill:#443E4D;" d="M2202.2,1533.1c-73.4,0-133.1-59.7-133.1-133.1c0-73.4,59.7-133.1,133.1-133.1
				c73.4,0,133.1,59.7,133.1,133.1C2335.3,1473.4,2275.6,1533.1,2202.2,1533.1z M2202.2,1281.9c-65.1,0-118.1,53-118.1,118.1
				s53,118.1,118.1,118.1s118.1-53,118.1-118.1S2267.3,1281.9,2202.2,1281.9z"/>
		</g>
		<g>
			<path style="fill:#443E4D;" d="M2202.2,1407.5h-81.7c-4.1,0-7.5-3.4-7.5-7.5s3.4-7.5,7.5-7.5h81.7c4.1,0,7.5,3.4,7.5,7.5
				S2206.4,1407.5,2202.2,1407.5z"/>
		</g>
		<g>
			<path style="fill:#443E4D;" d="M2202.2,1407.5c-1.9,0-3.9-0.7-5.3-2.2c-2.9-2.9-2.9-7.7,0.1-10.6l41.3-40.8
				c2.9-2.9,7.7-2.9,10.6,0.1c2.9,2.9,2.9,7.7-0.1,10.6l-41.3,40.8C2206,1406.8,2204.1,1407.5,2202.2,1407.5z"/>
		</g>
		<g>
			<g>
				<path style="fill:#443E4D;" d="M2424.8,1362c-3,0-5.9-1.8-7-4.8c-1.5-3.9,0.5-8.2,4.4-9.7l55.5-21c3.9-1.5,8.2,0.5,9.7,4.4
					c1.5,3.9-0.5,8.2-4.4,9.7l-55.5,21C2426.6,1361.9,2425.7,1362,2424.8,1362z"/>
			</g>
			<g>
				<path style="fill:#443E4D;" d="M2453.7,1438.4c-3,0-5.9-1.8-7-4.8c-1.5-3.9,0.5-8.2,4.4-9.7l55.5-21c3.9-1.5,8.2,0.5,9.7,4.4
					c1.5,3.9-0.5,8.2-4.4,9.7l-55.5,21C2455.5,1438.2,2454.6,1438.4,2453.7,1438.4z"/>
			</g>
			<g>
				<path style="fill:#443E4D;" d="M2453.7,1438.4c-0.7,0-1.3-0.1-2-0.3c-4-1.1-6.4-5.2-5.3-9.2l26.6-97.4c1.1-4,5.2-6.3,9.2-5.3
					c4,1.1,6.4,5.2,5.3,9.2l-26.6,97.4C2460.1,1436.2,2457,1438.4,2453.7,1438.4z"/>
			</g>
		</g>
		<g>
			<g>
				<path style="fill:#443E4D;" d="M2406.4,1424.3c-0.8,0-1.7-0.1-2.5-0.4l-37.7-13.3c-3.9-1.4-6-5.7-4.6-9.6c1.4-3.9,5.7-6,9.6-4.6
					l37.7,13.3c3.9,1.4,6,5.7,4.6,9.6C2412.4,1422.4,2409.5,1424.3,2406.4,1424.3z"/>
			</g>
			<g>
				<path style="fill:#443E4D;" d="M2388.1,1476.1c-0.8,0-1.7-0.1-2.5-0.4l-37.7-13.3c-3.9-1.4-6-5.7-4.6-9.6c1.4-3.9,5.7-6,9.6-4.6
					l37.7,13.3c3.9,1.4,6,5.7,4.6,9.6C2394.1,1474.2,2391.2,1476.1,2388.1,1476.1z"/>
			</g>
			<g>
				<path style="fill:#443E4D;" d="M2350.4,1462.8c-2.4,0-4.7-1.1-6.2-3.3c-2.3-3.4-1.5-8.1,1.9-10.4l56-38.5
					c3.4-2.3,8.1-1.5,10.4,1.9c2.3,3.4,1.5,8.1-1.9,10.4l-56,38.5C2353.4,1462.4,2351.9,1462.8,2350.4,1462.8z"/>
			</g>
		</g>
		<g>
			<g>
				<path style="fill:#443E4D;" d="M2341.4,1305.9c-3.1,0-6-2-7.1-5.1c-1.3-3.9,0.7-8.2,4.7-9.5l37.8-13c3.9-1.3,8.2,0.7,9.5,4.6
					c1.3,3.9-0.7,8.2-4.7,9.5l-37.8,13C2343,1305.8,2342.2,1305.9,2341.4,1305.9z"/>
			</g>
			<g>
				<path style="fill:#443E4D;" d="M2359.3,1357.9c-3.1,0-6-2-7.1-5.1c-1.3-3.9,0.7-8.2,4.7-9.5l37.8-13c3.9-1.3,8.2,0.7,9.5,4.6
					c1.3,3.9-0.7,8.2-4.7,9.5l-37.8,13C2360.9,1357.8,2360.1,1357.9,2359.3,1357.9z"/>
			</g>
			<g>
				<path style="fill:#443E4D;" d="M2359.3,1357.9c-0.7,0-1.5-0.1-2.2-0.3c-4-1.2-6.2-5.4-5-9.4l19.9-65c1.2-4,5.4-6.2,9.4-5
					c4,1.2,6.2,5.4,5,9.4l-19.9,65C2365.5,1355.8,2362.5,1357.9,2359.3,1357.9z"/>
			</g>
		</g>
	</g>
	<g>
		<g>
			<polygon style="fill:#FCE6B4;" points="465.8,1197.9 310.2,1236.8 319.8,1275.2 423.7,1249.2 351.2,1401 360.8,1439.4 
				516.5,1400.4 506.9,1362.1 401.2,1388.5 475.4,1236.3 			"/>
			<path style="fill:#443E4D;" d="M360.8,1446.9c-3.4,0-6.4-2.3-7.3-5.7l-9.6-38.4c-0.4-1.7-0.2-3.5,0.5-5l65.6-137.4l-88.4,22.1
				c-1.9,0.5-4,0.2-5.7-0.8c-1.7-1-2.9-2.7-3.4-4.6l-9.6-38.4c-1-4,1.4-8.1,5.5-9.1l155.6-38.9c1.9-0.5,4-0.2,5.7,0.8
				c1.7,1,2.9,2.7,3.4,4.6l9.6,38.4c0.4,1.7,0.2,3.5-0.5,5.1L415,1377.3l90.1-22.5c1.9-0.5,4-0.2,5.7,0.8c1.7,1,2.9,2.7,3.4,4.6
				l9.6,38.4c1,4-1.4,8.1-5.5,9.1l-155.6,38.9C362,1446.8,361.4,1446.9,360.8,1446.9z M359.2,1401.8l7.1,28.5l141.1-35.3l-6-23.8
				l-98.4,24.6c-2.8,0.7-5.8-0.3-7.6-2.6s-2.2-5.4-0.9-8l73-149.8l-7.1-28.5l-141.1,35.3l6,23.8l96.6-24.2c2.8-0.7,5.8,0.3,7.6,2.5
				c1.8,2.2,2.2,5.4,1,8L359.2,1401.8z"/>
		</g>
		<g>
			<polygon style="fill:#FCE6B4;" points="642.3,1292 546.3,1316 552.2,1339.7 616.3,1323.7 571.6,1417.4 577.5,1441.1 673.6,1417 
				667.7,1393.3 602.4,1409.6 648.3,1315.7 			"/>
			<path style="fill:#443E4D;" d="M577.5,1448.6c-1.3,0-2.7-0.4-3.9-1.1c-1.7-1-2.9-2.7-3.4-4.6l-5.9-23.7c-0.4-1.7-0.2-3.5,0.5-5
				l37.9-79.3L554,1347c-4,1-8.1-1.4-9.1-5.5l-5.9-23.7c-0.5-1.9-0.2-4,0.8-5.7s2.7-2.9,4.6-3.4l96.1-24c4-1,8.1,1.4,9.1,5.5
				l5.9,23.7c0.4,1.7,0.2,3.5-0.5,5.1l-38.8,79.5l49.6-12.4c1.9-0.5,4-0.2,5.7,0.8c1.7,1,2.9,2.7,3.4,4.6l5.9,23.7
				c1,4-1.4,8.1-5.5,9.1l-96.1,24C578.8,1448.5,578.1,1448.6,577.5,1448.6z M579.5,1418.2l3.5,13.8l81.5-20.4l-2.3-9.1l-58,14.5
				c-2.8,0.7-5.8-0.3-7.6-2.6c-1.8-2.3-2.2-5.4-0.9-8l44.6-91.5l-3.4-13.8l-81.5,20.4l2.3,9.1l56.9-14.2c2.8-0.7,5.8,0.3,7.6,2.5
				c1.8,2.2,2.2,5.4,1,8L579.5,1418.2z"/>
		</g>
		<g>
			<polygon style="fill:#FCE6B4;" points="529.6,1453 433.5,1477.1 439.5,1500.8 503.6,1484.7 458.9,1578.4 464.8,1602.1 
				560.9,1578.1 555,1554.4 489.7,1570.7 535.6,1476.7 			"/>
			<path style="fill:#443E4D;" d="M464.8,1609.6c-1.3,0-2.7-0.4-3.9-1.1c-1.7-1-2.9-2.7-3.4-4.6l-5.9-23.7c-0.4-1.7-0.2-3.5,0.5-5
				l37.9-79.3l-48.7,12.2c-1.9,0.5-4,0.2-5.7-0.8c-1.7-1-2.9-2.7-3.4-4.6l-5.9-23.7c-1-4,1.4-8.1,5.5-9.1l96.1-24
				c1.9-0.5,4-0.2,5.7,0.8c1.7,1,2.9,2.7,3.4,4.6l5.9,23.7c0.4,1.7,0.2,3.5-0.5,5.1l-38.8,79.5l49.6-12.4c1.9-0.5,4-0.2,5.7,0.8
				c1.7,1,2.9,2.7,3.4,4.6l5.9,23.7c1,4-1.4,8.1-5.5,9.1l-96.1,24C466,1609.5,465.4,1609.6,464.8,1609.6z M466.8,1579.2l3.5,13.8
				l81.5-20.4l-2.3-9.1l-58,14.5c-2.8,0.7-5.8-0.3-7.6-2.6s-2.2-5.4-0.9-8l44.6-91.5l-3.4-13.8l-81.5,20.4l2.3,9.1l56.9-14.2
				c2.8-0.7,5.8,0.3,7.6,2.5c1.8,2.2,2.2,5.4,1,8L466.8,1579.2z"/>
		</g>
		<g>
			<polygon style="fill:#FCE6B4;" points="669.1,1484.4 605,1500.5 608.9,1516.3 651.8,1505.6 621.9,1568.1 625.9,1583.9 
				690,1567.9 686,1552.1 642.5,1563 673.1,1500.2 			"/>
			<path style="fill:#443E4D;" d="M625.9,1591.4c-3.4,0-6.4-2.3-7.3-5.7l-4-15.8c-0.4-1.7-0.2-3.5,0.5-5.1l23-48.2l-27.4,6.8
				c-1.9,0.5-4,0.2-5.7-0.8c-1.7-1-2.9-2.7-3.4-4.6l-4-15.8c-1-4,1.4-8.1,5.5-9.1l64.1-16c1.9-0.5,4-0.2,5.7,0.8
				c1.7,1,2.9,2.7,3.4,4.6l4,15.8c0.4,1.7,0.2,3.5-0.5,5.1l-23.5,48.3l27.9-7c4-1,8.1,1.4,9.1,5.5l4,15.8c0.5,1.9,0.2,4-0.8,5.7
				s-2.7,2.9-4.6,3.4l-64.1,16C627.1,1591.3,626.5,1591.4,625.9,1591.4z M629.8,1568.9l1.5,5.9l49.6-12.4l-0.3-1.3l-36.3,9.1
				c-2.8,0.7-5.8-0.3-7.6-2.6c-1.8-2.3-2.2-5.4-0.9-8l29.4-60.3l-1.5-5.9l-49.6,12.4l0.3,1.3l35.5-8.9c2.8-0.7,5.8,0.3,7.6,2.5
				c1.8,2.2,2.2,5.4,1,8L629.8,1568.9z"/>
		</g>
	</g>
	<g>
		<g>
			<path style="fill:#FCE6B4;" d="M463.1,582.3c-42.9-39.5-109.8-36.7-149.3,6.2c-39.5,42.9-36.7,109.8,6.2,149.3"/>
			<path style="fill:#443E4D;" d="M320.1,745.3c-1.8,0-3.6-0.7-5.1-2c-22.2-20.5-35.2-48.4-36.4-78.6s9.3-59.1,29.8-81.3
				s48.4-35.2,78.6-36.4c30.2-1.2,59.1,9.3,81.3,29.8c3,2.8,3.2,7.5,0.4,10.6c-2.8,3-7.5,3.2-10.6,0.4
				c-19.3-17.8-44.3-26.9-70.5-25.8c-26.2,1.1-50.4,12.3-68.1,31.6c-17.8,19.3-26.9,44.3-25.8,70.5s12.3,50.4,31.6,68.1
				c3,2.8,3.2,7.5,0.4,10.6C324.1,744.5,322.1,745.3,320.1,745.3z"/>
		</g>
		<g>
			<path style="fill:#FCE6B4;" d="M537.1,582.3c42.9-39.5,109.8-36.7,149.3,6.2c39.5,42.9,36.7,109.8-6.2,149.3"/>
			<path style="fill:#443E4D;" d="M680.1,745.3c-2,0-4-0.8-5.5-2.4c-2.8-3-2.6-7.8,0.4-10.6c19.3-17.8,30.5-42,31.6-68.1
				s-8.1-51.2-25.8-70.5c-36.6-39.8-98.9-42.4-138.7-5.8c-3,2.8-7.8,2.6-10.6-0.4c-2.8-3-2.6-7.8,0.4-10.6
				c22.2-20.5,51.1-31.1,81.3-29.8c30.2,1.3,58.1,14.2,78.6,36.4c20.5,22.2,31,51.1,29.8,81.3s-14.2,58.1-36.4,78.6
				C683.8,744.6,681.9,745.3,680.1,745.3z"/>
		</g>
		<g>
			<circle style="fill:#ED8D86;" cx="500.1" cy="756.4" r="177.6"/>
			<path style="fill:#443E4D;" d="M500.1,941.4c-102,0-185.1-83-185.1-185.1c0-102,83-185.1,185.1-185.1c102,0,185.1,83,185.1,185.1
				C685.2,858.4,602.1,941.4,500.1,941.4z M500.1,586.3c-93.8,0-170.1,76.3-170.1,170.1c0,93.8,76.3,170.1,170.1,170.1
				c93.8,0,170.1-76.3,170.1-170.1C670.2,662.6,593.9,586.3,500.1,586.3z"/>
		</g>
		<g>
			<circle style="fill:#FFFFFF;" cx="500.1" cy="756.4" r="125.6"/>
			<path style="fill:#443E4D;" d="M500.1,889.4c-73.4,0-133.1-59.7-133.1-133.1s59.7-133.1,133.1-133.1
				c73.4,0,133.1,59.7,133.1,133.1S573.5,889.4,500.1,889.4z M500.1,638.3c-65.1,0-118.1,53-118.1,118.1
				c0,65.1,53,118.1,118.1,118.1c65.1,0,118.1-53,118.1-118.1C618.1,691.3,565.2,638.3,500.1,638.3z"/>
		</g>
		<g>
			<path style="fill:#443E4D;" d="M364.5,935.1c-1.9,0-3.8-0.7-5.3-2.2c-2.9-2.9-2.9-7.7,0-10.6l27.6-27.6c2.9-2.9,7.7-2.9,10.6,0
				c2.9,2.9,2.9,7.7,0,10.6l-27.6,27.6C368.3,934.4,366.4,935.1,364.5,935.1z"/>
		</g>
		<g>
			<path style="fill:#443E4D;" d="M635.7,935.1c-1.9,0-3.8-0.7-5.3-2.2l-27.6-27.6c-2.9-2.9-2.9-7.7,0-10.6c2.9-2.9,7.7-2.9,10.6,0
				l27.6,27.6c2.9,2.9,2.9,7.7,0,10.6C639.5,934.4,637.6,935.1,635.7,935.1z"/>
		</g>
		<g>
			<path style="fill:#443E4D;" d="M556.2,823.2c-2,0-4-0.8-5.5-2.3l-56.1-59.4c-2.8-3-2.7-7.8,0.3-10.6c3-2.8,7.8-2.7,10.6,0.3
				l56.1,59.4c2.8,3,2.7,7.8-0.3,10.6C559.9,822.5,558.1,823.2,556.2,823.2z"/>
		</g>
		<g>
			<path style="fill:#443E4D;" d="M459.1,804.9c-1.9,0-3.8-0.7-5.3-2.2c-2.9-2.9-2.9-7.7,0-10.6l41-41c2.9-2.9,7.7-2.9,10.6,0
				c2.9,2.9,2.9,7.7,0,10.6l-41,41C462.9,804.2,461,804.9,459.1,804.9z"/>
		</g>
		<g>
			<g>
				<path style="fill:#443E4D;" d="M611.5,393.9c-3,0-5.9-1.8-7-4.8c-1.5-3.9,0.5-8.2,4.4-9.7l55.5-21c3.9-1.5,8.2,0.5,9.7,4.4
					s-0.5,8.2-4.4,9.7l-55.5,21C613.3,393.8,612.4,393.9,611.5,393.9z"/>
			</g>
			<g>
				<path style="fill:#443E4D;" d="M640.5,470.3c-3,0-5.9-1.8-7-4.8c-1.5-3.9,0.5-8.2,4.4-9.7l55.5-21c3.9-1.5,8.2,0.5,9.7,4.4
					c1.5,3.9-0.5,8.2-4.4,9.7l-55.5,21C642.3,470.2,641.4,470.3,640.5,470.3z"/>
			</g>
			<g>
				<path style="fill:#443E4D;" d="M640.5,470.3c-0.7,0-1.3-0.1-2-0.3c-4-1.1-6.4-5.2-5.3-9.2l26.6-97.4c1.1-4,5.2-6.4,9.2-5.3
					c4,1.1,6.4,5.2,5.3,9.2l-26.6,97.4C646.8,468.1,643.8,470.3,640.5,470.3z"/>
			</g>
		</g>
		<g>
			<g>
				<path style="fill:#443E4D;" d="M593.2,456.2c-0.8,0-1.7-0.1-2.5-0.4L553,442.4c-3.9-1.4-5.9-5.7-4.6-9.6c1.4-3.9,5.7-6,9.6-4.6
					l37.7,13.3c3.9,1.4,5.9,5.7,4.6,9.6C599.2,454.3,596.3,456.2,593.2,456.2z"/>
			</g>
			<g>
				<path style="fill:#443E4D;" d="M574.8,508.1c-0.8,0-1.7-0.1-2.5-0.4l-37.7-13.3c-3.9-1.4-5.9-5.7-4.6-9.6
					c1.4-3.9,5.7-5.9,9.6-4.6l37.7,13.3c3.9,1.4,5.9,5.7,4.6,9.6C580.8,506.1,577.9,508.1,574.8,508.1z"/>
			</g>
			<g>
				<path style="fill:#443E4D;" d="M537.2,494.7c-2.4,0-4.7-1.1-6.2-3.3c-2.3-3.4-1.5-8.1,1.9-10.4l56-38.5
					c3.4-2.3,8.1-1.5,10.4,1.9c2.3,3.4,1.5,8.1-1.9,10.4l-56,38.5C540.1,494.3,538.6,494.7,537.2,494.7z"/>
			</g>
		</g>
		<g>
			<g>
				<path style="fill:#443E4D;" d="M528.1,337.8c-3.1,0-6-2-7.1-5.1c-1.3-3.9,0.7-8.2,4.6-9.5l37.8-13c3.9-1.3,8.2,0.7,9.5,4.6
					c1.3,3.9-0.7,8.2-4.6,9.5l-37.8,13C529.8,337.7,529,337.8,528.1,337.8z"/>
			</g>
			<g>
				<path style="fill:#443E4D;" d="M546.1,389.8c-3.1,0-6-2-7.1-5.1c-1.3-3.9,0.7-8.2,4.6-9.5l37.8-13c3.9-1.3,8.2,0.7,9.5,4.6
					c1.3,3.9-0.7,8.2-4.6,9.5l-37.8,13C547.7,389.7,546.9,389.8,546.1,389.8z"/>
			</g>
			<g>
				<path style="fill:#443E4D;" d="M546.1,389.8c-0.7,0-1.5-0.1-2.2-0.3c-4-1.2-6.2-5.4-5-9.4l19.9-65c1.2-4,5.4-6.2,9.4-5
					c4,1.2,6.2,5.4,5,9.4l-19.9,65C552.2,387.8,549.3,389.8,546.1,389.8z"/>
			</g>
		</g>
	</g>
	<g>
		<g>
			<path style="fill:#ED8D86;" d="M2507.1,2416.3v-264.4l27.7-27.7c8.8-8.8,8.8-23.2,0-32.1v0c-8.8-8.8-23.2-8.8-32.1,0l-34.6,34.6
				h-402.4l-34.6-34.6c-8.8-8.8-23.2-8.8-32.1,0v0c-8.8,8.8-8.8,23.2,0,32.1l27.7,27.7v264.4l-27.7,27.7c-8.8,8.8-8.8,23.2,0,32.1
				l0,0c8.8,8.8,23.2,8.8,32.1,0l34.6-34.6h402.4l34.6,34.6c8.8,8.8,23.2,8.8,32.1,0l0,0c8.8-8.8,8.8-23.2,0-32.1L2507.1,2416.3z"/>
			<path style="fill:#443E4D;" d="M2015.1,2490.2c-7.7,0-15.4-2.9-21.3-8.8c-5.7-5.7-8.8-13.3-8.8-21.3c0-8.1,3.1-15.7,8.8-21.3
				l25.5-25.5V2155l-25.5-25.5c-5.7-5.7-8.8-13.3-8.8-21.3c0-8.1,3.1-15.7,8.8-21.3c11.8-11.8,30.9-11.8,42.7,0l32.5,32.5H2465
				l32.5-32.5c5.7-5.7,13.3-8.8,21.3-8.8s15.7,3.1,21.3,8.8c5.7,5.7,8.8,13.3,8.8,21.3c0,8.1-3.1,15.7-8.8,21.3l-25.5,25.5v258.2
				l25.5,25.5c5.7,5.7,8.8,13.3,8.8,21.3c0,8.1-3.1,15.7-8.8,21.3c-5.7,5.7-13.3,8.8-21.3,8.8s-15.7-3.1-21.3-8.8l-32.5-32.5h-396.2
				l-32.5,32.5C2030.5,2487.2,2022.8,2490.2,2015.1,2490.2z M2015.1,2093c-3.9,0-7.8,1.5-10.7,4.4c-5.9,5.9-5.9,15.5,0,21.4
				l27.7,27.7c1.4,1.4,2.2,3.3,2.2,5.3v264.4c0,2-0.8,3.9-2.2,5.3l-27.7,27.7c-5.9,5.9-5.9,15.5,0,21.4c5.9,5.9,15.5,5.9,21.4,0
				l34.6-34.6c1.4-1.4,3.3-2.2,5.3-2.2h402.4c2,0,3.9,0.8,5.3,2.2l34.6,34.6c2.8,2.8,6.7,4.4,10.7,4.4s7.9-1.6,10.7-4.4
				c5.9-5.9,5.9-15.5,0-21.4l-27.7-27.7c-1.4-1.4-2.2-3.3-2.2-5.3v-264.4c0-2,0.8-3.9,2.2-5.3l27.7-27.7c5.9-5.9,5.9-15.5,0-21.4
				c-2.8-2.8-6.7-4.4-10.7-4.4s-7.9,1.6-10.7,4.4l-34.6,34.6c-1.4,1.4-3.3,2.2-5.3,2.2h-402.4c-2,0-3.9-0.8-5.3-2.2l-34.6-34.6
				C2022.8,2094.5,2019,2093,2015.1,2093z"/>
		</g>
		<g>
			<path style="fill:#443E4D;" d="M2276.6,2291.6c-1.9,0-3.8-0.7-5.3-2.2c-2.9-2.9-2.9-7.7,0-10.6l41.4-41.4c2.9-2.9,7.7-2.9,10.6,0
				c2.9,2.9,2.9,7.7,0,10.6l-41.4,41.4C2280.4,2290.9,2278.5,2291.6,2276.6,2291.6z"/>
		</g>
		<g>
			<path style="fill:#443E4D;" d="M2317.9,2333c-1.9,0-3.8-0.7-5.3-2.2l-41.4-41.4c-2.9-2.9-2.9-7.7,0-10.6c2.9-2.9,7.7-2.9,10.6,0
				l41.4,41.4c2.9,2.9,2.9,7.7,0,10.6C2321.8,2332.2,2319.9,2333,2317.9,2333z"/>
		</g>
		<g>
			<path style="fill:#443E4D;" d="M2235.2,2333c-1.9,0-3.8-0.7-5.3-2.2c-2.9-2.9-2.9-7.7,0-10.6l41.4-41.4c2.9-2.9,7.7-2.9,10.6,0
				c2.9,2.9,2.9,7.7,0,10.6l-41.4,41.4C2239.1,2332.2,2237.1,2333,2235.2,2333z"/>
		</g>
		<g>
			<path style="fill:#443E4D;" d="M2276.6,2291.6c-1.9,0-3.8-0.7-5.3-2.2l-41.4-41.4c-2.9-2.9-2.9-7.7,0-10.6
				c2.9-2.9,7.7-2.9,10.6,0l41.4,41.4c2.9,2.9,2.9,7.7,0,10.6C2280.4,2290.9,2278.5,2291.6,2276.6,2291.6z"/>
		</g>
		<g>
			<circle style="fill:#ED8D86;" cx="2276.6" cy="2284.1" r="18.9"/>
			<path style="fill:#443E4D;" d="M2276.6,2310.5c-14.6,0-26.4-11.9-26.4-26.4c0-14.6,11.9-26.4,26.4-26.4
				c14.6,0,26.4,11.9,26.4,26.4C2303,2298.7,2291.2,2310.5,2276.6,2310.5z M2276.6,2272.6c-6.3,0-11.4,5.1-11.4,11.4
				c0,6.3,5.1,11.4,11.4,11.4c6.3,0,11.4-5.1,11.4-11.4C2288,2277.8,2282.9,2272.6,2276.6,2272.6z"/>
		</g>
		<g>
			<rect x="2052.7" y="2339.2" style="fill:#FFFFFF;" width="38.4" height="25.8"/>
			<path style="fill:#443E4D;" d="M2091.1,2372.5h-38.4c-4.1,0-7.5-3.4-7.5-7.5v-25.8c0-4.1,3.4-7.5,7.5-7.5h38.4
				c4.1,0,7.5,3.4,7.5,7.5v25.8C2098.6,2369.2,2095.3,2372.5,2091.1,2372.5z M2060.2,2357.5h23.4v-10.8h-23.4V2357.5z"/>
		</g>
		<g>
			<rect x="2052.7" y="2294.2" style="fill:#FFFFFF;" width="38.4" height="25.8"/>
			<path style="fill:#443E4D;" d="M2091.1,2327.4h-38.4c-4.1,0-7.5-3.4-7.5-7.5v-25.8c0-4.1,3.4-7.5,7.5-7.5h38.4
				c4.1,0,7.5,3.4,7.5,7.5v25.8C2098.6,2324.1,2095.3,2327.4,2091.1,2327.4z M2060.2,2312.4h23.4v-10.8h-23.4V2312.4z"/>
		</g>
		<g>
			<rect x="2052.7" y="2249.1" style="fill:#FFFFFF;" width="38.4" height="25.8"/>
			<path style="fill:#443E4D;" d="M2091.1,2282.4h-38.4c-4.1,0-7.5-3.4-7.5-7.5v-25.8c0-4.1,3.4-7.5,7.5-7.5h38.4
				c4.1,0,7.5,3.4,7.5,7.5v25.8C2098.6,2279,2095.3,2282.4,2091.1,2282.4z M2060.2,2267.4h23.4v-10.8h-23.4V2267.4z"/>
		</g>
		<g>
			<path style="fill:#FFFFFF;" d="M2052.7,2387.6c0,10.6,8.6,19.2,19.2,19.2l0,0c10.5,0,19.2-8.6,19.2-19.2v-3.3h-38.4V2387.6z"/>
			<path style="fill:#443E4D;" d="M2071.9,2414.3c-14.7,0-26.7-12-26.7-26.7v-3.3c0-4.1,3.4-7.5,7.5-7.5h38.4c4.1,0,7.5,3.4,7.5,7.5
				v3.3C2098.6,2402.3,2086.6,2414.3,2071.9,2414.3z M2061,2391.8c1.7,4.4,5.9,7.5,10.9,7.5s9.2-3.1,10.9-7.5H2061z"/>
		</g>
		<g>
			<rect x="2052.7" y="2204" style="fill:#FFFFFF;" width="38.4" height="25.8"/>
			<path style="fill:#443E4D;" d="M2091.1,2237.3h-38.4c-4.1,0-7.5-3.4-7.5-7.5V2204c0-4.1,3.4-7.5,7.5-7.5h38.4
				c4.1,0,7.5,3.4,7.5,7.5v25.8C2098.6,2234,2095.3,2237.3,2091.1,2237.3z M2060.2,2222.3h23.4v-10.8h-23.4V2222.3z"/>
		</g>
		<g>
			<path style="fill:#FFFFFF;" d="M2091.1,2180.6c0-10.5-8.6-19.2-19.2-19.2l0,0c-10.6,0-19.2,8.6-19.2,19.2v4.1h38.4V2180.6z"/>
			<path style="fill:#443E4D;" d="M2091.1,2192.2h-38.4c-4.1,0-7.5-3.4-7.5-7.5v-4.1c0-14.7,12-26.7,26.7-26.7s26.7,12,26.7,26.7
				v4.1C2098.6,2188.9,2095.3,2192.2,2091.1,2192.2z M2060.7,2177.2h22.4c-1.4-4.8-5.9-8.3-11.2-8.3S2062.2,2172.4,2060.7,2177.2z"
				/>
		</g>
		<g>
			<rect x="2052.7" y="2365" style="fill:#DDE4F5;" width="38.4" height="19.3"/>
			<path style="fill:#443E4D;" d="M2091.1,2391.8h-38.4c-4.1,0-7.5-3.4-7.5-7.5V2365c0-4.1,3.4-7.5,7.5-7.5h38.4
				c4.1,0,7.5,3.4,7.5,7.5v19.3C2098.6,2388.4,2095.3,2391.8,2091.1,2391.8z M2060.2,2376.8h23.4v-4.3h-23.4V2376.8z"/>
		</g>
		<g>
			<rect x="2052.7" y="2319.9" style="fill:#DDE4F5;" width="38.4" height="19.3"/>
			<path style="fill:#443E4D;" d="M2091.1,2346.7h-38.4c-4.1,0-7.5-3.4-7.5-7.5v-19.3c0-4.1,3.4-7.5,7.5-7.5h38.4
				c4.1,0,7.5,3.4,7.5,7.5v19.3C2098.6,2343.4,2095.3,2346.7,2091.1,2346.7z M2060.2,2331.7h23.4v-4.3h-23.4V2331.7z"/>
		</g>
		<g>
			<rect x="2052.7" y="2274.9" style="fill:#DDE4F5;" width="38.4" height="19.3"/>
			<path style="fill:#443E4D;" d="M2091.1,2301.7h-38.4c-4.1,0-7.5-3.4-7.5-7.5v-19.3c0-4.1,3.4-7.5,7.5-7.5h38.4
				c4.1,0,7.5,3.4,7.5,7.5v19.3C2098.6,2298.3,2095.3,2301.7,2091.1,2301.7z M2060.2,2286.7h23.4v-4.3h-23.4V2286.7z"/>
		</g>
		<g>
			<rect x="2052.7" y="2229.8" style="fill:#DDE4F5;" width="38.4" height="19.3"/>
			<path style="fill:#443E4D;" d="M2091.1,2256.6h-38.4c-4.1,0-7.5-3.4-7.5-7.5v-19.3c0-4.1,3.4-7.5,7.5-7.5h38.4
				c4.1,0,7.5,3.4,7.5,7.5v19.3C2098.6,2253.2,2095.3,2256.6,2091.1,2256.6z M2060.2,2241.6h23.4v-4.3h-23.4V2241.6z"/>
		</g>
		<g>
			<rect x="2052.7" y="2184.7" style="fill:#DDE4F5;" width="38.4" height="19.3"/>
			<path style="fill:#443E4D;" d="M2091.1,2211.5h-38.4c-4.1,0-7.5-3.4-7.5-7.5v-19.3c0-4.1,3.4-7.5,7.5-7.5h38.4
				c4.1,0,7.5,3.4,7.5,7.5v19.3C2098.6,2208.2,2095.3,2211.5,2091.1,2211.5z M2060.2,2196.5h23.4v-4.3h-23.4V2196.5z"/>
		</g>
	</g>
	<g>
		<g>
			<rect x="2044.9" y="582.8" style="fill:#FFFFFF;" width="492.5" height="55.1"/>
			<path style="fill:#443E4D;" d="M2537.4,645.4h-492.5c-4.1,0-7.5-3.4-7.5-7.5v-55.1c0-4.1,3.4-7.5,7.5-7.5h492.5
				c4.1,0,7.5,3.4,7.5,7.5v55.1C2544.9,642,2541.6,645.4,2537.4,645.4z M2052.4,630.4h477.5v-40.1h-477.5V630.4z"/>
		</g>
		<g>
			<polygon style="fill:#ED8D86;" points="2489,637.9 2044.9,637.9 2044.9,455.9 1996.5,455.9 1996.5,637.9 1996.5,696.4 
				1996.5,795.4 2044.9,795.4 2044.9,696.4 2489,696.4 2489,795.4 2537.4,795.4 2537.4,696.4 2537.4,637.9 			"/>
			<path style="fill:#443E4D;" d="M2537.4,802.9H2489c-4.1,0-7.5-3.4-7.5-7.5v-91.5h-429.1v91.5c0,4.1-3.4,7.5-7.5,7.5h-48.5
				c-4.1,0-7.5-3.4-7.5-7.5V455.9c0-4.1,3.4-7.5,7.5-7.5h48.5c4.1,0,7.5,3.4,7.5,7.5v174.5h485c4.1,0,7.5,3.4,7.5,7.5v157.4
				C2544.9,799.5,2541.6,802.9,2537.4,802.9z M2496.5,787.9h33.5V645.4h-485c-4.1,0-7.5-3.4-7.5-7.5V463.4H2004v324.4h33.5v-91.5
				c0-4.1,3.4-7.5,7.5-7.5H2489c4.1,0,7.5,3.4,7.5,7.5V787.9z"/>
		</g>
		<g>
			<path style="fill:#DDE4F5;" d="M2197.7,526.9h339.7v91.3l-170.7,51.6c-9.5,1.4-19.1,0.7-28.3-2l-64-43.8
				c-19.9-5.8-36-20.7-43.3-40.2v-1h-70l19.2-44.5C2183.3,531.4,2190.2,526.9,2197.7,526.9z"/>
			<path style="fill:#443E4D;" d="M2357.1,677.9c-7,0-14.1-1-20.8-3c-0.8-0.2-1.5-0.6-2.1-1l-63.1-43.2
				c-20.2-6.3-36.9-21.2-45.5-40.5h-64.5c-2.5,0-4.9-1.3-6.3-3.4s-1.6-4.8-0.6-7.1l19.2-44.5c4.1-9.7,13.6-16,24.2-16h339.7
				c4.1,0,7.5,3.4,7.5,7.5v91.3c0,3.3-2.2,6.2-5.3,7.2l-170.7,51.6c-0.4,0.1-0.7,0.2-1.1,0.2
				C2364.3,677.7,2360.7,677.9,2357.1,677.9z M2341.7,660.9c7.6,2.1,15.7,2.6,23.5,1.5l164.8-49.8v-78.2h-332.2
				c-4.5,0-8.6,2.7-10.4,6.9l-14.7,34.1h58.5c4,0,7.3,3.1,7.5,7.1c6.7,16.6,20.8,29.4,37.9,34.4c0.8,0.2,1.5,0.6,2.1,1L2341.7,660.9
				z"/>
		</g>
		<g>
			<path style="fill:#FFFFFF;" d="M2146.3,578.7h-64.8c-16.8,0-30.6-30.6-30.6-30.6v0c0-16.8,13.8-30.6,30.6-30.6h64.8
				c16.8,0,30.6,13.8,30.6,30.6v0C2176.9,548.1,2163.1,578.7,2146.3,578.7z"/>
			<path style="fill:#443E4D;" d="M2146.3,586.2h-64.8c-9.5,0-18.8-6.2-27.7-18.4c-5.9-8.2-9.6-16.3-9.7-16.6c-0.4-1-0.7-2-0.7-3.1
				c0-21,17.1-38.1,38.1-38.1h64.8c21,0,38.1,17.1,38.1,38.1c0,1.1-0.2,2.1-0.7,3.1c-0.2,0.3-3.8,8.4-9.7,16.6
				C2165.1,580,2155.8,586.2,2146.3,586.2z M2058.5,546.5c1.2,2.5,3.9,7.6,7.6,12.7c5.6,7.6,11.2,12,15.4,12h64.8
				c4.2,0,9.8-4.4,15.4-12c3.7-5,6.4-10.2,7.6-12.7c-0.8-12-10.8-21.5-23-21.5h-64.8C2069.3,525,2059.3,534.5,2058.5,546.5z"/>
		</g>
	</g>
	<g>
		<g>
			<rect x="258.6" y="2324.8" style="fill:#ED8D86;" width="483.1" height="40"/>
			<path style="fill:#443E4D;" d="M741.6,2372.4H258.6c-4.1,0-7.5-3.4-7.5-7.5v-40c0-4.1,3.4-7.5,7.5-7.5h483.1
				c4.1,0,7.5,3.4,7.5,7.5v40C749.1,2369,745.8,2372.4,741.6,2372.4z M266.1,2357.4h468.1v-25H266.1V2357.4z"/>
		</g>
		<g>
			<path style="fill:#DDE4F5;" d="M679,2272.2c0.1,1.3,0.2,2.7,0.2,4c0,25.6-20.8,46.4-46.4,46.4s-46.4-20.8-46.4-46.4
				c0-11,3.9-21.1,10.3-29.1h-58.9c-1.6,16.6-15.6,29.6-32.6,29.6s-31-13-32.6-29.6h-86.2c-53.7,0-97.7,44-97.7,97.7v0
				c0,43.9,29.4,81.3,69.5,93.5c0.1-26.4,21.5-47.8,47.9-47.8c26.5,0,47.9,21.4,47.9,47.9c0,1.4-0.1,2.7-0.2,4.1h76.5
				c-3.2-7.4-5-15.6-5-24.3c0-33.8,27.4-61.2,61.2-61.2s61.2,27.4,61.2,61.2c0,6.7-1.1,13.2-3.1,19.3c38.8-12.9,67-49.7,67-92.8v0
				C711.6,2316.1,699,2290.1,679,2272.2z"/>
			<path style="fill:#443E4D;" d="M530.2,2450.1h-76.5c-2.1,0-4.1-0.9-5.5-2.4s-2.1-3.6-2-5.7c0.1-1.3,0.2-2.4,0.2-3.5
				c0-22.3-18.1-40.4-40.4-40.4c-22.2,0-40.4,18.1-40.4,40.3c0,2.4-1.1,4.6-3,6c-1.9,1.4-4.4,1.8-6.6,1.1
				c-21.1-6.4-40.1-19.8-53.6-37.5c-13.9-18.4-21.2-40.2-21.2-63.2c0-58,47.2-105.2,105.2-105.2h86.2c3.9,0,7.1,2.9,7.5,6.8
				c1.3,13,12.1,22.8,25.2,22.8s23.9-9.8,25.2-22.8c0.4-3.8,3.6-6.8,7.5-6.8h58.9c2.9,0,5.5,1.7,6.8,4.3s0.9,5.7-0.9,7.9
				c-5.6,7-8.6,15.4-8.6,24.4c0,21.5,17.5,38.9,38.9,38.9c21.5,0,38.9-17.5,38.9-38.9c0-1-0.1-2.1-0.2-3.4c-0.3-3.1,1.4-6,4.1-7.4
				c2.8-1.4,6.1-0.9,8.4,1.1c22.3,20,35,48.5,35,78.2c0,45.3-29,85.5-72.2,99.9c-2.7,0.9-5.7,0.2-7.7-1.8c-2-2-2.7-5-1.8-7.7
				c1.8-5.5,2.7-11.2,2.7-16.9c0-29.6-24.1-53.7-53.7-53.7c-29.6,0-53.7,24.1-53.7,53.7c0,7.4,1.5,14.6,4.4,21.3
				c1,2.3,0.8,5-0.6,7.1S532.7,2450.1,530.2,2450.1z M461.3,2435.1h58.4c-1.4-5.5-2.1-11.1-2.1-16.8c0-37.9,30.8-68.7,68.7-68.7
				s68.7,30.8,68.7,68.7c0,2.3-0.1,4.6-0.3,6.9c29.9-15.3,49.3-46.1,49.3-80.3c0-20.1-6.8-39.5-19-55.2c-6,23.3-27.1,40.5-52.2,40.5
				c-29.7,0-53.9-24.2-53.9-53.9c0-7.5,1.6-14.8,4.5-21.6H544c-4.7,17.3-20.4,29.6-38.9,29.6s-34.2-12.3-38.9-29.6h-79.9
				c-49.8,0-90.2,40.5-90.2,90.2c0,36.2,22.4,69.2,55.4,83.2c4.9-25.6,27.5-45,54.4-45C435.4,2383.1,459.5,2406.1,461.3,2435.1z"/>
		</g>
		<g>
			<path style="fill:#FFFFFF;" d="M586.4,2357.1c-33.8,0-61.2,27.4-61.2,61.2c0,8.6,1.8,16.8,5,24.3h83.7c10.7,0,21-1.8,30.7-5
				c2-6.1,3.1-12.6,3.1-19.3C647.6,2384.5,620.2,2357.1,586.4,2357.1z"/>
			<path style="fill:#443E4D;" d="M613.8,2450.1h-83.7c-3,0-5.7-1.8-6.9-4.5c-3.7-8.6-5.6-17.8-5.6-27.2c0-37.9,30.8-68.7,68.7-68.7
				s68.7,30.8,68.7,68.7c0,7.4-1.2,14.7-3.5,21.7c-0.7,2.2-2.5,4-4.7,4.8C636.2,2448.3,625.1,2450.1,613.8,2450.1z M644.5,2437.6
				L644.5,2437.6L644.5,2437.6z M535.3,2435.1h78.5c8.4,0,16.6-1.2,24.6-3.4c1.1-4.4,1.7-8.8,1.7-13.3c0-29.6-24.1-53.7-53.7-53.7
				c-29.6,0-53.7,24.1-53.7,53.7C532.7,2424.1,533.6,2429.7,535.3,2435.1z"/>
		</g>
		<g>
			<path style="fill:#FFFFFF;" d="M632.8,2322.6c25.6,0,46.4-20.8,46.4-46.4c0-1.4-0.1-2.7-0.2-4c-17.3-15.6-40.2-25.1-65.2-25.1
				h-17.2c-6.4,8-10.3,18.1-10.3,29.1C586.4,2301.9,607.2,2322.6,632.8,2322.6z"/>
			<path style="fill:#443E4D;" d="M632.8,2330.1c-29.7,0-53.9-24.2-53.9-53.9c0-12.3,4.2-24.3,11.9-33.8c1.4-1.8,3.6-2.8,5.8-2.8
				h17.2c25.9,0,50.8,9.6,70.2,27c1.4,1.3,2.3,3,2.5,4.9c0.1,1.7,0.2,3.2,0.2,4.7C686.7,2306,662.5,2330.1,632.8,2330.1z
				 M600.5,2254.6c-4.3,6.4-6.5,13.8-6.5,21.6c0,21.5,17.5,38.9,38.9,38.9c21.5,0,38.9-17.5,38.9-38.9c0-0.1,0-0.3,0-0.4
				c-16.3-13.7-36.7-21.2-57.9-21.2H600.5z"/>
		</g>
		<g>
			<path style="fill:#FFFFFF;" d="M505.2,2276.7c17,0,31-13,32.6-29.6h-65.3C474.1,2263.7,488.1,2276.7,505.2,2276.7z"/>
			<path style="fill:#443E4D;" d="M505.2,2284.2c-20.8,0-38.1-15.6-40.1-36.3c-0.2-2.1,0.5-4.2,1.9-5.8s3.4-2.5,5.6-2.5h65.3
				c2.1,0,4.1,0.9,5.6,2.5s2.1,3.7,1.9,5.8C543.2,2268.6,526,2284.2,505.2,2284.2z M482.2,2254.6c4,8.7,12.8,14.6,22.9,14.6
				s18.9-5.9,22.9-14.6H482.2z"/>
		</g>
		<g>
			<path style="fill:#FFFFFF;" d="M406,2390.6c-26.4,0-47.9,21.4-47.9,47.8c9,2.7,18.4,4.2,28.3,4.2h67.4c0.1-1.4,0.2-2.7,0.2-4.1
				C453.9,2412,432.4,2390.6,406,2390.6z"/>
			<path style="fill:#443E4D;" d="M453.7,2450.1h-67.4c-10.3,0-20.6-1.5-30.5-4.5c-3.2-1-5.3-3.9-5.3-7.2
				c0.1-30.5,24.9-55.3,55.4-55.3c30.6,0,55.4,24.9,55.4,55.4c0,1.5-0.1,3-0.2,4.7C460.8,2447.1,457.6,2450.1,453.7,2450.1z
				 M366,2432.7c6.7,1.6,13.5,2.3,20.4,2.3h59.9c-1.7-20.7-19.1-37-40.3-37C385.7,2398.1,368.8,2413.2,366,2432.7z"/>
		</g>
		<g>
			<circle style="fill:#FFFFFF;" cx="491.3" cy="2336" r="29"/>
			<path style="fill:#443E4D;" d="M491.3,2372.5c-20.1,0-36.5-16.4-36.5-36.5s16.4-36.5,36.5-36.5s36.5,16.4,36.5,36.5
				S511.4,2372.5,491.3,2372.5z M491.3,2314.5c-11.9,0-21.5,9.7-21.5,21.5c0,11.9,9.7,21.5,21.5,21.5s21.5-9.7,21.5-21.5
				C512.8,2324.2,503.1,2314.5,491.3,2314.5z"/>
		</g>
		<g>
			<g>
				<path style="fill:#443E4D;" d="M404.4,2202.2c-3,0-5.9-1.8-7-4.8c-1.5-3.9,0.5-8.2,4.4-9.7l55.5-21c3.9-1.5,8.2,0.5,9.7,4.4
					c1.5,3.9-0.5,8.2-4.4,9.7l-55.5,21C406.2,2202.1,405.3,2202.2,404.4,2202.2z"/>
			</g>
			<g>
				<path style="fill:#443E4D;" d="M433.4,2278.6c-3,0-5.9-1.8-7-4.8c-1.5-3.9,0.5-8.2,4.4-9.7l55.5-21c3.9-1.5,8.2,0.5,9.7,4.4
					c1.5,3.9-0.5,8.2-4.4,9.7l-55.5,21C435.2,2278.4,434.3,2278.6,433.4,2278.6z"/>
			</g>
			<g>
				<path style="fill:#443E4D;" d="M433.4,2278.6c-0.7,0-1.3-0.1-2-0.3c-4-1.1-6.4-5.2-5.3-9.2l26.6-97.4c1.1-4,5.2-6.4,9.2-5.3
					c4,1.1,6.4,5.2,5.3,9.2l-26.6,97.4C439.7,2276.4,436.7,2278.6,433.4,2278.6z"/>
			</g>
		</g>
		<g>
			<circle style="fill:#FFFFFF;" cx="377.9" cy="2322.1" r="32.8"/>
			<path style="fill:#443E4D;" d="M377.9,2362.4c-22.2,0-40.3-18.1-40.3-40.3s18.1-40.3,40.3-40.3s40.3,18.1,40.3,40.3
				S400.1,2362.4,377.9,2362.4z M377.9,2296.8c-14,0-25.3,11.4-25.3,25.3c0,14,11.4,25.3,25.3,25.3c14,0,25.3-11.4,25.3-25.3
				C403.2,2308.1,391.8,2296.8,377.9,2296.8z"/>
		</g>
		<g>
			<g>
				<path style="fill:#443E4D;" d="M386.1,2264.5c-0.8,0-1.7-0.1-2.5-0.4l-37.7-13.3c-3.9-1.4-5.9-5.7-4.6-9.6
					c1.4-3.9,5.7-5.9,9.6-4.6l37.7,13.3c3.9,1.4,5.9,5.7,4.6,9.6C392.1,2262.6,389.2,2264.5,386.1,2264.5z"/>
			</g>
			<g>
				<path style="fill:#443E4D;" d="M367.7,2316.3c-0.8,0-1.7-0.1-2.5-0.4l-37.7-13.3c-3.9-1.4-5.9-5.7-4.6-9.6
					c1.4-3.9,5.7-5.9,9.6-4.6l37.7,13.3c3.9,1.4,5.9,5.7,4.6,9.6C373.7,2314.4,370.8,2316.3,367.7,2316.3z"/>
			</g>
			<g>
				<path style="fill:#443E4D;" d="M330.1,2303c-2.4,0-4.7-1.1-6.2-3.3c-2.3-3.4-1.5-8.1,1.9-10.4l56-38.5c3.4-2.3,8.1-1.5,10.4,1.9
					c2.3,3.4,1.5,8.1-1.9,10.4l-56,38.5C333,2302.6,331.5,2303,330.1,2303z"/>
			</g>
		</g>
		<g>
			<g>
				<path style="fill:#443E4D;" d="M321.1,2146.1c-3.1,0-6-2-7.1-5.1c-1.3-3.9,0.7-8.2,4.6-9.5l37.8-13c3.9-1.3,8.2,0.7,9.5,4.6
					c1.3,3.9-0.7,8.2-4.6,9.5l-37.8,13C322.7,2146,321.9,2146.1,321.1,2146.1z"/>
			</g>
			<g>
				<path style="fill:#443E4D;" d="M339,2198.1c-3.1,0-6-2-7.1-5.1c-1.3-3.9,0.7-8.2,4.6-9.5l37.8-13c3.9-1.3,8.2,0.7,9.5,4.6
					c1.3,3.9-0.7,8.2-4.6,9.5l-37.8,13C340.6,2198,339.8,2198.1,339,2198.1z"/>
			</g>
			<g>
				<path style="fill:#443E4D;" d="M339,2198.1c-0.7,0-1.5-0.1-2.2-0.3c-4-1.2-6.2-5.4-5-9.4l19.9-65c1.2-4,5.4-6.2,9.4-5
					c4,1.2,6.2,5.4,5,9.4l-19.9,65C345.1,2196,342.2,2198.1,339,2198.1z"/>
			</g>
		</g>
	</g>
</g>
</svg>
