<svg width="236" height="240" viewBox="0 0 236 240" fill="none" xmlns="http://www.w3.org/2000/svg">
<path d="M118 186.452C154.088 186.452 183.344 156.7 183.344 120C183.344 83.2999 154.088 53.5486 118 53.5486C81.9116 53.5486 52.6561 83.2999 52.6561 120C52.6561 156.7 81.9116 186.452 118 186.452Z" fill="url(#paint0_radial_635_856)"/>
<path d="M158.74 58.0961L170.778 27.0371L150.351 53.1629C153.262 54.6224 156.064 56.2707 158.74 58.0961Z" fill="url(#paint1_radial_635_856)"/>
<path d="M118 45.5156C119.629 45.5156 121.244 45.5753 122.847 45.6821L118 12.6548L113.153 45.6821C114.756 45.5753 116.371 45.5156 118 45.5156Z" fill="url(#paint2_radial_635_856)"/>
<path d="M85.6491 53.1626L65.222 27.0369L77.2593 58.0958C79.9361 56.2708 82.7388 54.6224 85.6491 53.1626Z" fill="url(#paint3_radial_635_856)"/>
<path d="M183.724 87.1008L209.414 66.3274L178.873 78.5687C180.667 81.2909 182.288 84.1408 183.724 87.1008Z" fill="url(#paint4_radial_635_856)"/>
<path d="M57.1278 78.5687L26.5865 66.3274L52.2768 87.1008C53.712 84.1408 55.3329 81.2909 57.1278 78.5687Z" fill="url(#paint5_radial_635_856)"/>
<path d="M223.556 120L191.079 115.071C191.184 116.7 191.243 118.343 191.243 120C191.243 121.657 191.184 123.299 191.079 124.929L223.556 120Z" fill="url(#paint6_radial_635_856)"/>
<path d="M118 194.484C116.371 194.484 114.756 194.424 113.153 194.318L118 227.344L122.847 194.318C121.244 194.424 119.629 194.484 118 194.484Z" fill="url(#paint7_radial_635_856)"/>
<path d="M150.351 186.837L170.778 212.963L158.74 181.904C156.064 183.729 153.262 185.378 150.351 186.837Z" fill="url(#paint8_radial_635_856)"/>
<path d="M44.7572 120C44.7572 118.343 44.8163 116.7 44.9209 115.071L12.4444 120L44.9209 124.929C44.8163 123.299 44.7572 121.657 44.7572 120Z" fill="url(#paint9_radial_635_856)"/>
<path d="M178.873 161.43L209.414 173.672L183.723 152.898C182.288 155.858 180.667 158.709 178.873 161.43Z" fill="url(#paint10_radial_635_856)"/>
<path d="M52.2765 152.898L26.5862 173.672L57.1274 161.43C55.3329 158.709 53.712 155.858 52.2765 152.898Z" fill="url(#paint11_radial_635_856)"/>
<path d="M77.2597 181.904L65.2224 212.963L85.6495 186.837C82.7388 185.378 79.9361 183.729 77.2597 181.904Z" fill="url(#paint12_radial_635_856)"/>
<path d="M106.567 46.4211L86.9903 0L92.3835 50.2029C96.9161 48.4821 101.661 47.2033 106.567 46.4211Z" fill="url(#paint13_radial_635_856)"/>
<path d="M71.9311 62.0985L32.145 31.8445L61.5074 72.5913C64.628 68.7499 68.1232 65.2358 71.9311 62.0985Z" fill="url(#paint14_radial_635_856)"/>
<path d="M174.937 73.1502L204.686 32.6897L164.619 62.5502C168.396 65.7234 171.852 69.2777 174.937 73.1502Z" fill="url(#paint15_radial_635_856)"/>
<path d="M186.634 93.9496C188.326 98.5588 189.583 103.384 190.353 108.374L236 88.4646L186.634 93.9496Z" fill="url(#paint16_radial_635_856)"/>
<path d="M49.6173 93.2788L0.303986 87.3103L45.7627 107.666C46.5789 102.686 47.88 97.8726 49.6173 93.2788Z" fill="url(#paint17_radial_635_856)"/>
<path d="M144.276 50.4577L150.145 0.309082L130.128 46.5382C135.026 47.3682 139.759 48.6914 144.276 50.4577Z" fill="url(#paint18_radial_635_856)"/>
<path d="M164.069 177.902L203.855 208.155L174.492 167.409C171.372 171.25 167.877 174.764 164.069 177.902Z" fill="url(#paint19_radial_635_856)"/>
<path d="M45.6475 131.627L0 151.535L49.3665 146.05C47.674 141.441 46.4166 136.616 45.6475 131.627Z" fill="url(#paint20_radial_635_856)"/>
<path d="M186.383 146.722L235.696 152.69L190.237 132.334C189.421 137.315 188.12 142.128 186.383 146.722Z" fill="url(#paint21_radial_635_856)"/>
<path d="M129.433 193.579L149.01 240L143.617 189.797C139.084 191.518 134.339 192.797 129.433 193.579Z" fill="url(#paint22_radial_635_856)"/>
<path d="M61.0635 166.85L31.3137 207.311L71.3811 177.45C67.604 174.276 64.1485 170.722 61.0635 166.85Z" fill="url(#paint23_radial_635_856)"/>
<path d="M91.724 189.542L85.8554 239.691L105.872 193.462C100.974 192.631 96.2413 191.308 91.724 189.542Z" fill="url(#paint24_radial_635_856)"/>
<path opacity="0.5" d="M67.3404 131.976C66.728 132.214 66.0708 132.364 65.3828 132.409C61.6946 132.652 58.5115 129.808 58.2732 126.058C58.245 125.619 57.6403 115.17 62.0819 102.632C66.1986 91.0098 75.5712 75.2011 96.8423 65.891C100.239 64.4207 104.173 65.9997 105.634 69.4514C107.095 72.9038 105.528 76.9069 102.133 78.3925C69.9316 92.4864 71.6076 124.854 71.6285 125.179C71.822 128.229 70.0084 130.94 67.3404 131.976Z" fill="url(#paint25_radial_635_856)"/>
<path opacity="0.5" d="M143.649 164.712C143.882 165.335 144.211 165.932 144.636 166.484C146.916 169.442 151.122 169.96 154.031 167.64C154.371 167.369 162.433 160.863 168.664 149.139C174.439 138.271 179.781 120.629 172.427 98.2974C171.241 94.7427 167.462 92.8124 163.957 94.0053C160.453 95.1993 158.563 99.0557 159.736 102.619C170.869 136.426 146.025 156.729 145.773 156.93C143.408 158.816 142.629 161.999 143.649 164.712Z" fill="url(#paint26_radial_635_856)"/>
<defs>
<radialGradient id="paint0_radial_635_856" cx="0" cy="0" r="1" gradientUnits="userSpaceOnUse" gradientTransform="translate(118 120) scale(65.3439 66.4515)">
<stop offset="0.743" stop-color="#FFCD2B"/>
<stop offset="0.9972" stop-color="#FFAA00"/>
</radialGradient>
<radialGradient id="paint1_radial_635_856" cx="0" cy="0" r="1" gradientUnits="userSpaceOnUse" gradientTransform="translate(160.564 42.5662) scale(12.9907 13.2109)">
<stop offset="0.743" stop-color="#FFCD2B"/>
<stop offset="0.9972" stop-color="#FFAA00"/>
</radialGradient>
<radialGradient id="paint2_radial_635_856" cx="0" cy="0" r="1" gradientUnits="userSpaceOnUse" gradientTransform="translate(118 29.1688) scale(11.9828 12.1859)">
<stop offset="0.743" stop-color="#FFCD2B"/>
<stop offset="0.9972" stop-color="#FFAA00"/>
</radialGradient>
<radialGradient id="paint3_radial_635_856" cx="0" cy="0" r="1" gradientUnits="userSpaceOnUse" gradientTransform="translate(75.4358 42.5662) scale(12.9907 13.2109)">
<stop offset="0.743" stop-color="#FFCD2B"/>
<stop offset="0.9972" stop-color="#FFAA00"/>
</radialGradient>
<radialGradient id="paint4_radial_635_856" cx="0" cy="0" r="1" gradientUnits="userSpaceOnUse" gradientTransform="translate(194.143 76.7142) scale(12.9906 13.2108)">
<stop offset="0.743" stop-color="#FFCD2B"/>
<stop offset="0.9972" stop-color="#FFAA00"/>
</radialGradient>
<radialGradient id="paint5_radial_635_856" cx="0" cy="0" r="1" gradientUnits="userSpaceOnUse" gradientTransform="translate(41.857 76.7142) scale(12.9906 13.2108)">
<stop offset="0.743" stop-color="#FFCD2B"/>
<stop offset="0.9972" stop-color="#FFAA00"/>
</radialGradient>
<radialGradient id="paint6_radial_635_856" cx="0" cy="0" r="1" gradientUnits="userSpaceOnUse" gradientTransform="translate(207.317 120) scale(11.9829 12.186)">
<stop offset="0.743" stop-color="#FFCD2B"/>
<stop offset="0.9972" stop-color="#FFAA00"/>
</radialGradient>
<radialGradient id="paint7_radial_635_856" cx="0" cy="0" r="1" gradientUnits="userSpaceOnUse" gradientTransform="translate(118 210.831) scale(11.9828 12.1859)">
<stop offset="0.743" stop-color="#FFCD2B"/>
<stop offset="0.9972" stop-color="#FFAA00"/>
</radialGradient>
<radialGradient id="paint8_radial_635_856" cx="0" cy="0" r="1" gradientUnits="userSpaceOnUse" gradientTransform="translate(160.564 197.433) scale(12.9907 13.2109)">
<stop offset="0.743" stop-color="#FFCD2B"/>
<stop offset="0.9972" stop-color="#FFAA00"/>
</radialGradient>
<radialGradient id="paint9_radial_635_856" cx="0" cy="0" r="1" gradientUnits="userSpaceOnUse" gradientTransform="translate(28.6828 120) scale(11.9828 12.1859)">
<stop offset="0.743" stop-color="#FFCD2B"/>
<stop offset="0.9972" stop-color="#FFAA00"/>
</radialGradient>
<radialGradient id="paint10_radial_635_856" cx="0" cy="0" r="1" gradientUnits="userSpaceOnUse" gradientTransform="translate(194.143 163.285) scale(12.9906 13.2108)">
<stop offset="0.743" stop-color="#FFCD2B"/>
<stop offset="0.9972" stop-color="#FFAA00"/>
</radialGradient>
<radialGradient id="paint11_radial_635_856" cx="0" cy="0" r="1" gradientUnits="userSpaceOnUse" gradientTransform="translate(41.857 163.285) scale(12.9906 13.2108)">
<stop offset="0.743" stop-color="#FFCD2B"/>
<stop offset="0.9972" stop-color="#FFAA00"/>
</radialGradient>
<radialGradient id="paint12_radial_635_856" cx="0" cy="0" r="1" gradientUnits="userSpaceOnUse" gradientTransform="translate(75.4357 197.433) scale(12.9907 13.2108)">
<stop offset="0.743" stop-color="#FFCD2B"/>
<stop offset="0.9972" stop-color="#FFAA00"/>
</radialGradient>
<radialGradient id="paint13_radial_635_856" cx="0" cy="0" r="1" gradientUnits="userSpaceOnUse" gradientTransform="translate(96.7788 25.1014) scale(18.7759 19.0941)">
<stop offset="0.743" stop-color="#FFCD2B"/>
<stop offset="0.9972" stop-color="#FFAA00"/>
</radialGradient>
<radialGradient id="paint14_radial_635_856" cx="0" cy="0" r="1" gradientUnits="userSpaceOnUse" gradientTransform="translate(52.0378 52.218) scale(19.9635 20.3019)">
<stop offset="0.743" stop-color="#FFCD2B"/>
<stop offset="0.9972" stop-color="#FFAA00"/>
</radialGradient>
<radialGradient id="paint15_radial_635_856" cx="0" cy="0" r="1" gradientUnits="userSpaceOnUse" gradientTransform="translate(184.653 52.9198) scale(19.9636 20.302)">
<stop offset="0.743" stop-color="#FFCD2B"/>
<stop offset="0.9972" stop-color="#FFAA00"/>
</radialGradient>
<radialGradient id="paint16_radial_635_856" cx="0" cy="0" r="1" gradientUnits="userSpaceOnUse" gradientTransform="translate(211.317 98.4189) scale(18.7761 19.0944)">
<stop offset="0.743" stop-color="#FFCD2B"/>
<stop offset="0.9972" stop-color="#FFAA00"/>
</radialGradient>
<radialGradient id="paint17_radial_635_856" cx="0" cy="0" r="1" gradientUnits="userSpaceOnUse" gradientTransform="translate(24.9605 97.4881) scale(18.8165 19.1354)">
<stop offset="0.743" stop-color="#FFCD2B"/>
<stop offset="0.9972" stop-color="#FFAA00"/>
</radialGradient>
<radialGradient id="paint18_radial_635_856" cx="0" cy="0" r="1" gradientUnits="userSpaceOnUse" gradientTransform="translate(140.137 25.3835) scale(18.8163 19.1352)">
<stop offset="0.743" stop-color="#FFCD2B"/>
<stop offset="0.9972" stop-color="#FFAA00"/>
</radialGradient>
<radialGradient id="paint19_radial_635_856" cx="0" cy="0" r="1" gradientUnits="userSpaceOnUse" gradientTransform="translate(183.962 187.782) scale(19.9635 20.3019)">
<stop offset="0.743" stop-color="#FFCD2B"/>
<stop offset="0.9972" stop-color="#FFAA00"/>
</radialGradient>
<radialGradient id="paint20_radial_635_856" cx="0" cy="0" r="1" gradientUnits="userSpaceOnUse" gradientTransform="translate(24.6832 141.581) scale(18.7759 19.0942)">
<stop offset="0.743" stop-color="#FFCD2B"/>
<stop offset="0.9972" stop-color="#FFAA00"/>
</radialGradient>
<radialGradient id="paint21_radial_635_856" cx="0" cy="0" r="1" gradientUnits="userSpaceOnUse" gradientTransform="translate(211.039 142.512) scale(18.8164 19.1353)">
<stop offset="0.743" stop-color="#FFCD2B"/>
<stop offset="0.9972" stop-color="#FFAA00"/>
</radialGradient>
<radialGradient id="paint22_radial_635_856" cx="0" cy="0" r="1" gradientUnits="userSpaceOnUse" gradientTransform="translate(139.221 214.899) scale(18.7759 19.0941)">
<stop offset="0.743" stop-color="#FFCD2B"/>
<stop offset="0.9972" stop-color="#FFAA00"/>
</radialGradient>
<radialGradient id="paint23_radial_635_856" cx="0" cy="0" r="1" gradientUnits="userSpaceOnUse" gradientTransform="translate(51.3476 187.08) scale(19.9635 20.3019)">
<stop offset="0.743" stop-color="#FFCD2B"/>
<stop offset="0.9972" stop-color="#FFAA00"/>
</radialGradient>
<radialGradient id="paint24_radial_635_856" cx="0" cy="0" r="1" gradientUnits="userSpaceOnUse" gradientTransform="translate(95.8634 214.617) scale(18.8163 19.1353)">
<stop offset="0.743" stop-color="#FFCD2B"/>
<stop offset="0.9972" stop-color="#FFAA00"/>
</radialGradient>
<radialGradient id="paint25_radial_635_856" cx="0" cy="0" r="1" gradientUnits="userSpaceOnUse" gradientTransform="translate(82.2186 98.8816) rotate(-21.2209) scale(28.9318 29.2948)">
<stop offset="0.743" stop-color="#FFE592"/>
<stop offset="0.9972" stop-color="#F7F7F7"/>
</radialGradient>
<radialGradient id="paint26_radial_635_856" cx="0" cy="0" r="1" gradientUnits="userSpaceOnUse" gradientTransform="translate(157.991 131.373) rotate(-21.221) scale(28.9317 29.2946)">
<stop offset="0.743" stop-color="#FFE592"/>
<stop offset="0.9972" stop-color="#F7F7F7"/>
</radialGradient>
</defs>
</svg>
