<svg width="120" height="62" viewBox="0 0 120 62" fill="none" xmlns="http://www.w3.org/2000/svg">
<path d="M77.2415 24.1812C77.8693 28.0235 44.3701 27.0241 38.5033 25.5488C35.1651 24.85 39.0738 8.59156 36.9762 3.28897C35.768 -1.67547 73.425 -0.367981 76.2052 2.92077C78.3451 5.45058 76.3572 18.7709 77.2415 24.1812Z" fill="#FBF5EB"/>
<path d="M43.0897 14.8335C43.2218 14.1697 43.0524 13.4057 43.147 13.0375C43.3613 12.211 43.4684 11.7977 43.3413 11.6799C42.8257 11.199 42.4669 13.3882 41.9811 13.3707C41.7868 13.263 41.6224 12.6017 41.5576 12.1258C41.4804 11.5572 41.6971 9.87401 41.3583 9.90407C41.0719 9.92911 40.88 11.1539 40.8875 11.5647C40.8775 11.1364 41.0494 9.25783 40.596 9.41563C40.2647 9.53085 40.2597 11.6774 40.2672 11.963C40.2572 11.8252 40.3345 9.7663 40.0056 9.90908C39.627 10.0719 39.7042 11.9254 39.7117 12.2085C39.6967 12.0356 39.8163 10.2698 39.4152 10.4626C39.1661 10.5829 39.064 12.2936 39.0714 12.5792C39.1013 13.8366 40.2747 16.8698 40.4864 17.2205L42.4345 17.2606C42.4345 17.2606 42.7086 16.4515 42.7883 16.0558C42.8904 15.5573 43.0399 15.0814 43.0897 14.8335Z" fill="#FDBCA0"/>
<path d="M53.4981 29.8319C53.7347 31.6504 51.2012 37.9624 51.7418 41.0958C56.9808 42.2029 69.3371 40.2167 70.2988 36.0512C70.376 33.2309 70.2763 30.0749 70.3311 28.1963C70.4706 23.2869 69.5688 14.8734 61.44 17.4784C61.024 17.3907 61.0389 16.7745 56.9409 17.0551C52.9774 17.3206 52.7856 24.3965 53.4981 29.8319Z" fill="#8E97FD"/>
<path d="M39.724 17.3507C38.0773 25.7893 43.1768 32.1113 50.2942 31.7731C60.4059 31.2947 66.4944 23.307 63.7292 17.764L61.0063 17.8041C52.9373 16.3864 51.0066 22.4554 48.5777 22.235C46.8314 22.0772 43.9491 20.5393 43.3562 16.98C43.2266 16.2035 39.856 16.6769 39.724 17.3507Z" fill="#8E97FD"/>
<path d="M58.7942 17.8842C57.444 21.1304 52.1452 22.6658 52.9947 17.8717C53.2563 16.3914 51.3231 15.2192 51.1487 14.1672C50.7526 11.7726 53.1317 11.0036 53.6549 8.822C54.4421 5.53575 55.745 0.0803831 64.5763 5.23017C67.2618 6.79314 58.7942 17.8842 58.7942 17.8842Z" fill="#3F414E"/>
<path d="M63.1314 11.9403L63.1463 18.0169C62.8349 19.7652 58.57 20.0232 58.7942 18.0319L58.7817 15.422L63.1314 11.9403Z" fill="#F0A38B"/>
<path d="M55.9967 11.8501C55.9693 12.2208 55.922 12.5589 55.9419 12.9221C55.9693 13.3955 56.0714 13.8765 56.2508 14.3273C56.7291 15.5246 57.7256 17.2253 58.9737 17.2554C61.1759 17.3055 64.0308 14.8057 63.6771 11.5771C63.3682 8.75923 60.999 4.43851 60.1421 6.10167C58.8118 8.68408 57.3195 7.68969 56.3679 9.28522C56.1686 9.61836 55.9842 10.0392 55.9992 11.0085C56.0042 11.3241 56.0141 11.5946 55.9967 11.8501Z" fill="#FDBCA0"/>
<path d="M60.5307 13.4407C60.5058 14.1295 61.0389 14.7081 61.724 14.7356C62.4091 14.7607 62.9846 14.2247 63.012 13.5358C63.0369 12.847 62.5038 12.2684 61.8187 12.2409C61.1336 12.2133 60.5581 12.7519 60.5307 13.4407Z" fill="#F4A07B"/>
<path d="M55.9419 12.9222C55.9693 13.3956 56.0764 13.874 56.2508 14.3274C56.8163 14.2272 57.2573 13.7438 57.2797 13.1426C57.3046 12.4538 56.7715 11.8752 56.0864 11.8477C56.0565 11.8477 56.0266 11.8477 55.9967 11.8477C55.9693 12.2209 55.922 12.559 55.9419 12.9222Z" fill="#F4A07B"/>
<path d="M59.6812 11.8451C59.6812 11.8451 60.1794 12.6767 61.7115 11.7349C61.9033 11.6172 61.0538 11.8802 60.5282 11.9228C59.9901 11.9628 59.5466 11.6648 59.6812 11.8451Z" fill="#002869"/>
<path d="M56.2607 11.3093C56.3853 11.5146 57.4889 12.3687 57.895 11.6123C58.0021 11.4145 57.5761 11.8302 57.0803 11.6474C56.5721 11.462 56.181 11.179 56.2607 11.3093Z" fill="#002869"/>
<path d="M58.9863 13.849C58.66 13.864 58.1567 13.7839 58.072 13.3981C58.0347 13.2278 58.1219 13.0825 58.1991 12.9373C58.3984 12.5641 58.5753 12.2234 58.5628 11.7851C58.5603 11.7275 58.65 11.7149 58.6525 11.7726C58.6649 12.1909 58.5204 12.5315 58.3261 12.8947C58.2115 13.1076 58.0745 13.2954 58.2489 13.5284C58.4083 13.7388 58.7272 13.7738 58.9738 13.7613C59.0311 13.7588 59.0436 13.8465 58.9863 13.849Z" fill="#F27979"/>
<path d="M59.923 14.7356C60.0201 14.5403 58.9913 15.229 57.8702 14.6179C57.3894 14.3549 58.5428 15.7725 59.923 14.7356Z" fill="#F27979"/>
<path fill-rule="evenodd" clip-rule="evenodd" d="M67.4369 61.4216C88.7997 61.5708 111.603 61.73 117.212 59.5363C119.841 58.5099 120.784 48.3679 119.29 40.0999H17.6807C12.1578 40.0999 7.68066 44.577 7.68066 50.0999V61.8289C7.80182 61.8321 7.92355 61.8352 8.04583 61.8382C8.88731 61.8605 9.75647 61.8779 10.6478 61.8903C18.1436 61.9994 27.3446 61.8432 36.8943 61.5579C37.4202 61.543 37.9461 61.5281 38.4721 61.5108C46.135 61.2729 56.6006 61.3459 67.4369 61.4216Z" fill="#3F414E"/>
<path d="M50.8529 28.8267C51.8319 28.7916 52.811 28.759 53.79 28.724C54.1986 28.7089 54.2011 28.0678 53.79 28.0828C52.811 28.1178 51.8319 28.1504 50.8529 28.1855C50.4443 28.2005 50.4418 28.8417 50.8529 28.8267Z" fill="#656B7B"/>
<path d="M47.0687 53.7292C46.2666 54.2928 45.4619 54.8563 44.6597 55.4199C44.3234 55.6554 44.6697 56.1939 45.006 55.9584C45.8082 55.3949 46.6128 54.8313 47.415 54.2677C47.7513 54.0323 47.4051 53.4937 47.0687 53.7292Z" fill="#656B7B"/>
<path d="M52.5444 32.6741C51.8344 33.8864 51.1219 35.0962 50.4119 36.3085C50.2051 36.6617 50.7208 37.0399 50.9276 36.6842C51.6376 35.4719 52.35 34.2622 53.06 33.0499C53.2693 32.6992 52.7536 32.3185 52.5444 32.6741Z" fill="#656B7B"/>
<path d="M53.5957 50.3702C54.2608 51.2969 55.0007 52.1611 55.8178 52.9576C56.1118 53.2456 56.5627 52.7923 56.2687 52.5042C55.4915 51.7453 54.7815 50.9287 54.1462 50.0471C53.9071 49.7139 53.354 50.0345 53.5957 50.3702Z" fill="#656B7B"/>
<path d="M55.6907 39.74C55.6907 39.74 55.6907 41.8415 55.6907 42.9436C55.6907 43.3569 56.3284 43.3569 56.3284 42.9436C56.3284 41.839 56.3284 40.8071 56.3284 39.74C56.3284 39.3142 55.6907 39.3142 55.6907 39.74C55.6907 39.74 55.6907 39.3142 55.6907 39.74Z" fill="#656B7B"/>
<path d="M40.4495 45.8817C39.6299 45.6487 38.8128 45.4158 37.9932 45.1829C37.5996 45.0701 37.3903 45.6763 37.7864 45.789C38.606 46.0219 39.4231 46.2549 40.2427 46.4878C40.6363 46.598 40.8456 45.9944 40.4495 45.8817Z" fill="#656B7B"/>
<path d="M42.9882 31.2762C43.9573 31.8649 44.8716 32.5311 45.731 33.2725C46.0424 33.5406 46.3937 33.0045 46.0848 32.739C45.2253 31.9976 44.3111 31.3339 43.342 30.7427C42.9907 30.5298 42.6345 31.0633 42.9882 31.2762Z" fill="#656B7B"/>
<path d="M1.7837 46.0495C1.19578 46.0145 0.607854 45.9819 0.0199297 45.9493C0.00996483 45.7389 0.00498241 45.526 0 45.3081C0.587925 45.3432 1.17336 45.3757 1.76128 45.4083C2.16735 45.4333 2.19475 46.0746 1.7837 46.0495Z" fill="#656B7B"/>
<path d="M29.5655 52.8726C30.5445 52.9076 31.5236 52.9402 32.5026 52.9753C32.9112 52.9903 32.9137 53.6315 32.5026 53.6165C31.5236 53.5814 30.5445 53.5489 29.5655 53.5138C29.1544 53.4988 29.1544 52.8575 29.5655 52.8726Z" fill="#656B7B"/>
<path d="M30.3055 37.2377C29.5955 36.0254 28.883 34.8156 28.173 33.6033C27.9662 33.2501 28.4819 32.8719 28.6887 33.2276C29.3987 34.4399 30.1111 35.6496 30.8211 36.8619C31.0304 37.2151 30.5147 37.5933 30.3055 37.2377Z" fill="#656B7B"/>
<path d="M21.4817 57.8043C21.245 57.8218 21.0084 57.8369 20.7717 57.8519C20.3532 57.1381 19.9347 56.4267 19.5161 55.7129C19.3094 55.3597 19.825 54.9815 20.0318 55.3372C20.5151 56.1612 20.9984 56.9828 21.4817 57.8043Z" fill="#656B7B"/>
<path d="M37.2559 37.5358C37.2559 37.5358 37.2559 35.4343 37.2559 34.3322C37.2559 33.9189 37.8936 33.9189 37.8936 34.3322C37.8936 35.4368 37.8936 36.4687 37.8936 37.5358C37.8936 37.9641 37.2559 37.9641 37.2559 37.5358C37.2559 37.5358 37.2559 37.9641 37.2559 37.5358Z" fill="#656B7B"/>
<path d="M26.205 40.2209C25.3854 40.4539 24.5683 40.6868 23.7487 40.9198C23.3551 41.0325 23.1458 40.4263 23.5419 40.3136C24.3615 40.0806 25.1786 39.8477 25.9982 39.6147C26.3893 39.502 26.5986 40.1082 26.205 40.2209Z" fill="#656B7B"/>
<path d="M23.7684 49.0276C24.7375 48.439 25.6517 47.7727 26.5112 47.0313C26.8226 46.7633 27.1739 47.2993 26.865 47.5648C26.0055 48.3063 25.0912 48.97 24.1221 49.5612C23.7709 49.7741 23.4146 49.2431 23.7684 49.0276Z" fill="#656B7B"/>
<path d="M8.96079 58.1875C8.55971 58.175 8.16859 58.1574 7.78993 58.1349C7.35397 57.8068 6.93296 57.4611 6.52441 57.0979C6.21799 56.8249 6.61658 56.3265 6.923 56.5995C7.57071 57.1706 8.24831 57.7016 8.96079 58.1875Z" fill="#656B7B"/>
<path d="M16.0731 47.4569C15.5823 48.7745 15.0916 50.092 14.6008 51.407C14.4588 51.7902 13.841 51.6249 13.9855 51.2392C14.4762 49.9217 14.967 48.6041 15.4578 47.2891C15.6023 46.9059 16.2176 47.0712 16.0731 47.4569Z" fill="#656B7B"/>
<path d="M6.0088 31.4393C5.07459 31.1488 4.1379 30.8557 3.2037 30.5651C2.81258 30.4424 2.97949 29.8237 3.37061 29.9464C4.30481 30.237 5.2415 30.5301 6.17571 30.8206C6.56683 30.9434 6.39992 31.5621 6.0088 31.4393Z" fill="#656B7B"/>
<path d="M12.6578 34.3872C13.0264 35.7448 13.3976 37.0998 13.7663 38.4574C13.8735 38.8507 13.2781 39.0811 13.1709 38.6829C12.8022 37.3253 12.4311 35.9702 12.0624 34.6126C11.9527 34.2193 12.5481 33.9889 12.6578 34.3872Z" fill="#656B7B"/>
<path d="M7.98434 48.7695C7.09996 49.4883 6.16077 50.1271 5.16429 50.6806C4.80556 50.881 4.48668 50.3249 4.84791 50.1245C5.79706 49.5986 6.69389 48.9974 7.53841 48.3136C7.8523 48.0556 8.30321 48.509 7.98434 48.7695Z" fill="#656B7B"/>
<path d="M6.27525 38.1446C6.27525 38.1446 5.72719 40.1709 5.43822 41.238C5.33109 41.6362 4.71577 41.4684 4.82289 41.0702C5.11187 40.0056 5.38092 39.0087 5.65993 37.9768C5.77203 37.5635 6.38487 37.7313 6.27525 38.1446C6.27525 38.1446 6.38487 37.7313 6.27525 38.1446Z" fill="#656B7B"/>
<path d="M17.0648 44.0832C17.9143 44.0757 18.7662 44.0656 19.6157 44.0581C20.0243 44.0531 20.0691 44.6943 19.6581 44.6968C18.8086 44.7043 17.9566 44.7144 17.1071 44.7219C16.6985 44.7269 16.6537 44.0882 17.0648 44.0832Z" fill="#656B7B"/>
<path d="M23.5096 35.3015C22.4209 35.6146 21.3647 36.0153 20.3433 36.5038C19.9721 36.6816 19.7753 36.0704 20.1415 35.8951C21.1629 35.4067 22.2192 35.0059 23.3078 34.6928C23.7014 34.5801 23.9057 35.1888 23.5096 35.3015Z" fill="#656B7B"/>
<path d="M106.99 28.8267C107.969 28.7916 108.948 28.759 109.927 28.724C110.335 28.7089 110.338 28.0678 109.927 28.0828C108.948 28.1178 107.969 28.1504 106.99 28.1855C106.581 28.2005 106.579 28.8417 106.99 28.8267Z" fill="#656B7B"/>
<path d="M103.206 53.7292C102.403 54.2928 101.599 54.8563 100.797 55.4199C100.46 55.6554 100.807 56.1939 101.143 55.9584C101.945 55.3949 102.75 54.8313 103.552 54.2677C103.888 54.0323 103.542 53.4937 103.206 53.7292Z" fill="#656B7B"/>
<path d="M108.681 32.6741C107.971 33.8864 107.259 35.0962 106.549 36.3085C106.342 36.6617 106.858 37.0399 107.064 36.6842C107.774 35.4719 108.487 34.2622 109.197 33.0499C109.406 32.6992 108.89 32.3185 108.681 32.6741Z" fill="#656B7B"/>
<path d="M109.733 50.3702C110.398 51.2969 111.138 52.1611 111.955 52.9576C112.249 53.2456 112.7 52.7923 112.406 52.5042C111.628 51.7453 110.918 50.9287 110.283 50.0471C110.044 49.7139 109.491 50.0345 109.733 50.3702Z" fill="#656B7B"/>
<path d="M111.828 39.74C111.828 39.74 111.828 41.8415 111.828 42.9436C111.828 43.3569 112.465 43.3569 112.465 42.9436C112.465 41.839 112.465 40.8071 112.465 39.74C112.465 39.3142 111.828 39.3142 111.828 39.74C111.828 39.74 111.828 39.3142 111.828 39.74Z" fill="#656B7B"/>
<path d="M96.5863 45.8817C95.7667 45.6487 94.9496 45.4158 94.13 45.1829C93.7364 45.0701 93.5271 45.6763 93.9232 45.789C94.7428 46.0219 95.56 46.2549 96.3796 46.4878C96.7732 46.598 96.9824 45.9944 96.5863 45.8817Z" fill="#656B7B"/>
<path d="M99.1251 31.2762C100.094 31.8649 101.008 32.5311 101.868 33.2725C102.179 33.5406 102.531 33.0045 102.222 32.739C101.362 31.9976 100.448 31.3339 99.4788 30.7427C99.1276 30.5298 98.7713 31.0633 99.1251 31.2762Z" fill="#656B7B"/>
<path d="M57.9205 46.0495C57.3326 46.0145 56.7447 45.9819 56.1568 45.9493C56.1468 45.7389 56.1418 45.526 56.1368 45.3081C56.7248 45.3432 57.3102 45.3757 57.8981 45.4083C58.3042 45.4333 58.3316 46.0746 57.9205 46.0495Z" fill="#656B7B"/>
<path d="M85.7023 52.8726C86.6814 52.9076 87.6604 52.9402 88.6394 52.9753C89.048 52.9903 89.0505 53.6315 88.6394 53.6165C87.6604 53.5814 86.6814 53.5489 85.7023 53.5138C85.2913 53.4988 85.2913 52.8575 85.7023 52.8726Z" fill="#656B7B"/>
<path d="M86.4423 37.2377C85.7323 36.0254 85.0198 34.8156 84.3098 33.6033C84.1031 33.2501 84.6187 32.8719 84.8255 33.2276C85.5355 34.4399 86.248 35.6496 86.958 36.8619C87.1673 37.2151 86.6516 37.5933 86.4423 37.2377Z" fill="#656B7B"/>
<path d="M77.6185 57.8043C77.3819 57.8218 77.1452 57.8369 76.9085 57.8519C76.49 57.1381 76.0715 56.4267 75.653 55.7129C75.4462 55.3597 75.9619 54.9815 76.1687 55.3372C76.652 56.1612 77.1352 56.9828 77.6185 57.8043Z" fill="#656B7B"/>
<path d="M93.3927 37.5358C93.3927 37.5358 93.3927 35.4343 93.3927 34.3322C93.3927 33.9189 94.0305 33.9189 94.0305 34.3322C94.0305 35.4368 94.0305 36.4687 94.0305 37.5358C94.0305 37.9641 93.3927 37.9641 93.3927 37.5358C93.3927 37.5358 93.3927 37.9641 93.3927 37.5358Z" fill="#656B7B"/>
<path d="M82.3418 40.2209C81.5222 40.4539 80.7051 40.6868 79.8855 40.9198C79.4919 41.0325 79.2826 40.4263 79.6787 40.3136C80.4983 40.0806 81.3155 39.8477 82.1351 39.6147C82.5262 39.502 82.7354 40.1082 82.3418 40.2209Z" fill="#656B7B"/>
<path d="M79.9052 49.0276C80.8743 48.439 81.7886 47.7727 82.648 47.0313C82.9594 46.7633 83.3107 47.2993 83.0018 47.5648C82.1423 48.3063 81.2281 48.97 80.259 49.5612C79.9077 49.7741 79.5515 49.2431 79.9052 49.0276Z" fill="#656B7B"/>
<path d="M65.0977 58.1875C64.6966 58.175 64.3055 58.1574 63.9268 58.1349C63.4908 57.8068 63.0698 57.4611 62.6613 57.0979C62.3548 56.8249 62.7534 56.3265 63.0599 56.5995C63.7076 57.1706 64.3852 57.7016 65.0977 58.1875Z" fill="#656B7B"/>
<path d="M72.21 47.4569C71.7192 48.7745 71.2284 50.092 70.7377 51.407C70.5957 51.7902 69.9778 51.6249 70.1223 51.2392C70.6131 49.9217 71.1039 48.6041 71.5946 47.2891C71.7391 46.9059 72.3545 47.0712 72.21 47.4569Z" fill="#656B7B"/>
<path d="M62.1456 31.4393C61.2114 31.1488 60.2747 30.8557 59.3405 30.5651C58.9494 30.4424 59.1163 29.8237 59.5074 29.9464C60.4416 30.237 61.3783 30.5301 62.3125 30.8206C62.7037 30.9434 62.5367 31.5621 62.1456 31.4393Z" fill="#656B7B"/>
<path d="M68.7946 34.3872C69.1633 35.7448 69.5345 37.0998 69.9032 38.4574C70.0103 38.8507 69.4149 39.0811 69.3078 38.6829C68.9391 37.3253 68.5679 35.9702 68.1992 34.6126C68.0896 34.2193 68.685 33.9889 68.7946 34.3872Z" fill="#656B7B"/>
<path d="M64.1212 48.7695C63.2368 49.4883 62.2976 50.1271 61.3011 50.6806C60.9424 50.881 60.6235 50.3249 60.9847 50.1245C61.9339 49.5986 62.8307 48.9974 63.6752 48.3136C63.9891 48.0556 64.44 48.509 64.1212 48.7695Z" fill="#656B7B"/>
<path d="M62.4121 38.1446C62.4121 38.1446 61.864 40.1709 61.5751 41.238C61.4679 41.6362 60.8526 41.4684 60.9597 41.0702C61.2487 40.0056 61.5178 39.0087 61.7968 37.9768C61.9089 37.5635 62.5217 37.7313 62.4121 38.1446C62.4121 38.1446 62.5217 37.7313 62.4121 38.1446Z" fill="#656B7B"/>
<path d="M73.2015 44.0832C74.051 44.0757 74.903 44.0656 75.7525 44.0581C76.161 44.0531 76.2059 44.6943 75.7948 44.6968C74.9453 44.7043 74.0933 44.7144 73.2438 44.7219C72.8353 44.7269 72.7904 44.0882 73.2015 44.0832Z" fill="#656B7B"/>
<path d="M79.6464 35.3015C78.5578 35.6146 77.5015 36.0153 76.4801 36.5038C76.1089 36.6816 75.9121 36.0704 76.2783 35.8951C77.2997 35.4067 78.356 35.0059 79.4447 34.6928C79.8383 34.5801 80.0425 35.1888 79.6464 35.3015Z" fill="#656B7B"/>
<path d="M73.3454 52.8807C72.5507 54.7894 67.5932 57.77 66.7761 57.3317C65.4383 56.6103 60.4858 49.5018 60.8968 47.8086C61.288 46.198 65.9963 43.2875 65.9963 43.2875C65.9963 43.2875 70.8243 41.3338 73.5247 41.2862C75.0095 41.2586 80.9535 50.3058 80.231 52.1794C79.8773 53.0886 75.5924 53.6597 73.3454 52.8807Z" fill="white"/>
<path d="M73.2232 52.3396C72.989 54.4061 67.2368 57.6898 66.1083 57.2414C65.4457 56.9784 59.8654 49.1035 60.2739 47.4128C60.665 45.8022 68.0116 42.2329 68.0116 42.2329C68.0116 42.2329 72.0075 41.474 74.7104 41.4239C76.1952 41.3963 80.7566 50.0428 80.0341 51.9188C79.6829 52.8281 74.4837 53.85 73.2232 52.3396Z" fill="white"/>
<path d="M73.1086 52.0215C72.2965 54.6414 66.2379 57.3666 65.5354 56.8932C64.3969 56.1218 60.0896 49.3088 60.4982 47.6156C60.8893 46.005 68.1586 42.5234 68.1586 42.5234C70.3857 42.3881 72.1894 41.6467 75.0767 41.5666C76.5664 41.524 81.2623 49.5092 80.6968 51.3878C80.363 52.4999 74.0354 53.1185 73.1086 52.0215Z" fill="white"/>
<path d="M71.9154 52.6827C71.9154 52.6827 72.4087 53.7272 73.5746 53.2738C74.8376 52.7829 74.7006 51.5029 74.7006 51.5029C73.5646 51.6106 72.5905 51.9413 71.9154 52.6827Z" fill="#E8E2E3"/>
<path d="M72.8571 51.4079C72.4286 51.7285 72.2243 52.227 72.2542 52.9158C72.4112 53.572 66.4796 56.3548 64.965 56.4901C63.9486 56.5802 59.5167 47.8687 59.6961 46.8342C59.8356 46.0352 66.8508 42.9193 67.1797 42.2856C67.1797 42.2856 68.2285 41.4916 68.9459 41.6694C69.6534 41.8447 75.6622 40.387 76.3697 40.3694C77.4783 40.3444 81.6984 48.7529 81.6834 50.4486C81.676 51.1499 74.7031 52.6678 74.4639 52.0917C74.2073 51.468 72.8571 51.4079 72.8571 51.4079Z" fill="#8E97FD"/>
<path d="M66.8833 42.3284L72.2543 52.9135C72.7949 52.2372 73.7465 51.616 74.464 52.0919L69.2898 41.5469C69.0257 41.0209 66.7064 41.9777 66.8833 42.3284Z" fill="#4E5567"/>
<path d="M65.5804 54.1304C67.0028 53.5744 68.3481 52.8755 69.5538 51.9312C69.7257 51.7985 69.9175 52.074 69.7481 52.2093C68.5175 53.1711 67.1448 53.8824 65.6974 54.4485C65.4957 54.5287 65.3786 54.2106 65.5804 54.1304Z" fill="#4E5567"/>
<path d="M65.1519 52.7781C66.0562 52.3548 67.0452 51.9641 67.8448 51.3529C68.0167 51.2201 68.211 51.4982 68.0391 51.6309C67.2195 52.2571 66.1957 52.6629 65.2689 53.0962C65.0721 53.1864 64.9575 52.8683 65.1519 52.7781Z" fill="#4E5567"/>
<path d="M56.9758 33.4263C56.3356 33.2234 55.5583 33.3111 55.2046 33.1758C54.4124 32.8727 54.0138 32.7199 53.8818 32.8352C53.3511 33.2985 55.4786 33.8922 55.4064 34.3756C55.2793 34.5584 54.6067 34.6536 54.1309 34.6661C53.5604 34.6812 51.9212 34.2854 51.9137 34.6286C51.9087 34.9166 53.097 35.2397 53.5056 35.2773C53.0796 35.2397 51.2436 34.869 51.3507 35.3374C51.4304 35.6806 53.5504 35.916 53.8344 35.9386C53.6974 35.9336 51.6696 35.6355 51.7742 35.9786C51.8938 36.3744 53.7348 36.4971 54.0163 36.5197C53.8419 36.5147 52.1105 36.2066 52.2575 36.6274C52.3497 36.8879 54.0312 37.1734 54.3127 37.1985C55.5583 37.3037 58.6848 36.457 59.0535 36.2817L59.3026 34.338C59.3026 34.338 58.5328 33.9773 58.1492 33.8546C57.6734 33.7043 57.2175 33.5014 56.9758 33.4263Z" fill="#FDBCA0"/>
<path d="M58.996 36.9404C61.0413 37.2084 70.473 42.1302 73.3155 35.4375C77.2915 26.0797 70.0097 16.3236 63.8987 17.1602L66.2405 25.9094C65.3087 27.4548 65.8444 30.0898 65.6177 30.7561C65.0497 32.4243 65.6924 33.3535 58.8789 33.2559C58.0992 33.2483 58.3184 36.8527 58.996 36.9404Z" fill="#8E97FD"/>
<path d="M59.0533 4.02048C58.8913 3.09372 67.0625 0.649075 69.4939 8.47645C70.3609 11.2718 76.8031 11.1916 73.8236 16.5769C72.882 18.2776 79.5684 19.7955 73.7663 24.1813C68.338 28.2841 60.0448 24.6898 60.7921 21.8318C61.6192 18.6683 64.4592 20.354 62.6008 16.3264C61.6566 14.2775 62.7677 13.0577 62.9969 12.3714C63.0417 12.2286 63.0865 12.0858 63.1314 11.9405C63.2684 11.4521 63.3257 10.9962 63.1314 10.5504C62.5484 9.21786 58.5725 10.0269 59.422 6.89595C60.2241 3.93783 59.0533 4.02048 59.0533 4.02048Z" fill="#3F414E"/>
<path d="M64.2477 32.9928C66.8136 32.3741 65.0648 27.3245 66.3951 25.6839C66.4698 25.5912 66.3378 25.456 66.2631 25.5512C64.9153 27.2118 66.4997 32.2564 64.1979 32.8125C64.0808 32.84 64.1306 33.0229 64.2477 32.9928Z" fill="#5863E3"/>
<path d="M61.861 37.9123C64.4718 38.7964 67.9445 39.6305 70.5753 38.4708C70.6849 38.4232 70.5902 38.2604 70.4806 38.308C67.9047 39.4452 64.4743 38.5986 61.9108 37.7294C61.7962 37.6919 61.7464 37.8747 61.861 37.9123Z" fill="#5863E3"/>
<path d="M68.3504 6.46253C68.7939 7.29411 69.3394 7.99044 70.0943 8.55401C70.8815 9.14263 71.604 9.57345 72.0623 10.4927C72.1171 10.6004 72.2816 10.5127 72.2292 10.405C71.8879 9.72124 71.4146 9.25535 70.8018 8.81701C69.8227 8.12069 69.0953 7.45943 68.5173 6.37236C68.4576 6.26716 68.2931 6.35483 68.3504 6.46253Z" fill="#002869"/>
<path d="M52.7755 15.9856C53.0222 16.9049 52.2897 17.9118 52.2698 18.8435C52.2474 19.8179 52.9449 20.2337 53.8218 20.394C53.9389 20.4165 53.9912 20.2337 53.8717 20.2111C51.1513 19.7127 53.3809 17.516 52.9574 15.933C52.925 15.8203 52.7431 15.8704 52.7755 15.9856Z" fill="#002869"/>
</svg>
