<svg width="367" height="421" viewBox="0 0 367 421" fill="none" xmlns="http://www.w3.org/2000/svg">
<path d="M356.595 344.814C354.033 340.855 349.021 337.041 343.885 337.712C342.939 337.838 341.93 338.085 340.952 338.422C340.152 336.402 338.762 334.634 337.371 333.017C335.038 330.327 333.077 327.658 329.873 325.917C326.978 324.318 323.774 322.277 320.347 322.159C316.904 321.997 313.177 323.58 310.333 325.458C305.033 328.98 303.056 335.949 302.758 341.741C302.544 345.508 303.369 349.267 302.938 353.009C302.715 354.932 302.243 356.891 301.911 358.802C301.611 360.503 301.016 362.255 301.103 364.022C300.233 364.671 299.331 365.38 298.506 366.163C294.912 369.647 293.635 376.226 296.366 380.376C297.894 382.695 300.417 384.272 302.832 385.536C305.309 386.829 307.88 388.09 310.732 388.506C323.257 390.382 336.788 383.527 345.516 374.981C347.85 372.68 349.86 369.892 351.823 367.27C353.458 365.06 354.831 362.69 355.785 360.166C356.661 357.868 357.243 355.472 357.545 353.022C357.819 350.033 358.231 347.296 356.595 344.814ZM305.678 359.452C305.978 357.751 306.294 356.096 306.594 354.395C307.069 351.387 306.862 348.364 306.716 345.369C306.423 340.28 307 334.391 310.519 330.235C312.294 328.127 315.198 326.727 317.852 326.113C321.221 325.302 324.068 327.217 326.87 328.697C329.75 330.251 331.512 332.19 333.582 334.571C334.957 336.144 336.735 337.978 337.395 340.046C335.546 341.182 333.959 342.627 332.837 344.361C332.231 344.569 331.749 344.985 331.623 345.677C329.058 347.309 326.989 349.469 324.548 351.307C321.687 353.44 318.456 355.102 315.271 356.747C311.915 358.502 308.453 359.794 305.221 361.456C305.348 360.763 305.536 360.1 305.678 359.452ZM353.465 353.578C353.116 355.894 352.426 358.128 351.442 360.264C349.459 364.49 346.126 368.732 342.812 372.119C339.077 375.951 333.808 379.562 328.853 381.667C323.946 383.756 318.342 385.186 313.008 384.827C308.744 384.548 303.804 382.307 300.743 379.468C298.655 377.491 298.479 374.558 299.232 371.903C299.86 369.64 301.663 368.221 303.514 366.785C305.939 364.902 308.533 363.809 311.375 362.681C314.31 361.521 317.044 360.08 319.825 358.623C322.466 357.215 325.076 355.717 327.409 353.866C329.617 352.107 331.546 350.145 333.955 348.667C334.575 348.653 335.197 348.339 335.509 347.583C336.197 345.799 337.707 344.281 339.478 343.222C340.207 343.22 340.875 342.89 341.249 342.312C342.165 341.947 343.112 341.671 344.044 341.5C347.674 340.999 352.006 344.198 353.485 347.283C354.333 348.987 353.75 351.683 353.465 353.578Z" fill="#254547"/>
<path d="M332.776 33.4579C329.966 37.1395 325.216 38.6995 320.801 36.5779C317.121 34.8307 313.04 31.6483 311.368 28.0291C307.555 19.8547 315.114 11.6179 320.868 6.18908C320.934 6.12668 321.001 6.06429 321.068 6.00189C324.413 5.93949 324.413 1.00989 321.001 1.00989C314.913 0.947494 309.16 1.07229 304.143 4.69149C300.597 7.24989 297.185 10.9939 295.512 14.8627C293.572 19.2307 293.907 25.0339 294.308 29.5891C294.71 33.7699 296.382 37.7635 298.389 41.5075C302.136 48.4963 308.223 53.9875 317.121 52.4275C321.871 51.6163 326.822 50.1811 330.367 46.9363C334.181 43.4419 337.793 39.8227 337.793 34.6435C337.726 32.0851 334.248 31.5235 332.776 33.4579ZM325.818 44.1283C322.942 46.3123 318.794 47.3107 315.181 47.7475C308.491 48.5587 304.678 42.5683 302.269 37.6387C300.798 34.5187 299.593 31.3987 299.526 27.9667C299.393 24.5971 298.991 20.4163 300.195 17.2339C301.4 14.0515 304.343 10.9315 307.086 8.80989C309.093 7.31229 311.234 6.62589 313.509 6.31389C306.685 13.8643 301.333 23.7859 308.157 32.8963C311.301 37.1395 316.921 41.4451 322.473 42.3811C324.28 42.6931 326.019 42.6307 327.625 42.2563C327.156 42.9427 326.554 43.5667 325.818 44.1283Z" fill="#254547"/>
<path d="M271.82 322.41C269.515 318.419 266.855 314.387 263.587 310.958C262.095 309.4 260.554 307.919 258.898 306.532C257.927 305.68 255.946 304.374 255.065 303.05C256.372 302.209 258.679 301.506 259.592 301.021C261.124 300.253 262.707 299.408 264.224 298.58C264.678 298.466 265.117 298.293 265.496 297.877C265.611 297.784 265.726 297.691 265.825 297.537C266.828 296.58 266.785 295.304 266.139 294.372C266.179 293.977 266.088 293.613 265.917 293.206C264.658 290.368 261.162 287.96 257.823 289.5C254.06 291.275 251.045 292.734 246.915 293.313C244.048 293.706 242.141 294.632 240.278 292.138C240.767 291.888 241.257 291.637 241.811 291.37C243.587 290.477 245.554 289.794 247.411 288.945C250.441 287.546 253.175 285.514 256.265 284.358C259.42 283.185 258.277 278.326 255.057 279.514C252.227 280.606 249.762 282.056 247.087 283.495C245.26 284.465 243.388 285.253 241.501 285.981C240.118 286.519 238.941 287.327 237.573 287.925C237.227 287.368 236.897 286.872 236.551 286.315C235.67 284.991 234.853 283.651 234.036 282.312C236.282 281.366 238.423 279.996 240.509 278.961C243.754 277.316 246.967 275.55 250.337 274.132C253.527 272.822 250.936 268.516 247.811 269.809C244.816 271.071 242.027 272.602 239.142 274.029C236.826 275.249 234.112 277.084 231.56 277.913C230.919 276.722 230.277 275.532 229.636 274.341C229.686 274.264 229.8 274.171 229.85 274.095C230.628 273.065 232.839 272.256 233.947 271.723C235.839 270.736 237.84 269.916 239.732 268.93C242.242 267.661 246.111 266.31 248.021 264.291C249.387 262.857 248.812 259.72 246.27 260.033C246.075 260.081 245.93 260.053 245.736 260.102C244.797 260.207 244.093 260.704 243.63 261.334C242.617 261.972 241.169 262.526 240.256 263.011C238.185 264.106 236.113 265.202 234.012 266.176C231.846 267.166 229.275 268.193 227.294 269.651C226.672 268.263 226.035 266.814 225.413 265.426C227.552 263.22 231.902 262.136 234.512 260.713C237.317 259.242 240.716 257.945 243.206 256.038C245.301 254.486 243.261 251.008 240.775 251.82C240.71 251.837 240.645 251.853 240.58 251.869C240.141 252.043 239.782 252.261 239.502 252.524C238.34 253.392 236.507 253.785 235.235 254.488C233.488 255.502 231.727 256.456 229.885 257.365C227.863 258.384 225.312 259.213 223.301 260.55C223.271 260.429 223.256 260.369 223.161 260.264C222.679 259.162 222.118 258.016 221.621 256.853C221.621 256.853 221.621 256.853 221.686 256.837C223.6 254.559 226.881 253.613 229.521 252.311C232.471 250.868 235.155 248.913 238.135 247.591C241.309 246.221 238.719 241.915 235.609 243.269C231.995 244.813 228.852 247.14 225.268 248.805C223.591 249.545 222.059 250.313 220.637 251.246C221.034 249.797 222.311 248.835 224.012 247.639C227.48 245.231 231.642 242.843 234.459 239.761C235.431 238.683 235.649 237.343 235.331 236.071C235.15 235.345 234.759 234.606 234.383 233.928C234.243 233.641 233.535 231.631 233.292 232.592C234.146 229.936 230.647 228.621 228.892 230.152C221.357 232.288 214.481 236.511 209.406 242.149C204.216 247.881 204.739 255.789 206.17 262.635C207.914 271.011 211.274 278.405 214.97 286.036C216.544 289.309 217.954 292.752 220.213 295.726C222.741 298.954 224.96 302.324 227.669 305.443C229.806 307.933 232.256 309.187 235.52 310.11C239.089 311.149 241.925 310.635 244.279 313.714C250.012 321.223 250.942 329.931 253.146 338.77C254.626 344.704 256.737 352.345 262.788 355.595C269.238 359.067 274.927 352.569 276.38 347.061C278.548 338.611 276.005 329.791 271.82 322.41ZM271.696 342.377C271.571 344.916 270.419 351.635 266.462 351.528C263.41 351.453 260.922 345.899 260.119 343.784C257.308 336.382 256.899 328.381 254.298 320.991C252.42 315.671 248.999 308.035 242.712 306.323C240.043 305.573 237.215 305.571 234.666 304.47C231.091 302.853 229.56 298.926 227.382 295.997C225.219 293.128 223.111 290.759 221.537 287.486C219.837 283.987 217.942 280.536 216.372 277.005C212.872 269.324 209.332 259.274 210.84 250.667C212.135 243.141 221.602 237.694 229.141 235.299C229.471 235.796 229.897 236.397 230.083 236.865C228.821 237.887 227.719 238.998 226.441 239.96C224.476 241.479 222.27 242.865 220.21 244.279C217.022 246.424 215.088 248.9 215.215 252.727C215.337 256.812 217.657 260.864 219.257 264.517C221.199 268.985 223.14 273.452 225.391 277.779C227.531 281.94 230.031 285.883 232.546 289.886C234.48 292.941 236.361 297.166 240.115 298.674C241.72 299.303 243.358 298.959 245.091 298.72C247.213 298.384 249.381 298.229 251.458 297.711C253.211 297.274 254.968 296.579 256.661 295.899C258.288 295.236 259.669 293.863 260.735 294.819C258.11 296.181 255.389 297.438 252.764 298.8C250.204 300.146 248.565 302.42 250.183 305.039C251.786 307.597 254.437 309.38 256.664 311.397C259.701 314.177 262.249 317.208 264.548 320.622C268.891 327.256 272.096 334.303 271.696 342.377Z" fill="#254547"/>
<path d="M354.382 270.122C350.679 266.938 344.843 267.01 340.112 266.672C337.542 266.459 334.903 267.003 332.399 266.783C330.234 266.597 329.895 263.494 329.204 261.738C326.994 255.668 325.44 249.415 323.169 243.412C321.787 239.9 321.266 236.25 320.079 232.658C318.897 229.129 317.521 225.679 316.472 222.137C315.507 218.777 314.419 215.552 313.325 212.265C312.773 210.56 312.832 208.926 312.613 207.191C314.622 207.892 316.704 207.898 318.861 206.457C321.335 204.8 321.962 201.989 321.934 199.36C321.897 198.173 321.794 196.992 321.624 195.817C323.88 197.812 326.304 199.416 329.326 198.651C332.215 197.897 332.664 195.352 332.142 192.454C334.455 193.567 336.909 193.979 339.243 193.023C342.682 191.657 343.383 188.151 342.906 184.998C342.636 183.455 342.162 181.868 341.309 180.565C340.307 179.087 337.961 177.601 337.936 175.786C337.961 174.531 337.162 173.85 336.141 173.688C335.848 172.649 335.356 171.627 334.803 170.674C333.685 168.642 332.689 166.474 331.51 164.51C330.414 162.727 328.988 161.786 327.336 160.553C325.107 158.869 323.934 156.215 322.589 153.89C320.209 149.714 317.646 145.741 315.593 141.473C313.386 136.969 311.301 132.328 308.771 127.977C307.675 126.193 306.579 124.41 305.872 122.468C305.264 120.892 304.845 119.175 304.171 117.605C303.922 117.063 303.678 116.584 303.44 116.166C303.542 115.03 302.906 113.895 301.346 113.718C293.873 112.744 286.262 111.718 279.022 114.168C276.089 115.176 272.873 115.27 269.856 116.097C265.923 117.193 262.157 117.899 258.561 119.779C257.788 120.16 257.347 121.263 257.418 122.072C257.67 124.179 258.85 125.391 260.52 126.059C260.384 127.575 260.182 129.096 260.112 130.605C259.935 133.189 259.892 135.761 259.715 138.344C259.471 144.003 259.028 149.679 258.784 155.338C258.54 160.997 258.297 166.656 258.32 172.291C258.317 176.864 258.786 181.458 258.85 186.025C258.856 188.405 258.595 191.56 259.612 193.976C259.143 195.521 257.453 196.921 256.845 198.415C256.075 200.362 255.982 202.374 255.484 204.36C254.679 207.437 253.995 211.13 257.762 212.742C261.319 214.247 264.866 211.807 267.286 209.528C268.96 207.941 270.279 206.134 272.037 204.728C272.415 204.444 272.726 204.167 273.104 203.883C273.137 204.256 273.164 204.567 273.191 204.877C273.45 206.296 273.975 207.69 274.622 208.949C276.077 211.766 278.8 213.72 282.289 212.914C286.9 211.884 287.701 207.993 288.791 204.327C290.512 207.12 292.773 209.929 295.436 211.2C295.633 212.686 296.286 214.007 296.75 215.469C297.484 217.723 297.896 220.13 298.43 222.4C299.416 226.762 300.397 231.06 301.383 235.421C303.167 243.534 305.018 251.64 307.724 259.546C308.989 263.256 310.254 266.967 311.391 270.751C311.871 272.4 312.972 274.245 313.191 275.98C313.432 277.964 311.781 279.048 310.202 280.188C305.531 283.603 299.472 287.265 297.185 292.602C296.678 293.711 296.97 294.75 297.846 295.551C304.293 301.689 315.572 297.821 322.846 294.992C328.953 292.641 334.357 289.162 340.707 287.291C345.619 285.859 350.054 283.592 353.637 280.021C356.413 277.21 357.798 273.08 354.382 270.122ZM316.461 201.28C315.562 204.052 312.496 201.251 311.126 200.181C309.324 198.772 307.823 196.962 306.204 195.35C309.216 194.46 312.066 193.271 314.818 191.715C315.362 194.862 317.516 197.993 316.461 201.28ZM320.505 188.398C321.722 187.728 322.939 187.058 324.223 186.382C325.419 188.532 326.652 191.118 326.798 193.548C324.967 192.581 322.395 190.049 320.505 188.398ZM334.158 180.188C334.617 180.837 335.205 181.412 335.731 182.055C336.706 183.223 339.115 186.958 337.358 188.365C335.473 189.845 331.387 186.131 329.226 183.689C330.888 182.729 332.734 181.566 334.158 180.188ZM271.669 120.699C274.42 119.895 277.307 119.893 280.052 119.026C282.407 118.319 284.652 117.872 286.923 117.736C285.034 118.403 283.067 118.951 281.201 119.114C277.808 119.473 274.702 120.058 271.469 120.717C271.536 120.711 271.603 120.705 271.669 120.699ZM270.461 198.226C269.53 199.874 268.646 200.515 267.278 201.762C265.67 203.343 263.331 207.306 260.886 207.771C259.437 208.085 260.261 206.76 260.507 205.737C260.859 204.39 261.084 203.118 261.369 201.778C261.756 200.053 262.913 198.699 263.788 197.181C265.581 197.714 267.668 197.781 269.362 197.946C269.767 197.974 270.172 198.001 270.578 198.028C270.516 198.096 270.522 198.158 270.461 198.226ZM284.219 201.971C283.75 203.515 283.328 206.371 281.877 207.437C279.608 209.139 278.628 204.84 278.364 203.36C278.084 201.693 278.076 200.065 277.673 198.535C280.3 198.618 282.859 198.707 285.469 198.604C284.962 199.714 284.588 200.811 284.219 201.971ZM281.558 193.81C277.054 193.766 272.585 193.342 268.11 192.857C267.022 192.702 265.212 192.735 264.608 191.973C263.772 190.856 264.143 188.193 264.096 186.882C264.014 176.741 263.544 166.76 264.001 156.636C264.29 150.722 264.65 144.865 264.944 139.014C265.078 135.933 265.139 132.796 265.406 129.704C265.519 128.691 265.632 127.679 265.745 126.667C267.15 126.607 268.544 126.422 269.666 126.199C272.115 125.797 274.41 125.158 276.849 124.631C278.826 124.207 280.853 124.343 282.841 124.044C285.091 123.659 287.369 122.834 289.597 122.2C291.758 121.573 293.759 120.646 295.853 120.024C296.704 119.762 297.626 119.556 298.404 119.237C298.532 119.164 298.665 119.152 298.793 119.078C299.08 120.055 300.037 121.788 300.297 122.454C300.75 123.793 301.136 125.137 301.85 126.39C304.113 130.764 306.632 134.991 308.767 139.44C310.653 143.346 312.423 147.451 314.765 151.192C317.029 154.815 319.009 159.026 321.719 162.36C322.921 163.821 324.53 164.557 325.916 165.814C327.523 167.302 328.202 169.685 329.232 171.474C330.499 173.681 332.073 175.548 329.559 177.521C327.802 178.928 325.745 179.985 323.683 180.979C319.565 183.031 315.807 185.364 311.843 187.653C303.15 192.673 291.575 193.936 281.558 193.81ZM298.27 206.755C297.815 206.92 295.488 204.117 294.817 203.361C293.465 201.726 292.452 200.123 291.556 198.322C294.483 198.004 297.399 197.561 300.299 196.931C300.358 197.615 300.485 198.293 300.411 198.988C300.315 200.187 299.602 201.251 299.3 202.405C299.155 203.044 298.982 206.442 298.27 206.755ZM350.018 276.266C348.732 277.694 347.025 278.908 345.369 279.93C340.654 282.848 334.611 283.627 329.598 286.196C324.707 288.628 319.938 290.924 314.699 292.447C311.094 293.452 306.427 294.612 302.982 292.846C305.599 288.984 310.301 286.694 314.066 283.671C314.199 283.659 314.404 283.704 314.538 283.692C317.076 283.533 319.697 283.554 322.191 282.897C324.291 282.338 326.154 280.609 328.37 280.603C331.796 280.616 331.361 275.643 327.935 275.63C325.586 275.647 323.879 276.862 321.873 277.726C320.773 278.198 319.517 278.433 318.251 278.544C318.72 277 318.64 275.316 318.082 273.548C316.812 269.775 315.736 265.923 314.4 262.157C311.3 253.596 308.928 244.909 307.012 236.056C306.093 231.69 305.112 227.391 304.127 223.03C303.603 220.883 303.141 218.669 302.617 216.522C302.204 214.867 301.302 213.004 300.95 211.281C302.873 210.236 303.682 207.973 304.18 205.987C304.477 204.771 304.651 203.691 305.019 202.531C305.131 202.271 305.242 202.011 305.354 201.75C305.576 201.982 305.792 202.151 306.014 202.382C305.913 202.766 305.884 203.207 306.061 203.693C306.437 204.913 307.006 206.053 307.31 207.217C307.624 208.505 307.477 209.896 307.724 211.189C308.174 214.031 309.675 216.594 310.458 219.406C312.008 224.846 314.02 230.182 315.637 235.615C318.777 246.177 321.249 257.549 326.028 267.654C327.511 270.781 329.763 271.962 333.439 271.766C338.249 271.47 343.746 271.365 348.425 272.647C350.628 273.269 351.787 274.232 350.018 276.266Z" fill="#254547"/>
<path d="M313.995 92.5046C311.191 95.7566 310.649 100.314 310.325 104.288C310.064 107.443 315.316 108.362 315.571 105.145C315.849 102.177 315.967 98.1574 318.104 95.7155C320.23 93.1492 316.193 89.9946 313.995 92.5046Z" fill="#254547"/>
<path d="M328.444 98.7572C327.434 97.9686 325.485 97.9512 324.645 99.0896C322.775 101.508 322.241 104.624 320.299 106.986C318.173 109.553 322.282 112.764 324.408 110.197C326.411 107.767 326.883 104.719 328.754 102.301C329.528 101.168 329.597 99.6586 328.444 98.7572Z" fill="#254547"/>
<path d="M338.339 107.475C336.545 107.695 335.145 108.569 333.832 109.686C332.959 110.451 331.863 111.737 330.668 111.905C327.286 112.388 327.654 117.367 331.103 116.878C332.959 116.59 334.437 115.834 335.877 114.643C336.439 114.156 337.001 113.668 337.563 113.181C338.002 112.829 338.575 112.466 338.775 112.448C342.229 112.021 341.794 107.048 338.339 107.475Z" fill="#254547"/>
<path d="M238.519 123.286C238.525 123.348 238.592 123.342 238.519 123.286V123.286Z" fill="#254547"/>
<path d="M243.454 121.351C242.696 119.601 240.999 118.622 239.374 117.699C238.592 117.204 237.748 116.777 236.905 116.349C236.129 115.916 235.779 115.759 235.202 115.308C232.541 113.286 229.052 117.162 231.714 119.184C232.939 120.142 234.409 120.827 235.818 121.581C236.451 121.901 237.016 122.228 237.588 122.616C237.871 122.779 238.159 123.005 238.381 123.236C238.453 123.292 238.453 123.292 238.458 123.354C238.453 123.292 238.386 123.298 238.375 123.174C239.769 126.058 244.792 124.366 243.454 121.351Z" fill="#254547"/>
<path d="M241.676 130.965L232.679 131.752C229.28 132.05 229.648 137.029 233.114 136.725L242.111 135.938C245.576 135.635 245.141 130.662 241.676 130.965Z" fill="#254547"/>
<path d="M246.062 146.554C242.43 146.496 239.726 149.364 236.228 149.294C232.802 149.28 233.237 154.253 236.663 154.267C240.295 154.325 242.999 151.458 246.497 151.527C249.99 151.535 249.488 146.568 246.062 146.554Z" fill="#254547"/>
<path d="M230.869 189.101C229.745 188.312 228.621 187.698 227.497 187.26C232.09 185.639 236.048 181.826 236 177.619C235.951 174.026 232.872 170.52 229.012 169.644C226.813 169.118 224.565 169.687 222.562 170.608C221.487 171.09 220.607 171.659 219.874 172.317C218.994 171.659 217.87 171.221 216.942 170.958C213.082 169.95 208.342 170.651 204.335 170.651C195.637 170.651 186.303 170.783 178.143 173.85C175.357 174.902 171.546 176.261 169.836 178.671C168.712 180.248 169.152 181.87 170.471 182.922C170.08 183.535 170.031 184.324 170.618 185.025C171.448 185.945 171.693 187.742 172.23 188.838C172.914 190.24 173.745 191.555 174.722 192.782C175.113 193.264 175.504 193.702 175.944 194.14C171.204 195.805 161.089 199.925 164.803 205.884C166.464 208.514 170.275 209.434 173.354 209.522C177.947 209.609 182.541 209.872 187.134 209.478C196.028 208.733 204.481 206.629 213.131 204.701C217.333 203.781 221.829 203.168 225.933 201.94C228.816 201.064 231.944 199.443 233.605 197.032C235.706 194.14 233.507 190.941 230.869 189.101ZM220.949 181.914C221.291 181.87 221.682 181.738 221.975 181.476C222.366 181.169 223.001 181.081 223.441 180.862C224.028 180.555 224.516 180.336 225.151 180.161C226.422 179.898 227.79 179.547 228.816 178.802C230.771 177.356 227.986 174.902 226.031 176.304C226.52 175.954 225.836 176.304 225.591 176.348C225.347 176.436 225.103 176.524 224.858 176.567C224.125 176.787 223.392 176.874 222.659 177.181C222.268 177.356 221.829 177.532 221.389 177.707C221.389 177.093 221.389 176.48 221.291 175.866C221.291 175.866 221.291 175.866 221.291 175.822C222.708 174.376 224.272 173.105 226.666 172.886C229.452 172.623 231.895 175.121 231.993 177.488C232.139 181.388 224.37 186.384 220.46 183.842C220.705 183.316 220.802 182.615 220.949 181.914ZM173.207 180.38C172.865 180.205 172.914 180.205 173.256 180.38C173.452 179.854 174.576 179.372 175.113 179.065C176.872 178.057 178.778 177.312 180.733 176.611C184.789 175.209 189.186 174.683 193.535 174.508C195.686 174.42 197.738 174.07 199.888 174.07C202.136 174.07 204.432 174.07 206.68 174.07C208.879 174.07 211.029 173.982 213.228 173.982C214.596 173.982 216.16 174.07 217.235 174.815C215.476 175.384 213.717 176.085 211.958 176.743C211.762 176.348 211.469 175.998 211.127 175.779C209.661 174.858 207.706 175.209 206.094 175.516C203.699 175.954 201.207 175.954 198.813 176.348C195.686 176.874 192.754 177.663 189.577 177.97C186.743 178.233 184.544 179.591 181.857 180.248C181.221 180.424 180.83 180.774 180.635 181.213C178.387 180.993 176.042 181.081 173.843 180.511C173.549 180.511 173.403 180.468 173.207 180.38ZM174.625 184.324C176.042 184.499 177.556 184.499 178.974 184.587C182.981 184.806 186.987 185.332 191.043 185.025C196.223 184.631 201.305 183.448 206.289 182.133C210.15 181.125 213.766 179.679 217.528 178.452C217.431 179.197 217.235 179.898 217.089 180.643C216.893 181.87 216.844 183.097 216.649 184.324C216.258 186.603 215.525 189.364 214.157 191.292C211.029 195.674 203.651 196.813 198.422 196.945C192.754 197.076 186.792 196.594 181.71 193.965C179.267 192.738 177.605 190.371 176.335 188.18C175.602 186.953 175.211 185.595 174.625 184.324ZM229.11 196.331C227.79 197.427 226.324 198.128 224.614 198.61C220.9 199.662 216.893 200.231 213.082 201.064C209.368 201.897 205.654 202.992 201.94 203.693C193.926 205.227 185.864 206.323 177.654 206.06C175.455 205.972 166.708 206.41 168.37 202.598C169.64 199.793 174.673 198.303 177.459 197.339C178.045 197.12 178.436 196.769 178.631 196.331C179.413 196.857 180.244 197.295 181.172 197.646C188.014 200.188 194.708 201.02 202.038 200.363C207.609 199.837 214.743 197.295 217.675 192.782C218.359 191.73 218.897 190.591 219.288 189.364C222.952 189.407 226.471 189.889 229.207 192.475C229.647 192.913 230.624 193.877 230.624 194.578C230.624 195.28 229.598 195.937 229.11 196.331Z" fill="#254547"/>
<path d="M183.518 162.719C183.323 162.719 183.42 162.763 183.518 162.719V162.719Z" fill="#254547"/>
<path d="M186.987 159.959C186.499 159.082 185.668 158.381 184.837 157.768C183.762 156.979 181.857 156.234 181.417 154.963C180.684 152.903 183.811 150.406 185.131 149.047C186.792 147.382 184.056 144.884 182.345 146.549C179.951 148.959 176.628 152.071 177.556 155.62C178.045 157.373 179.462 158.513 181.026 159.564C181.808 160.09 183.127 160.704 183.469 161.536C183.567 161.712 183.469 161.931 183.518 162.106C183.665 162.5 183.567 162.632 183.469 162.72C183.567 162.72 183.811 162.72 184.251 162.763C181.808 162.413 180.733 165.787 183.225 166.138C186.987 166.664 188.405 162.544 186.987 159.959Z" fill="#254547"/>
<path d="M198.08 154.963C197.347 154.218 196.125 152.991 196.418 151.896C196.663 150.888 198.08 150.143 198.862 149.529C200.767 148.039 197.982 145.585 196.076 147.031C193.389 149.135 191.239 151.633 193.242 154.875C194.073 156.278 195.783 157.33 196.467 158.732C196.809 159.433 196.712 159.784 196.418 160.485C196.272 160.791 196.028 161.098 195.93 161.405C195.734 161.887 195.148 161.843 195.979 161.799C193.486 161.975 193.486 165.48 195.979 165.305C198.911 165.13 200.67 161.624 200.67 159.258C200.67 157.461 199.301 156.278 198.08 154.963Z" fill="#254547"/>
<path d="M274.684 91.6214C274.684 91.5129 274.684 91.4586 274.684 91.3501C274.684 86.6299 274.231 82.0182 273.55 77.3523C272.87 72.7406 272.416 67.9119 271.055 63.4629C268.22 54.1853 266.065 44.6907 262.89 35.4673C261.358 30.9641 259.544 26.5152 257.616 22.1747C256.822 20.3843 256.085 18.6482 255.121 16.9662C254.1 15.1216 252.682 13.5482 251.605 11.7035C249.62 8.23115 246.728 4.10775 243.496 1.55775C240.207 -1.0465 235.614 0.364126 231.758 0.526892C229.319 0.635402 226.938 1.12371 224.443 1.28648C222.004 1.44924 219.566 1.61202 217.127 1.93755C214.746 2.31733 212.421 2.80564 210.039 3.13117C208.848 3.29393 207.771 3.51096 206.75 3.945C206.24 4.16202 205.786 4.48752 205.332 4.86731C199.889 5.89816 194.388 6.49497 188.944 7.58007C185.939 8.17688 182.877 8.55669 179.815 9.09924C176.809 9.6418 173.974 10.6726 171.025 11.3779C165.298 12.7886 159.457 13.7109 153.786 15.1758C147.775 16.6949 141.878 18.7024 135.867 20.2758C130.367 21.7407 124.582 22.9886 119.365 25.3215C117.324 26.2439 115.85 28.0343 113.808 28.9024C113.298 29.1194 112.788 29.2822 112.334 29.445C110.236 28.5226 107.741 31.1811 109.725 32.863C109.839 32.9715 110.009 33.08 110.122 33.1885C110.349 34.5449 111.143 35.7386 111.54 37.0407C112.334 39.6992 112.22 42.629 112.731 45.3417C113.752 50.713 115.85 55.813 117.381 61.0757C118.969 66.6098 120.046 72.2523 121.69 77.7321C123.335 83.2661 126.057 88.3661 128.268 93.6831C132.068 102.744 134.166 112.944 139.666 121.245C141.141 123.415 143.296 126.453 146.301 126.562C147.662 126.616 148.683 126.073 149.477 125.26C159.967 124.229 170.401 122.221 180.892 121.028C191.439 119.78 201.987 117.989 212.364 115.765C222.968 113.541 233.175 110.014 243.099 105.891C252.966 101.821 263.06 98.2406 273.267 94.9852C274.968 94.5512 275.365 92.7608 274.684 91.6214ZM227.958 5.30138C228.809 7.36308 230.51 8.88222 230.68 11.2695C230.85 13.5482 230.113 16.3152 229.263 18.4311C228.299 20.6556 226.824 23.0971 224.896 24.6162C224.726 24.7247 224.613 24.8332 224.443 24.9417C224.613 24.4534 224.783 24.0194 224.84 23.5854C225.35 21.2524 225.633 18.9194 225.293 16.5322C224.669 12.1375 222.571 9.15349 219.906 6.00669C222.571 5.68116 225.293 5.62691 227.958 5.30138ZM186.846 13.2769C186.903 12.9513 186.903 12.6801 186.846 12.4088C187.753 12.246 188.717 12.0833 189.625 11.9205C189.681 11.9205 189.795 11.9205 189.852 11.8662C188.604 14.0907 188.15 16.6949 188.377 19.2449C188.321 19.1907 188.264 19.1364 188.207 19.0822C186.563 17.2375 186.336 15.6098 186.846 13.2769ZM130.99 27.329C130.934 27.0035 130.707 27.8715 130.65 27.9801C130.48 28.3056 130.253 28.7396 129.913 28.9566C129.062 29.4449 127.134 28.3598 127.191 27.2747C127.191 27.2205 127.191 27.2205 127.191 27.1662C128.268 26.8407 129.346 26.5152 130.423 26.2439C130.593 26.6237 130.877 26.9492 130.99 27.329ZM147.095 120.811C146.528 120.865 145.961 121.082 145.621 121.516C144.543 120.485 143.749 119.237 143.012 117.989C138.305 110.177 136.321 100.953 132.805 92.6523C130.763 87.8236 128.268 83.1576 126.624 78.1661C125.036 73.2832 123.959 68.2917 122.711 63.3545C121.52 58.58 119.819 53.914 118.515 49.1396C117.891 46.8066 117.154 44.5822 116.87 42.1949C116.814 41.5981 116.757 41.0013 116.7 40.3502C117.551 41.2183 118.401 42.0864 119.139 43.0088C121.974 46.5896 124.582 50.3332 127.531 53.8598C130.82 57.8204 133.372 61.781 135.243 66.5555C137.115 71.2757 139.213 75.8331 141.141 80.4991C142.955 84.7853 143.522 89.614 144.43 94.1171C145.507 99.2714 145.904 104.48 146.641 109.634C147.095 113.106 148.229 117.284 147.095 120.811ZM140.914 68.7257C143.182 68.78 144.6 72.1438 142.445 72.1981C142.388 72.1981 142.332 72.1981 142.275 72.1981C141.821 71.0587 141.368 69.9193 140.914 68.7257ZM173.01 117.772C171.819 114.246 172.953 110.177 174.541 106.867C175.221 105.456 176.015 103.775 177.036 102.093C176.809 103.883 176.752 105.674 176.979 107.518C177.376 110.828 177.83 114.192 179.588 116.904C177.376 117.176 175.165 117.447 173.01 117.772ZM207.034 112.564C207.487 112.13 208.054 111.75 208.621 111.533C209.302 111.262 210.436 111.316 210.946 111.75C209.642 112.021 208.338 112.293 207.034 112.564ZM257.219 95.8533C252.512 97.1012 247.976 99.5427 243.383 101.225C238.109 103.178 233.062 105.348 227.732 107.138C223.649 108.441 219.566 109.688 215.426 110.719C214.689 107.789 210.379 106.379 207.714 107.193C204.709 108.115 201.93 110.556 201.59 113.595C195.976 114.626 190.362 115.494 184.748 116.253C184.691 116.199 184.635 116.145 184.521 116.09C181.686 114.029 181.402 108.766 181.232 105.674C181.062 101.984 182.253 98.5118 184.124 95.3108C184.975 93.8459 183.5 91.3502 181.572 92.1097C175.959 94.3342 172.783 100.031 170.345 105.131C169.097 107.789 168.246 110.502 167.963 113.432C167.793 115.385 167.963 116.904 168.417 118.532C162.803 119.346 157.245 120.268 151.631 120.865C151.688 120.539 151.745 120.214 151.802 119.943C152.312 115.656 151.291 111.37 150.781 107.193C150.044 101.442 149.306 95.7991 148.116 90.1565C147.492 87.1182 147.038 84.0799 146.074 81.0959C145.564 79.4682 144.827 77.8949 144.089 76.3757C146.982 75.4534 148.796 72.4693 147.832 69.431C146.755 66.0672 142.899 63.5715 139.269 64.6566C138.079 61.7268 136.774 58.8513 134.96 56.247C131.727 51.5811 127.758 47.3492 124.412 42.6832C122.825 40.4587 121.067 38.2885 119.082 36.3896C117.948 35.3045 116.927 34.1109 115.906 32.9173C116.02 32.863 116.133 32.8088 116.247 32.7545C118.345 31.7779 119.876 29.9875 122.031 29.0652C122.257 28.9566 122.541 28.8481 122.825 28.7396C123.675 31.8864 127.645 34.2194 130.99 33.3513C132.918 32.863 134.336 30.9641 135.073 29.2822C135.47 28.4141 135.697 27.4375 135.47 26.4609C135.357 25.9726 135.073 25.5386 134.79 25.1588C135.583 24.9418 136.377 24.7247 137.171 24.5077C143.182 22.88 149.08 20.9269 155.091 19.4077C160.818 17.9428 166.659 17.0748 172.329 15.6099C175.108 14.9046 177.773 13.9822 180.552 13.4397C181.119 13.3312 181.743 13.2226 182.31 13.1141C181.743 16.3694 182.366 19.1364 184.748 21.7949C186.619 23.9109 190.022 26.1354 193.027 25.5928C194.388 25.3758 195.239 23.4769 194.388 22.3918C192.29 19.679 192.29 14.9588 194.955 12.4088C195.466 11.9205 195.692 11.3779 195.636 10.8354C199.945 10.1843 204.312 9.58751 208.565 8.66517C209.189 8.55666 209.869 8.01412 210.096 7.41731C210.833 7.3088 211.684 7.30882 212.251 7.20031C213.215 7.0918 214.179 6.87477 215.086 6.712C215.143 7.09179 215.313 7.41732 215.596 7.7971C218.488 11.1067 220.927 14.145 220.927 18.7567C220.927 21.0354 220.303 23.4226 219.566 25.6471C219.169 26.895 218.545 28.0886 218.658 29.445C218.772 30.9098 219.963 31.8322 221.494 31.5609C223.308 31.2354 225.86 29.2822 227.278 28.2513C229.773 26.4067 231.701 23.6939 233.005 20.9269C234.309 18.2141 235.047 15.1215 235.16 12.1918C235.217 10.7811 234.99 9.42476 234.48 8.06838C234.026 6.87477 233.175 5.84393 232.608 4.75883C233.799 4.65031 234.99 4.59606 236.124 4.48755C238.449 4.27053 240.094 4.21625 241.738 5.95241C244.687 9.04496 246.558 12.7343 249.11 16.0981C253.873 22.5003 256.652 30.6386 259.09 38.1258C260.451 42.2492 261.472 46.4268 262.719 50.6045C263.343 52.5577 264.08 54.5109 264.647 56.464C264.761 56.7353 264.818 57.0608 264.874 57.3321C264.761 57.3864 264.647 57.4949 264.534 57.5491C260.735 60.7502 255.631 62.1608 252.456 57.2779C251.151 55.3247 250.924 52.9917 251.492 50.7672C252.059 48.597 253.59 47.2949 254.951 45.5045C255.234 45.179 255.348 44.8534 255.404 44.5279C256.822 43.2258 255.574 40.296 253.193 40.8928C240.377 43.9311 233.969 61.2385 243.553 70.5161C247.579 74.3682 255.631 76.3757 260.791 73.6629C263.343 72.3066 265.328 69.5938 266.405 67.0981C266.575 66.664 266.802 66.23 266.972 65.7417C269.127 74.0427 270.205 82.8321 270.205 91.3501C270.205 91.4044 270.205 91.4587 270.205 91.5672C265.838 93.0321 261.642 94.6597 257.219 95.8533ZM249.79 61.2385C253.646 65.4161 258.523 65.5789 262.946 63.6257C262.606 64.4396 262.266 65.1449 261.982 65.6874C261.075 67.5864 259.601 69.648 257.389 70.2448C253.249 71.3842 247.919 69.5395 245.481 66.1757C241.851 61.2385 243.099 54.2938 247.012 49.6821C246.842 50.3875 246.671 51.147 246.615 51.8523C246.331 55.2162 247.465 58.6342 249.79 61.2385Z" fill="#254547"/>
<path d="M221.947 67.2064C221.21 60.6957 216.56 54.6734 210.152 52.2319C202.497 49.3564 193.708 51.5266 189.852 58.851C189.228 60.0989 189.908 61.4553 190.986 61.9436C191.213 62.3234 191.609 62.6489 192.177 62.866C195.919 64.2223 199.889 65.4702 202.611 68.4542C205.616 71.7096 206.183 76.1585 207.147 80.2276C207.601 82.2893 207.317 84.0798 207.317 86.1415C207.317 87.2808 207.657 88.4744 208.735 89.1255C211.173 90.5904 213.555 88.2574 214.973 86.5755C219.226 81.5298 222.685 73.934 221.947 67.2064ZM215.993 75.6159C215.313 77.6776 214.632 79.7393 213.385 81.584C212.988 82.1266 212.591 82.6691 212.137 83.2117C212.137 83.1032 212.137 82.9946 212.137 82.8319C212.08 81.0957 211.57 79.3595 211.173 77.6776C210.436 74.5851 209.869 71.4925 208.224 68.6713C205.332 63.6255 200.286 61.3468 194.955 59.3394C197.394 56.3553 201.363 54.7277 205.332 55.4872C209.812 56.3553 213.952 58.9596 215.993 62.9745C218.205 67.1521 217.411 71.2755 215.993 75.6159Z" fill="#254547"/>
<path d="M180.835 75.0193C179.191 71.9268 175.108 70.4076 172.216 72.3608C171.932 72.3066 171.649 72.3608 171.365 72.4693C168.36 73.6629 167.396 78.2204 168.473 80.9331C169.834 84.3512 174.371 85.2193 177.546 83.863C181.119 82.3438 182.593 78.3289 180.835 75.0193ZM175.335 80.0108C174.371 80.2821 172.896 80.1736 172.613 79.0885C172.499 78.6002 172.67 77.9491 172.783 77.4608C172.84 77.2981 172.896 77.1353 172.953 76.9725C173.463 76.9183 173.974 76.7555 174.314 76.3757C174.824 75.7789 174.938 75.5076 175.675 75.8874C176.299 76.2129 176.866 76.7555 177.036 77.4065C177.319 78.6544 176.526 79.6853 175.335 80.0108Z" fill="#254547"/>
<path d="M264.988 84.6768C264.08 81.5842 261.075 80.6619 258.069 80.6076C257.843 80.6076 257.673 80.6076 257.502 80.6618C256.822 80.3906 255.971 80.4991 255.348 81.2044C253.136 83.5916 251.605 86.8469 254.384 89.5055C256.312 91.2959 259.771 92.6523 262.322 91.4044C264.761 90.2108 265.725 87.1725 264.988 84.6768ZM260.224 87.6065C259.657 87.8235 258.41 87.1182 257.956 86.7927C257.105 86.1959 257.446 85.5991 258.013 84.948C258.069 84.948 258.069 84.948 258.126 84.948C258.977 84.948 260.168 84.8395 260.621 85.6533C260.848 86.1959 260.791 87.3895 260.224 87.6065Z" fill="#254547"/>
<path d="M239.526 88.9085C238.846 86.1415 235.897 84.2968 233.119 84.1883C232.495 84.134 232.041 84.3511 231.701 84.6223C231.02 84.4596 230.283 84.5681 229.603 85.2192C227.335 87.4436 225.69 91.133 228.185 93.8457C229.943 95.6904 233.005 96.1244 235.444 95.4734C238.336 94.6053 240.264 91.7298 239.526 88.9085ZM233.969 91.2415C233.402 91.35 232.098 91.4043 231.644 90.916C231.02 90.2106 231.984 89.0713 232.608 88.4202C232.778 88.4745 232.948 88.4745 233.119 88.4745C234.706 88.583 236.181 90.8074 233.969 91.2415Z" fill="#254547"/>
<path d="M170.798 39.7535C170.401 37.8546 167.623 37.7461 166.659 39.211C164.674 42.3578 157.982 42.7376 155.884 39.4823C154.92 38.0174 154.864 35.9014 154.75 34.2195C154.637 31.9408 155.601 30.4759 156.168 28.3599C156.395 27.6003 156.168 26.9493 155.771 26.5152C155.771 25.4301 155.034 24.4535 153.616 24.5078C147.378 24.9418 144.543 31.0727 143.579 36.1727C142.445 41.978 142.558 48.2716 147.945 52.1237C152.539 55.4876 158.946 55.4333 163.767 52.5035C167.793 50.062 171.762 44.5822 170.798 39.7535ZM161.101 48.9769C157.699 50.8759 153.333 50.9301 150.27 48.4344C146.868 45.6674 147.208 41.1642 147.945 37.3663C148.229 35.7929 148.512 34.111 149.193 32.7003C149.42 32.212 149.873 31.561 150.384 30.9642C150.27 31.2897 150.214 31.6152 150.157 31.995C149.987 33.4599 150.157 34.9248 150.327 36.3897C150.667 39.3737 151.575 42.2493 154.183 44.0939C157.075 46.1556 161.215 46.5897 164.787 45.5046C163.937 46.9152 162.632 48.1088 161.101 48.9769Z" fill="#254547"/>
<path d="M206.126 31.615C205.673 31.6692 205.219 31.832 204.822 32.049C203.972 31.4522 202.611 31.398 201.873 32.2118C200.116 34.2192 199.265 37.0947 200.399 39.5905C201.363 41.7607 203.972 42.5203 206.24 41.9777C208.678 41.3809 210.606 39.1565 210.89 36.8235C211.173 34.2192 209.018 31.3437 206.126 31.615ZM206.297 36.6607C206.013 37.366 205.389 37.7458 204.765 37.8001C204.765 37.8001 204.652 37.8001 204.539 37.8001V37.7458C204.482 36.9863 204.482 36.2267 204.879 35.5756C205.219 35.8469 205.673 35.9554 206.126 35.9554C206.183 35.9554 206.24 35.9554 206.297 35.9554C206.297 36.0097 206.353 36.0096 206.353 36.0639C206.353 36.3352 206.41 36.3894 206.297 36.6607Z" fill="#254547"/>
<path d="M247.465 21.5779C246.445 20.7098 245.197 20.9269 244.346 21.5779C243.099 21.3067 241.908 21.3066 240.774 22.1747C239.526 23.0971 238.676 24.5619 238.279 26.0268C237.428 29.1193 239.413 32.3204 242.589 33.297C245.821 34.3278 249.223 32.3204 250.471 29.3906C251.945 26.0811 249.96 23.6396 247.465 21.5779ZM244.46 29.2821C243.609 29.2821 242.702 28.3598 242.645 27.546C242.645 27.0577 242.986 26.6236 243.099 26.1896C243.099 26.2439 243.212 25.9726 243.269 25.8098C243.439 25.8641 243.609 25.8641 243.723 25.9183C244.46 26.0811 245.027 25.9726 245.537 25.647C245.934 26.0268 246.331 26.4066 246.445 26.8406C246.671 27.8172 245.537 29.2278 244.46 29.2821Z" fill="#254547"/>
<path d="M80.7343 93.4248C79.2625 92.364 77.8576 91.3032 76.5865 90.0552L76.5196 89.9928C79.3963 87.7464 81.6709 84.9384 83.3434 81.3816C86.1532 75.4536 87.4912 69.0888 86.0863 62.6616C85.1497 58.356 82.8751 53.9256 79.8646 50.1192C81.0019 48.6216 81.6709 46.8744 82.7413 45.3144C84.1462 43.1928 85.1497 41.3832 85.2166 38.8248C85.2166 35.58 83.8786 32.8344 81.6709 30.7128C81.8716 30.4632 82.0054 30.2136 82.1392 29.9016C82.5406 29.0904 82.8751 28.2792 83.2096 27.468C83.2765 27.2808 83.3434 27.0936 83.4103 26.9064C83.4103 26.844 83.4772 26.7816 83.5441 26.6568C83.7448 26.4072 84.1462 25.8456 83.6779 26.2824C84.6145 25.284 84.7483 23.724 83.6779 22.7256C82.6744 21.7896 80.8681 21.7272 79.8646 22.7256C78.7942 23.8488 78.3259 25.2216 77.7907 26.532C77.5231 27.2808 77.5231 27.2808 77.2555 27.7176C72.7063 25.596 67.555 26.0952 63.0727 28.2168C60.7981 29.2776 59.0587 30.8376 57.4531 32.7096C56.2489 34.0824 54.844 35.4552 54.0412 37.14C51.3652 37.2024 48.6892 37.3896 46.0801 37.8888C43.9393 36.0168 41.5978 34.2696 39.3232 32.5224C37.3831 31.0248 35.2423 29.7768 32.7001 29.4024C29.6896 29.028 26.6122 29.9016 24.0031 31.4616C23.8024 30.9624 23.401 30.5256 22.9327 30.2136C23.2672 30.4008 22.8658 30.0888 22.9327 30.2136C22.8658 30.0888 22.7989 30.0264 22.732 29.9016C22.732 29.9016 22.6651 29.7144 22.5982 29.5896C22.5313 29.4024 22.4644 29.1528 22.3306 28.9656C21.9292 27.8424 21.394 26.844 20.5912 25.9704C19.6546 24.972 17.7814 25.0344 16.7779 25.9704C15.7075 26.9688 15.7744 28.4664 16.7779 29.5272C16.4434 29.1528 16.8448 29.652 16.9117 29.7768C16.9786 29.8392 16.9786 29.8392 16.9786 29.9016C16.9786 29.9016 16.9786 29.964 17.0455 30.0264C17.2462 30.5256 17.38 30.9624 17.5807 31.3992C18.1159 32.7096 18.8518 33.7704 20.1898 34.5192H20.2567C20.1898 34.5816 20.1229 34.644 20.056 34.7064C14.7709 40.9464 15.2392 50.1192 20.6581 56.0472C20.7919 56.2344 20.9257 56.3592 21.0595 56.484C21.1933 56.6088 21.394 56.796 21.5278 56.9208C22.1299 57.4824 22.732 57.6696 23.401 57.6696C19.9891 68.34 22.9327 81.0072 31.6966 88.7448C33.9043 90.6792 36.2458 91.9896 38.7211 92.988C38.7211 92.988 38.7211 92.988 38.7211 93.0504C38.5873 94.1736 38.2528 96.42 37.3831 97.2312C34.9747 99.54 38.7211 103.034 41.1964 100.788C42.9358 99.1656 43.5379 96.8568 43.8724 94.6104C45.7456 95.1096 47.7526 95.484 49.7596 95.9832C56.2489 97.4808 63.7417 96.5448 69.7627 93.924C70.6324 93.5496 71.4352 93.1752 72.1711 92.7384C72.3049 93.0504 72.5056 93.3 72.7732 93.5496C73.9105 94.6104 75.1147 95.5464 76.3189 96.4824C76.7872 96.8568 77.4562 97.2312 77.8576 97.6056C77.8576 97.6056 78.1921 97.9176 78.3259 97.98C78.3259 97.98 78.3259 97.98 78.3928 98.0424C78.3928 97.98 78.3928 97.8552 78.3259 97.7304C78.3259 97.8552 78.3259 97.9176 78.3928 98.0424C78.4597 98.1048 78.4597 98.2296 78.3928 98.1672C78.6604 99.2904 79.6639 100.226 81.0019 100.226C82.3399 100.226 83.8117 99.1032 83.6779 97.7304C83.5441 95.796 82.4068 94.6104 80.7343 93.4248ZM64.6783 33.2712C67.6888 31.4616 71.5021 30.7128 74.8471 32.2728C77.8576 33.6456 80.1322 35.9544 79.7977 39.2616C79.597 41.0088 78.4597 42.1944 77.5231 43.692C76.9879 44.5656 76.6534 45.4392 76.1851 46.2504C75.583 45.6264 74.914 45.0648 74.245 44.5656C71.7028 42.5064 68.0902 40.26 64.879 39.1992C63.0058 38.5752 61.1995 38.8248 59.3263 38.5752C60.5305 36.516 63.1396 34.2072 64.6783 33.2712ZM23.8693 38.5128C25.6756 36.0792 29.3551 33.7704 32.6332 34.5192C34.6402 35.0184 36.1789 36.5784 37.6507 37.8264C38.3866 38.4504 39.1894 39.0744 39.9922 39.636C38.8549 40.0728 37.6507 40.572 36.5803 41.196C31.4959 44.004 27.7495 48.4344 25.2742 53.4264C21.1933 49.4952 20.5243 43.068 23.8693 38.5128ZM54.7102 91.74C51.7666 91.6152 48.8899 90.6168 46.0132 90.1176C43.1365 89.6184 40.5274 88.932 38.0521 87.372C28.6861 81.444 25.7425 69.7752 28.4185 59.916C29.8234 54.6744 33.3022 49.3704 38.119 46.3128C42.1999 43.7544 46.8829 42.756 51.6997 42.444C52.1011 42.8184 52.7032 43.0056 53.4391 43.0056C55.9813 42.9432 58.189 43.7544 60.7312 43.7544C63.6748 43.7544 66.0832 45.4392 68.5585 46.8744C73.3084 49.62 77.1217 54.8616 79.3294 59.604C83.7448 69.0888 80.3329 82.5048 70.6324 87.996C65.7487 90.6792 60.5305 91.8648 54.7102 91.74Z" fill="#254547"/>
<path d="M78.3928 98.0425C78.3928 98.1669 78.3928 98.1669 78.4602 98.2291C78.4602 98.1669 78.4603 98.1669 78.3928 98.0425C78.3928 98.1047 78.3928 98.1047 78.3928 98.0425Z" fill="#254547"/>
<path d="M76.3858 62.7863C74.5795 53.1767 65.7487 47.8727 56.0482 46.0631C55.7137 45.8759 55.3123 45.8135 54.9109 45.7511C45.6118 45.3767 38.5204 52.1783 34.774 59.4791C32.7001 63.4727 32.7001 68.2151 34.3057 72.3959C35.0416 74.2679 35.1754 76.5767 36.5134 78.1991C37.8514 79.8839 39.457 81.7559 41.3971 82.8791C45.4111 85.1879 50.161 85.8119 54.7102 86.3111C59.3932 86.8103 64.2769 86.4359 68.224 83.7527C74.9809 79.0727 77.7907 70.2743 76.3858 62.7863ZM68.7592 75.5159C66.217 79.6343 62.4706 81.5687 57.3862 81.4439C53.1046 81.3191 47.6857 80.8199 44.0731 78.5111C40.7281 76.3895 39.1894 71.7095 38.5873 68.1527C37.8514 63.9719 40.4605 58.9799 43.4041 55.8599C46.0801 53.1143 49.9603 50.9303 53.9743 50.8055C58.2559 51.4919 62.5375 52.9271 66.0163 55.4231C69.2944 57.7319 70.7662 60.9143 71.3014 64.5959C71.9035 68.4647 70.9 72.1463 68.7592 75.5159Z" fill="#254547"/>
<path d="M56.1151 66.0312C55.4461 63.4104 54.7771 60.9144 54.7102 58.1688C54.6433 54.9864 49.2913 54.924 49.3582 58.1688C49.4251 61.3512 50.4286 64.2216 50.9638 67.3416C51.2314 68.964 50.83 69.5256 49.8265 70.7736C49.2244 71.5848 48.7561 72.7704 48.0202 73.644C46.6822 73.956 45.5449 75.0792 45.9463 76.6392C46.0132 76.764 46.0132 76.9512 46.0801 77.076C46.4815 78.5736 48.6223 79.4472 50.0272 78.5736C51.5659 77.5752 52.3687 76.452 53.3722 74.9544C54.2419 73.5816 55.7806 72.4584 56.4496 70.8984C57.1186 69.3384 56.5165 67.6536 56.1151 66.0312Z" fill="#254547"/>
<path d="M187.87 265.985C187.275 264.896 186.417 264.182 185.692 263.164C184.849 262.031 184.043 260.844 183.284 259.648C181.637 257.095 180.242 254.354 178.633 251.748C175.505 246.749 171.783 242.144 168.655 237.146C165.327 231.862 161.665 226.828 157.995 221.749C154.387 216.751 151.023 211.521 147.537 206.407C144.097 201.283 140.787 196.088 137.393 190.956C135.963 188.778 134.274 186.743 132.836 184.521C131.262 182.093 129.809 179.549 128.03 177.3C124.336 172.597 119.685 168.636 115.907 163.995C114.073 161.71 112.416 159.345 110.879 156.864C109.351 154.427 107.431 152.437 105.698 150.179C101.823 145.279 98.2845 139.897 93.2549 135.963C90.9913 134.179 88.2055 132.914 85.3766 132.166C83.0529 131.552 80.3254 131.573 78.0506 130.717C77.5365 129.798 76.3356 129.29 75.444 129.88C75.3805 129.8 75.3256 129.764 75.2621 129.684C72.1263 126.865 69.0892 125.046 65.0334 123.656C61.1334 122.329 56.5728 121.548 52.3823 122.177C47.8598 122.824 44.3657 125.31 40.3431 127.297C38.6377 128.138 37.3739 129.033 36.1595 130.427C34.7863 131.991 33.0666 133.252 31.8206 134.977C30.762 136.434 29.969 138.025 29.3867 139.713C28.6315 141.992 27.5733 144.19 26.9653 146.486C26.4465 148.255 26.2309 150.104 26.2087 151.961C25.4066 152.766 24.4862 153.454 23.7478 154.339C22.8218 155.492 21.9045 156.69 20.9785 157.843C18.8468 160.435 16.6688 163.036 14.7103 165.78C11.7306 169.927 10.7862 174.93 10.6989 179.905C10.6294 185.71 11.4517 191.666 12.6463 197.319C13.3174 200.525 14.3953 203.605 15.1125 206.802C15.928 210.257 16.4751 213.811 17.484 217.276C19.3312 223.821 20.3473 230.527 21.9175 237.126C23.4877 243.725 24.6423 250.404 25.9354 257.057C27.1737 263.674 29.1508 270.147 30.4353 276.755C31.0341 279.836 31.4483 282.953 32.177 285.962C33.0299 289.364 33.9492 292.614 34.6175 296.052C36.0234 303.285 37.669 310.518 39.2596 317.715C40.0376 321.224 41.1475 324.715 42.1015 328.144C43.0382 331.484 43.9835 334.868 44.7441 338.288C44.9378 339.038 45.4027 339.457 46.0089 339.617C46.1391 340.287 46.6848 340.876 47.6056 340.929C49.4845 340.98 51.1673 341.256 53.023 340.941C55.0173 340.6 56.9855 340.125 58.9711 339.739C60.9566 339.353 63.0693 339.127 65.0115 338.518C66.8238 337.981 68.0643 336.72 69.6687 335.852C70.548 340.129 71.1965 344.452 72.1682 348.711C73.4926 354.292 75.1864 359.801 76.3348 365.462C78.4753 375.981 81.9925 386.187 85.7693 396.249C87.5465 400.954 88.8448 406.401 93.1468 409.549C95.2111 411.048 97.3848 411.876 99.9881 411.463C102.499 411.067 104.805 410.11 107.281 409.536C107.558 409.482 107.881 409.419 108.158 409.365C108.204 409.356 108.25 409.347 108.297 409.338L108.343 409.329C112.242 408.432 115.912 406.607 118.482 403.559C121.295 400.278 120.453 395.206 119.66 391.375C119.608 391.107 119.556 390.839 119.513 390.616C121.989 389.301 124.193 387.575 126.686 386.349C129.494 385.016 132.348 383.673 135.147 382.295C137.908 380.97 140.812 380.128 143.859 379.536C146.307 379.06 148.774 379.183 151.236 379.028C152.799 381.644 154.454 384.241 156.109 386.839C157.475 388.936 159.086 389.828 161.663 389.281C164.794 388.626 168.142 387.604 171.195 386.547C174.471 385.401 177.795 384.014 180.793 382.18C183.494 380.543 186.324 378.834 188.826 376.911C189.112 376.902 189.389 376.848 189.703 376.741C191.602 375.908 192.47 374.211 194.005 372.986C195.67 371.689 197.831 371.222 199.568 370.051C201.054 369.067 202.231 367.726 202.308 365.904C202.417 363.751 200.852 361.368 200.092 359.431C196.511 349.887 192.282 340.7 188.211 331.344C187.358 329.425 186.154 327.666 185.293 325.702C184.325 323.435 183.274 321.23 182.092 319.096C179.53 314.544 176.876 310.009 174.054 305.6C171.295 301.271 168.277 297.085 165.779 292.612C163.433 288.435 160.436 284.847 157.932 280.84C154.858 275.877 151.961 270.833 148.804 265.933C147.222 263.46 145.647 261.033 144.111 258.551C143.423 257.48 142.828 256.391 142.225 255.257C141.855 254.588 141.199 253.927 140.784 253.267C141.006 253.177 141.219 253.043 141.441 252.954C142.215 253.73 142.773 254.873 143.371 255.73C144.257 257.086 145.098 258.452 145.938 259.818C147.495 262.156 149.228 264.414 150.952 266.627C152.794 268.957 154.628 271.241 156.676 273.392C158.503 275.4 160.407 278.042 162.627 279.602C165.953 281.921 171.736 279.129 174.832 277.554C178.976 275.452 183.133 272.188 186.116 268.55C187.481 268.423 188.554 267.288 187.87 265.985ZM30.1287 153.145C30.4575 152.618 30.3995 152.073 30.1281 151.663C30.1475 150.037 30.3604 148.42 30.8763 146.884C31.4614 144.963 32.3582 143.167 32.9433 141.246C33.5571 139.227 34.5116 137.234 36.0868 135.723C37.2898 134.517 38.4928 133.31 39.6497 132.112C41.17 130.565 43.6577 129.804 45.5044 128.703C47.2212 127.675 49.0391 126.672 50.9986 126.153C53.1429 125.597 55.0479 125.783 57.2213 125.87C75.9072 126.593 84.607 147.189 86.5217 162.71C87.1358 167.595 87.0197 172.668 87.3106 177.616C87.6101 182.608 87.8433 187.753 87.6724 192.79C87.5418 197.542 85.8669 201.991 84.3853 206.449C83.659 208.629 83.0972 210.916 82.5729 213.15C82.3885 213.927 82.1493 214.668 81.8639 215.419C80.6592 212.919 79.3708 210.482 77.8689 208.179C78.3245 207.071 78.4047 205.758 78.4186 204.597C78.5096 201.614 78.794 198.64 78.9312 195.648C79.0823 191.494 79.4182 187.305 79.4682 183.125C79.4818 181.223 79.1145 179.58 78.75 177.705C78.322 175.749 78.5577 173.757 78.4616 171.783C78.2433 167.702 77.1418 163.514 76.2683 159.514C75.4036 155.558 74.3454 151.594 72.9352 147.79C71.0077 142.558 67.5419 137.301 62.0022 135.181C56.2056 132.971 48.9393 135.774 44.7705 139.966C39.7248 145.071 38.7581 151.931 40.9285 158.413C42.1568 162.021 44.043 165.314 45.5772 168.769C47.2096 172.483 48.9833 175.938 51.3948 179.222C53.6157 182.266 55.4731 185.658 58.1498 188.335C59.3972 189.575 60.2926 190.976 61.3352 192.396C62.5048 193.975 64.0928 195.242 65.2711 196.866C67.8559 200.303 70.1809 203.882 72.7657 207.318C73.0198 207.639 73.2277 207.969 73.4819 208.291C73.3322 209.246 73.9735 210.327 74.9116 210.469C76.7197 213.361 78.1844 216.458 79.6029 219.565C83.4715 228.127 86.2203 237.091 88.2765 246.19C87.3502 246.602 86.4239 247.014 85.3792 247.309C84.2508 247.668 83.0964 247.892 81.9507 248.161C81.942 248.116 81.9334 248.072 81.9334 248.072C80.1341 239.062 76.3697 231.036 71.6269 223.154C70.5611 221.369 69.5213 219.718 68.594 217.906C67.6841 216.183 66.4394 214.71 65.2323 213.184C62.3819 209.614 59.7653 205.767 57.2583 201.992C54.8062 198.252 51.9732 194.771 49.4375 191.094C48.3602 189.496 47.2916 187.943 46.1768 186.399C44.8888 184.704 43.3959 183.187 42.2377 181.419C37.7956 174.591 32.9577 166.959 31.0348 159.039C30.5866 157.227 30.2422 155.208 30.1287 153.145ZM57.3449 144.009C57.8938 145.107 58.5263 146.143 59.2512 147.16C58.4808 147.634 57.7652 148.144 56.9948 148.618C56.3917 148.967 55.6675 149.432 55.0557 149.736C54.1294 150.148 53.9795 150.363 53.3441 149.559C52.5817 148.596 52.1971 146.863 51.7405 145.747C51.0875 144.113 50.397 142.533 49.6978 140.908C49.6891 140.864 49.6891 140.864 49.6343 140.828C50.7769 140.05 52.0004 139.442 53.3884 138.94C53.7953 138.815 54.2022 138.689 54.5716 138.617C54.5803 138.662 54.589 138.707 54.5977 138.751C54.9622 140.627 56.4724 142.233 57.3449 144.009ZM46.6915 143.439C47.5785 145.537 48.4655 147.635 49.315 149.787C49.8698 151.162 50.5978 152.688 51.9057 153.5C53.3232 154.382 54.8557 154.131 56.183 153.317C58.3731 152.011 60.5024 150.392 62.7821 149.3C63.9219 148.754 64.1319 147.37 63.3782 146.451C62.3155 145.174 61.4288 143.818 60.7095 142.336C60.3311 141.622 60.0363 140.845 59.6117 140.14C59.2507 139.515 58.549 138.864 58.2716 138.176C68.8386 139.041 71.8192 156.347 73.3612 164.527C73.7518 166.536 74.1885 168.536 74.478 170.519C74.7502 172.412 74.5894 174.297 74.6768 176.226C74.799 178.334 75.6225 180.351 75.6523 182.477C75.6936 184.415 75.4953 186.353 75.3894 188.274C75.1084 192.498 75.0122 196.687 74.6764 200.877C74.6333 201.395 74.7291 202.627 74.7325 203.877C73.1095 201.691 71.4576 199.602 69.9557 197.3C69.1326 196.023 68.3181 194.791 67.3738 193.631C66.3111 192.355 65.006 191.311 64.0183 189.928C62.0428 187.161 59.6664 184.797 57.8208 181.958C55.8856 178.906 53.4484 176.228 51.6806 173.051C49.9764 169.953 48.754 166.623 47.1795 163.454C45.6947 160.499 44.2012 157.499 43.66 154.222C42.9886 150.275 44.1962 146.38 46.6915 143.439ZM68.5588 332.361C66.8447 333.158 65.5552 334.659 63.6794 335.117C61.942 335.547 60.1238 335.808 58.4153 336.14C56.6606 336.481 54.9608 336.858 53.2061 337.199C51.5438 337.522 50.1265 337.38 48.4871 337.328C47.8827 334.712 47.2408 332.149 46.5441 329.551C49.8319 330.441 53.5257 328.982 56.5875 327.969C58.9279 327.19 61.0892 325.982 63.4122 325.114C64.708 324.63 65.9432 324.575 67.0081 324.137C67.6298 326.842 68.2977 329.539 68.9657 332.236C68.8271 332.263 68.6886 332.29 68.5588 332.361ZM54.3452 251.349C52.8714 247.466 50.9446 243.716 49.2025 239.931C48.3127 238.065 47.4691 236.19 46.5331 234.334C45.678 232.646 44.3351 230.915 43.7484 229.129C42.6819 225.861 40.7815 222.987 39.4841 219.764C38.5884 217.622 35.2151 219.25 36.1108 221.393C36.8274 223.107 37.8324 224.58 38.4567 226.312C38.893 227.571 39.6641 228.579 40.0918 229.794C41.0948 232.981 43.2695 236.034 44.7255 239.087C46.4156 242.604 48.0595 246.131 49.7033 249.657C50.4487 251.273 51.0094 252.924 51.6624 254.558C51.8328 254.942 53.0778 257.156 52.9365 257.415C52.6136 258.219 52.8823 258.862 53.402 259.317C53.6284 261.96 54.5418 264.934 55.6308 267.085C55.6944 267.165 55.7117 267.255 55.7753 267.335C55.7839 267.38 55.7926 267.424 55.8388 267.415C57.0605 269.263 57.0563 272.693 57.3343 274.863C57.7078 277.524 57.9428 280.212 58.3164 282.873C59.1155 288.464 60.5986 293.875 61.7671 299.393C62.9644 304.813 63.7923 310.305 65.0907 315.752C65.4407 317.306 65.8281 318.806 66.178 320.36C65.9645 320.494 65.7048 320.637 65.5086 320.86C65.35 321.03 64.0598 321.049 63.7828 321.103C63.1363 321.229 62.3773 321.515 61.7569 321.775C60.0168 322.438 58.3749 323.359 56.5886 324.031C54.2656 324.899 49.5764 327.154 47.1139 325.826C46.574 325.514 46.0025 325.532 45.5033 325.676C43.3523 317.568 41.1638 309.514 39.5207 301.308C38.9132 298.182 38.297 295.012 37.6895 291.887C37.0386 288.538 35.8335 285.297 35.2288 281.94C34.0974 275.626 32.8737 269.331 31.1883 263.125C29.442 256.607 28.7117 249.891 27.2887 243.31C25.9004 236.908 24.3361 230.586 23.1326 224.148C22.5164 220.978 21.5856 217.915 20.7847 214.781C19.9606 211.28 19.3211 207.744 18.4595 204.298C16.875 198.119 15.4812 192.181 14.7741 185.831C14.2031 180.428 14.0299 174.114 16.9082 169.199C18.63 166.223 21.1138 163.47 23.3293 160.815C24.3764 159.546 25.4149 158.232 26.462 156.963C26.5457 156.9 26.5745 156.802 26.6582 156.739C27.4368 161.731 29.4507 166.668 31.7039 170.864C33.8126 174.809 36.1436 178.665 38.4745 182.522C40.6697 186.172 43.6728 189.295 46.0815 192.812C49.1516 197.266 52.389 201.595 55.4591 206.048C57.0072 208.342 58.7313 210.556 60.288 212.894C61.7003 214.983 63.5397 216.803 64.8222 218.963C65.5182 220.079 65.8536 221.311 66.5035 222.436C67.0812 223.436 67.8176 224.265 68.3953 225.265C69.7499 227.55 70.9748 229.907 72.2371 232.21C75.094 237.539 77.01 242.959 78.1556 248.852C78.199 249.076 78.2886 249.29 78.4157 249.451C76.9727 249.916 75.5124 250.293 73.9338 250.553C71.9944 250.93 70.1994 251.557 68.2861 252.068C66.6498 252.525 65.0652 252.509 63.816 253.725C63.7323 253.788 63.6948 253.841 63.6573 253.895C62.2634 254.119 60.8146 254.308 59.4727 254.801C58.3992 255.195 57.3458 255.446 56.2549 255.751C55.7665 254.224 54.8191 252.555 54.3452 251.349ZM104.203 374.224C104.634 376.689 104.733 379.171 104.887 381.69C105.067 384.342 105.617 386.923 105.806 389.62C106.232 394.773 106.087 399.944 106.745 405.053C106.725 405.195 106.751 405.329 106.785 405.508L106.846 405.821C106.855 405.865 106.863 405.91 106.872 405.955L106.826 405.964C106.687 405.99 106.549 406.017 106.41 406.044C106.226 406.08 106.087 406.107 105.957 406.179C104.312 406.591 102.794 407.164 101.095 407.541C99.8565 407.828 98.6358 408.204 97.4436 407.741C96.2975 407.269 95.1196 406.386 94.2822 405.529C92.7719 403.923 91.9599 401.718 91.2288 399.682C90.2925 397.084 89.2638 394.504 88.3275 391.905C86.5156 387.022 84.8797 382.057 83.2901 377.084C81.6917 372.066 80.7399 366.923 79.5571 361.824C78.3309 356.502 76.6892 351.261 75.5554 345.921C74.4476 340.715 73.6631 335.446 72.3706 330.276C69.7943 319.981 67.7808 309.623 65.574 299.255C64.3794 293.603 62.8241 288.067 61.999 282.343C61.5734 279.414 61.3325 276.449 60.9069 273.52C60.6521 271.716 60.5327 269.376 59.92 267.456C60.2807 267.34 60.5866 267.188 60.956 267.116C62.878 266.65 64.907 266.487 66.8377 266.065C70.8838 265.186 74.6901 263.566 78.7188 262.597C79.1344 262.517 79.5875 262.382 79.9944 262.257C80.4627 263.926 81.0696 265.569 81.4081 267.311C81.8854 269.766 82.5589 271.998 83.2584 274.365C84.6575 279.097 84.6914 283.955 85.5739 288.742C86.4102 293.537 87.4773 298.288 88.4059 303.065C89.3606 307.976 90.6211 312.736 91.7518 317.566C93.9785 327.049 96.7881 336.326 98.6454 345.881C100.376 355.275 102.594 364.714 104.203 374.224ZM111.789 364.687C112.816 369.723 113.419 374.796 114.114 379.85C114.522 382.69 114.783 385.512 115.376 388.316C115.931 391.173 116.882 394.093 116.829 397.023C116.74 399.773 116.046 401.623 113.584 403.26C112.563 403.922 111.524 404.494 110.451 404.888C109.842 400.28 109.852 395.645 109.576 391.019C109.328 386.294 108.694 381.552 108.253 376.819C107.83 372.175 106.52 367.657 105.635 363.103C104.715 358.37 103.804 353.682 102.884 348.949C101.964 344.217 101.174 339.412 99.8843 334.751C98.5689 329.957 97.5306 325.108 96.2152 320.313C93.4921 310.741 91.7848 300.972 89.7543 291.265C88.6465 286.059 88.3786 280.737 87.2708 275.531C86.2064 270.548 84.4956 265.691 83.3851 260.717C85.229 259.849 86.9545 258.865 88.8273 257.899C89.1793 257.738 89.5689 257.523 89.9209 257.362C89.9383 257.451 89.9094 257.549 89.9355 257.683C90.41 260.371 91.889 263.049 92.8253 265.647C94.0928 272.907 95.2678 280.185 96.6738 287.418C97.6805 292.597 98.5113 297.857 99.7951 302.983C101.079 308.108 102.299 313.153 103.26 318.341C105.227 328.709 106.733 339.166 108.746 349.524C109.819 354.552 110.8 359.597 111.789 364.687ZM87.5875 254.479C84.1767 256.162 81.2509 258.12 77.4992 259.035C73.9322 259.914 70.5155 261.319 66.9023 262.207C64.9341 262.682 62.885 262.988 60.8995 263.374C60.2068 263.508 59.5055 263.598 58.8302 263.822C58.6917 263.849 58.4782 263.983 58.2647 264.117C57.6925 262.653 57.2068 260.894 57.0503 259.349C58.1873 259.036 59.3504 258.856 60.4614 258.408C62.0255 257.826 63.6764 257.691 65.3474 257.412C65.3936 257.403 65.4397 257.394 65.4859 257.385L65.8092 257.322C66.6403 257.161 67.0701 256.66 67.2344 256.026C67.9183 255.847 68.7669 255.774 69.2661 255.631C70.0799 255.38 70.8851 255.085 71.6989 254.834C73.6497 254.269 75.6787 254.107 77.6382 253.587C79.5602 253.12 81.2858 252.136 83.1443 251.59C85.0577 251.079 86.9047 250.72 88.792 250.075C90.587 249.448 92.1018 248.366 93.8881 247.694C95.582 247.041 97.3134 246.333 99.0247 245.769C99.1171 245.751 99.2008 245.688 99.2931 245.67C98.6442 246.77 98.2147 248.012 97.8862 249.28C97.4793 249.406 97.1533 249.701 96.9457 250.112C93.9331 251.624 90.7011 252.994 87.5875 254.479ZM90.7823 240.838C91.4322 241.963 92.0821 243.087 92.8243 244.194C92.4636 244.311 92.0654 244.481 91.7047 244.597C91.4155 243.356 91.1263 242.115 90.7823 240.838ZM104.89 259.92C105.361 261.357 105.783 263.036 106.866 264.169C108.532 265.838 111.371 263.432 109.705 261.764C109.168 261.219 108.717 259.639 108.469 258.853C108.061 257.496 108.265 255.835 108.429 254.459C108.656 252.423 109.25 249.805 110.36 247.875C110.424 247.955 110.496 248.08 110.559 248.16C110.245 249.009 110.491 250.027 111.334 250.419C112.432 252.615 113.575 254.802 113.851 257.205C114.106 259.75 114.505 262.545 113.638 264.984C112.101 269.407 106.727 268.135 104.367 265.118C102.372 262.494 101.418 259.066 101.125 255.833C100.724 251.555 101.622 245.079 107.051 244.163C107.282 244.118 107.458 244.037 107.587 243.966C107.769 244.162 107.914 244.412 108.104 244.653C107.983 244.769 107.862 244.885 107.741 245.001C105.719 247.665 104.814 251.64 104.582 254.883C104.487 256.615 104.347 258.357 104.89 259.92ZM115.559 250.71C115.606 250.701 115.698 250.683 115.744 250.674C116.435 252.254 117.347 253.745 118.122 255.263C119.283 257.539 120.583 259.788 121.753 262.109C124.067 266.618 126.669 270.884 129.243 275.249C130.444 277.24 131.386 279.373 132.68 281.346C133.919 283.283 135.418 285.077 136.619 287.067C137.893 289.183 139.167 291.298 140.524 293.351C141.14 294.297 141.746 295.199 142.408 296.136C142.615 296.466 142.962 296.77 143.225 297.136C142.928 297.332 142.63 297.529 142.584 297.538C141.75 297.932 142.073 297.869 141.274 296.959C140.046 295.576 139.033 294.058 137.889 292.612C135.059 288.9 131.986 285.419 129.583 281.438C128.454 279.573 127.399 277.6 126.446 275.654C125.501 273.752 124.213 272.057 123.231 270.209C121.221 266.522 119.063 262.818 117.987 258.764C117.927 258.451 117.782 258.201 117.6 258.005C117.365 255.317 116.591 253.058 115.559 250.71ZM118.148 244.554C118.166 244.643 118.229 244.723 118.255 244.857C118.264 244.902 118.319 244.938 118.328 244.982C118.074 245.402 117.563 245.733 116.969 246.127C116.374 246.52 115.269 247.245 114.481 246.888C114.06 246.692 113.673 245.934 113.401 245.523C112.803 244.666 112.13 243.917 111.449 243.122C110.776 242.373 110.363 241.48 109.69 240.73C109.719 239.891 110.327 239.077 110.832 238.47C111.767 237.361 112.249 237.129 113.314 238.173C114.206 239.065 114.949 240.172 115.803 241.117C116.421 241.831 117.472 242.554 118.061 243.366C117.946 243.759 117.969 244.125 118.148 244.554ZM143.358 375.973C140.311 376.565 137.26 377.39 134.453 378.723C131.506 380.083 128.586 381.578 125.64 382.938C123.268 384.048 121.213 385.559 118.977 386.874C118.26 382.936 117.681 378.971 117.102 375.006C116.745 372.435 116.629 369.862 116.18 367.308C115.642 364.54 115.058 361.781 114.52 359.013C112.365 348.172 110.726 337.278 108.663 326.419C107.599 320.695 106.618 314.908 105.322 309.229C104.133 303.854 102.731 298.612 101.681 293.21C100.935 289.37 100.226 285.477 99.5257 281.628C101.037 284.717 102.677 287.734 104.448 290.68C110.935 301.373 116.069 312.747 122.205 323.601C125.136 328.824 127.641 334.314 130.397 339.616C131.911 342.473 133.341 345.392 134.678 348.329C135.863 350.972 137.475 353.346 138.798 355.962C142.091 362.55 145.578 369.147 149.269 375.565C147.353 375.567 145.344 375.587 143.358 375.973ZM163.482 385.081C162.761 385.314 160.908 386.138 160.158 385.727C159.306 385.291 158.592 383.344 158.122 382.648C152.036 373.035 146.683 363.001 141.553 352.878C140.391 350.601 138.996 348.602 137.919 346.263C136.653 343.451 135.249 340.666 133.808 337.934C131.196 332.881 128.79 327.65 126.049 322.669C120.456 312.635 115.614 302.271 109.855 292.362C106.55 286.703 103.309 281.124 100.663 275.152C99.3974 272.339 98.1695 269.474 97.1176 266.527C96.9298 266.054 96.7881 265.572 96.5916 265.054C96.0129 261.83 95.4342 258.607 94.8007 255.347C94.7833 255.258 94.7746 255.214 94.766 255.169C95.5999 254.775 96.48 254.372 97.314 253.979C97.3084 254.443 97.3028 254.907 97.3435 255.363C97.5822 260.043 99.0768 265.266 102.565 268.666C103.931 270.022 105.651 270.985 107.554 271.403C107.588 271.581 107.614 271.715 107.695 271.885C108.495 273.536 109.694 275.018 110.624 276.598C111.635 278.347 112.432 280.231 113.397 281.99C115.408 285.676 117.733 289.256 119.836 292.925C120.847 294.674 121.756 296.397 122.629 298.173C123.637 300.155 125.092 301.726 126.268 303.582C128.483 307.09 130.474 310.92 132.383 314.58C136.303 321.927 140.399 329.193 144.143 336.62C148.057 344.431 151.934 352.296 155.941 360.089C158.093 364.258 160.291 368.418 162.444 372.587C163.587 374.774 164.677 376.926 165.682 379.14C166.112 380.122 166.534 381.059 167.095 381.97C167.447 382.55 167.892 383.112 168.152 383.71C166.57 384.203 165.018 384.597 163.482 385.081ZM159.578 290.296C159.673 290.046 159.714 289.76 159.762 289.519C162.281 293.107 164.222 297.178 166.62 300.882C169.262 304.863 171.758 308.826 174.233 312.932C176.654 317.003 179.351 321.019 181.244 325.331C184.832 333.437 188.911 341.356 192.369 349.533C193.453 352.149 194.49 354.774 195.536 357.443C196.019 358.693 196.501 359.943 196.984 361.193C197.458 362.399 198.252 363.773 198.541 365.014C199.091 367.595 195.157 368.313 193.386 369.306C191.392 370.389 190.305 372.685 188.267 373.545L188.221 373.554C187.788 373.545 187.373 373.626 186.917 373.993C184.88 375.593 182.589 376.873 180.425 378.313C177.796 380.075 174.795 381.4 171.86 382.572C171.814 382.581 171.768 382.59 171.768 382.59C171.409 381.733 170.884 381.001 170.387 380.171C169.249 378.261 168.492 376.091 167.484 374.11C165.594 370.307 163.575 366.575 161.602 362.835C157.549 355.051 153.681 347.23 149.767 339.419C145.916 331.688 141.629 324.181 137.649 316.522C135.722 312.773 133.489 309.175 131.516 305.435C129.552 301.739 127.048 298.473 125.121 294.724C122.905 290.474 120.245 286.404 117.854 282.236C116.762 280.316 115.808 278.37 114.8 276.388C113.882 274.621 112.657 273.006 111.646 271.256C113.513 270.754 115.331 269.752 116.289 268.268C116.618 267.741 116.892 267.178 117.119 266.624C119.341 271.15 122.091 275.435 124.425 279.8C126.38 283.451 128.679 286.896 131.322 290.136C133.664 293.063 135.847 296.16 138.273 299.025C139.081 299.98 140.089 301.22 141.44 301.514C143.085 301.842 144.13 300.805 145.356 299.965C146.331 299.312 147.517 298.757 147.598 297.444C147.704 296.265 146.673 295.4 145.983 294.561C143.378 291.267 141.489 287.465 139.181 283.975C138.104 282.377 136.859 280.904 135.865 279.244C134.69 277.388 133.774 275.388 132.636 273.478C130.279 269.487 127.847 265.605 125.704 261.48C125.308 260.677 124.875 259.927 124.479 259.124C124.551 259.249 124.669 259.365 124.742 259.49C127.855 263.425 130.977 267.406 133.922 271.467C136.678 275.287 139.871 278.651 142.924 282.274C146.175 286.183 149.147 290.378 152.595 294.063C153.314 294.804 154.428 294.865 155.256 294.194C156.817 293.103 158.863 292.289 159.578 290.296ZM155.122 290.05C154.871 290.238 154.611 290.381 154.36 290.569C151.533 287.366 149.032 283.867 146.288 280.601C143.291 277.013 140.005 273.667 137.25 269.847C134.486 265.982 131.592 262.189 128.623 258.503C127.107 256.62 125.675 254.675 124.242 252.729C123.136 251.23 121.467 249.793 120.474 248.133C120.837 247.784 121.146 247.4 121.399 246.98C122.742 247.97 124.085 248.96 125.511 249.888C125.609 250.147 125.8 250.388 126.074 250.566C126.695 251.048 127.09 251.851 127.711 252.333C128.514 253.011 129.077 253.689 129.675 254.546C130.752 256.144 131.792 257.795 132.915 259.384C135.76 263.418 138.764 267.282 141.897 271.075C144.967 274.788 147.814 278.59 150.922 282.248C152.475 284.078 153.752 285.961 155.092 287.925C155.724 288.96 156.209 289.237 155.122 290.05ZM143.923 264.982C146.537 269.061 149.16 273.185 151.652 277.38C151.652 277.38 151.652 277.38 151.661 277.425C150.128 275.452 148.724 273.409 147.069 271.552C145.097 269.295 143.208 266.974 141.32 264.654C139.622 262.575 138.313 260.28 136.615 258.201C135.471 256.755 134.44 255.149 133.418 253.587C134.382 253.863 135.384 254.085 136.397 254.12C136.691 254.155 136.977 254.146 137.263 254.137C137.289 254.271 137.315 254.405 137.387 254.53C137.656 255.172 138.074 255.601 138.519 256.163C139.1 256.93 139.458 257.788 139.955 258.618C141.191 260.787 142.603 262.875 143.923 264.982ZM140.332 249.463C138.072 251.153 135.16 250.468 132.842 249.389C130.688 248.418 128.535 247.447 126.597 246.109C124.998 245.03 123.583 243.914 122.038 242.871C122.03 242.826 122.012 242.737 121.958 242.701C121.634 242.023 121.218 241.362 120.718 240.764C123.198 240.7 125.752 241.269 127.969 242.32C130.718 243.64 132.987 245.701 135.557 247.333C137.578 248.608 139.678 245.605 137.694 244.276C134.622 242.278 131.896 239.843 128.421 238.48C125.101 237.179 121.282 236.763 117.727 237.454C117.681 237.463 117.681 237.463 117.634 237.472C117.071 236.793 116.5 236.071 115.844 235.41C119.084 233.344 123.945 234.438 127.354 235.212C132.123 236.324 136.543 239.588 139.261 243.462C140.428 245.274 142.674 247.71 140.332 249.463ZM125.499 230.846C125.265 229.641 124.892 228.462 124.519 227.283C124.592 227.408 124.71 227.524 124.773 227.605C125.735 228.854 126.567 230.175 127.445 231.487C126.839 231.327 126.195 231.22 125.543 231.069C125.534 231.025 125.534 231.025 125.525 230.98L125.499 230.846C125.546 230.837 125.499 230.846 125.499 230.846ZM157.227 268.095C155.31 265.873 153.476 263.588 151.717 261.196C150.039 258.974 148.613 256.564 147.064 254.27C146.195 253.003 145.401 251.628 144.364 250.486C145.754 248.27 145.231 245.823 143.902 243.672C141.398 239.664 137.95 235.979 133.666 233.661C133.045 232.438 132.098 231.51 131.309 230.412C130.322 229.028 129.417 227.582 128.421 226.154C127.56 224.931 126.68 223.852 125.614 222.808C124.658 221.835 123.434 220.961 122.859 219.729C122.851 219.684 122.796 219.649 122.787 219.604C122.215 217.399 121.449 215.184 120.7 213.059C119.481 209.497 118.327 205.783 117.515 202.095C117.087 200.139 116.944 198.174 116.47 196.228C116.048 194.549 115.349 192.924 115.01 191.183C114.521 188.915 110.819 189.588 111.316 191.901C111.655 193.642 112.391 195.214 112.776 196.946C113.25 198.892 113.393 200.857 113.821 202.813C114.544 206.286 115.561 209.795 116.737 213.135C117.977 216.554 119.252 220.152 119.807 223.751C120.175 226.135 121.079 228.323 121.632 230.671C118.058 230.532 114.549 231.214 112.169 233.762C109.551 233.853 106.891 236.687 106.142 239.242C105.813 239.028 105.363 238.93 104.809 239.038C104.578 239.083 104.347 239.128 104.125 239.217C103.487 239.388 103.077 239.745 102.832 240.21C102.053 240.639 101.156 240.953 100.469 241.364C99.2165 242.071 97.7388 242.358 96.4143 242.94C93.607 238.852 91.7896 234.433 89.594 230.041C88.5685 227.97 87.543 225.899 86.4799 223.881C85.7866 222.533 85.428 220.935 84.4837 219.775C84.6271 217.801 85.7374 215.871 86.1753 213.932C86.7284 211.6 87.319 209.215 88.1204 206.928C89.6453 202.693 90.9595 198.36 91.3356 193.885C91.7405 189.312 91.2823 184.489 91.107 179.89C90.9058 175.156 90.566 170.45 90.3647 165.716C90.1894 161.117 89.183 156.679 88.2603 152.179C87.8323 150.223 86.9397 148.589 86.1509 146.75C85.2292 144.474 84.2238 142.26 83.0798 140.073C82.1438 138.216 81.0867 136.475 79.9084 134.851C80.4048 134.94 80.8465 134.993 81.343 135.082C84.01 135.49 86.6455 136.229 89.0157 137.575C93.7648 140.312 97.5741 145.364 100.71 149.666C102.351 151.942 104.187 153.994 105.912 156.208C107.818 158.617 109.213 161.358 111.035 163.83C114.426 168.453 118.457 172.674 122.433 176.859C126.401 180.999 129.041 185.954 132.423 190.532C135.932 195.271 139.169 200.341 142.289 205.295C148.79 215.569 156.184 225.252 162.936 235.338C164.756 238.043 166.353 240.837 168.21 243.488C170.212 246.388 172.418 249.11 174.281 252.038C175.592 254.1 176.774 256.233 177.992 258.313C172.739 263.088 165.837 267.765 158.477 267.621C157.989 267.576 157.553 267.8 157.227 268.095ZM173.09 274.51C171.209 275.432 169.033 276.319 166.955 276.722C164.462 277.207 162.965 274.44 161.455 272.834C160.964 272.28 160.427 271.736 159.945 271.227C167.478 270.783 174.44 266.417 180.009 261.535C180.687 262.562 181.403 263.535 182.082 264.561C182.481 265.132 182.972 265.686 183.471 266.284C180.852 269.573 176.853 272.667 173.09 274.51Z" fill="#254547"/>
</svg>
