<svg width="294" height="286" viewBox="0 0 294 286" fill="none" xmlns="http://www.w3.org/2000/svg">
<path d="M0 285.333H294V0H0V285.333Z" fill="#F7F3F0"/>
<path d="M124.527 238.861H124.307C79.7838 238.825 44.2546 216.424 44.2144 211.246V211.229C44.2151 211.133 44.2281 211.043 44.2538 210.959C44.465 210.27 45.5181 210.044 47.3503 210.044C49.0787 210.044 51.5003 210.245 54.5631 210.446C57.6257 210.645 61.3299 210.846 65.6221 210.846C71.157 210.846 77.6702 210.513 85.0504 209.416C98.2124 207.459 138.69 201.438 159.784 170.815C175.825 147.527 176.803 115.605 160.145 93.9236C136.171 62.7184 85.7726 59.0285 85.7726 55.6319C85.7726 51.4512 111.154 41.0856 139.866 41.0856C151.502 41.0856 163.685 42.7885 174.948 47.2945C225.902 67.6809 251.724 137.007 222.965 186.255C200.626 224.511 154.284 235.357 151.481 235.973C142.285 237.989 133.236 238.853 124.527 238.861Z" fill="#B8B8CC"/>
<path d="M100.887 45.1071C100.887 39.1277 157.424 29.4184 191.945 45.3205C236.988 66.0677 259.812 136.621 234.391 186.742C214.643 225.675 173.678 236.714 171.201 237.339C120.603 250.118 74.9402 217.435 76.4163 211.883C77.1825 209.002 90.4738 214.079 112.479 210.313C124.115 208.321 159.896 202.194 178.541 171.029C192.72 147.328 193.585 114.841 178.861 92.7748C157.668 61.0173 100.887 48.5642 100.887 45.1071Z" fill="#09094F"/>
<path d="M87.1962 131.851C82.0267 131.607 72.7114 130.215 68.3992 123.614C62.7545 114.973 69.9636 103.7 73.0423 98.8855C81.8524 85.1073 99.5385 73.2238 120.353 67.0971C142.093 60.6977 163.946 61.443 180.306 69.139C195.22 76.1559 202.626 84.0196 202.319 92.5134C202.02 100.757 194.385 106.693 189.863 109.498L187.259 105.566C190.987 103.255 197.275 98.4655 197.496 92.3491C197.657 87.8945 194.441 80.9803 178.197 73.3379C144.375 57.4266 93.5143 75.7438 77.1454 101.342C74.5419 105.414 68.4457 114.946 72.4782 121.12C75.7418 126.114 84.0222 127.027 87.4305 127.187L87.1962 131.851Z" fill="#BFBBBB"/>
<path d="M107.369 89.215C111.315 98.3217 110.319 107.406 105.146 109.504C99.9722 111.603 92.5796 105.922 88.6341 96.8151C84.6885 87.7084 85.6841 78.6245 90.8581 76.5256C96.0314 74.4267 103.424 80.1083 107.369 89.215Z" fill="#D89A9A"/>
<path d="M102.392 91.2341C105.043 97.3516 105.226 103.109 102.801 104.092C100.376 105.076 96.262 100.914 93.6113 94.7962C90.9606 88.6775 90.7771 82.9206 93.2022 81.9368C95.6272 80.9541 99.7417 85.1154 102.392 91.2341Z" fill="#5F5F93"/>
<path d="M171.807 76.1957C171.807 86.0694 167.315 94.0747 161.773 94.0747C156.229 94.0747 151.737 86.0694 151.737 76.1957C151.737 66.3209 156.229 58.3156 161.773 58.3156C167.315 58.3156 171.807 66.3209 171.807 76.1957Z" fill="#D89A9A"/>
<path d="M166.533 76.1959C166.533 82.8293 164.401 88.2073 161.771 88.2073C159.143 88.2073 157.011 82.8293 157.011 76.1959C157.011 69.5613 159.143 64.1834 161.771 64.1834C164.401 64.1834 166.533 69.5613 166.533 76.1959Z" fill="#5F5F93"/>
<path d="M75.3152 133.14C72.4431 117.392 84.3644 109.22 85.8469 108.128C100.784 97.1234 124.272 95.8108 135.314 90.8346C151.926 83.3475 177.759 77.2482 194.355 86.5113C197.694 88.3751 207.279 96.7878 207.439 109.672C207.546 118.287 203.402 129.108 194.992 132.523C169.143 143.023 151.591 129.788 146.08 131.07C141.156 132.215 134.92 149.165 117.761 156.301C96.2918 165.229 77.9236 147.444 75.3152 133.14Z" fill="#D89A9A"/>
<path d="M173.096 129.496C186.736 130.282 203.776 111.099 197.875 98.5158C191.824 85.6085 163.466 83.5278 154.917 93.0032C145.688 103.231 158.008 128.625 173.096 129.496Z" fill="#F7F3F0"/>
<path d="M116.949 148.955C129.041 142.801 133.366 117.853 121.589 110.039C109.509 102.023 84.1286 114.439 81.8789 126.827C79.4507 140.2 103.571 155.764 116.949 148.955Z" fill="#F7F3F0"/>
<path d="M134.318 122.905C134.659 118.956 146.848 114.72 150.028 117.535C152.296 119.542 147.67 127.937 145.759 128.343C142.978 128.936 134.068 125.8 134.318 122.905Z" fill="black"/>
<path d="M173.513 114.461C169.586 114.461 165.403 112.619 163.054 107.39C162.878 106.995 163.065 106.537 163.472 106.366C163.88 106.194 164.353 106.375 164.53 106.77C166.745 111.703 171.159 113.863 176.33 112.549C181.552 111.222 186.585 106.433 185.97 100.713C185.925 100.285 186.246 99.9026 186.687 99.8581C187.129 99.8147 187.525 100.124 187.57 100.552C188.274 107.102 182.616 112.561 176.74 114.054C175.715 114.314 174.624 114.461 173.513 114.461Z" fill="black"/>
<path d="M103.323 136.349C99.3957 136.349 95.2142 134.507 92.8653 129.277C92.6884 128.882 92.875 128.424 93.2825 128.253C93.6894 128.081 94.1639 128.262 94.3403 128.657C96.5557 133.59 100.968 135.751 106.141 134.436C111.362 133.11 116.395 128.319 115.781 122.6C115.735 122.172 116.056 121.79 116.498 121.745C116.938 121.701 117.335 122.011 117.381 122.439C118.084 128.989 112.426 134.448 106.55 135.941C105.526 136.201 104.435 136.349 103.323 136.349Z" fill="black"/>
<path d="M140.025 210.677L140.332 211.124L140.125 211.622L140.9 211.413L141.578 211L141.059 210.813L140.923 210.292L140.579 210.713L140.025 210.677ZM145.079 221.766L139.092 216.749L132.007 218.664L134.909 211.663L130.596 205.381L138.373 205.889L143.214 199.978L145.118 207.291L152.425 209.92L146.05 213.796L145.079 221.766Z" fill="#BFBBBB"/>
<path d="M193.573 173.047L193.999 173.39L194.022 172.854L194.493 172.569L193.972 172.382L193.836 171.861L193.492 172.282L192.938 172.246L193.246 172.693L193.039 173.191L193.573 173.047ZM198.411 183.039L192.427 178.203L184.92 180.233L187.822 173.232L183.509 166.95L191.286 167.458L196.127 161.547L198.031 168.861L205.338 171.49L198.738 175.502L198.411 183.039Z" fill="#BFBBBB"/>
<path d="M221.145 89.9466L221.452 90.394L221.245 90.8916L222.02 90.6828L222.7 90.2696L222.179 90.0825L222.044 89.5609L221.699 89.982L221.145 89.9466ZM226.717 103.064L220.383 95.9729L213.127 97.9325L216.03 90.9328L211.715 84.6509L219.493 85.1588L224.335 79.2478L226.24 86.5615L233.545 89.1899L227.281 92.9986L226.717 103.064Z" fill="#BFBBBB"/>
<path d="M221.595 153.155L222.376 153.786L222.399 153.249L222.869 152.963L222.348 152.776L222.213 152.257L221.869 152.677L221.315 152.64L221.623 153.087L221.595 153.155ZM214.623 163.391L216.199 153.627L211.886 147.344L219.662 147.852L224.505 141.941L226.409 149.256L233.713 151.886L227.115 155.897L226.789 163.434L221.242 158.953L214.623 163.391Z" fill="#BFBBBB"/>
<path d="M191.844 62.8752L192.27 63.2188L192.293 62.6823L192.763 62.397L192.243 62.2098L192.106 61.6894L191.475 62.4609L191.516 62.5214L191.31 63.019L191.844 62.8752ZM196.681 72.8665L190.698 68.0318L183.189 70.0611L186.092 63.0601L177.732 50.8867L189.981 56.7668L194.398 51.3752L196.302 58.6888L203.609 61.3184L197.008 65.3302L196.681 72.8665Z" fill="#BFBBBB"/>
<path d="M191.844 198.209L192.27 198.553L192.293 198.017L192.356 197.978L192.106 197.023L191.763 197.444L191.209 197.408L191.516 197.855L191.31 198.354L191.844 198.209ZM196.681 208.2L190.698 203.366L183.19 205.395L186.092 198.395L181.779 192.113L189.556 192.621L194.398 186.71L196.094 193.222L203.257 196.865L197.008 200.664L196.681 208.2Z" fill="#BFBBBB"/>
<path d="M147.144 212.324L146.86 211.323L186.378 200.836L191.855 179.316L191.957 179.215L221.91 149.682V88.722L194.734 65.4982L195.444 64.7198L222.982 88.2541V150.106L222.828 150.257L192.825 179.84L187.27 201.677L147.144 212.324Z" fill="#BFBBBB"/>
</svg>
