<svg width="61" height="76" viewBox="0 0 61 76" fill="none" xmlns="http://www.w3.org/2000/svg">
<path d="M0 8.08796C0.0945302 7.84525 0.529486 7.5275 1.135 6.88064C2.36759 5.56395 1.65058 4.75631 2.2084 3.48108C2.39292 3.05931 2.65943 2.72541 3.16581 2.54801C4.40898 2.11237 4.80814 0.203343 7.87519 0.0256105C11.5026 -0.184562 13.201 0.964522 16.254 1.07923C16.1283 1.32744 15.8905 1.3018 15.3704 1.82544C15.2695 1.92699 15.2686 1.97715 15.4251 2.05329C16.5157 2.58415 16.5231 2.27044 18.142 3.64865C18.9724 4.35559 19.8527 4.36751 20.2528 4.52434C20.0372 4.64532 19.8074 4.71423 19.6154 4.84561C19.1641 5.15462 19.49 5.19138 20.6362 5.72491C21.2102 5.99213 21.2129 6.28105 21.0626 6.43807C20.8455 6.66487 21.455 7.389 21.7261 7.63195C21.8435 7.60967 21.8705 7.52095 21.921 7.45431C22.3796 6.8493 22.6273 6.42126 23.1354 6.18454C23.9584 5.80114 24.0437 6.61257 24.2658 6.99896C24.8447 8.00593 31.7847 7.1624 35.3435 8.39389C39.2028 9.72939 41.2889 11.1831 43.2047 13.0211C49.5211 19.0812 55.5775 26.8584 57.4708 31.1765C57.8626 32.0699 58.0562 33.3294 58.8951 34.8373C59.555 36.0234 59.9419 37.1316 60.0045 38.4958C60.2352 43.5322 59.4947 42.5952 58.827 44.7644C58.7739 44.937 58.7961 44.9823 58.9812 44.995C59.3459 45.02 59.6786 45.1501 60.0267 45.229C61.0954 45.4714 61.0201 46.2789 60.982 47.2891C60.9654 47.7303 60.7203 47.5917 60.0718 47.7878C59.4864 47.9648 60.0817 46.147 59.7043 74.7077C59.6982 75.1722 59.7394 75.1288 59.229 75.1296C56.4184 75.1338 56.6696 75.2155 56.6546 74.842C56.517 71.3927 56.522 71.2892 56.366 66.2255C56.3398 65.3745 57.5906 65.7388 34.8212 65.674C34.1289 65.6721 34.5633 64.8808 34.2568 74.8961C34.25 75.1198 34.2439 75.1273 33.9994 75.1281C30.3779 75.1398 30.7115 75.1975 30.6996 74.904C30.6986 74.8778 30.7001 51.3209 30.7001 51.2947C30.7001 50.8324 30.7057 50.8662 30.2315 50.8088C29.2773 50.6933 28.3075 50.6631 27.3765 50.4072C27.0324 50.3126 26.6808 50.2356 26.3159 50.2366C25.8399 50.2378 25.671 50.3929 25.6615 50.8255C25.6543 51.1544 25.7337 51.472 25.8437 51.7791C26.5666 53.798 26.7272 56.0146 26.8027 64.1227C26.9026 74.8458 27.0812 71.8424 24.1518 71.8886C22.1523 71.92 24.8775 74.4102 22.6315 75.6581C21.7871 76.1273 16.233 75.35 13.776 75.5285C11.8579 75.6678 12.3099 75.7682 9.96337 75.892C7.12868 76.0416 3.34551 76.0267 2.1899 75.9033C1.79967 75.8617 1.21372 75.8529 1.02006 75.3257C0.859918 74.8897 1.36001 74.743 1.88378 74.6655C3.48054 74.4293 3.54679 74.0202 6.46094 73.181C8.22995 72.6716 11.3416 71.427 12.4925 70.4341C12.7093 70.247 12.9524 70.0253 12.0868 69.5501C10.8732 68.8839 9.76696 68.9682 10.1064 68.2888C10.438 67.6251 10.7143 68.0306 11.0329 64.1586C11.5484 57.8945 11.101 41.7325 11.9984 39.506C12.7169 37.7236 14.1064 36.8251 16.141 36.1418C16.4133 36.0503 16.6875 35.9748 16.9808 35.9441C17.3759 35.9027 17.7354 35.7396 18.1096 35.6275C18.302 35.5699 18.1701 35.4567 17.8892 35.0591C13.5291 28.8881 15.9806 22.0219 11.3062 19.2701C9.6193 18.277 7.83729 17.5445 6.44704 16.5657C4.62532 15.2832 3.72342 16.8957 2.08384 15.1996C1.69631 14.7987 1.67685 14.5412 1.45961 14.7147C1.20843 14.9154 0.909721 15.0632 0.671863 15.2801C0.317268 15.6035 -0.158396 15.6484 0.17542 14.9492C0.702104 13.846 0.383302 13.5633 0.403815 10.259C0.407146 9.72441 0.410371 9.31408 0.814081 8.94147C1.17867 8.60496 1.28737 8.44893 1.08192 8.26826C0.883181 8.09356 0.641198 8.04778 0.37479 8.07186C0.261121 8.08226 0.151576 8.13664 0 8.08796ZM49.4522 62.8821C57.0544 62.7795 56.3351 62.9417 56.3339 62.4263C56.3044 49.8417 56.5934 51.1923 55.8309 51.1925C32.4766 51.1995 34.4115 51.0565 34.4081 51.5724C34.3239 63.9946 34.2634 62.7073 34.8394 62.7972C36.4908 63.0549 47.7923 62.9044 49.4522 62.8821ZM20.4632 15.1029C19.1154 14.9706 19.514 14.8665 17.5738 17.7675C17.2028 18.3224 17.3584 18.5289 18.0767 20.3032C19.673 24.2458 19.6302 24.0997 19.825 24.1065C20.7929 24.1401 21.898 15.2437 20.4632 15.1029ZM35.0931 33.6022C35.062 33.5366 35.0244 33.48 34.953 33.464C34.9001 33.4522 27.8054 31.0299 27.3519 30.9366C26.7435 30.8114 26.998 32.0579 26.0491 34.0673C25.9859 34.2012 25.9515 34.3442 25.9478 34.4935C25.9422 34.7164 25.9372 34.7131 26.1738 34.7473C27.3693 34.9199 32.1877 34.2266 33.1901 34.0699C33.8369 33.9688 34.4894 33.8741 35.0931 33.6022Z" fill="#504D48"/>
</svg>
