<svg width="120" height="89" viewBox="0 0 120 89" fill="none" xmlns="http://www.w3.org/2000/svg">
<path fill-rule="evenodd" clip-rule="evenodd" d="M0.403201 59.0554C3.4526 64.9416 8.19754 74.1007 24.7271 71.2616C38.0344 68.976 41.9618 76.0807 45.6445 82.7426C46.0038 83.3927 46.3609 84.0387 46.7241 84.6712C48.0978 87.0636 50.7256 88.3229 53.4843 88.3229H59.6159H59.6159H65.7475C68.5062 88.3229 71.134 87.0636 72.5077 84.6712C72.8709 84.0387 73.228 83.3927 73.5873 82.7426C77.27 76.0807 81.1974 68.976 94.5047 71.2616C111.034 74.1007 115.779 64.9416 118.829 59.0554C119.093 58.5458 119.232 57.9804 119.232 57.4066V35.4088C119.232 28.9929 112.71 24.6375 106.784 27.0956L59.6159 46.6595C59.6159 46.6595 59.6159 46.6595 59.6159 46.6595C59.6159 46.6595 59.6159 46.6595 59.6159 46.6595L12.4481 27.0956C6.5217 24.6375 0 28.9929 0 35.4088V57.4066C0 57.9804 0.139216 58.5458 0.403201 59.0554Z" fill="#F4A17C"/>
<path d="M62.6963 3.86351C62.6963 3.86351 63.3478 3.93597 63.9056 4.43535C64.4633 4.93472 64.9782 3.66187 64.0549 3.40194C63.1333 3.14202 62.6963 3.86351 62.6963 3.86351Z" fill="#F5E2D5"/>
<path d="M62.0766 3.8052C62.0766 3.8052 62.5025 3.31056 63.2319 3.13255C63.9612 2.95454 63.1858 1.81875 62.4516 2.42997C61.7191 3.04276 62.0766 3.8052 62.0766 3.8052Z" fill="#F5E2D5"/>
<path d="M53.5702 6.76206C53.5702 6.76206 53.1174 7.23151 53.0125 7.97033C52.9076 8.70757 51.6888 8.05854 52.2291 7.27246C52.7678 6.48638 53.5702 6.76206 53.5702 6.76206Z" fill="#F5E2D5"/>
<path d="M54.0091 6.32408C54.0091 6.32408 53.3623 6.21538 52.687 6.54305C52.0116 6.87072 51.8718 5.50648 52.8316 5.50806C53.7898 5.50963 54.0091 6.32408 54.0091 6.32408Z" fill="#F5E2D5"/>
<path d="M63.403 10.6324C64.8168 8.32395 64.0753 5.31641 61.7467 3.91483C59.4181 2.51325 56.3844 3.24839 54.9706 5.55681C53.5568 7.86523 54.2983 10.8728 56.6269 12.2744C58.9554 13.6759 61.9892 12.9408 63.403 10.6324Z" fill="#F5E2D5"/>
<path d="M55.3644 7.2613C55.2802 7.28336 55.1896 7.24713 55.1467 7.16836C55.0974 7.07699 55.1308 6.96199 55.2245 6.91316L56.4529 6.25625L55.6297 6.2279C55.5249 6.22474 55.4422 6.13653 55.4454 6.03256C55.4486 5.92859 55.5376 5.84667 55.6425 5.84982L57.1679 5.9018C57.2538 5.90496 57.3268 5.96482 57.3475 6.04831C57.3666 6.1318 57.3284 6.21687 57.2522 6.25783L55.4041 7.24555C55.3914 7.25185 55.3787 7.25658 55.3644 7.2613Z" fill="#3F4553"/>
<path d="M61.9399 5.46853C61.9256 5.47168 61.9113 5.47483 61.8954 5.47483L59.8885 5.53784C59.8027 5.54099 59.7248 5.48585 59.6994 5.40394C59.6739 5.32202 59.7073 5.23381 59.7804 5.18813L61.1359 4.35008C61.2248 4.29494 61.3424 4.32172 61.3981 4.40994C61.4537 4.49815 61.4267 4.61472 61.3377 4.66986L60.5829 5.13614L61.8827 5.09518C61.9876 5.09203 62.0766 5.17395 62.0798 5.27792C62.0813 5.36928 62.0225 5.4449 61.9399 5.46853Z" fill="#3F4553"/>
<path d="M55.2817 8.11211C56.3273 10.023 58.1833 11.1115 59.8932 10.6452C61.6014 10.1789 62.6359 8.30115 62.5485 6.13037L61.889 6.19811C59.7772 6.41393 57.7225 6.97946 55.8014 7.87109L55.2817 8.11211Z" fill="#3F4553"/>
<path d="M61.9845 8.58318C61.244 8.34216 60.3081 8.32168 59.3531 8.58318C58.379 8.8494 57.5733 9.35507 57.0632 9.95369C57.9293 10.5098 58.9081 10.724 59.8441 10.4688C60.7911 10.2089 61.5285 9.51733 61.9845 8.58318Z" fill="#4E5567"/>
<path d="M29.2059 27.1908C29.9613 24.5961 28.4519 21.8856 25.8346 21.1368C23.2173 20.3879 20.4831 21.8842 19.7277 24.4789C18.9724 27.0736 20.4817 29.7841 23.099 30.5329C25.7164 31.2818 28.4505 29.7855 29.2059 27.1908Z" fill="#F5E2D5"/>
<path d="M21.9465 22.8663C21.8654 22.8332 21.8162 22.7497 21.8305 22.6615C21.8479 22.5591 21.9449 22.4882 22.0498 22.5055L23.4275 22.7261L22.7918 22.2078C22.7108 22.1416 22.6997 22.0219 22.7664 21.9415C22.8332 21.8612 22.9539 21.8502 23.035 21.9163L24.214 22.8789C24.2808 22.9324 24.3014 23.0254 24.2665 23.1025C24.2315 23.1797 24.1473 23.2254 24.0631 23.2112L21.9894 22.8804C21.9735 22.8757 21.9592 22.8726 21.9465 22.8663Z" fill="#3F4553"/>
<path d="M28.2647 25.4103C28.2504 25.404 28.2377 25.3977 28.225 25.3883L26.5946 24.2273C26.5247 24.1769 26.4977 24.0871 26.5279 24.0068C26.558 23.9264 26.6391 23.8776 26.7249 23.8855L28.3139 24.0383C28.4188 24.0477 28.4951 24.1407 28.4856 24.2446C28.476 24.3486 28.3823 24.4242 28.2774 24.4148L27.3923 24.3297L28.449 25.0811C28.5348 25.1425 28.5539 25.2591 28.4919 25.3442C28.4379 25.4182 28.3441 25.4434 28.2647 25.4103Z" fill="#3F4553"/>
<path d="M25.0882 27.8899C24.3683 27.8899 23.7264 27.7293 23.167 27.4095C21.694 26.5667 21.3539 24.9315 21.3396 24.8622C21.3142 24.7346 21.3984 24.6101 21.5271 24.5849C21.6558 24.5597 21.7814 24.6432 21.8068 24.7708C21.81 24.785 22.123 26.2689 23.4101 27.003C24.3477 27.5386 25.5744 27.556 27.057 27.055C27.1825 27.0125 27.3176 27.0787 27.3589 27.2031C27.4018 27.326 27.3351 27.4615 27.2096 27.5024C26.4421 27.7592 25.7333 27.8899 25.0882 27.8899Z" fill="#3F4553"/>
<path d="M54.2252 41.0162C56.3431 38.9166 56.3431 35.5124 54.2252 33.4127C52.1072 31.3131 48.6733 31.3131 46.5554 33.4127C44.4374 35.5124 44.4374 38.9166 46.5554 41.0162C48.6733 43.1159 52.1072 43.1159 54.2252 41.0162Z" fill="#F5E2D5"/>
<path d="M47.3351 38.9736C47.3351 38.9736 50.823 36.9998 54.1839 36.5225C54.1839 36.5225 55.1484 39.6731 51.9354 40.8924C49.1498 41.9494 47.3351 38.9736 47.3351 38.9736Z" fill="#3F4553"/>
<path d="M48.0232 37.4551C47.9088 37.4551 47.7975 37.3937 47.7403 37.285L46.949 35.7695C46.8679 35.6151 46.9299 35.4245 47.0856 35.3442C47.2414 35.2638 47.4336 35.3253 47.5147 35.4797L48.306 36.9951C48.3871 37.1495 48.3251 37.3401 48.1694 37.4205C48.1217 37.4441 48.0724 37.4551 48.0232 37.4551Z" fill="#3F4553"/>
<path d="M52.2405 35.9379C52.0943 35.9379 51.9624 35.8371 51.9306 35.689L51.562 33.9641C51.5254 33.7939 51.6351 33.6269 51.8067 33.5907C51.9783 33.5545 52.1467 33.6632 52.1833 33.8333L52.5519 35.5582C52.5885 35.7284 52.4788 35.8954 52.3072 35.9316C52.2834 35.9363 52.2611 35.9379 52.2405 35.9379Z" fill="#3F4553"/>
<path d="M52.7885 40.2638C52.4962 39.5502 51.4744 39.2588 50.4765 39.6148C49.9235 39.8133 49.4945 40.1693 49.2609 40.571C49.9839 40.9317 50.8833 41.094 51.9162 40.7017C52.2515 40.5757 52.5375 40.4276 52.7885 40.2638Z" fill="#4E5567"/>
<path d="M81.766 23.2789C84.5181 22.1069 85.7907 18.9451 84.6084 16.2168C83.4262 13.4886 80.2368 12.227 77.4848 13.399C74.7327 14.571 73.4601 17.7328 74.6423 20.4611C75.8246 23.1893 79.0139 24.4509 81.766 23.2789Z" fill="#F5E2D5"/>
<path d="M80.317 19.5361C78.4435 19.5361 77.0213 18.4554 77.0007 18.4397C76.9323 18.3861 76.9196 18.2869 76.9736 18.2191C77.0277 18.1514 77.1278 18.1388 77.1961 18.1923C77.3105 18.2806 80.0294 20.3395 82.8611 18.4176C82.9342 18.3688 83.0327 18.3877 83.0819 18.4586C83.1312 18.531 83.1137 18.6287 83.0406 18.6775C82.0999 19.3155 81.1624 19.5361 80.317 19.5361Z" fill="#3F4553"/>
<path d="M81.8632 16.6816C81.8632 17.0124 81.7329 17.2818 81.5708 17.2818C81.4087 17.2818 81.2784 17.014 81.2784 16.6816C81.2784 16.3492 81.4087 16.0814 81.5708 16.0814C81.7329 16.0814 81.8632 16.3508 81.8632 16.6816Z" fill="#3F4553"/>
<path d="M79.0555 16.5666C79.0555 16.8974 78.9252 17.1668 78.7631 17.1668C78.601 17.1668 78.4707 16.899 78.4707 16.5666C78.4707 16.2358 78.601 15.9664 78.7631 15.9664C78.9252 15.9664 79.0555 16.2342 79.0555 16.5666Z" fill="#3F4553"/>
<path d="M65.9101 55.7934C73.2193 55.7934 79.1445 54.466 79.1445 52.8286C79.1445 51.1913 73.2193 49.8639 65.9101 49.8639C58.601 49.8639 52.6758 51.1913 52.6758 52.8286C52.6758 54.466 58.601 55.7934 65.9101 55.7934Z" fill="#F4A17C"/>
<path opacity="0.5" d="M65.9101 55.7934C73.2193 55.7934 79.1445 54.466 79.1445 52.8286C79.1445 51.1913 73.2193 49.8639 65.9101 49.8639C58.601 49.8639 52.6758 51.1913 52.6758 52.8286C52.6758 54.466 58.601 55.7934 65.9101 55.7934Z" fill="#F4A17C"/>
<path d="M64.8859 13.6365C64.8859 13.6365 63.8721 13.5451 63.7799 12.6314C63.6877 11.7178 66.0856 10.5741 67.6063 10.5284C69.1286 10.4827 70.6033 12.1289 70.6033 13.4537C70.6033 14.7786 70.8337 16.6532 71.9857 17.0187C73.1378 17.3841 73.9228 19.6242 73.23 20.4465C72.5387 21.2689 72.5848 21.2689 73.276 22.0014C73.9673 22.7323 73.3682 24.013 72.9074 24.2872C72.4466 24.5613 71.0625 24.9724 67.9734 24.6983C64.8843 24.4242 63.0394 21.6359 62.9011 20.4922C62.7629 19.3501 63.8228 18.5719 64.1915 18.0694C64.5601 17.5669 63.915 17.1557 63.961 16.6059C64.0071 16.0577 64.6984 15.6009 64.8827 15.1425C65.0702 14.6872 64.8859 13.6365 64.8859 13.6365Z" fill="#3F4553"/>
<path d="M69.861 24.8668C69.3191 24.8668 68.6931 24.8401 67.9684 24.7755C64.73 24.4872 62.9534 21.5634 62.8247 20.5017C62.7119 19.5754 63.3475 18.8917 63.8099 18.3923C63.9402 18.2521 64.0514 18.1308 64.1309 18.0237C64.3168 17.7685 64.204 17.5401 64.0737 17.2739C63.9704 17.0659 63.8655 16.8517 63.8862 16.6012C63.9148 16.2531 64.1722 15.9538 64.4217 15.6655C64.587 15.4733 64.7427 15.2921 64.8142 15.1157C64.9651 14.7423 64.8523 13.9279 64.819 13.7058C64.587 13.6664 63.7861 13.4695 63.7019 12.6377C63.6796 12.4219 63.7765 12.1919 63.9863 11.954C64.6521 11.2026 66.3762 10.4843 67.6046 10.4481C68.299 10.4291 69.0411 10.7521 69.6512 11.3397C70.2885 11.9525 70.6841 12.7622 70.6841 13.4537C70.6841 14.6006 70.8573 16.5776 72.0126 16.9446C72.618 17.1368 73.1789 17.841 73.4427 18.7373C73.6588 19.473 73.6032 20.1315 73.2949 20.4985C72.6688 21.2421 72.6688 21.2421 73.2775 21.8832L73.3394 21.9478C73.6842 22.3117 73.7017 22.7685 73.6572 23.0867C73.5762 23.6665 73.2345 24.1863 72.9533 24.3549C72.7149 24.4935 71.895 24.8668 69.861 24.8668ZM67.6665 10.6056C67.6475 10.6056 67.6284 10.6056 67.6077 10.6072C66.4366 10.6418 64.7331 11.3476 64.1039 12.0596C63.9227 12.2628 63.8401 12.4534 63.8576 12.6236C63.9418 13.4632 64.8825 13.5577 64.8921 13.5593C64.9286 13.5624 64.9572 13.5892 64.9636 13.6239C64.9715 13.668 65.1495 14.703 64.9588 15.1755C64.8778 15.3756 64.7141 15.5662 64.5409 15.7679C64.3089 16.0388 64.0673 16.3176 64.0435 16.6154C64.026 16.8233 64.123 17.0171 64.2151 17.2061C64.3565 17.4913 64.5011 17.7858 64.2596 18.1182C64.1754 18.2332 64.061 18.3577 63.9275 18.501C63.4857 18.9783 62.8803 19.6321 62.9836 20.4859C63.1076 21.5146 64.8348 24.3423 67.9843 24.6227C71.3849 24.9251 72.583 24.3927 72.8707 24.2225C73.1154 24.0776 73.4252 23.594 73.4999 23.0678C73.5396 22.7827 73.5238 22.3763 73.2234 22.0581L73.163 21.9935C72.5084 21.3035 72.4766 21.231 73.1758 20.3993C73.4507 20.0716 73.4951 19.4683 73.2933 18.783C73.0899 18.0883 72.6005 17.2975 71.9681 17.0974C70.7159 16.7004 70.53 14.6462 70.53 13.4569C70.53 12.8063 70.1534 12.0407 69.5464 11.4562C68.9775 10.9128 68.2974 10.6056 67.6665 10.6056Z" fill="#3F4553"/>
<path d="M72.2397 20.9837C72.2111 20.9837 72.1936 20.9805 72.1889 20.979C72.146 20.9695 72.1189 20.927 72.1285 20.8845C72.138 20.8419 72.1809 20.8151 72.2238 20.8246C72.2254 20.8246 72.3017 20.8372 72.397 20.7679C72.5194 20.6797 72.6815 20.4575 72.7625 19.892C72.8674 19.1642 71.7042 18.2096 70.4743 17.1998C69.9276 16.7508 69.3619 16.2861 68.8662 15.8104C67.2231 14.2335 66.9911 12.3683 66.9879 12.3494C66.9831 12.3069 67.0149 12.2675 67.0578 12.2628C67.0975 12.2581 67.1405 12.2896 67.1452 12.3321C67.1468 12.3494 67.374 14.1626 68.9758 15.697C69.4668 16.168 70.0293 16.6311 70.5744 17.0769C71.8949 18.1607 73.0358 19.0981 72.9182 19.9125C72.8451 20.4182 72.6974 20.7506 72.4781 20.9002C72.3811 20.9711 72.2921 20.9837 72.2397 20.9837Z" fill="#AC9B8F"/>
<path d="M64.4027 12.8882C63.8878 12.8882 63.7241 12.6897 63.7162 12.6786C63.6892 12.644 63.6955 12.5952 63.7305 12.5684C63.7639 12.5416 63.8147 12.5479 63.8417 12.5826C63.8433 12.5841 64.1087 12.8787 65.0891 12.6345C66.1188 12.3793 67.1676 11.5555 67.1771 11.546C67.2121 11.5192 67.2614 11.5239 67.2884 11.5586C67.3154 11.5933 67.3106 11.6421 67.2757 11.6689C67.2312 11.7035 66.1903 12.5227 65.1273 12.7858C64.8317 12.8614 64.5934 12.8882 64.4027 12.8882Z" fill="#AC9B8F"/>
<path d="M60.044 51.2265C60.044 51.2265 60.7305 52.1197 61.498 52.5403C62.2655 52.9609 63.6432 52.671 63.246 51.6738C62.8487 50.6767 62.2131 50.1505 61.7364 49.9678C61.2597 49.7835 60.0202 50.2545 60.044 51.2265Z" fill="#E49621"/>
<path d="M62.2782 52.8065C61.9954 52.8065 61.703 52.7419 61.4598 52.6096C60.686 52.1858 60.009 51.3115 59.9804 51.2753C59.9709 51.2627 59.9645 51.2454 59.9645 51.2296C59.955 50.8153 60.1616 50.4388 60.5493 50.1678C60.9402 49.8953 61.463 49.7772 61.7649 49.8937C62.0033 49.9851 62.8169 50.3821 63.319 51.6455C63.4605 51.9999 63.4017 52.315 63.1538 52.5308C62.9456 52.7135 62.6183 52.8065 62.2782 52.8065ZM60.1235 51.1997C60.2299 51.3336 60.856 52.0992 61.5361 52.4725C62.0097 52.7309 62.7168 52.7025 63.0505 52.4127C63.2475 52.241 63.2888 51.9968 63.1728 51.7038C62.6945 50.5002 61.9302 50.1269 61.7077 50.0418C61.4869 49.9567 61.0276 50.0292 60.6415 50.2986C60.446 50.4325 60.1235 50.7287 60.1235 51.1997Z" fill="#3F4553"/>
<path d="M61.0212 52.1983L61.0292 52.222C61.1786 52.3401 61.3359 52.4504 61.498 52.5386C62.2655 52.9592 63.6432 52.6694 63.2459 51.6722C62.0017 50.9129 61.0212 52.1983 61.0212 52.1983Z" fill="#F1BD54"/>
<path d="M62.2781 52.8064C61.9953 52.8064 61.7029 52.7418 61.4598 52.6095C61.3072 52.526 61.1467 52.4173 60.9799 52.285C60.9672 52.2755 60.9577 52.2613 60.9529 52.2456L60.9449 52.2204C60.937 52.1968 60.9418 52.17 60.9577 52.1495C60.9688 52.1369 61.9953 50.8152 63.2872 51.6044C63.3015 51.6139 63.3126 51.6265 63.319 51.6423C63.4604 51.9967 63.4016 52.3118 63.1537 52.5276C62.9455 52.7135 62.6182 52.8064 62.2781 52.8064ZM61.1245 52.1983C61.2675 52.3086 61.4058 52.4 61.5361 52.4724C62.0096 52.7308 62.7167 52.7024 63.0504 52.4126C63.2411 52.2456 63.2872 52.0109 63.1823 51.7289C62.1447 51.113 61.3136 51.9746 61.1245 52.1983Z" fill="#3F4553"/>
<path d="M61.4978 52.5403C62.2176 52.9341 63.473 52.7057 63.2998 51.8535C63.0423 52.126 62.5291 52.46 61.8156 52.1985C61.0497 51.9196 60.3934 51.1556 60.1217 50.8043C60.0708 50.9319 60.039 51.0721 60.0438 51.2265C60.0438 51.2265 60.7303 52.1197 61.4978 52.5403Z" fill="#F1BD54"/>
<path d="M62.278 52.8049C61.9936 52.8049 61.6996 52.7403 61.4597 52.608C60.6858 52.1842 60.0089 51.3099 59.9803 51.2737C59.9707 51.2611 59.9644 51.2438 59.9644 51.228C59.9612 51.0752 59.9882 50.9224 60.0486 50.7743C60.0597 50.7475 60.0835 50.7286 60.1121 50.7255C60.1392 50.7207 60.1678 50.7334 60.1852 50.7554C60.4331 51.0752 61.0894 51.8487 61.8426 52.1244C62.5752 52.3922 63.0646 51.9857 63.241 51.7983C63.2616 51.7762 63.2918 51.7683 63.3204 51.7762C63.349 51.7841 63.3713 51.8077 63.3761 51.8361C63.4364 52.1354 63.3363 52.3985 63.0932 52.5749C62.8866 52.7293 62.5879 52.8049 62.278 52.8049ZM60.1233 51.1996C60.2297 51.3335 60.8558 52.0992 61.5359 52.4725C61.9793 52.7151 62.6515 52.7056 63.001 52.4504C63.1536 52.3402 63.233 52.1968 63.2362 52.0235C62.9772 52.2441 62.4782 52.5261 61.787 52.274C61.0767 52.0141 60.4554 51.3446 60.1503 50.9697C60.1328 51.0453 60.1233 51.1209 60.1233 51.1996Z" fill="#3F4553"/>
<path d="M71.555 51.1935C71.555 51.1935 70.8685 52.0867 70.101 52.5073C69.3335 52.9279 67.9558 52.638 68.3531 51.6409C68.7503 50.6437 69.3859 50.1176 69.8627 49.9348C70.3394 49.7505 71.5788 50.2215 71.555 51.1935Z" fill="#E49621"/>
<path d="M69.3215 52.7735C68.9814 52.7735 68.6541 52.679 68.4443 52.4962C68.1964 52.2804 68.1376 51.9669 68.279 51.6109C68.7812 50.3491 69.5964 49.9521 69.8331 49.8592C70.135 49.7426 70.6579 49.8608 71.0488 50.1333C71.4365 50.4027 71.6447 50.7807 71.6335 51.195C71.6335 51.2108 71.6272 51.2281 71.6176 51.2407C71.589 51.2785 70.9121 52.1528 70.1382 52.575C69.8967 52.7073 69.6043 52.7735 69.3215 52.7735ZM70.108 49.9726C70.0222 49.9726 69.9491 49.9836 69.8903 50.0057C69.6679 50.0908 68.9051 50.4657 68.4252 51.6676C68.3092 51.9606 68.3505 52.2048 68.5476 52.3765C68.8813 52.668 69.5884 52.6947 70.062 52.4364C70.7421 52.0646 71.3682 51.299 71.4746 51.1651C71.4746 50.6941 71.152 50.3979 70.9566 50.2625C70.6722 50.064 70.348 49.9726 70.108 49.9726Z" fill="#3F4553"/>
<path d="M70.5776 52.1654L70.5697 52.1891C70.4203 52.3072 70.263 52.4175 70.1009 52.5057C69.3334 52.9263 67.9557 52.6365 68.3529 51.6393C69.5972 50.8784 70.5776 52.1654 70.5776 52.1654Z" fill="#F1BD54"/>
<path d="M69.3208 52.7736C68.9808 52.7736 68.6534 52.679 68.4437 52.4963C68.1958 52.2805 68.137 51.967 68.2784 51.611C68.2848 51.5952 68.2959 51.581 68.3102 51.5732C69.6021 50.7839 70.6302 52.104 70.6398 52.1182C70.6557 52.1387 70.6604 52.1655 70.6525 52.1891L70.6445 52.2127C70.6398 52.2285 70.6302 52.2411 70.6175 52.2505C70.4507 52.3829 70.2886 52.4916 70.1376 52.5751C69.8961 52.7074 69.6037 52.7736 69.3208 52.7736ZM68.4167 51.6929C68.3118 51.9749 68.3579 52.2112 68.5486 52.3766C68.8823 52.668 69.5894 52.6948 70.0629 52.4364C70.1932 52.3656 70.3315 52.2742 70.4745 52.1623C70.2838 51.9402 69.4527 51.0801 68.4167 51.6929Z" fill="#3F4553"/>
<path d="M70.1012 52.5072C69.3813 52.901 68.126 52.6726 68.2992 51.8204C68.5566 52.0929 69.0699 52.4269 69.7834 52.1654C70.5493 51.8866 71.2056 51.1225 71.4773 50.7712C71.5281 50.8988 71.5599 51.039 71.5551 51.1934C71.5551 51.1934 70.8687 52.0866 70.1012 52.5072Z" fill="#F1BD54"/>
<path d="M69.3209 52.772C69.011 52.772 68.7123 52.6948 68.5025 52.5435C68.2594 52.3671 68.1593 52.104 68.2197 51.8047C68.226 51.7764 68.2467 51.7527 68.2753 51.7449C68.3039 51.737 68.3357 51.7449 68.3547 51.7669C68.5311 51.9544 69.0206 52.3592 69.7531 52.093C70.5063 51.8173 71.1642 51.0438 71.4105 50.7241C71.428 50.702 71.4566 50.691 71.4836 50.6941C71.5122 50.6973 71.536 50.7162 71.5471 50.743C71.6059 50.891 71.6345 51.0438 71.6314 51.1967C71.6314 51.214 71.625 51.2297 71.6155 51.2423C71.5869 51.2801 70.9099 52.1544 70.1361 52.5766C69.8993 52.7074 69.6053 52.772 69.3209 52.772ZM68.3611 51.989C68.3659 52.1623 68.4437 52.3057 68.5963 52.4159C68.9459 52.6711 69.618 52.6806 70.0614 52.438C70.7415 52.0662 71.3676 51.3006 71.474 51.1667C71.474 51.0895 71.4645 51.0123 71.4454 50.9367C71.1403 51.3101 70.519 51.9812 69.8087 52.2411C69.1191 52.4916 68.6201 52.2096 68.3611 51.989Z" fill="#3F4553"/>
<path d="M66.1761 16.9557C66.1761 16.9557 65.9917 18.4648 65.8535 18.7846C65.7152 19.1044 64.0086 19.1958 63.2713 19.4699C62.534 19.744 60.9656 21.0704 59.9978 21.9841C59.0301 22.8978 58.153 25.3206 58.153 25.6404C58.153 25.9602 59.1207 24.7267 59.9978 23.8571C60.8734 22.9891 62.8105 21.8911 62.8105 21.8911C62.8105 21.8911 63.5033 25.2922 63.5954 25.6593C63.6876 26.0247 63.5939 26.6344 63.5939 26.7714C63.5939 26.9085 61.6568 30.245 61.3342 33.0333C61.0117 35.8216 61.6107 41.1241 61.6107 41.1241C61.6107 41.1241 60.5508 43.1814 60.4587 45.4672C60.3665 47.753 59.8596 50.4499 59.9057 50.6327C59.9518 50.8154 59.8135 51.1809 60.0439 51.2266C60.2743 51.2722 60.4587 50.6327 61.0117 50.4956C61.5646 50.3586 62.302 50.724 62.3957 50.3586C62.4879 49.9931 62.3957 49.2621 62.4879 48.3012C62.58 47.3418 64.1024 43.4099 64.1945 42.085C64.2867 40.7602 65.3927 34.2683 65.6247 33.9486C65.8551 33.6288 65.8551 33.6288 65.8551 33.6288C65.8551 33.6288 66.0855 33.0806 66.2237 33.6745C66.362 34.2683 66.2237 40.1647 66.5002 41.0343C66.7767 41.9023 68.9553 47.7341 69.2318 48.4194C69.5083 49.1046 68.9092 49.9285 69.0935 50.294C69.2779 50.6594 69.7848 50.5224 70.2456 50.5224C70.7064 50.5224 71.1863 51.1935 71.555 51.1935C71.9236 51.1935 72.0444 50.6594 72.0444 50.0656C72.0444 49.4717 70.4188 43.6855 70.3267 42.2678C70.2345 40.85 69.9119 39.7536 69.9119 39.7536C69.9119 39.7536 70.511 33.2176 70.3727 31.7998C70.2345 30.3821 69.0363 26.7714 69.0363 26.7714L69.8658 22.2582C69.8658 22.2582 72.4019 23.676 73.2775 24.8181C74.1531 25.9602 74.7537 25.9145 74.66 25.0008C74.5678 24.0871 72.4004 21.3902 71.2483 20.2008C70.0962 19.013 68.5278 19.2415 68.067 18.9217C67.6062 18.6019 67.8827 15.4481 67.8827 15.4481L66.1761 16.9557Z" fill="#FED9CE"/>
<path d="M60.0695 51.3085C60.0567 51.3085 60.0424 51.3069 60.0297 51.3037C59.8073 51.2596 59.8216 51.0233 59.8327 50.8516C59.8375 50.7776 59.8422 50.7004 59.8295 50.6516C59.8104 50.5775 59.8422 50.3318 59.9471 49.5882C60.0965 48.5281 60.3221 46.926 60.3809 45.4641C60.4683 43.3122 61.4186 41.3368 61.5314 41.1099C61.4885 40.724 60.9482 35.6956 61.2565 33.0254C61.5155 30.7869 62.8233 28.1672 63.3159 27.1811C63.4192 26.9747 63.5082 26.7967 63.5161 26.762C63.5145 26.7384 63.5209 26.677 63.5272 26.5966C63.5495 26.3524 63.586 25.946 63.5193 25.6798C63.4366 25.349 62.8757 22.6079 62.7549 22.0172C62.3561 22.2503 60.802 23.1735 60.0536 23.9154C59.7485 24.2179 59.4307 24.5676 59.1494 24.8764C58.4518 25.642 58.2754 25.8153 58.1467 25.7664C58.1197 25.7554 58.0736 25.727 58.0736 25.6436C58.0736 25.2844 58.9587 22.8584 59.9423 21.929C60.7305 21.1854 62.434 19.6983 63.2428 19.399C63.5542 19.284 64.0262 19.2005 64.4838 19.1202C65.0321 19.0241 65.7153 18.9044 65.7789 18.7563C65.9108 18.4507 66.0935 16.9652 66.0951 16.9494C66.0967 16.9305 66.1062 16.9132 66.1206 16.9006L67.8272 15.3914C67.851 15.3694 67.8876 15.3662 67.9162 15.3804C67.9448 15.3946 67.9623 15.4261 67.9591 15.4576C67.8542 16.6596 67.8018 18.646 68.11 18.8603C68.2483 18.9564 68.5232 19.0021 68.8426 19.0556C69.5481 19.1738 70.5127 19.336 71.3024 20.1505C72.4497 21.3335 74.6394 24.0399 74.7364 24.9961C74.7904 25.5364 74.6029 25.694 74.4853 25.7396C74.185 25.8578 73.7321 25.5475 73.2109 24.8685C72.4513 23.8776 70.3919 22.6568 69.92 22.3858L69.1143 26.7699C69.2192 27.085 70.3156 30.4246 70.4491 31.7967C70.5842 33.1846 70.028 39.3235 69.9899 39.7504C70.028 39.8859 70.3172 40.9445 70.403 42.2662C70.4555 43.0665 71.0164 45.3381 71.4677 47.1638C71.8316 48.6383 72.1208 49.8041 72.1208 50.0687C72.1208 50.8469 71.919 51.2754 71.5519 51.2754C71.3517 51.2754 71.1419 51.1179 70.9211 50.9525C70.6938 50.7823 70.4587 50.6043 70.2425 50.6043C70.144 50.6043 70.0423 50.6106 69.9438 50.6169C69.572 50.6405 69.1874 50.6642 69.019 50.3318C68.9236 50.1443 68.9983 49.8828 69.0841 49.5804C69.1858 49.2196 69.3002 48.8116 69.1556 48.4524C68.876 47.7593 66.7037 41.9433 66.4225 41.0611C66.2572 40.5397 66.2381 38.3405 66.2207 36.3998C66.2095 35.1301 66.2 33.9328 66.1444 33.695C66.0983 33.4996 66.0538 33.4791 66.0538 33.4791C66.0284 33.4839 65.9632 33.5752 65.9267 33.6619C65.9251 33.6682 65.9219 33.6729 65.9187 33.6776L65.6883 33.9974C65.4849 34.2794 64.3758 40.6342 64.2741 42.0929C64.2216 42.8365 63.7259 44.3929 63.2873 45.7665C62.9377 46.8598 62.6088 47.8932 62.5674 48.3122C62.5214 48.788 62.5214 49.2133 62.5214 49.5567C62.5214 49.9096 62.5214 50.19 62.4737 50.3822C62.4038 50.661 62.0828 50.6216 61.7427 50.5807C61.5123 50.5523 61.2517 50.5208 61.0324 50.576C60.748 50.6468 60.5652 50.8674 60.4175 51.0454C60.2999 51.184 60.1982 51.3085 60.0695 51.3085ZM62.8106 21.814C62.8217 21.814 62.8328 21.8156 62.8439 21.8203C62.8678 21.8313 62.8837 21.8518 62.8884 21.877C62.8948 21.9116 63.5828 25.2812 63.6734 25.6404C63.7465 25.9318 63.7084 26.3556 63.6861 26.6092C63.6798 26.6833 63.6734 26.74 63.6734 26.7715C63.6734 26.814 63.6432 26.877 63.4573 27.2504C62.9679 28.2302 61.6696 30.831 61.4138 33.0428C61.096 35.7901 61.6839 41.0627 61.6903 41.1162C61.6919 41.132 61.6887 41.1477 61.6823 41.1603C61.6712 41.1808 60.6288 43.2287 60.5382 45.4704C60.4794 46.9401 60.2538 48.547 60.1044 49.6103C60.0329 50.1144 59.9725 50.5492 59.9836 50.6153C60.0011 50.6862 59.9964 50.776 59.99 50.8611C59.9789 51.0517 59.9852 51.1352 60.0599 51.1494C60.1155 51.1588 60.2061 51.0485 60.2951 50.9414C60.4476 50.7555 60.6574 50.5019 60.9943 50.4184C61.2438 50.357 61.5187 50.3901 61.7618 50.42C62.086 50.4594 62.2846 50.4751 62.3195 50.3397C62.364 50.1664 62.364 49.8954 62.364 49.5536C62.364 49.2086 62.364 48.7785 62.4101 48.2949C62.4514 47.8586 62.7692 46.8661 63.1363 45.7161C63.5717 44.3519 64.0659 42.805 64.1168 42.0803C64.1962 40.9335 65.2942 34.2731 65.5612 33.9029L65.7868 33.5894C65.8202 33.5122 65.9219 33.309 66.0713 33.3185C66.2111 33.3295 66.2699 33.5169 66.3017 33.6556C66.3605 33.9092 66.37 35.0056 66.3827 36.3935C66.3986 38.2271 66.4177 40.5097 66.5766 41.0075C66.8579 41.8881 69.0269 47.6963 69.3066 48.3879C69.4719 48.7974 69.3431 49.2511 69.2414 49.6166C69.1683 49.8765 69.0984 50.1223 69.1668 50.2562C69.2875 50.4956 69.5894 50.4767 69.939 50.4547C70.0423 50.4484 70.1456 50.4421 70.2489 50.4421C70.519 50.4421 70.7749 50.6358 71.0228 50.8217C71.2214 50.9714 71.4105 51.1131 71.5567 51.1131C71.9269 51.1131 71.9667 50.379 71.9667 50.064C71.9667 49.8182 71.652 48.5438 71.3183 47.1969C70.8416 45.2703 70.3029 43.0869 70.2489 42.2725C70.1583 40.8815 69.8405 39.7867 69.8373 39.7756C69.8342 39.7662 69.8342 39.7567 69.8342 39.7473C69.8405 39.6811 70.4316 33.2019 70.295 31.8077C70.1599 30.4152 68.9729 26.8329 68.9618 26.7967C68.957 26.7841 68.957 26.7715 68.9586 26.7573L69.7881 22.244C69.7928 22.2188 69.8087 22.1984 69.8326 22.1873C69.8564 22.1763 69.8834 22.1779 69.9057 22.1905C70.0105 22.2488 72.4656 23.6287 73.3428 24.7708C73.8846 25.4781 74.2676 25.6546 74.4313 25.59C74.56 25.5396 74.6156 25.3285 74.5838 25.0087C74.4917 24.1013 72.2956 21.3934 71.1944 20.256C70.4412 19.4794 69.5052 19.3218 68.8219 19.2068C68.4692 19.147 68.1911 19.1013 68.0242 18.9847C67.5936 18.6854 67.7334 16.376 67.7906 15.6356L66.2556 16.9935C66.2286 17.2125 66.0633 18.509 65.9315 18.8146C65.8377 19.0304 65.3324 19.1297 64.5172 19.2714C64.0675 19.3502 63.6003 19.4321 63.3032 19.5424C62.6215 19.796 61.1421 21.0153 60.0567 22.0392C59.1335 22.9104 58.3231 25.1237 58.2436 25.5805C58.393 25.4703 58.7315 25.1001 59.035 24.7661C59.3178 24.4558 59.6372 24.1045 59.9455 23.8004C60.8195 22.934 62.6962 21.8675 62.7756 21.8219C62.7836 21.8171 62.7978 21.814 62.8106 21.814Z" fill="#3F4553"/>
<path d="M69.0918 50.2941C69.2762 50.6596 69.7831 50.5225 70.2439 50.5225C70.7047 50.5225 71.1846 51.1936 71.5533 51.1936C71.9219 51.1936 72.0427 50.6596 72.0427 50.0657C72.0427 49.4718 70.4171 43.6857 70.3249 42.2679C70.2328 40.8501 69.9102 39.7537 69.9102 39.7537C69.9102 39.7537 70.5093 33.2177 70.371 31.7999C70.3488 31.5747 70.2995 31.2927 70.2328 30.9808L62.0666 30.1931C61.7298 31.1084 61.4422 32.1024 61.3341 33.035C61.0115 35.8233 61.6106 41.1258 61.6106 41.1258C61.6106 41.1258 60.5507 43.1831 60.4585 45.4689C60.3664 47.7547 59.8595 50.4516 59.9055 50.6344C59.9516 50.8171 59.8134 51.1826 60.0438 51.2283C60.2742 51.2739 60.4585 50.6344 61.0115 50.4973C61.5645 50.3603 62.3018 50.7257 62.3956 50.3603C62.4877 49.9948 62.3956 49.2638 62.4877 48.3029C62.5799 47.3435 64.1022 43.4116 64.1944 42.0867C64.2865 40.7619 65.3925 34.27 65.6245 33.9502C65.8549 33.6304 65.8549 33.6304 65.8549 33.6304C65.8549 33.6304 66.0853 33.0822 66.2236 33.6761C66.3618 34.27 66.2236 40.1664 66.5001 41.036C66.7766 41.904 68.9552 47.7358 69.2317 48.421C69.5082 49.1047 68.9075 49.9286 69.0918 50.2941Z" fill="#3F4553"/>
<path d="M60.0694 51.3084C60.0567 51.3084 60.0424 51.3068 60.0297 51.3037C59.8072 51.2596 59.8215 51.0233 59.8326 50.8516C59.8374 50.7775 59.8422 50.7003 59.8294 50.6515C59.8104 50.5775 59.8422 50.3317 59.947 49.5882C60.0964 48.528 60.322 46.9259 60.3808 45.464C60.4682 43.3121 61.4185 41.3367 61.5313 41.1099C61.4884 40.7239 60.9481 35.6955 61.2564 33.0254C61.3517 32.1983 61.5996 31.2358 61.9937 30.1646C62.0064 30.1315 62.0382 30.1111 62.0764 30.1126L70.2425 30.9003C70.2774 30.9034 70.306 30.9286 70.3124 30.9617C70.3839 31.2957 70.43 31.5745 70.4522 31.7903C70.5873 33.1782 70.0311 39.3172 69.993 39.7441C70.0311 39.8795 70.3203 40.9382 70.4061 42.2598C70.4586 43.0601 71.0195 45.3317 71.4708 47.1575C71.8347 48.632 72.1239 49.7977 72.1239 50.0623C72.1239 50.8405 71.9221 51.269 71.555 51.269C71.3548 51.269 71.145 51.1115 70.9242 50.9461C70.6969 50.7759 70.4617 50.5979 70.2456 50.5979C70.1471 50.5979 70.0454 50.6042 69.9469 50.6105C69.5751 50.6342 69.1905 50.6578 69.0221 50.3254C68.9267 50.1379 69.0014 49.8764 69.0872 49.574C69.1889 49.2132 69.3033 48.8052 69.1587 48.4461C68.8791 47.7529 66.7068 41.9369 66.4256 41.0547C66.2603 40.5333 66.2412 38.3342 66.2238 36.3934C66.2126 35.1237 66.2031 33.9265 66.1475 33.6886C66.1014 33.4932 66.0569 33.4728 66.0569 33.4728C66.0315 33.4775 65.9663 33.5689 65.9298 33.6555C65.9282 33.6618 65.925 33.6665 65.9218 33.6713L65.6914 33.991C65.488 34.273 64.3789 40.6278 64.2772 42.0865C64.2247 42.8301 63.729 44.3865 63.2904 45.7602C62.9408 46.8534 62.6119 47.8868 62.5705 48.3059C62.5245 48.7816 62.5245 49.2069 62.5245 49.5504C62.5245 49.9032 62.5245 50.1821 62.4768 50.3758C62.4069 50.6546 62.0859 50.6153 61.7458 50.5743C61.5154 50.546 61.2548 50.5144 61.0355 50.5696C60.7511 50.6405 60.5684 50.861 60.4206 51.039C60.2998 51.1839 60.1981 51.3084 60.0694 51.3084ZM62.1224 30.2765C61.7458 31.313 61.5075 32.244 61.4137 33.0427C61.0959 35.79 61.6839 41.0626 61.6902 41.1162C61.6918 41.1319 61.6886 41.1477 61.6823 41.1603C61.6711 41.1807 60.6287 43.2286 60.5382 45.4703C60.4794 46.9401 60.2537 48.5469 60.1043 49.6102C60.0328 50.1143 59.9725 50.5491 59.9836 50.6153C60.0011 50.6862 59.9963 50.7759 59.9899 50.861C59.9788 51.0516 59.9852 51.1351 60.0599 51.1493C60.1155 51.1587 60.206 51.0485 60.295 50.9414C60.4476 50.7555 60.6573 50.5018 60.9942 50.4184C61.2437 50.3569 61.5186 50.39 61.7617 50.4199C62.0859 50.4593 62.2845 50.4751 62.3195 50.3396C62.364 50.1663 62.364 49.8953 62.364 49.5535C62.364 49.2085 62.364 48.7785 62.4101 48.2948C62.4514 47.8585 62.7692 46.866 63.1362 45.7161C63.5716 44.3518 64.0658 42.8049 64.1167 42.0802C64.1961 40.9334 65.2942 34.273 65.5611 33.9028L65.7868 33.5893C65.8201 33.5121 65.9218 33.3089 66.0712 33.3184C66.2111 33.3294 66.2698 33.5169 66.3016 33.6555C66.3604 33.9091 66.37 35.0055 66.3827 36.3934C66.3986 38.227 66.4176 40.5097 66.5765 41.0075C66.8578 41.8881 69.0268 47.6962 69.3065 48.3878C69.4718 48.7974 69.3431 49.251 69.2414 49.6165C69.1683 49.8764 69.0983 50.1222 69.1667 50.2561C69.2874 50.4955 69.5894 50.4766 69.939 50.4546C70.0422 50.4483 70.1455 50.442 70.2488 50.442C70.519 50.442 70.7748 50.6357 71.0227 50.8216C71.2213 50.9713 71.4104 51.1131 71.5566 51.1131C71.9269 51.1131 71.9666 50.379 71.9666 50.0639C71.9666 49.8182 71.6519 48.5437 71.3182 47.1968C70.8415 45.2702 70.3028 43.0869 70.2488 42.2724C70.1582 40.8799 69.8404 39.7866 69.8373 39.7756C69.8341 39.7661 69.8341 39.7567 69.8341 39.7472C69.8404 39.6811 70.4316 33.2018 70.2949 31.8077C70.2758 31.6092 70.2345 31.3556 70.171 31.0531L62.1224 30.2765Z" fill="#3F4553"/>
<path d="M71.2483 20.2024C70.0963 19.0146 68.5279 19.2431 68.067 18.9233C67.7302 18.6901 67.7874 16.9494 67.8414 16.0247L67.5443 15.7474L66.1761 16.9573C66.1761 16.9573 65.9918 18.4664 65.8535 18.7862C65.7153 19.106 64.0086 19.1974 63.2713 19.4715C62.5451 19.7408 61.018 21.0279 60.0471 21.9384L61.0021 23.0443C61.8682 22.4268 62.8105 21.8943 62.8105 21.8943C62.8105 21.8943 63.5033 25.2954 63.5955 25.6624C63.6876 26.0279 63.5939 26.6376 63.5939 26.7746C63.5939 26.8754 62.5372 28.7233 61.8555 30.8043C63.1775 31.4076 65.7804 32.0929 70.3394 31.5478C70.1042 29.9977 69.0348 26.773 69.0348 26.773L69.8643 22.2598C69.8643 22.2598 70.662 22.7056 71.5169 23.2979L72.8358 22.0345C72.2733 21.3256 71.6869 20.6545 71.2483 20.2024Z" fill="#9776A5"/>
<path d="M67.1978 31.825C64.56 31.825 62.8613 31.3477 61.8237 30.8735C61.7871 30.8562 61.7697 30.8152 61.7808 30.7774C62.2782 29.2604 62.9789 27.8552 63.3158 27.181C63.4191 26.9746 63.5081 26.795 63.516 26.7604C63.5144 26.7367 63.5208 26.6753 63.5271 26.5949C63.5494 26.3508 63.5859 25.9443 63.5192 25.6781C63.4366 25.3473 62.8756 22.6063 62.7549 22.0155C62.4943 22.1667 61.7442 22.6126 61.0498 23.1056C61.0164 23.1293 60.9704 23.1245 60.9433 23.093L59.9883 21.9887C59.9613 21.9572 59.9629 21.91 59.9947 21.88C60.8305 21.0955 62.4545 19.6888 63.2459 19.3958C63.5573 19.2808 64.0293 19.1973 64.4869 19.1169C65.0351 19.0209 65.7184 18.9011 65.782 18.753C65.9139 18.4474 66.0966 16.9603 66.0982 16.9462C66.0998 16.9273 66.1093 16.9099 66.1236 16.8973L67.4918 15.6875C67.522 15.6607 67.5697 15.6607 67.5999 15.6891L67.897 15.9663C67.9145 15.9821 67.924 16.0057 67.9224 16.0278C67.808 17.937 67.9463 18.742 68.1147 18.857C68.253 18.9531 68.5279 18.9988 68.8473 19.0524C69.5528 19.1705 70.5174 19.3328 71.3071 20.1472C71.7664 20.6198 72.3607 21.3066 72.8993 21.9856C72.9248 22.0171 72.9216 22.0628 72.893 22.0911L71.5741 23.3545C71.5471 23.3813 71.5042 23.3845 71.474 23.3624C70.8034 22.8977 70.163 22.5212 69.9247 22.3841L69.119 26.7682C69.208 27.0376 70.198 30.0591 70.4204 31.5367C70.4236 31.5572 70.4188 31.5792 70.4045 31.5966C70.3902 31.6139 70.3728 31.6249 70.3505 31.6265C69.1746 31.7651 68.1274 31.825 67.1978 31.825ZM61.954 30.7601C63.3444 31.3776 65.898 31.9872 70.2488 31.4784C69.9946 29.9236 68.9712 26.8281 68.9601 26.7966C68.9553 26.784 68.9553 26.7714 68.9569 26.7572L69.7864 22.2439C69.7912 22.2187 69.8071 22.1983 69.8309 22.1872C69.8547 22.1762 69.8817 22.1778 69.904 22.1904C69.9119 22.1951 70.681 22.6252 71.5089 23.1954L72.7293 22.0265C72.2065 21.3712 71.6345 20.7127 71.1911 20.2559C70.4379 19.4793 69.502 19.3217 68.8187 19.2067C68.4659 19.1469 68.1878 19.1012 68.021 18.9846C67.7461 18.794 67.6571 17.8079 67.7604 16.053L67.5443 15.8498L66.2524 16.9919C66.2253 17.2108 66.0601 18.5073 65.9282 18.8129C65.8344 19.0287 65.3291 19.128 64.5139 19.2698C64.0642 19.3485 63.5971 19.4304 63.2999 19.5407C62.6436 19.7849 61.2246 20.9443 60.1568 21.9399L61.0164 22.9339C61.8602 22.3385 62.7628 21.8265 62.7708 21.8218C62.793 21.8092 62.82 21.8076 62.8439 21.8186C62.8677 21.8296 62.8836 21.8501 62.8883 21.8753C62.8947 21.91 63.5828 25.2796 63.6733 25.6387C63.7464 25.9302 63.7083 26.3539 63.686 26.6075C63.6797 26.6816 63.6733 26.7383 63.6733 26.7698C63.6733 26.8123 63.6431 26.8754 63.4572 27.2487C63.1283 27.9135 62.4466 29.2793 61.954 30.7601Z" fill="#3F4553"/>
<path d="M69.003 19.1594C68.5851 19.087 68.245 19.0444 68.067 18.9215C67.7302 18.6884 67.7874 16.9477 67.8414 16.023L67.5442 15.7457L66.1761 16.9556C66.1761 16.9556 65.9917 18.4647 65.8535 18.7845C65.7995 18.9074 65.5119 18.9972 65.1384 19.0759C65.4451 19.9896 66.1189 21.6248 67.004 21.6248C67.8652 21.6264 68.6248 20.0857 69.003 19.1594Z" fill="#FED9CE"/>
<path d="M67.0041 21.7052C66.0745 21.7052 65.3897 20.0747 65.0623 19.1012C65.056 19.0791 65.0575 19.0571 65.0687 19.0366C65.0798 19.0177 65.0989 19.0035 65.1211 18.9988C65.6248 18.8933 65.7567 18.8066 65.7806 18.7531C65.9124 18.4474 66.0952 16.9603 66.0968 16.9462C66.0984 16.9273 66.1079 16.9099 66.1222 16.8973L67.4904 15.6875C67.5206 15.6607 67.5682 15.6607 67.5984 15.6891L67.8956 15.9663C67.913 15.9821 67.9226 16.0057 67.921 16.0278C67.8066 17.937 67.9448 18.742 68.1133 18.857C68.2515 18.9531 68.528 18.9988 68.8474 19.0524L69.0158 19.0807C69.0397 19.0854 69.0603 19.0996 69.0715 19.1201C69.0826 19.1406 69.0842 19.1658 69.0762 19.1878C68.6075 20.3362 67.867 21.7052 67.0041 21.7052ZM65.2419 19.1343C65.5136 19.9219 66.1746 21.5461 67.0041 21.5461C67.7907 21.5461 68.5105 20.1283 68.8919 19.2193L68.822 19.2067C68.4692 19.1469 68.1895 19.1012 68.0227 18.9846C67.7478 18.794 67.6588 17.8079 67.7621 16.053L67.546 15.8498L66.2541 16.9919C66.2271 17.2108 66.0618 18.5073 65.9299 18.8129C65.8711 18.9437 65.6709 19.0382 65.2419 19.1343Z" fill="#3F4553"/>
<path d="M67.8318 16.1899C67.6618 16.201 67.4743 16.2435 67.3424 16.2766C67.1517 16.3238 66.783 16.5239 66.4318 16.7303L66.1776 16.9555C66.1776 16.9555 66.1029 17.5699 66.0123 18.0977C66.3301 17.9842 67.2534 17.6266 67.8032 17.1068C67.8048 16.7823 67.8175 16.4625 67.8318 16.1899Z" fill="#C6FF00"/>
<path d="M67.8318 16.1899C67.6618 16.201 67.4743 16.2435 67.3424 16.2766C67.1517 16.3238 66.783 16.5239 66.4318 16.7303L66.1776 16.9555C66.1776 16.9555 66.1029 17.5699 66.0123 18.0977C66.3301 17.9842 67.2534 17.6266 67.8032 17.1068C67.8048 16.7823 67.8175 16.4625 67.8318 16.1899Z" fill="#BFB2AA"/>
<path d="M66.0363 39.6433C71.0835 39.6433 75.175 35.5872 75.175 30.5837C75.175 25.5802 71.0835 21.524 66.0363 21.524C60.9892 21.524 56.8977 25.5802 56.8977 30.5837C56.8977 35.5872 60.9892 39.6433 66.0363 39.6433Z" fill="#FA6E5A"/>
<path d="M69.041 38.1152C63.9942 38.1152 59.9024 34.0587 59.9024 29.0555C59.9024 26.1428 61.2912 23.553 63.4459 21.8958C59.6608 23.0032 56.8975 26.472 56.8975 30.5836C56.8975 35.5868 60.9893 39.6432 66.0361 39.6432C68.1448 39.6432 70.085 38.9327 71.6311 37.745C70.8096 37.9844 69.9404 38.1152 69.041 38.1152Z" fill="#E3604D"/>
<path d="M59.6242 27.2314C59.4637 27.2314 59.3175 27.1211 59.2809 26.9604C59.2364 26.7714 59.3556 26.5839 59.5463 26.5414L62.0665 25.9664L60.611 25.5158C60.425 25.4575 60.3217 25.2622 60.379 25.0779C60.4362 24.8936 60.6348 24.7912 60.8207 24.8479L63.5205 25.6844C63.673 25.7317 63.7747 25.8734 63.7684 26.0325C63.762 26.1901 63.6508 26.324 63.4951 26.3602L59.7036 27.2251C59.6766 27.2298 59.6496 27.2314 59.6242 27.2314Z" fill="#3F4553"/>
<path d="M72.2573 27.2315C72.2303 27.2315 72.2017 27.2284 72.1747 27.2221L68.5596 26.3572C68.4039 26.3194 68.2942 26.184 68.2895 26.0264C68.2847 25.8689 68.388 25.7271 68.5421 25.6814L71.3786 24.8449C71.5661 24.7898 71.7615 24.8954 71.8172 25.0812C71.8728 25.2671 71.7663 25.4609 71.5804 25.516L70.0009 25.9823L72.3415 26.5416C72.5306 26.5872 72.6482 26.7763 72.6021 26.9637C72.5608 27.1244 72.4162 27.2315 72.2573 27.2315Z" fill="#3F4553"/>
<path d="M59.0554 28.7123C59.9771 32.6348 62.7531 35.4845 66.0361 35.4845C69.3191 35.4845 72.0967 32.6348 73.0168 28.7123L71.8043 28.5122C67.9255 27.8695 63.9751 27.8774 60.0994 28.5358L59.0554 28.7123Z" fill="#3F4553"/>
<path d="M70.7953 32.8175C69.5908 32.0251 67.9303 31.5352 66.0933 31.5352C64.2214 31.5352 62.5323 32.0471 61.323 32.8663C62.5958 34.2825 64.2389 35.141 66.0361 35.141C67.8556 35.141 69.5161 34.2636 70.7953 32.8175Z" fill="#4E5567"/>
<path d="M64.8397 13.1324C64.8397 13.1324 64.5171 14.0917 64.2406 14.6415C63.9641 15.1897 64.3789 16.8816 64.7015 17.3841C65.024 17.8867 65.6231 17.7953 65.8535 17.7496C66.0839 17.7039 67.0978 17.0644 67.468 16.6989C67.8367 16.3334 68.021 16.1507 68.021 16.1507C68.021 16.1507 68.2053 16.1507 68.3897 15.7852C68.574 15.4197 67.8367 14.5974 67.1915 13.5908C66.5464 12.5857 66.2699 12.6314 66.2699 12.6314L64.8397 13.1324Z" fill="#FED9CE"/>
<path d="M65.5071 17.8645C65.0288 17.8645 64.7714 17.6377 64.6347 17.425C64.3026 16.9067 63.8752 15.1896 64.1691 14.6052C64.4409 14.068 64.7618 13.1165 64.765 13.1071C64.773 13.0834 64.7904 13.0661 64.8143 13.0582L66.2444 12.5557C66.3112 12.5447 66.6194 12.5494 67.2598 13.5482C67.4314 13.816 67.6078 14.0664 67.7779 14.309C68.2673 15.0069 68.6201 15.511 68.4627 15.8198C68.3038 16.1348 68.1354 16.2073 68.0607 16.2246L67.5252 16.7555C67.147 17.1304 66.1173 17.7795 65.871 17.8283C65.7359 17.8535 65.6152 17.8645 65.5071 17.8645ZM64.9033 13.1937C64.8413 13.3765 64.56 14.183 64.3121 14.6761C64.0484 15.1975 64.4679 16.8737 64.7698 17.3415C64.9748 17.6613 65.3355 17.7716 65.8408 17.6723C66.0394 17.633 67.0437 17.0091 67.414 16.6421L67.967 16.0939C67.9813 16.0797 68.0019 16.0702 68.0226 16.0702C68.021 16.0702 68.1656 16.0545 68.3197 15.7489C68.4341 15.5236 68.0687 15.0022 67.646 14.3988C67.4759 14.1547 67.2996 13.9026 67.1248 13.6332C66.5908 12.8015 66.3255 12.718 66.2826 12.7101L64.9033 13.1937Z" fill="#3F4553"/>
<path d="M65.1637 15.4119C65.1542 15.4119 65.1447 15.4103 65.1351 15.4071C64.6536 15.2228 64.6966 15.0984 64.7093 15.059C64.741 14.9629 65.1113 14.421 65.2241 14.2572C65.2496 14.2209 65.2988 14.2115 65.3338 14.2367C65.3703 14.2619 65.3799 14.3107 65.3544 14.3454C65.1431 14.6526 64.9158 14.996 64.8666 15.0905C64.9063 15.1315 65.0477 15.2055 65.1908 15.2606C65.2321 15.2764 65.2527 15.3221 65.2368 15.363C65.2257 15.3914 65.1955 15.4119 65.1637 15.4119Z" fill="#3F4553"/>
<path d="M66.7735 14.6919C66.7433 14.6919 66.7147 14.6746 66.702 14.6462C66.6289 14.4918 66.5336 14.3942 66.4176 14.3548C66.2618 14.3028 66.1172 14.3705 66.1156 14.3705C66.0759 14.3894 66.0282 14.3737 66.0092 14.3359C65.9901 14.2965 66.006 14.2492 66.0441 14.2303C66.0521 14.2256 66.2491 14.1311 66.47 14.2067C66.6273 14.2603 66.7544 14.3863 66.8466 14.58C66.8657 14.6194 66.8482 14.6667 66.8085 14.6856C66.7957 14.6887 66.7846 14.6919 66.7735 14.6919Z" fill="#3F4553"/>
<path d="M65.0686 14.254C65.0431 14.254 65.0193 14.243 65.0034 14.2209C65.0018 14.2178 64.9271 14.1185 64.8159 14.1059C64.7444 14.098 64.6649 14.1311 64.5839 14.202C64.5505 14.2304 64.5013 14.2288 64.4711 14.1957C64.4425 14.1626 64.4441 14.1138 64.4774 14.0839C64.5934 13.9799 64.7126 13.9358 64.835 13.9484C65.0177 13.9689 65.1289 14.1217 65.1321 14.128C65.1575 14.1642 65.148 14.213 65.113 14.2383C65.1003 14.2493 65.0844 14.254 65.0686 14.254Z" fill="#3F4553"/>
<path d="M67.0264 14.1909C66.993 14.1909 66.9628 14.1704 66.9517 14.1373C66.7292 13.5009 66.3368 13.5892 66.3209 13.5939C66.278 13.6033 66.2351 13.5797 66.2239 13.5372C66.2128 13.4946 66.2382 13.4521 66.2795 13.4411C66.2843 13.4395 66.8278 13.3056 67.1011 14.0854C67.1154 14.1263 67.0931 14.172 67.0518 14.1862C67.0439 14.1893 67.0343 14.1909 67.0264 14.1909Z" fill="#3F4553"/>
<path d="M64.6901 13.8774C64.6774 13.8774 64.6662 13.8742 64.6551 13.8695C64.6154 13.8506 64.5995 13.8033 64.6202 13.764C64.7091 13.5859 64.8283 13.4804 64.9745 13.4473C65.197 13.3969 65.394 13.5434 65.402 13.5497C65.4369 13.5765 65.4433 13.6253 65.4163 13.66C65.3893 13.6946 65.34 13.7009 65.305 13.6742C65.3035 13.6726 65.1573 13.5655 65.0079 13.6001C64.911 13.6222 64.8283 13.7009 64.7616 13.8333C64.7473 13.8616 64.7187 13.8774 64.6901 13.8774Z" fill="#3F4553"/>
<path d="M64.8794 15.771C64.8794 15.771 65.4467 15.9899 66.1729 15.5835C66.1729 15.5835 65.7947 16.1459 65.3529 16.2089C64.9112 16.2703 64.8794 15.771 64.8794 15.771Z" fill="#3F4553"/>
<path d="M59.7452 22.2754C59.7452 22.2754 57.7478 23.9373 57.4284 25.007C57.109 26.0766 57.3489 28.5309 57.3092 29.2824C57.2695 30.0338 57.7891 30.8655 58.0275 31.0246C58.2674 31.1838 58.3071 30.9065 58.2674 30.6292C58.2277 30.352 58.2277 28.9263 58.2277 28.9263C58.2277 28.9263 58.5868 29.955 58.6265 29.7581C58.6663 29.5596 58.6663 29.2036 58.5074 28.6491C58.3484 28.0946 57.948 27.3038 57.9877 27.1447C58.0275 26.9856 59.3051 24.6116 59.5053 23.8586" fill="#FED9CE"/>
<path d="M58.1497 31.1492C58.1052 31.1492 58.0496 31.1335 57.9829 31.0894C57.7318 30.924 57.1868 30.067 57.2281 29.2778C57.2392 29.0541 57.2265 28.6713 57.2106 28.227C57.1741 27.1794 57.1232 25.7443 57.3504 24.985C57.673 23.906 59.6085 22.2834 59.6911 22.2156C59.7245 22.1873 59.7753 22.192 59.8024 22.2251C59.831 22.2582 59.8262 22.3086 59.7928 22.3354C59.7738 22.3511 57.8113 23.9957 57.5014 25.0291C57.2821 25.7648 57.3314 27.1842 57.3679 28.2223C57.3838 28.6697 57.3965 29.0572 57.3854 29.2872C57.3473 30.0087 57.8478 30.8137 58.0687 30.9602C58.1148 30.9901 58.1466 30.9964 58.1561 30.9917C58.1863 30.9728 58.2165 30.8515 58.1863 30.642C58.1466 30.3632 58.145 28.9879 58.145 28.928C58.145 28.8902 58.1736 28.8572 58.2117 28.8509C58.2499 28.8446 58.288 28.8666 58.3007 28.9028C58.3849 29.1454 58.4914 29.418 58.5661 29.5786C58.574 29.3943 58.5518 29.1013 58.4294 28.6728C58.3611 28.4334 58.2435 28.1435 58.1402 27.8883C57.9686 27.463 57.8812 27.2362 57.9082 27.1275C57.9225 27.0708 58.0258 26.8644 58.2578 26.4044C58.6455 25.6341 59.2923 24.3455 59.4273 23.8414C59.4385 23.7988 59.483 23.7736 59.5243 23.7847C59.5672 23.7957 59.5926 23.8382 59.5815 23.8807C59.4432 24.4006 58.8156 25.6482 58.4008 26.4737C58.234 26.8061 58.0766 27.118 58.0639 27.1653C58.0496 27.2346 58.1831 27.5638 58.2896 27.8285C58.3945 28.0884 58.512 28.3814 58.5836 28.6287C58.7631 29.2541 58.7377 29.6149 58.7043 29.774C58.6884 29.8512 58.6328 29.8606 58.6153 29.8622C58.5677 29.8654 58.5025 29.8701 58.3086 29.377C58.3118 29.8181 58.3214 30.4466 58.3452 30.6168C58.3674 30.768 58.3833 31.0358 58.2419 31.1225C58.2212 31.1382 58.1895 31.1492 58.1497 31.1492Z" fill="#3F4553"/>
<path d="M58.1355 31.0893C58.1037 31.0893 58.0719 31.0688 58.0608 31.0373C58.0576 31.031 57.8034 30.33 57.6778 29.4542C57.6715 29.4116 57.7017 29.3707 57.7446 29.3644C57.7875 29.3581 57.8288 29.388 57.8352 29.4305C57.9591 30.2891 58.2086 30.9743 58.2102 30.9822C58.2245 31.0232 58.2038 31.0688 58.1625 31.083C58.153 31.0878 58.1434 31.0893 58.1355 31.0893Z" fill="#3F4553"/>
<path d="M57.8511 30.9003C57.8225 30.9003 57.7939 30.8845 57.7796 30.8562C57.7685 30.8357 57.5206 30.3363 57.3617 29.5187C57.3537 29.4762 57.3823 29.4353 57.4252 29.4258C57.4681 29.4179 57.5095 29.4447 57.519 29.4888C57.6731 30.2843 57.921 30.7805 57.9226 30.7853C57.9417 30.8247 57.9258 30.8719 57.8876 30.8908C57.8749 30.8987 57.8622 30.9003 57.8511 30.9003Z" fill="#3F4553"/>
<path d="M72.9138 22.2754C72.9138 22.2754 74.9112 23.9373 75.2306 25.007C75.55 26.0766 75.3101 28.5309 75.3498 29.2824C75.3895 30.0338 74.8699 30.8655 74.6316 31.0246C74.3932 31.1838 74.3519 30.9065 74.3916 30.6292C74.4313 30.352 74.4313 28.9263 74.4313 28.9263C74.4313 28.9263 74.0722 29.955 74.0325 29.7581C73.9928 29.5612 73.9928 29.2036 74.1517 28.6491C74.3122 28.0946 74.711 27.3038 74.6713 27.1447C74.6316 26.9856 73.354 24.6116 73.1538 23.8586" fill="#FED9CE"/>
<path d="M74.5092 31.1492C74.4694 31.1492 74.4392 31.1366 74.4154 31.1225C74.2756 31.0358 74.2915 30.768 74.3121 30.6168C74.336 30.4466 74.3455 29.8165 74.3487 29.377C74.1548 29.8685 74.0928 29.8654 74.042 29.8622C74.0245 29.8606 73.9689 29.8512 73.953 29.774C73.9212 29.6149 73.8942 29.2541 74.0738 28.6287C74.1453 28.3814 74.2629 28.0884 74.3677 27.8285C74.4742 27.5638 74.6061 27.2346 74.5918 27.1653C74.5791 27.1196 74.4218 26.8045 74.2549 26.4721C73.8402 25.6467 73.2125 24.399 73.0758 23.8807C73.0647 23.8382 73.0901 23.7957 73.133 23.7847C73.1744 23.7736 73.2189 23.7988 73.23 23.8414C73.3635 24.3439 74.0118 25.6341 74.3979 26.4028C74.6299 26.8644 74.7332 27.0708 74.7475 27.1275C74.7745 27.2362 74.6871 27.463 74.5155 27.8883C74.4122 28.1435 74.2962 28.4334 74.2263 28.6728C74.1024 29.1013 74.0801 29.3943 74.0897 29.5786C74.1643 29.4164 74.2692 29.1454 74.355 28.9028C74.3677 28.8666 74.4043 28.8446 74.444 28.8509C74.4822 28.8572 74.5108 28.8902 74.5108 28.928C74.5108 28.9863 74.5108 30.3616 74.4694 30.642C74.4392 30.8515 74.4694 30.9728 74.4996 30.9917C74.5092 30.998 74.5409 30.9917 74.587 30.9602C74.8079 30.8137 75.3085 30.0087 75.2703 29.2872C75.2576 29.0572 75.2719 28.6697 75.2878 28.2223C75.3243 27.1858 75.3736 25.7648 75.1543 25.0291C74.8445 23.9957 72.8836 22.3527 72.8629 22.3354C72.8295 22.307 72.8248 22.2582 72.8534 22.2251C72.882 22.192 72.9312 22.1873 72.9646 22.2156C73.0472 22.2834 74.9827 23.906 75.3053 24.985C75.5325 25.7443 75.4817 27.1794 75.4451 28.227C75.4292 28.6713 75.4165 29.0556 75.4276 29.2778C75.4689 30.067 74.9239 30.924 74.6728 31.0894C74.6077 31.1351 74.5537 31.1492 74.5092 31.1492Z" fill="#3F4553"/>
<path d="M74.5122 31.0262C74.5059 31.0262 74.4995 31.0262 74.4916 31.0231C74.4487 31.0121 74.4232 30.9695 74.4344 30.927C74.4376 30.9175 74.6854 29.9566 74.6854 29.317C74.6854 29.2729 74.7204 29.2383 74.7649 29.2383C74.8094 29.2383 74.8444 29.2729 74.8444 29.317C74.8444 29.9771 74.5996 30.927 74.5885 30.9664C74.5806 31.0026 74.5472 31.0262 74.5122 31.0262Z" fill="#3F4553"/>
<path d="M74.7967 30.9948C74.7872 30.9948 74.7793 30.9932 74.7697 30.9901C74.7284 30.9759 74.7077 30.9302 74.722 30.8893C74.7252 30.8798 75.0971 29.8637 75.0971 29.4746C75.0971 29.4305 75.132 29.3959 75.1765 29.3959C75.221 29.3959 75.256 29.4305 75.256 29.4746C75.256 29.8905 74.8873 30.9003 74.8714 30.9428C74.8603 30.9759 74.8285 30.9948 74.7967 30.9948Z" fill="#3F4553"/>
<path d="M38.1321 55.8674C45.3285 55.8674 51.1623 54.5069 51.1623 52.8286C51.1623 51.1503 45.3285 49.7898 38.1321 49.7898C30.9357 49.7898 25.1019 51.1503 25.1019 52.8286C25.1019 54.5069 30.9357 55.8674 38.1321 55.8674Z" fill="#F4A17C"/>
<path d="M38.8821 55.8688C46.5001 55.8688 52.6757 54.5125 52.6757 52.8394C52.6757 51.1664 46.5001 49.8101 38.8821 49.8101C31.2641 49.8101 25.0885 51.1664 25.0885 52.8394C25.0885 54.5125 31.2641 55.8688 38.8821 55.8688Z" fill="#F4A17C"/>
<path d="M32.6552 50.716C32.6552 50.716 30.723 51.7227 30.3591 52.2441C29.9952 52.7655 30.4798 53.1798 31.206 53.2302C31.9322 53.2807 34.9212 52.2835 35.1914 52.1543C35.4631 52.0251 35.266 51.2422 35.069 50.8389C34.8736 50.4341 32.6552 50.716 32.6552 50.716Z" fill="#E49621"/>
<path d="M31.2617 53.3106C31.2394 53.3106 31.2188 53.3106 31.1997 53.309C30.7182 53.2759 30.3384 53.0853 30.2065 52.8143C30.143 52.682 30.1048 52.4678 30.2923 52.2C30.6642 51.6691 32.5377 50.6893 32.6171 50.6468C32.6251 50.642 32.6346 50.6389 32.6441 50.6389C33.0239 50.59 34.9292 50.3727 35.1389 50.8043C35.2486 51.0295 35.3439 51.3367 35.3821 51.5872C35.4345 51.9353 35.3821 52.1496 35.2232 52.2252C34.9562 52.3528 32.1023 53.3106 31.2617 53.3106ZM32.6791 50.7917C32.5122 50.8799 30.7579 51.8093 30.4226 52.2882C30.3066 52.4536 30.2828 52.608 30.3496 52.745C30.456 52.9656 30.7865 53.1215 31.2108 53.1515C31.9259 53.2034 34.8879 52.211 35.1564 52.0834C35.2391 52.044 35.2661 51.8676 35.2263 51.6108C35.1914 51.3745 35.1008 51.0847 34.9975 50.872C34.8799 50.6294 33.5769 50.6798 32.6791 50.7917Z" fill="#3F4553"/>
<path d="M35.2913 51.5148C34.5254 51.8472 32.4119 52.7435 31.6825 52.8364C31.0882 52.9121 30.5416 52.6899 30.2397 52.5308C30.1904 52.9105 30.6195 53.1893 31.2058 53.2303C31.932 53.2807 34.921 52.2835 35.1912 52.1543C35.3405 52.0819 35.3469 51.8109 35.2913 51.5148Z" fill="#F1BD54"/>
<path d="M31.2615 53.3108C31.2393 53.3108 31.2186 53.3108 31.1995 53.3092C30.7927 53.2808 30.459 53.1438 30.2842 52.9327C30.1841 52.8114 30.1412 52.6696 30.1587 52.5215C30.1619 52.4963 30.1778 52.4727 30.2016 52.4617C30.2239 52.449 30.2525 52.449 30.2747 52.4617C30.5464 52.605 31.0899 52.8334 31.6715 52.7594C32.3993 52.6664 34.6001 51.7291 35.258 51.444C35.2802 51.4345 35.3056 51.4345 35.3263 51.4471C35.347 51.4582 35.3628 51.4786 35.3676 51.5023C35.4423 51.8945 35.393 52.145 35.2246 52.2254C34.9561 52.353 32.1021 53.3108 31.2615 53.3108ZM30.3208 52.6601C30.3335 52.7216 30.3621 52.7783 30.4066 52.8334C30.5512 53.0083 30.8515 53.1264 31.2091 53.1516C31.9241 53.2036 34.8861 52.2112 35.1547 52.0836C35.2357 52.0442 35.2611 51.8741 35.2278 51.6283C34.33 52.0158 32.3929 52.8256 31.6906 52.9153C31.1455 52.9831 30.6338 52.8067 30.3208 52.6601Z" fill="#3F4553"/>
<path d="M42.0134 50.716C42.0134 50.716 43.9457 51.7227 44.3095 52.2441C44.6734 52.7655 44.1888 53.1799 43.4626 53.2303C42.7364 53.2807 39.7474 52.2835 39.4773 52.1543C39.2055 52.0251 39.4026 51.2422 39.5996 50.8389C39.7967 50.4341 42.0134 50.716 42.0134 50.716Z" fill="#E49621"/>
<path d="M43.4085 53.3106C42.5663 53.3106 39.714 52.3528 39.4438 52.2252C39.2865 52.1496 39.2325 51.9354 39.2849 51.5872C39.3231 51.3367 39.4184 51.0296 39.528 50.8043C39.7378 50.3711 41.6431 50.5901 42.0229 50.6389C42.0324 50.6405 42.0419 50.6436 42.0499 50.6468C42.1293 50.6877 44.0044 51.6676 44.3746 52.2C44.5622 52.4678 44.5256 52.6821 44.4605 52.8144C44.3286 53.0869 43.9488 53.276 43.4673 53.309C43.4498 53.309 43.4292 53.3106 43.4085 53.3106ZM40.5975 50.6988C40.116 50.6988 39.733 50.746 39.6711 50.872C39.5678 51.0847 39.4772 51.3746 39.4422 51.6109C39.4025 51.8676 39.4295 52.0441 39.5122 52.0834C39.7743 52.2095 42.6044 53.1547 43.4021 53.1547C43.4228 53.1547 43.4403 53.1547 43.4578 53.1531C43.882 53.1231 44.211 52.9672 44.319 52.7467C44.3858 52.6096 44.3603 52.4552 44.2459 52.2898C43.9122 51.8109 42.1563 50.8815 41.9895 50.7933C41.5604 50.7381 41.0376 50.6988 40.5975 50.6988Z" fill="#3F4553"/>
<path d="M39.3784 51.5146C40.1443 51.847 42.2577 52.7434 42.9871 52.8364C43.5814 52.912 44.1281 52.6898 44.43 52.5307C44.4792 52.9104 44.0502 53.1892 43.4638 53.2302C42.7376 53.2806 39.7486 52.2834 39.4785 52.1542C39.3275 52.0818 39.3212 51.8108 39.3784 51.5146Z" fill="#F1BD54"/>
<path d="M43.4083 53.3106C42.5661 53.3106 39.7138 52.3528 39.4436 52.2252C39.2752 52.1448 39.2259 51.8944 39.3006 51.5021C39.3054 51.4785 39.3197 51.458 39.3419 51.447C39.3642 51.436 39.388 51.4344 39.4103 51.4438C40.0681 51.729 42.2705 52.6663 42.9967 52.7592C43.5783 52.8333 44.1218 52.6048 44.3935 52.4615C44.4173 52.4489 44.4444 52.4489 44.4666 52.4615C44.4904 52.4741 44.5063 52.4961 44.5095 52.5213C44.5286 52.6694 44.4857 52.8112 44.384 52.9325C44.2092 53.1436 43.8755 53.2807 43.4687 53.309C43.4496 53.309 43.429 53.3106 43.4083 53.3106ZM39.4404 51.6281C39.4055 51.8739 39.4325 52.044 39.5135 52.0834C39.7757 52.2094 42.6058 53.1531 43.4035 53.1546C43.4242 53.1546 43.4417 53.1546 43.4591 53.1531C43.8167 53.1278 44.117 53.0081 44.2616 52.8348C44.3061 52.7813 44.3347 52.723 44.3474 52.6616C44.036 52.8081 43.5259 52.9861 42.9761 52.9168C42.2737 52.8254 40.3383 52.0157 39.4404 51.6281Z" fill="#3F4553"/>
<path d="M33.6116 31.0042C33.6116 31.0042 31.8525 38.5499 31.6078 39.6274C31.3631 40.7049 31.1836 41.9163 31.4696 42.641C31.7556 43.3656 32.6725 50.4765 32.6725 50.4765L35.3071 51.1886C35.3071 51.1886 35.3405 46.6202 35.2531 44.8243C35.1657 43.0285 35.064 40.7585 35.064 40.7585L37.8639 33.8413L38.3263 34.4478L40.4223 40.6482L39.1892 51.0405L41.6951 50.3899C41.6951 50.3899 43.8483 43.7799 44.1995 42.4047C44.5491 41.0294 44.7175 40.1047 44.4442 39.473C44.1709 38.8413 42.3975 31.7918 42.3975 31.7918L33.6116 31.0042Z" fill="#3F4553"/>
<path d="M35.3057 51.2658C35.2993 51.2658 35.2914 51.2642 35.285 51.2626L32.6504 50.5506C32.6202 50.5427 32.5964 50.5159 32.5932 50.4844C32.5836 50.4136 31.6731 43.3751 31.395 42.6678C31.1567 42.0613 31.1996 41.0609 31.5301 39.6085C31.7716 38.5436 33.5164 31.0609 33.5339 30.9853C33.5434 30.9475 33.5784 30.9207 33.6181 30.9238L42.4008 31.7115C42.4342 31.7146 42.4628 31.7383 42.4707 31.7714C42.4882 31.8422 44.2457 38.8224 44.5142 39.44C44.7891 40.0732 44.6414 40.9759 44.2727 42.422C43.9263 43.7847 41.789 50.3458 41.7684 50.412C41.7604 50.4372 41.7397 50.4577 41.7127 50.464L39.2068 51.1146C39.1814 51.1209 39.1544 51.1146 39.1337 51.0972C39.1131 51.0799 39.1035 51.0547 39.1067 51.0279L40.3382 40.6545L38.2518 34.4825L37.8815 33.9973L35.1436 40.7711C35.1531 40.9822 35.2485 43.1136 35.3327 44.8196C35.4201 46.5966 35.3867 51.1429 35.3867 51.1886C35.3867 51.2138 35.3756 51.2359 35.3549 51.25C35.3406 51.2611 35.3232 51.2658 35.3057 51.2658ZM32.7441 50.4136L35.2278 51.0846C35.2326 50.3978 35.2532 46.4501 35.1738 44.8259C35.0864 43.0301 34.9847 40.7601 34.9847 40.7601C34.9847 40.749 34.9863 40.738 34.9911 40.727L37.791 33.8098C37.8021 33.783 37.8259 33.7641 37.8545 33.761C37.8847 33.7578 37.9117 33.7688 37.9292 33.7925L38.3916 34.399C38.3964 34.4053 38.4012 34.4131 38.4027 34.421L40.4987 40.6214C40.5019 40.6325 40.5035 40.6435 40.5019 40.6561L39.2815 50.9334L41.6333 50.3222C41.816 49.7614 43.7912 43.6838 44.1217 42.3826C44.4809 40.9712 44.6271 40.0921 44.3712 39.5014C44.1074 38.8949 42.512 32.5685 42.3341 31.8627L33.6753 31.0861C33.5005 31.8375 31.9162 38.6318 31.6874 39.6416C31.3648 41.0625 31.3188 42.0329 31.546 42.6095C31.8193 43.3121 32.6536 49.7157 32.7441 50.4136Z" fill="#3F4553"/>
<path d="M40.0328 49.4621C40.0296 49.4621 40.0265 49.4621 40.0233 49.4621C39.9804 49.4573 39.9486 49.418 39.9534 49.3739C39.9629 49.2982 40.8702 41.7966 40.9179 41.3776C40.9433 41.1634 40.9497 41.0988 41.0975 41.0909C41.1674 41.0877 41.3152 41.0799 41.6393 40.864C41.7172 40.8121 41.7681 40.7743 41.7998 40.749C41.7569 40.749 41.7029 40.7506 41.6568 40.7522C41.4598 40.7585 41.1896 40.768 40.9974 40.6845C40.5508 40.4907 39.3718 36.5839 39.1398 35.801C39.1271 35.76 39.1509 35.7159 39.1938 35.7033C39.2351 35.6907 39.2796 35.7144 39.2923 35.7569C39.955 37.9907 40.8003 40.4261 41.0609 40.5395C41.2214 40.6088 41.4709 40.601 41.6521 40.5947C41.8602 40.5884 41.9762 40.5836 42.008 40.6782C42.035 40.7601 41.9699 40.8341 41.7299 40.9948C41.3692 41.2358 41.1928 41.2453 41.107 41.2484C41.1038 41.2484 41.1007 41.2484 41.0975 41.2484C41.0911 41.2768 41.0848 41.3319 41.0784 41.3949C41.0307 41.8155 40.1218 49.3171 40.1123 49.3928C40.1075 49.4321 40.0725 49.4621 40.0328 49.4621Z" fill="#4E5567"/>
<path d="M35.153 47.8144C35.1133 47.8144 35.0783 47.7845 35.0736 47.7451L35.0068 47.1827C35.0021 47.1402 35.0338 47.1008 35.0767 47.0961C35.1196 47.0913 35.1594 47.1228 35.1641 47.1654L35.2309 47.7278C35.2356 47.7703 35.2039 47.8097 35.161 47.8144C35.1594 47.8144 35.1562 47.8144 35.153 47.8144Z" fill="#4E5567"/>
<path d="M34.9893 46.4123C34.9496 46.4123 34.9147 46.3824 34.9099 46.343L34.3172 41.2973C34.2123 41.2752 33.9692 41.2216 33.6498 41.1334C33.5926 41.1177 33.4718 41.0846 33.467 40.9901C33.4607 40.8845 33.5862 40.8341 33.8627 40.7238C34.0772 40.6388 34.3458 40.5317 34.5905 40.3788C34.8829 40.1977 35.5773 38.6917 36.4942 36.2484C36.5101 36.2074 36.5546 36.1869 36.5959 36.2027C36.6372 36.2185 36.6578 36.2626 36.6419 36.3035C35.9745 38.0805 35.091 40.2528 34.6731 40.5128C34.4157 40.6719 34.1297 40.7869 33.9199 40.8703C33.8293 40.9066 33.7308 40.946 33.6688 40.9759C33.6752 40.9775 33.6815 40.979 33.6895 40.9822C34.1138 41.0988 34.3998 41.1539 34.403 41.1555C34.4363 41.1618 34.4634 41.1901 34.4665 41.2232L35.0656 46.3256C35.0704 46.3682 35.0386 46.4076 34.9957 46.4123C34.9957 46.4123 34.9925 46.4123 34.9893 46.4123Z" fill="#4E5567"/>
<path d="M36.8723 35.5316C36.8628 35.5316 36.8548 35.5301 36.8453 35.5269C36.804 35.5127 36.7833 35.467 36.7976 35.4261C36.9057 35.1299 36.9692 34.9488 36.9692 34.9488C36.9835 34.9078 37.0296 34.8858 37.0709 34.8999C37.1122 34.9141 37.1345 34.9598 37.1202 35.0008C37.1202 35.0008 37.0566 35.1819 36.9486 35.4796C36.9359 35.5112 36.9057 35.5316 36.8723 35.5316Z" fill="#4E5567"/>
<path d="M38.9333 18.7262C38.9333 18.7262 34.6698 18.0315 32.9521 17.7258C31.2343 17.4202 29.7581 17.132 29.7581 17.132L29.0096 19.5091C29.0096 19.5091 32.4182 20.6465 33.316 20.9127C34.2138 21.1789 34.5681 21.3239 34.5681 21.3239C34.5681 21.3239 34.6857 27.0627 34.3171 28.2977C33.9484 29.5328 33.1189 32.0155 33.1189 32.0155L37.5111 34.454L38.393 33.1056L38.4613 34.38C38.4613 34.38 39.8422 34.2997 41.0864 33.9043C42.3306 33.5089 43.0839 33.0331 43.0839 33.0331L42.0971 28.7357L43.443 23.1922C43.443 23.1922 50.225 21.8563 50.2648 21.4231C50.3045 20.9899 49.332 19.402 49.332 19.402L40.1425 18.8081L38.9333 18.7262Z" fill="#FFF9F1"/>
<path d="M37.5114 34.5345C37.4987 34.5345 37.4844 34.5313 37.4733 34.525L33.0812 32.0864C33.0478 32.0675 33.0319 32.0282 33.0446 31.9935C33.0526 31.9683 33.8789 29.4982 34.2428 28.2774C34.5844 27.1305 34.5018 21.9588 34.4906 21.3791C34.3667 21.3318 33.9965 21.1963 33.2941 20.9884C32.4058 20.7253 29.0196 19.5958 28.9862 19.5848C28.9449 19.5706 28.9226 19.5281 28.9353 19.4871L29.6838 17.11C29.6965 17.0722 29.7346 17.047 29.7743 17.0564C29.7887 17.0596 31.2696 17.3479 32.9667 17.6488C34.6432 17.9465 38.797 18.6239 38.9432 18.6491L40.1493 18.7326L49.3387 19.3265C49.3641 19.328 49.388 19.3422 49.4023 19.3643C49.5024 19.5297 50.3875 20.9884 50.3462 21.4342C50.3351 21.5492 50.316 21.7619 46.8582 22.5511C45.3375 22.8977 43.8025 23.2064 43.5101 23.2647L42.1801 28.7421L43.1621 33.0206C43.17 33.0537 43.1557 33.0868 43.1271 33.1041C43.1192 33.1088 42.3501 33.5909 41.1106 33.9847C39.8712 34.3785 38.4808 34.4636 38.4664 34.4636C38.4458 34.4652 38.4251 34.4573 38.4092 34.4431C38.3934 34.4289 38.3838 34.41 38.3822 34.388L38.3266 33.3546L37.5782 34.4998C37.5623 34.5219 37.5369 34.5345 37.5114 34.5345ZM33.2146 31.9809L37.4844 34.3517L38.325 33.0663C38.3441 33.0379 38.3791 33.0253 38.4124 33.0332C38.4458 33.0427 38.4696 33.071 38.4712 33.1057L38.5364 34.2998C38.8478 34.2761 40.011 34.1674 41.0614 33.8335C42.107 33.5011 42.8093 33.1072 42.9936 32.9985L42.0196 28.7578C42.0164 28.7452 42.0164 28.7342 42.0196 28.7216L43.3655 23.1781C43.3734 23.1482 43.3973 23.1261 43.4275 23.1198C46.5928 22.496 50.0379 21.6863 50.1889 21.4122C50.2159 21.0955 49.566 19.944 49.2863 19.4824L40.1381 18.8917L38.9273 18.8082C38.9241 18.8082 38.9225 18.8082 38.9193 18.8066C38.8764 18.8003 34.6368 18.1072 32.9381 17.8063C31.4476 17.5416 30.1255 17.2864 29.8125 17.2266L29.1085 19.4635C29.6107 19.6305 32.525 20.5993 33.3386 20.8419C34.23 21.1066 34.5844 21.2499 34.5987 21.2562C34.6273 21.2688 34.6464 21.2956 34.648 21.3271C34.6527 21.5618 34.7608 27.0927 34.3937 28.3246C34.0616 29.4352 33.3465 31.5886 33.2146 31.9809Z" fill="#3F4553"/>
<path d="M37.4412 18.4301L37.2552 21.1506L39.5069 20.2763L41.9 22.1068L41.8238 18.5309L37.4412 18.4301Z" fill="white"/>
<path d="M41.9003 22.1856C41.8828 22.1856 41.8653 22.1793 41.851 22.1699L39.4945 20.3677L37.2841 21.2263C37.2587 21.2357 37.2301 21.2326 37.2078 21.2168C37.1856 21.2011 37.1745 21.1743 37.1761 21.1475L37.362 18.4269C37.3651 18.3844 37.4049 18.3545 37.443 18.3529L41.824 18.4537C41.8669 18.4553 41.9003 18.4884 41.9019 18.5309L41.9782 22.1069C41.9782 22.1368 41.9623 22.1651 41.9353 22.1793C41.9241 22.1825 41.913 22.1856 41.9003 22.1856ZM39.5072 20.1976C39.5247 20.1976 39.5421 20.2039 39.5564 20.2133L41.8177 21.943L41.7462 18.6081L37.5161 18.5104L37.3429 21.0325L39.4786 20.2039C39.4881 20.1992 39.4977 20.1976 39.5072 20.1976Z" fill="#3F4553"/>
<path d="M38.4805 32.9261C38.479 32.9261 38.4758 32.9261 38.4742 32.9261C38.4297 32.9229 38.3979 32.8851 38.4011 32.841L39.2846 22.4219C39.2878 22.3778 39.3275 22.3478 39.3704 22.3494C39.4149 22.3526 39.4467 22.3904 39.4435 22.4345L38.56 32.8536C38.5552 32.8961 38.5203 32.9261 38.4805 32.9261Z" fill="#3F4553"/>
<path d="M43.4433 23.2725C43.4274 23.2725 43.4115 23.2678 43.3988 23.2583C43.367 23.2362 43.3543 23.1953 43.3718 23.1591L44.4349 20.9347C44.4539 20.8953 44.5016 20.8796 44.5413 20.8969C44.581 20.9158 44.5985 20.9631 44.5795 21.0025L43.7341 22.77L45.6632 20.7236C45.6934 20.6921 45.7426 20.6905 45.776 20.7205C45.8078 20.7504 45.8094 20.7992 45.7792 20.8323L43.5021 23.2489C43.4862 23.2646 43.4639 23.2725 43.4433 23.2725Z" fill="#3F4553"/>
<path d="M34.5685 21.4042C34.5446 21.4042 34.5208 21.3932 34.5049 21.3727L32.7601 19.1011C32.7331 19.0664 32.7395 19.0176 32.7744 18.9908C32.8094 18.9641 32.8587 18.9704 32.8857 19.005L34.265 20.7993L33.7835 19.6367C33.7676 19.5973 33.7867 19.5501 33.8264 19.5343C33.8661 19.5186 33.9138 19.5375 33.9297 19.5768L34.64 21.2939C34.6543 21.3301 34.64 21.3727 34.6066 21.3916C34.5955 21.3995 34.5812 21.4042 34.5685 21.4042Z" fill="#3F4553"/>
<path d="M38.4741 18.6506L39.3624 22.4283L40.9546 18.8633L40.141 18.8113L38.9318 18.7278C38.9334 18.7262 38.7602 18.6979 38.4741 18.6506Z" fill="white"/>
<path d="M39.3626 22.5069C39.3594 22.5069 39.3578 22.5069 39.3547 22.5069C39.3213 22.5038 39.2927 22.4801 39.2847 22.447L38.3965 18.6694C38.3901 18.6442 38.398 18.6175 38.4155 18.597C38.433 18.5765 38.46 18.5686 38.487 18.5734L38.9463 18.649L40.9612 18.7844C40.9866 18.786 41.0104 18.8002 41.0247 18.8223C41.0375 18.8443 41.0406 18.8711 41.0295 18.8947L39.4373 22.4596C39.423 22.488 39.3944 22.5069 39.3626 22.5069ZM38.5792 18.7482L39.3864 22.1808L40.8372 18.9341L38.9272 18.8049L38.5792 18.7482Z" fill="#3F4553"/>
<path d="M38.4741 18.6506L39.3624 22.4283L40.9546 18.8633L40.141 18.8113L38.9318 18.7278C38.9334 18.7262 38.7602 18.6979 38.4741 18.6506Z" fill="#C6FF00"/>
<path d="M38.4741 18.6506L39.3624 22.4283L40.9546 18.8633L40.141 18.8113L38.9318 18.7278C38.9334 18.7262 38.7602 18.6979 38.4741 18.6506Z" fill="#FED9CE"/>
<path d="M51.9464 20.5615C51.9464 20.5615 52.0243 21.19 51.6715 21.4657C51.3203 21.7414 49.8346 22.2187 49.4183 21.9714C49.0019 21.7241 48.4124 20.415 48.6428 19.4934C48.8732 18.5734 50.2652 18.9153 50.2652 18.9153C50.2652 18.9153 51.6254 19.3469 51.9464 20.5615Z" fill="white"/>
<path d="M49.7661 22.1179C49.6056 22.1179 49.4706 22.0943 49.3784 22.0391C48.9144 21.7634 48.3376 20.3913 48.5664 19.4745C48.6697 19.0618 49.0034 18.8223 49.5341 18.7798C49.9203 18.7498 50.2699 18.8333 50.2842 18.8381C50.3461 18.857 51.6952 19.2981 52.0226 20.5394C52.0242 20.5426 52.0242 20.5457 52.0242 20.5504C52.0273 20.5772 52.102 21.2263 51.7207 21.5256C51.4442 21.7445 50.4065 22.1179 49.7661 22.1179ZM49.7073 18.9326C49.318 18.9326 48.8381 19.035 48.719 19.5123C48.4949 20.4071 49.086 21.6815 49.4594 21.9036C49.8361 22.1273 51.2757 21.6752 51.6221 21.4043C51.9193 21.1711 51.8732 20.6324 51.8684 20.5756C51.5602 19.4225 50.254 18.9956 50.2413 18.9909C50.2365 18.9893 49.9965 18.9326 49.7073 18.9326Z" fill="#575C69"/>
<path d="M50.6878 21.2279C50.0363 21.2641 49.4626 20.801 49.2974 20.1756C48.8826 18.594 47.872 14.8715 47.4874 14.6163C46.998 14.2934 46.623 14.2115 46.6294 13.9122C46.6357 13.6144 46.6611 12.4204 46.6611 12.4204C46.6611 12.4204 46.8788 12.0958 47.0234 12.3983C47.168 12.6992 47.1331 12.9371 47.1331 12.9371C47.1331 12.9371 47.373 12.2707 47.3476 12.0612C47.3222 11.8517 47.2729 11.2846 47.2761 11.1349C47.2793 10.9853 47.4779 10.8561 47.7719 11.1601C48.0659 11.4642 48.6395 12.1179 48.5283 12.4282C48.417 12.7386 48.2184 14.2713 48.2184 14.2713C48.2184 14.2713 51.8986 19.6274 51.8287 20.1031C51.7779 20.445 51.4807 21.1838 50.6878 21.2279Z" fill="#FED9CE"/>
<path d="M50.6163 21.3082C49.9727 21.3082 49.3927 20.8497 49.2211 20.1944C48.3726 16.9571 47.6909 14.8446 47.4446 14.6808C47.3032 14.5879 47.1713 14.5154 47.0553 14.4508C46.7597 14.287 46.5452 14.1688 46.5515 13.9105L46.5833 12.4187C46.5833 12.4045 46.5881 12.3887 46.596 12.3761C46.6087 12.3557 46.7311 12.1792 46.8884 12.1902C46.9742 12.1965 47.0441 12.2548 47.0966 12.3635C47.1299 12.4328 47.1538 12.5006 47.1728 12.562C47.2316 12.3588 47.2793 12.1556 47.2698 12.0705C47.2444 11.8673 47.1951 11.2923 47.1983 11.1332C47.1999 11.0355 47.2602 10.9489 47.3508 10.9142C47.4303 10.8827 47.6003 10.867 47.8307 11.1064C48.1739 11.4609 48.7301 12.1068 48.6046 12.4565C48.5045 12.7322 48.3313 14.0397 48.3027 14.2539C48.9573 15.207 51.9797 19.6399 51.9098 20.1172C51.8526 20.5079 51.5237 21.2609 50.6958 21.3066C50.6656 21.3082 50.6401 21.3082 50.6163 21.3082ZM46.739 12.447L46.7088 13.9136C46.7057 14.0696 46.8439 14.1531 47.1315 14.3138C47.2507 14.3799 47.3858 14.454 47.532 14.5501C47.9054 14.7958 48.7396 17.7338 49.3753 20.155C49.5342 20.7647 50.084 21.1821 50.6831 21.149C51.4092 21.1081 51.6985 20.4417 51.7493 20.0936C51.797 19.7691 49.5675 16.379 48.1517 14.3169C48.1406 14.3012 48.1358 14.2823 48.139 14.2634C48.1469 14.2003 48.3392 12.7196 48.452 12.4029C48.5188 12.2155 48.2296 11.7492 47.7131 11.2151C47.5717 11.0686 47.4621 11.0387 47.4048 11.0608C47.3683 11.0749 47.354 11.1096 47.354 11.1364C47.3508 11.2781 47.3969 11.8327 47.4239 12.0516C47.4509 12.2737 47.2316 12.8928 47.2062 12.9637C47.1919 13.0015 47.1522 13.0236 47.1125 13.0141C47.0727 13.0047 47.0473 12.9669 47.0537 12.9259C47.0537 12.9243 47.0823 12.7054 46.952 12.4313C46.9281 12.3809 46.8995 12.3494 46.8757 12.3478C46.8423 12.3431 46.7772 12.3998 46.739 12.447Z" fill="#3F4553"/>
<path d="M47.9212 12.9921C47.9133 12.9921 47.9053 12.9905 47.899 12.9889C47.8577 12.9763 47.8322 12.9322 47.8465 12.8913L48.0182 12.3226C47.9816 12.2407 47.8799 12.0012 47.8688 11.7823C47.8624 11.661 47.9117 11.6058 47.953 11.5806C48.0595 11.516 48.2089 11.5979 48.2375 11.6137C48.2756 11.6358 48.2867 11.6846 48.2645 11.7208C48.2422 11.7586 48.193 11.7712 48.1564 11.7492C48.1087 11.7208 48.0484 11.7066 48.0341 11.7145C48.0341 11.7145 48.0229 11.7271 48.0261 11.7744C48.0388 12.0075 48.1723 12.2801 48.1739 12.2832C48.1834 12.3005 48.185 12.321 48.1787 12.3399L47.9975 12.9385C47.9864 12.97 47.9546 12.9921 47.9212 12.9921Z" fill="#263238"/>
<path d="M47.6494 12.9212C47.6431 12.9212 47.6367 12.9212 47.6304 12.9196C47.5875 12.9086 47.562 12.866 47.5716 12.8251L47.7051 12.2847C47.6653 12.1997 47.5605 11.9303 47.6224 11.6467C47.651 11.5191 47.7082 11.4341 47.794 11.3963C47.9116 11.3427 48.0276 11.4041 48.0403 11.4104C48.0785 11.4309 48.0928 11.4798 48.0721 11.5176C48.0515 11.5554 48.0038 11.5695 47.9641 11.5491C47.9625 11.5475 47.9037 11.5191 47.8592 11.5396C47.8131 11.5601 47.7893 11.6278 47.7782 11.6798C47.7162 11.9602 47.8576 12.2359 47.8592 12.2391C47.8687 12.2564 47.8703 12.2753 47.8656 12.2942L47.7257 12.8629C47.7178 12.8975 47.6844 12.9212 47.6494 12.9212Z" fill="#263238"/>
<path d="M47.4223 12.9054C47.4175 12.9054 47.4127 12.9054 47.408 12.9038C47.365 12.896 47.3364 12.855 47.3428 12.8125L47.4715 12.0926C47.4509 12.0107 47.365 11.6546 47.3523 11.3994C47.346 11.2797 47.3952 11.2088 47.4381 11.1694C47.5589 11.0576 47.7575 11.0797 47.7798 11.0828C47.8227 11.0891 47.8545 11.1269 47.8481 11.171C47.8434 11.2136 47.8036 11.2451 47.7591 11.2388C47.7178 11.234 47.6018 11.2325 47.5446 11.2844C47.5192 11.3081 47.5081 11.3427 47.5097 11.3916C47.524 11.6594 47.6272 12.0674 47.6288 12.0705C47.632 12.0815 47.632 12.0926 47.6304 12.1036L47.4985 12.8393C47.4938 12.8786 47.4604 12.9054 47.4223 12.9054Z" fill="#263238"/>
<path d="M40.8096 19.5378C46.2517 19.5378 50.6633 15.1643 50.6633 9.76935C50.6633 4.37436 46.2517 0.000854492 40.8096 0.000854492C35.3676 0.000854492 30.9559 4.37436 30.9559 9.76935C30.9559 15.1643 35.3676 19.5378 40.8096 19.5378Z" fill="#FA6E5A"/>
<path opacity="0.3" d="M34.0075 9.37208C34.2045 4.62725 37.7862 0.814999 42.3484 0.121863C41.9766 0.0635766 41.5984 0.024194 41.2138 0.00844091C35.7761 -0.213678 31.1869 3.97507 30.9613 9.3642C30.7372 14.7549 34.9625 19.3044 40.3986 19.5281C41.0501 19.5549 41.6874 19.5171 42.3087 19.4226C37.4335 18.6633 33.7993 14.3816 34.0075 9.37208Z" fill="#AC3E2F"/>
<path d="M34.837 10.6464C34.837 10.6464 42.0688 9.70278 48.0532 11.1883C48.0532 11.1883 47.4922 17.143 41.2441 17.0059C35.827 16.8878 34.837 10.6464 34.837 10.6464Z" fill="#3F4553"/>
<path d="M41.5443 7.55273C41.3075 7.55273 41.1025 7.37944 41.0723 7.13999C40.9214 5.97584 39.8535 5.09839 38.587 5.09839C37.4588 5.09839 36.4657 5.80413 36.1717 6.81233C36.0986 7.0628 35.8332 7.20773 35.5806 7.13527C35.3279 7.0628 35.1817 6.8013 35.2548 6.54925C35.6664 5.13777 37.0361 4.1532 38.587 4.1532C40.3302 4.1532 41.8049 5.38509 42.0178 7.02027C42.0512 7.27862 41.8668 7.51649 41.6062 7.54958C41.5856 7.55115 41.5649 7.55273 41.5443 7.55273Z" fill="#3F4553"/>
<path d="M48.487 8.67425C48.2295 8.67425 48.0182 8.47103 48.0102 8.21426C47.9816 7.17613 47.1188 6.30971 46.0033 6.19944C45.0101 6.10177 44.071 6.63423 43.7214 7.49592C43.6229 7.73852 43.3448 7.85509 43.1017 7.759C42.857 7.66133 42.7394 7.38722 42.8363 7.14463C43.3432 5.89383 44.6828 5.11878 46.097 5.25899C47.6877 5.41652 48.9192 6.67676 48.9621 8.18748C48.97 8.44898 48.7619 8.66637 48.4981 8.67267C48.4965 8.67425 48.4917 8.67425 48.487 8.67425Z" fill="#3F4553"/>
<path d="M35.7778 10.8292C35.8366 11.0655 36.2736 12.3589 38.8256 12.4644C41.6351 12.5794 44.4413 12.7984 45.9017 12.7543C46.7756 12.7275 47.1936 11.9824 47.389 11.3869C42.9651 10.3834 37.9866 10.6386 35.7778 10.8292Z" fill="white"/>
<path d="M43.1127 16.5287C43.1143 15.1282 41.5984 13.9436 39.674 13.8648C38.6078 13.8207 37.6401 14.1279 36.9663 14.6461C37.9325 15.7441 39.3324 16.6311 41.341 16.6752C41.9925 16.6893 42.5804 16.6342 43.1127 16.5287Z" fill="#4E5567"/>
<path d="M32.3721 50.7507L35.52 51.7305L35.5454 50.4435L32.245 49.7693L32.3721 50.7507Z" fill="#4E5567"/>
<path d="M35.5203 51.8092C35.5123 51.8092 35.5044 51.8076 35.4964 51.806L32.3485 50.8262C32.3183 50.8167 32.2977 50.7915 32.2929 50.7616L32.1658 49.7786C32.1626 49.7534 32.1721 49.7282 32.1912 49.7109C32.2103 49.6935 32.2357 49.6857 32.2611 49.692L35.5616 50.3662C35.5997 50.3741 35.6251 50.4072 35.6251 50.445L35.5997 51.732C35.5997 51.7572 35.587 51.7792 35.5663 51.795C35.5536 51.8045 35.5377 51.8092 35.5203 51.8092ZM32.4438 50.6907L35.4424 51.6233L35.4646 50.5064L32.3374 49.8668L32.4438 50.6907Z" fill="#3F4553"/>
<path d="M38.8381 50.9413L39.2259 52.0818L42.3261 50.831L42.0925 49.7677L38.8381 50.9413Z" fill="#4E5567"/>
<path d="M39.2258 52.159C39.2147 52.159 39.2036 52.1559 39.1924 52.1512C39.1718 52.1417 39.1575 52.126 39.1495 52.1055L38.7618 50.9665C38.7475 50.9256 38.7697 50.8814 38.8095 50.8673L42.0638 49.6936C42.0861 49.6858 42.1099 49.6873 42.129 49.6984C42.1496 49.7094 42.1639 49.7283 42.1687 49.7504L42.4023 50.8137C42.4102 50.8515 42.3896 50.8893 42.3546 50.9035L39.2544 52.1527C39.2465 52.1575 39.2353 52.159 39.2258 52.159ZM38.9382 50.9886L39.2735 51.9763L42.2339 50.7838L42.0336 49.8732L38.9382 50.9886Z" fill="#3F4553"/>
<path d="M27.2829 18.0176C27.2829 18.0176 27.0716 18.6147 27.356 18.9597C27.6404 19.3047 28.988 20.0844 29.4472 19.9301C29.9064 19.7773 30.7645 18.621 30.7391 17.6742C30.7121 16.7259 29.2788 16.7652 29.2788 16.7652C29.2788 16.7652 27.8581 16.8991 27.2829 18.0176Z" fill="white"/>
<path d="M29.3118 20.0275C28.7175 20.0275 27.548 19.3154 27.2937 19.0082C26.9855 18.6349 27.1968 18.0174 27.2063 17.9906C27.2079 17.9875 27.2095 17.9843 27.2111 17.9812C27.799 16.8359 29.2117 16.6925 29.2705 16.6862C29.8012 16.6752 30.7944 16.8595 30.8182 17.6708C30.8453 18.6144 29.9856 19.8321 29.4723 20.0038C29.4262 20.0196 29.3722 20.0275 29.3118 20.0275ZM27.3557 18.0473C27.3382 18.1024 27.1777 18.6176 27.4177 18.909C27.6973 19.2477 29.0067 19.9928 29.4231 19.8558C29.8362 19.7171 30.6863 18.5987 30.6609 17.6771C30.6371 16.8186 29.2959 16.8454 29.2816 16.8454C29.2721 16.8454 27.9055 16.9871 27.3557 18.0473Z" fill="#3F4553"/>
<path d="M28.0406 18.846C28.6699 19.0193 29.3293 18.6885 29.6249 18.1119C30.3702 16.6548 32.1594 13.2316 32.5901 13.0646C33.1383 12.852 33.5212 12.852 33.58 12.559C33.6388 12.2659 33.8708 11.0955 33.8708 11.0955C33.8708 11.0955 33.7278 10.7332 33.5228 10.9978C33.3178 11.2609 33.3004 11.5019 33.3004 11.5019C33.3004 11.5019 33.2098 10.8009 33.2797 10.6009C33.3496 10.4024 33.5196 9.85731 33.5483 9.71081C33.5769 9.5643 33.4116 9.39574 33.0588 9.63046C32.7061 9.86519 32.0053 10.3819 32.0466 10.7095C32.0895 11.0372 31.9513 12.5763 31.9513 12.5763C31.9513 12.5763 27.2016 17.0297 27.1682 17.5101C27.1444 17.852 27.2747 18.6349 28.0406 18.846Z" fill="#FED9CE"/>
<path d="M28.3822 18.972C28.2614 18.972 28.1407 18.9563 28.0199 18.9232C27.2206 18.7027 27.0617 17.8992 27.0887 17.5038C27.1221 17.0218 31.0296 13.3308 31.8749 12.5385C31.894 12.3226 32.0052 11.0088 31.9671 10.719C31.9194 10.3519 32.6027 9.83838 33.0127 9.56428C33.2908 9.37996 33.4513 9.43195 33.5228 9.47921C33.6038 9.53277 33.6436 9.62886 33.6245 9.72653C33.5943 9.88249 33.4211 10.4338 33.3528 10.6276C33.3242 10.7095 33.3273 10.9175 33.3416 11.1286C33.3718 11.0718 33.41 11.012 33.4576 10.9505C33.5307 10.856 33.6118 10.8135 33.6976 10.8261C33.8517 10.8482 33.9344 11.0466 33.9423 11.0687C33.9471 11.0829 33.9487 11.0971 33.9455 11.1128L33.6579 12.5731C33.607 12.8267 33.3734 12.8961 33.0493 12.9937C32.9221 13.0315 32.7775 13.0756 32.6186 13.1371C32.3421 13.2442 31.2218 15.1645 29.6964 18.1466C29.4342 18.6601 28.9161 18.972 28.3822 18.972ZM28.0628 18.7704C28.6396 18.9295 29.2673 18.6381 29.5549 18.0757C30.6959 15.845 32.1435 13.1513 32.5614 12.9906C32.7251 12.9276 32.8729 12.8835 33.0032 12.8441C33.3194 12.7496 33.4719 12.6976 33.5021 12.5432L33.7882 11.1034C33.7627 11.0498 33.7151 10.9836 33.6769 10.9789C33.6515 10.9742 33.6197 10.9994 33.5848 11.0435C33.3973 11.2829 33.3782 11.5035 33.3782 11.5051C33.375 11.546 33.3416 11.5775 33.3003 11.5775C33.2542 11.5791 33.224 11.5492 33.2193 11.5082C33.2097 11.4342 33.1287 10.782 33.2034 10.5709C33.2765 10.363 33.4417 9.8305 33.4688 9.69188C33.4735 9.6651 33.4688 9.62886 33.4354 9.60681C33.3845 9.57373 33.2717 9.57845 33.1017 9.69188C32.482 10.1046 32.099 10.4984 32.1244 10.6953C32.1673 11.0277 32.0354 12.5148 32.0307 12.5794C32.0291 12.5983 32.0195 12.6172 32.0068 12.6298C30.1794 14.3438 27.2715 17.1856 27.2492 17.5117C27.2222 17.8646 27.362 18.5782 28.0628 18.7704Z" fill="#3F4553"/>
<path d="M32.687 11.4704C32.6854 11.4704 32.6838 11.4704 32.6838 11.4704C32.6393 11.4688 32.6059 11.431 32.6091 11.3884C32.6091 11.3837 32.6298 10.9552 32.6186 10.7457C32.6059 10.5189 32.946 9.69341 32.9857 9.60047C33.0016 9.55951 33.0493 9.54061 33.089 9.55794C33.1287 9.57369 33.1494 9.62095 33.1319 9.66033C32.9905 10.0006 32.7696 10.5929 32.7775 10.7378C32.7887 10.9552 32.768 11.379 32.768 11.3963C32.7648 11.4373 32.7299 11.4704 32.687 11.4704Z" fill="#263238"/>
<path d="M32.4231 11.3823L32.2642 11.3791C32.2642 11.3791 32.2753 10.9191 32.2832 10.7474C32.2912 10.5726 32.4676 10.0307 32.4866 9.9708C32.4993 9.92985 32.5454 9.90622 32.5867 9.92039C32.6281 9.933 32.6519 9.97868 32.6376 10.0196C32.5852 10.1803 32.4469 10.6246 32.4405 10.7553C32.4342 10.9254 32.4231 11.3823 32.4231 11.3823Z" fill="#263238"/>
</svg>
