<svg width="100" height="72" viewBox="0 0 100 72" fill="none" xmlns="http://www.w3.org/2000/svg">
<g clip-path="url(#clip0_73_956)">
<path d="M24.1879 65.6994C24.1879 66.0387 22.1997 66.3123 19.7485 66.3123C17.2973 66.3123 15.3091 66.0387 15.3091 65.6994C15.3091 65.36 17.2973 65.0864 19.7485 65.0864C22.1997 65.0864 24.1879 65.36 24.1879 65.6994Z" fill="#FDF9E7"/>
<path d="M34.1289 71.8023C42.8178 71.8023 49.8616 70.8283 49.8616 69.6268C49.8616 68.4253 42.8178 67.4513 34.1289 67.4513C25.4399 67.4513 18.3961 68.4253 18.3961 69.6268C18.3961 70.8283 25.4399 71.8023 34.1289 71.8023Z" fill="#F05D48"/>
<path d="M74.8395 71.0579C85.1813 71.0579 93.5649 69.899 93.5649 68.4694C93.5649 67.0398 85.1813 65.8809 74.8395 65.8809C64.4977 65.8809 56.114 67.0398 56.114 68.4694C56.114 69.899 64.4977 71.0579 74.8395 71.0579Z" fill="#F05D48"/>
<path d="M50.8191 66.6963C62.3514 66.6963 71.7001 65.4043 71.7001 63.8106C71.7001 62.2168 62.3514 60.9248 50.8191 60.9248C39.2868 60.9248 29.938 62.2168 29.938 63.8106C29.938 65.4043 39.2868 66.6963 50.8191 66.6963Z" fill="#F05D48"/>
<path d="M98.3835 63.174C98.3835 63.9106 94.0592 64.5103 88.7225 64.5103C83.3884 64.5103 79.0615 63.9132 79.0615 63.174C79.0615 62.4374 83.3858 61.8376 88.7225 61.8376C94.0566 61.8376 98.3835 62.4348 98.3835 63.174Z" fill="#F05D48"/>
<path d="M14.977 59.1335C10.0039 57.9918 5.33958 54.0907 2.88052 49.5345C0.424075 44.9783 -0.528157 39.483 0.928967 34.5112C2.38347 29.5394 6.44354 25.262 11.4846 24.1861C17.6192 22.8761 23.8061 26.2748 28.4914 30.4653C30.4063 32.1778 32.2113 34.0614 34.4271 35.3556C36.6455 36.6472 39.4211 37.2838 41.786 36.2895C44.6243 35.0952 46.0815 32.0069 47.4627 29.2447C50.8636 22.442 55.3265 16.0707 61.2073 11.2752C67.0881 6.47697 74.4731 3.33604 82.0439 3.36235C86.7606 3.37813 91.6839 4.74867 94.9697 8.15002C99.1344 12.4616 99.8616 19.1906 98.619 25.07C97.3764 30.9494 94.47 36.3131 92.16 41.8558C89.8501 47.3984 88.0974 53.4988 89.3348 59.3782L14.977 59.1335Z" fill="#F05D48"/>
<path d="M46.5208 22.8708C47.9596 20.4953 49.2074 17.9621 49.7594 15.2394C50.4814 11.6776 49.8641 7.91848 47.4102 5.14057C43.9519 1.22888 36.8337 -0.625683 31.9574 1.32622C29.9483 2.13118 28.2034 3.82002 27.743 5.94291C26.9608 9.53629 29.6867 12.6457 31.3767 15.513C32.2844 17.0545 32.962 18.8486 33.0274 20.6558C33.0875 22.3815 32.0123 23.9756 32.2739 25.7171C32.4204 26.6957 33.0064 27.5716 33.7651 28.2056C35.4236 29.5919 37.7676 30.097 39.8473 29.563C43.0624 28.7396 44.9093 25.5329 46.5208 22.8708Z" fill="#F05D48"/>
<path d="M39.1543 12.1195H3.4587C3.39068 12.1195 3.33313 12.1747 3.33313 12.2458V40.4221C3.33313 40.4905 3.38807 40.5483 3.4587 40.5483H39.1543C39.2223 40.5483 39.2799 40.4931 39.2799 40.4221V12.2458C39.2799 12.1774 39.2223 12.1195 39.1543 12.1195ZM28.3318 26.209H25.0068V22.9602H28.3318V26.209ZM28.5829 22.9602H31.9079V26.209H28.5829V22.9602ZM21.1822 26.4615V29.7103H17.8573V26.4615H21.1822ZM17.8573 26.209V22.9602H21.1822V26.209H17.8573ZM21.4334 26.4615H24.7583V29.7103H21.4334V26.4615ZM21.4334 26.209V22.9602H24.7583V26.209H21.4334ZM25.0068 22.7103V19.4615H28.3318V22.7103H25.0068ZM24.7583 22.7103H21.4334V19.4615H24.7583V22.7103ZM21.1822 22.7103H17.8573V19.4615H21.1822V22.7103ZM17.6061 22.7103H14.2812V19.4615H17.6061V22.7103ZM17.6061 22.9602V26.209H14.2812V22.9602H17.6061ZM14.0326 26.209H10.7077V22.9602H14.0326V26.209ZM10.4566 26.209H7.13159V22.9602H10.4566V26.209ZM10.4566 26.4615V29.7103H7.13159V26.4615H10.4566ZM10.7077 26.4615H14.0326V29.7103H10.7077V26.4615ZM14.2812 26.4615H17.6061V29.7103H14.2812V26.4615ZM17.6061 29.9602V33.209H14.2812V29.9602H17.6061ZM17.8573 29.9602H21.1822V33.209H17.8573V29.9602ZM21.4334 29.9602H24.7583V33.209H21.4334V29.9602ZM25.0068 29.9602H28.3318V33.209H25.0068V29.9602ZM25.0068 29.7077V26.4615H28.3318V29.7103H25.0068V29.7077ZM28.5829 26.4615H31.9079V29.7103H28.5829V26.4615ZM32.1564 26.4615H35.4814V29.7103H32.1564V26.4615ZM32.1564 26.209V22.9602H35.4814V26.209H32.1564ZM32.1564 22.7103V19.4615H35.4814V22.7103H32.1564ZM31.9079 22.7103H28.5829V19.4615H31.9079V22.7103ZM28.5829 19.209V15.9628H31.9079V19.2116H28.5829V19.209ZM28.3318 19.209H25.0068V15.9628H28.3318V19.209ZM24.7583 19.209H21.4334V15.9628H24.7583V19.209ZM21.1822 19.209H17.8573V15.9628H21.1822V19.209ZM17.6061 19.209H14.2812V15.9628H17.6061V19.209ZM14.0326 19.209H10.7077V15.9628H14.0326V19.209ZM14.0326 19.4615V22.7103H10.7077V19.4615H14.0326ZM10.4566 22.7103H7.13159V19.4615H10.4566V22.7103ZM6.88045 22.7103H3.58427V19.4615H6.88045V22.7103ZM6.88045 22.9602V26.209H3.58427V22.9602H6.88045ZM6.88045 26.4615V29.7103H3.58427V26.4615H6.88045ZM6.88045 29.9602V33.209H3.58427V29.9602H6.88045ZM7.13159 29.9602H10.4566V33.209H7.13159V29.9602ZM10.7077 29.9602H14.0326V33.209H10.7077V29.9602ZM14.0326 33.4589V36.7077H10.7077V33.4589H14.0326ZM14.2812 33.4589H17.6061V36.7077H14.2812V33.4589ZM17.8573 33.4589H21.1822V36.7077H17.8573V33.4589ZM21.4334 33.4589H24.7583V36.7077H21.4334V33.4589ZM25.0068 33.4589H28.3318V36.7077H25.0068V33.4589ZM28.5829 33.4589H31.9079V36.7077H28.5829V33.4589ZM28.5829 33.209V29.9602H31.9079V33.209H28.5829ZM32.1564 29.9602H35.4814V33.209H32.1564V29.9602ZM35.7325 29.9602H39.0287V33.209H35.7325V29.9602ZM35.7325 29.7077V26.4615H39.0287V29.7103H35.7325V29.7077ZM35.7325 26.209V22.9602H39.0287V26.209H35.7325ZM35.7325 22.7103V19.4615H39.0287V22.7103H35.7325ZM35.7325 19.209V15.9628H39.0287V19.2116H35.7325V19.209ZM35.4814 19.209H32.1564V15.9628H35.4814V19.209ZM32.1564 15.7103V12.372H35.4814V15.7103H32.1564ZM31.9079 15.7103H28.5829V12.372H31.9079V15.7103ZM28.3318 15.7103H25.0068V12.372H28.3318V15.7103ZM24.7583 15.7103H21.4334V12.372H24.7583V15.7103ZM21.1822 15.7103H17.8573V12.372H21.1822V15.7103ZM17.6061 15.7103H14.2812V12.372H17.6061V15.7103ZM14.0326 15.7103H10.7077V12.372H14.0326V15.7103ZM10.4566 15.7103H7.13159V12.372H10.4566V15.7103ZM10.4566 15.9628V19.2116H7.13159V15.9628H10.4566ZM6.88045 19.209H3.58427V15.9628H6.88045V19.209ZM3.58427 33.4589H6.88045V36.7077H3.58427V33.4589ZM7.13159 33.4589H10.4566V36.7077H7.13159V33.4589ZM10.4566 36.9602V40.2984H7.13159V36.9602H10.4566ZM10.7077 36.9602H14.0326V40.2984H10.7077V36.9602ZM14.2812 36.9602H17.6061V40.2984H14.2812V36.9602ZM17.8573 36.9602H21.1822V40.2984H17.8573V36.9602ZM21.4334 36.9602H24.7583V40.2984H21.4334V36.9602ZM25.0068 36.9602H28.3318V40.2984H25.0068V36.9602ZM28.5829 36.9602H31.9079V40.2984H28.5829V36.9602ZM32.1564 36.9602H35.4814V40.2984H32.1564V36.9602ZM32.1564 36.7077V33.4589H35.4814V36.7077H32.1564ZM35.7325 33.4589H39.0287V36.7077H35.7325V33.4589ZM39.0287 15.7103H35.7325V12.372H39.0287V15.7103ZM6.88045 12.372V15.7103H3.58427V12.372H6.88045ZM3.58427 36.9602H6.88045V40.2984H3.58427V36.9602ZM35.7325 40.2984V36.9602H39.0287V40.2984H35.7325Z" fill="#E7DFC2"/>
<path d="M18.056 20.1771C18.056 20.1771 18.8539 27.3402 22.812 28.5871L30.0949 26.5326C30.0949 26.5326 25.7471 24.5202 25.3024 20.1771H18.056Z" fill="#FEDEA6"/>
<path d="M14.2813 26.7983C14.2813 26.7983 13.6744 34.9532 10.6607 36.3711L5.11475 34.0325C5.11475 34.0325 8.42663 31.7439 8.76409 26.7983H14.2813Z" fill="#F7F4E3"/>
<path d="M33.0099 14.4758L28.1594 15.894L29.8379 21.6985L34.6883 20.2803L33.0099 14.4758Z" fill="#F7F4E3"/>
<path d="M32.7577 15.0509L28.6809 16.2429L29.7648 19.9913L33.8416 18.7993L32.7577 15.0509Z" fill="#FDFDFD"/>
<path d="M19.2265 32.0837L15.4951 31.0554L14.2789 35.5179L18.0103 36.5462L19.2265 32.0837Z" fill="#D2CDB8"/>
<path d="M18.8342 32.3571L15.6982 31.4929L14.9121 34.3774L18.0481 35.2416L18.8342 32.3571Z" fill="#E7DFC2"/>
<path d="M77.7955 29.8311C77.2645 29.8311 76.7308 29.8285 76.1997 29.8285C75.9381 29.8285 75.687 30.06 75.7001 30.3309C75.7132 30.6045 75.9198 30.8334 76.1997 30.8334C76.7308 30.8334 77.2645 30.836 77.7955 30.836C78.0571 30.836 78.3083 30.6045 78.2952 30.3336C78.2821 30.0626 78.0754 29.8338 77.7955 29.8311Z" fill="#CCC6AD"/>
<path d="M93.4155 43.1815C88.5184 38.8042 83.6212 34.4296 78.724 30.0523C78.0046 29.4104 76.9398 30.4732 77.6645 31.1176L92.3561 44.2469C93.0728 44.8914 94.1376 43.8287 93.4155 43.1815Z" fill="#CCC6AD"/>
<path d="M95.6185 61.7561H94.2058C92.9109 61.3826 90.8442 61.1432 88.5133 61.1432C86.1825 61.1432 84.1184 61.3852 82.8209 61.7561H81.4082C81.3428 62.1376 81.4082 62.6716 81.4082 62.6716C81.4082 63.516 84.5893 64.1999 88.5107 64.1999C92.4348 64.1999 95.6132 63.516 95.6132 62.6716C95.7466 62.106 95.6185 61.7561 95.6185 61.7561Z" fill="#CCC6AD"/>
<path d="M95.6186 61.7563C95.6186 62.6007 92.4402 63.2873 88.5188 63.2873C84.5947 63.2873 81.4163 62.6007 81.4163 61.7563C81.4163 60.9145 84.5973 60.2279 88.5188 60.2279C88.8039 60.2279 89.0838 60.2305 89.3585 60.2384C89.6123 60.2463 89.8608 60.2542 90.1067 60.2674C93.2642 60.4199 95.6186 61.0329 95.6186 61.7563Z" fill="#E7DFC2"/>
<path d="M90.1065 60.2647L89.3714 61.5379L89.3583 61.559V60.2384C89.6094 60.2463 89.8605 60.2516 90.1065 60.2647Z" fill="#E7DFC2"/>
<path d="M92.3485 43.5183L87.9117 61.1564C87.6737 62.0981 89.1203 62.5006 89.3584 61.5562C90.8364 55.6769 92.3171 49.7975 93.7951 43.9181C94.0332 42.9764 92.5865 42.5765 92.3485 43.5183Z" fill="#E7DFC2"/>
<path d="M93.7451 42.85C88.8479 38.4727 83.9507 34.098 79.0536 29.7207C78.3342 29.0788 77.2694 30.1416 77.9941 30.7887L92.6856 43.918C93.4024 44.5599 94.4672 43.4971 93.7451 42.85Z" fill="#E7DFC2"/>
<path d="M63.8843 29.8287C63.8843 29.8287 68.1693 22.8129 73.7153 26.1564C79.2612 29.4998 75.1279 36.6051 75.1279 36.6051L63.8843 29.8287Z" fill="#E7DFC2"/>
<path d="M75.1271 36.6078C74.8184 37.126 72.8538 36.5341 70.4392 35.2662C69.9186 34.9926 69.3771 34.6875 68.8277 34.356C68.2783 34.0245 67.7551 33.6878 67.2712 33.3564C65.0214 31.8122 63.5774 30.3496 63.8861 29.8314C64.1738 29.35 65.8978 29.8288 68.0874 30.9231C68.7519 31.2545 69.4634 31.6439 70.188 32.0832C70.9127 32.5198 71.5876 32.9644 72.1945 33.4011C74.1775 34.8216 75.4122 36.1238 75.1271 36.6078Z" fill="#C1B894"/>
<path d="M72.1891 33.3957C71.9877 34.2928 71.3128 35.0109 70.439 35.2635C70.2166 35.3292 69.9786 35.3634 69.7327 35.3634C68.5188 35.3634 67.5064 34.5006 67.2684 33.351C67.2344 33.1827 67.2161 33.0064 67.2161 32.8275C67.2161 32.062 67.5509 31.3807 68.0846 30.9177C68.7491 31.2492 69.4606 31.6385 70.1852 32.0778C70.9073 32.5171 71.5822 32.9617 72.1891 33.3957Z" fill="#FAC978"/>
<path d="M78.2244 29.0342C76.6155 29.0342 76.6129 31.549 78.2244 31.549C79.8332 31.549 79.8358 29.0342 78.2244 29.0342Z" fill="#E7DFC2"/>
<path d="M78.2244 29.7733C77.5626 29.7733 77.56 30.8098 78.2244 30.8098C78.8889 30.8098 78.8889 29.7733 78.2244 29.7733Z" fill="#E7DFC2"/>
<path d="M92.9347 42.0188C90.8654 42.0188 90.8628 45.2518 92.9347 45.2518C95.0039 45.2518 95.0065 42.0188 92.9347 42.0188Z" fill="#E7DFC2"/>
<path d="M92.9341 42.9816C92.097 42.9816 92.0944 44.2916 92.9341 44.2916C93.7713 44.2916 93.7739 42.9816 92.9341 42.9816Z" fill="#E7DFC2"/>
<path d="M24.1828 58.3312H15.3145C15.3145 58.3312 15.0738 63.6608 17.7343 65.5495C17.9541 65.7047 18.2287 65.7863 18.5086 65.7863H19.7486H20.9886C21.2685 65.7863 21.5432 65.7047 21.763 65.5495C24.4235 63.6634 24.1828 58.3312 24.1828 58.3312Z" fill="#536969"/>
<path d="M24.188 58.3337C24.188 58.4916 22.7387 58.6284 20.7871 58.6626C20.4549 58.6704 20.1044 58.6731 19.746 58.6731C19.4399 58.6731 19.1443 58.6705 18.8539 58.6652C16.8317 58.6363 15.3092 58.4968 15.3092 58.3337C15.3092 58.1838 16.5989 58.0549 18.3804 58.0102C18.8094 57.9996 19.2699 57.9944 19.7486 57.9944C20.1253 57.9944 20.4915 57.997 20.8395 58.0049C22.7622 58.0417 24.188 58.1759 24.188 58.3337Z" fill="#405050"/>
<path d="M25.4543 59.8937C24.9834 59.3229 24.2195 59.2203 23.5262 59.2439C22.8853 59.265 22.8827 60.2699 23.5262 60.2488C24.0311 60.233 24.5727 60.2462 24.8316 60.7513C25.0723 61.2142 25.0305 61.8167 24.795 62.2744C24.2326 63.3792 22.9481 63.6844 21.8075 63.5292C21.5407 63.4923 21.3079 63.787 21.3079 64.0316C21.3079 64.3341 21.5381 64.4972 21.8075 64.5341C23.0371 64.6998 24.3895 64.3604 25.2319 63.395C26.0638 62.4401 26.3018 60.9223 25.4543 59.8937Z" fill="#536969"/>
<path opacity="0.5" d="M22.2495 55.327C21.5772 56.0057 20.8526 56.7817 20.8317 57.7418C20.829 57.8497 20.8369 57.9576 20.8421 58.068C20.8552 58.2969 20.8683 58.5258 20.7924 58.7257C20.4602 58.7336 20.1096 58.7362 19.7512 58.7362C19.4452 58.7362 19.1496 58.7336 18.8592 58.7283C18.6682 58.5521 18.506 58.3206 18.3831 58.0733C18.2549 57.8365 18.1607 57.5866 18.1032 57.363C17.9933 56.9395 17.9854 56.4871 18.0953 56.0635C18.3805 54.9561 19.3745 54.0511 19.3536 52.9095C19.3405 52.1703 18.8958 51.5126 18.4014 50.9681C17.9043 50.4262 17.3314 49.9395 16.96 49.3029C16.3243 48.2191 16.3975 46.7486 17.1692 45.7595C17.9383 44.7704 19.3745 44.3521 20.5361 44.8099C21.7002 45.2702 22.4745 46.5908 22.2705 47.8298C22.1371 48.6374 21.6426 49.4634 21.9566 50.221C22.1292 50.634 22.5059 50.9155 22.8225 51.2338C23.2619 51.681 23.602 52.2676 23.6151 52.8963C23.636 53.8538 22.9219 54.6483 22.2495 55.327Z" fill="#54C1BB"/>
<path d="M28.6117 59.4964C28.6117 59.4964 22.9689 37.0101 25.4986 34.2927C28.0283 31.5753 49.0611 30.3179 51.3658 32.4224C53.6705 34.5269 53.4848 59.4675 53.4848 59.4675L28.6117 59.4964Z" fill="#54C1BB"/>
<path d="M51.3682 32.4224C51.2976 32.3592 51.2086 32.2961 51.104 32.2382C44.1245 31.8042 31.6513 33.0221 29.739 35.0766C27.4944 37.4915 31.6905 55.49 32.6585 59.4912L53.4846 59.4675C53.4846 59.4675 53.6729 34.5268 51.3682 32.4224Z" fill="#8DD1CD"/>
<path d="M57.7384 40.7797C57.7384 40.7797 62.0784 53.8905 63.2452 54.2167C64.4119 54.5429 76.3671 56.8079 76.3671 56.8079L75.7837 59.741C75.7837 59.741 61.2177 60.1987 57.7384 57.7207C54.2565 55.2427 57.7384 40.7797 57.7384 40.7797Z" fill="#DDBB8F"/>
<path d="M57.7384 40.7797C57.7384 40.7797 54.2565 55.2427 57.7384 57.7207C59.0726 58.6703 62.0313 59.1885 65.1758 59.4674L66.0181 55.2427L65.8978 55.169L65.8089 54.7613C64.5139 54.5008 63.5408 54.2956 63.2478 54.2141C62.0784 53.8905 57.7384 40.7797 57.7384 40.7797Z" fill="#405050"/>
<path d="M67.2555 55.0507C66.6931 55.6479 66.3138 56.3897 66.1019 57.1657C65.89 57.9417 65.8377 58.7493 65.8769 59.549C65.8821 59.6358 65.7932 59.7305 65.7042 59.7516C65.6153 59.7726 65.5211 59.7542 65.4296 59.7411C65.338 59.7279 65.2386 59.7226 65.1601 59.77C65.0816 59.8173 65.0372 59.9094 64.9534 59.9436C64.8462 59.9857 64.7311 59.9252 64.6238 59.8857C64.391 59.7989 64.132 59.8173 63.8835 59.7989C63.635 59.7831 63.3629 59.7174 63.219 59.5227C63.1144 59.3833 63.0987 59.2018 63.0856 59.0308C63.0254 58.2364 62.9731 57.3946 63.3472 56.6817C63.5853 56.2292 63.9777 55.8583 64.1817 55.3927C64.2811 55.1665 64.3308 54.9218 64.4669 54.714C64.6003 54.5062 64.854 54.3378 65.1052 54.3931C65.3145 54.4404 65.461 54.6272 65.665 54.6851C65.8507 54.735 66.0443 54.6719 66.2353 54.6509C66.6382 54.6061 66.9992 54.7456 67.2555 55.0507Z" fill="#536969"/>
<path d="M36.1011 59.4963H58.1698C57.5524 55.1874 56.9795 50.4181 57.0449 47.9454C57.0999 45.9198 57.7355 40.8112 57.7355 40.8112C57.4923 40.5218 52.0431 36.2787 47.6063 36.4102C40.08 36.6365 36.2554 41.9818 36.2554 41.9818C36.2554 41.9818 36.5092 45.9461 36.6949 48.0059C36.9173 50.4576 36.5066 55.2032 36.1011 59.4963Z" fill="#F7F4E3"/>
<path d="M57.0424 48.4111C57.0424 48.2375 57.0424 48.0717 57.0476 47.9139C57.0999 45.9673 57.6886 41.1822 57.7356 40.806C57.5054 40.543 53.584 37.4836 49.7045 36.6287L49.7385 40.372C49.7385 40.372 51.1825 49.2792 51.8208 59.4648H58.1673C57.5891 55.4216 57.0502 50.9785 57.0424 48.4111Z" fill="#405050"/>
<path d="M50.2121 36.0919L53.6966 40.2614L51.112 39.4801L49.7359 40.3719L48.1689 36.4365L50.2121 36.0919Z" fill="#536969"/>
<path d="M36.1011 59.4675H46.2094C45.1734 50.3552 44.836 41.7137 44.836 41.7137L43.7006 36.9996C38.7616 38.457 36.2554 41.953 36.2554 41.953C36.2554 41.953 36.5092 45.9173 36.6949 47.9771C36.9173 50.4288 36.5066 55.1718 36.1011 59.4675Z" fill="#405050"/>
<path d="M56.8672 26.6745C58.5859 25.4697 59.8494 23.5072 60.3099 21.3212C60.4564 20.6294 60.5244 19.906 60.3883 19.2089C60.2549 18.5117 59.8965 17.8436 59.3419 17.4727C58.7873 17.1017 58.0235 17.0833 57.5186 17.52C57.1733 16.9123 56.4355 16.6388 55.7972 16.7545C55.1589 16.8703 54.5939 17.2622 54.0628 17.6647C51.9726 16.7414 49.4534 17.2754 47.8236 18.9511C46.4397 19.1904 45.1945 20.2637 44.6373 21.6711C44.0801 23.0785 44.0722 24.6989 44.3862 26.2036C44.6111 27.2769 45.0192 28.3528 45.7779 29.0762C46.6909 29.9443 47.9701 30.1732 49.1709 30.1547C51.97 30.11 54.518 28.3212 56.8672 26.6745Z" fill="#405050"/>
<path d="M45.9114 24.9463C45.4013 29.8734 44.1299 38.5938 44.1299 38.5938C45.2391 40.5667 49.4221 40.3168 49.3253 39.6566C49.2704 39.283 49.3593 38.6333 49.5764 38.0493C49.7439 37.5968 49.9898 37.1812 50.3037 36.9602C50.4345 36.8681 50.6673 36.8392 50.9682 36.8366C51.0179 36.8392 51.044 36.8366 51.044 36.8366C52.4279 36.8471 55.1093 37.3785 56.2787 35.6949C57.7332 33.6009 57.8928 27.7715 57.7358 24.9621C57.6442 23.3548 56.2708 21.1004 53.5057 20.6111C50.1258 20.0113 46.4241 19.9876 45.9114 24.9463Z" fill="#FDBCA0"/>
<path d="M46.3926 35.4633C46.3926 35.4633 47.439 36.9811 49.5763 38.0465C49.7437 37.594 49.9896 37.1784 50.3035 36.9574C50.4343 36.8654 50.6671 36.8364 50.968 36.8338C50.5547 36.8233 48.4985 36.697 46.3926 35.4633Z" fill="#F0A38B"/>
<path d="M54.319 30.46C54.5074 30.4574 54.7036 30.4627 54.8605 30.581C54.9835 30.6731 55.041 30.8257 55.0306 30.9783C55.0018 31.3255 54.6905 31.5202 54.3818 31.5938C54.2824 31.6175 54.2353 31.4649 54.3347 31.4413C54.5702 31.386 54.8344 31.2571 54.871 30.9888C54.8867 30.8809 54.8501 30.7705 54.7611 30.7047C54.6382 30.6152 54.4734 30.6205 54.3269 30.6205C54.2222 30.6231 54.217 30.4627 54.319 30.46Z" fill="#3F4553"/>
<path d="M52.352 28.5449C52.3415 28.8395 52.5273 29.0842 52.7679 29.0921C53.0086 29.1 53.21 28.8685 53.2205 28.5738C53.231 28.2792 53.0452 28.0346 52.8046 28.0267C52.5639 28.0188 52.3624 28.2503 52.352 28.5449Z" fill="#3F4553"/>
<path d="M55.2504 28.8263C55.24 29.1209 55.4257 29.3656 55.6664 29.3734C55.907 29.3813 56.1085 29.1498 56.1189 28.8552C56.1294 28.5606 55.9437 28.3159 55.703 28.3081C55.4649 28.3002 55.2609 28.5317 55.2504 28.8263Z" fill="#3F4553"/>
<path d="M51.6113 26.0511C52.1293 25.7275 52.7859 25.6644 53.3509 25.9143C53.4294 25.9485 53.4765 26.0379 53.4451 26.1221C53.4163 26.201 53.3195 26.251 53.2384 26.2168C52.7859 26.0169 52.2365 26.0379 51.8127 26.3036C51.7395 26.3483 51.6479 26.3536 51.5877 26.2799C51.538 26.2168 51.538 26.0984 51.6113 26.0511Z" fill="#3F4553"/>
<path d="M57.1287 26.5692C56.7154 26.1168 56.1006 25.88 55.4911 25.9668C55.4048 25.98 55.3393 26.051 55.3472 26.1405C55.355 26.2246 55.4335 26.2983 55.5199 26.2851C56.0091 26.2141 56.5323 26.3851 56.8697 26.7534C56.9273 26.8165 57.0162 26.8454 57.0921 26.7902C57.1549 26.7481 57.1863 26.635 57.1287 26.5692Z" fill="#3F4553"/>
<path d="M50.9916 29.7077C50.9733 29.9339 51.3029 30.147 51.7267 30.1838C52.1531 30.2207 52.5141 30.0681 52.5324 29.8419C52.5507 29.6156 52.2211 29.4025 51.7973 29.3657C51.3709 29.3289 51.0099 29.4815 50.9916 29.7077Z" fill="#FBAD8B"/>
<path d="M55.6873 30.1258C55.6689 30.352 55.9986 30.5651 56.4224 30.6019C56.8488 30.6387 57.2098 30.4862 57.2281 30.2599C57.2464 30.0337 56.9168 29.8206 56.493 29.7838C56.0666 29.747 55.7056 29.8995 55.6873 30.1258Z" fill="#FBAD8B"/>
<path d="M55.1169 33.1746C55.0672 33.4534 54.9129 33.706 54.701 33.8927C54.6618 33.9296 54.6251 33.9585 54.5833 33.9874C54.3138 34.1821 53.979 34.2768 53.6467 34.2873C53.1602 34.3057 52.6631 34.1374 52.3126 33.798C52.1765 33.6665 52.064 33.5113 51.9856 33.3403C51.8548 33.0694 51.8024 32.7616 51.8548 32.467C51.8835 32.3012 51.9646 32.125 52.1216 32.0829C52.2236 32.0566 52.323 32.0908 52.4172 32.146C52.4669 32.175 52.514 32.2092 52.5585 32.2407C52.9221 32.5117 53.3145 32.7589 53.754 32.8642C54.0627 32.9378 54.4002 32.9326 54.6984 32.8194C54.7978 32.78 54.9469 32.6485 55.0568 32.7169C55.0594 32.7195 55.0594 32.7195 55.062 32.7195C55.1771 32.8089 55.1405 33.0562 55.1169 33.1746Z" fill="#4E5567"/>
<path d="M55.0539 32.7221C55.033 32.7984 54.9937 32.8747 54.944 32.9378C54.8342 33.0746 54.6694 33.164 54.5019 33.2193C53.9369 33.406 53.2959 33.2587 52.8068 32.9194C52.6498 32.8089 52.5007 32.6747 52.43 32.4932C52.3882 32.3854 52.3803 32.2617 52.4143 32.1512C52.4641 32.1802 52.5111 32.2144 52.5556 32.2459C52.9192 32.5169 53.3116 32.7642 53.7511 32.8694C54.0598 32.9431 54.3973 32.9378 54.6955 32.8247C54.7949 32.7852 54.944 32.6537 55.0539 32.7221Z" fill="white"/>
<path d="M54.7013 33.8954C54.662 33.9322 54.6254 33.9612 54.5835 33.9901C54.3141 34.1848 53.9792 34.2795 53.647 34.29C53.1604 34.3084 52.6634 34.1401 52.3128 33.8007C52.1768 33.6692 52.0643 33.514 51.9858 33.343C52.3625 33.3035 52.7471 33.2983 53.1264 33.3272C53.579 33.3614 54.0394 33.4482 54.4266 33.6823C54.5208 33.7455 54.6149 33.8139 54.7013 33.8954Z" fill="#3F4553"/>
<path d="M55.0071 23.8728C53.8195 24.1175 52.5088 23.594 51.813 22.5943C51.7267 22.8969 51.4755 23.1468 51.1721 23.2336C50.8712 23.3204 50.5259 23.2388 50.2931 23.0258C50.246 23.9991 49.9922 24.9803 49.435 25.7747C48.8778 26.5718 47.9936 27.1637 47.0283 27.24C46.4894 27.2821 45.9165 27.1532 45.5136 26.7875C45.1395 26.4455 44.9538 25.9431 44.8413 25.4485C44.5719 24.2569 44.6529 22.9731 45.1421 21.8525C45.6287 20.7319 46.5312 19.7849 47.6535 19.3114C48.7261 18.8563 49.9295 18.8457 51.0936 18.8852C52.2917 18.9273 53.5003 19.022 54.6383 19.4034C55.5617 19.7112 56.4381 20.2215 57.0843 20.9607C57.2098 21.1054 57.4296 21.308 57.427 21.5105C57.4243 21.7078 57.2857 21.9656 57.1994 22.1392C56.9979 22.547 56.7102 22.9074 56.3649 23.1994C55.9777 23.5335 55.5068 23.7702 55.0071 23.8728Z" fill="#405050"/>
<path d="M46.4136 27.3032C46.0081 26.8244 45.4195 26.4614 44.776 26.514C44.1403 26.5666 43.6406 27.0006 43.4784 27.6188C43.3712 28.0345 43.4052 28.4738 43.4837 28.8973C43.5648 29.3419 43.6903 29.7812 43.9022 30.1784C44.3025 30.9281 45.137 31.6121 46.0343 31.3148C47.2298 30.9176 47.3109 29.4366 47.0127 28.4027C46.8976 28.0187 46.6883 27.6294 46.4136 27.3032Z" fill="#FDBCA0"/>
<path d="M44.8336 27.5846C44.7237 27.5267 44.6295 27.6924 44.7368 27.7503C45.5007 28.1475 45.9271 29.0025 45.7727 29.8574C45.7518 29.9784 45.9349 30.0284 45.9559 29.9074C46.1259 28.9735 45.6786 28.0239 44.8336 27.5846Z" fill="#F0A38B"/>
<path d="M45.7073 28.5763C45.3829 28.4422 45.0245 28.4132 44.6844 28.4843C44.6347 28.4948 44.6059 28.5553 44.619 28.6026C44.6347 28.6553 44.6844 28.6789 44.7367 28.6684C45.0454 28.6053 45.3672 28.6395 45.6602 28.7605C45.7073 28.7789 45.7648 28.7394 45.7779 28.6947C45.7884 28.6395 45.7544 28.5974 45.7073 28.5763Z" fill="#F0A38B"/>
<path d="M44.5353 36.0919L42.4059 36.9968L40.5093 42.4053L43.7427 40.656L44.8388 41.7135L44.5353 36.0919Z" fill="#536969"/>
<path d="M36.2583 41.955C36.2583 41.955 27.8661 56.8099 29.6816 59.3537C31.4971 61.8975 47.7086 64.3755 47.7086 64.3755L48.3757 61.0767C48.3757 61.0767 36.5722 57.8358 36.3289 56.9072L36.6271 53.185C36.6245 53.185 37.5977 43.2834 36.2583 41.955Z" fill="#FDBCA0"/>
<path d="M36.3263 56.9052L36.6245 53.183C36.6245 53.183 37.5977 43.2814 36.2583 41.9503C36.2583 41.9503 27.8661 56.8053 29.6816 59.3491C30.2676 60.1698 32.3604 60.9853 34.9215 61.714L35.7141 61.4377L37.2733 57.5208C36.7161 57.2709 36.3655 57.0578 36.3263 56.9052Z" fill="#405050"/>
<path d="M39.1698 57.9548C37.8697 59.1149 37.0064 60.7616 36.7867 62.4952C36.444 62.5005 36.1274 62.3584 35.8449 62.1637C35.5127 62.39 35.0732 62.34 34.6781 62.2795C34.5212 62.2558 34.3459 62.2216 34.2544 62.0927C34.1942 62.0085 34.1837 61.9007 34.1733 61.7981C34.134 61.393 34.0948 60.98 34.1916 60.5854C34.2857 60.2013 34.5029 59.8594 34.7174 59.5253C35.0889 58.9492 35.4603 58.3704 35.8318 57.7943C35.96 57.597 36.0882 57.3945 36.2739 57.2524C36.4597 57.1078 36.7108 57.0288 36.9305 57.1078C37.0666 57.1577 37.1764 57.2603 37.3046 57.3287C37.5191 57.4418 37.7703 57.4497 38.011 57.4418C38.2516 57.4339 38.4975 57.4103 38.7304 57.4734C38.9632 57.5365 39.1201 57.7154 39.1698 57.9548Z" fill="#536969"/>
<path d="M36.6533 44.4101C36.6193 47.6273 36.4964 50.8445 36.2818 54.0564C36.2217 54.9692 36.151 55.8821 36.0752 56.7949C36.0542 57.0395 36.4362 57.0316 36.4571 56.787C36.7239 53.5803 36.8992 50.3657 36.9855 47.1485C37.0091 46.2331 37.0248 45.3176 37.0352 44.4048C37.0379 44.1549 36.6559 44.1628 36.6533 44.4101Z" fill="#A1B8B8"/>
<path d="M47.7061 64.3709C47.7061 64.3709 54.1572 67.012 54.4502 66.4728C54.7431 65.9361 51.685 64.9154 51.685 64.9154C51.685 64.9154 55.9727 65.7888 56.0852 65.3469C56.1977 64.9075 52.0722 63.808 52.0722 63.808C52.0722 63.808 56.9982 64.7129 57.0583 64.1973C57.1185 63.6817 52.7131 62.7136 52.7131 62.7136C52.7131 62.7136 56.8517 62.9504 56.8804 62.5742C56.9301 61.8982 48.3731 61.0721 48.3731 61.0721L47.7061 64.3709Z" fill="#FDBCA0"/>
<path d="M48.9878 61.1379C48.9878 61.1379 52.2787 59.9383 52.611 60.1987C52.9432 60.4592 51.1591 61.7719 51.1591 61.7719L48.9878 61.1379Z" fill="#FDBCA0"/>
<path d="M39.2797 57.6102H22.2442C22.0637 57.6102 21.9565 57.7575 22.0062 57.9391L24.9701 68.7692C25.0198 68.9507 25.2056 69.098 25.3861 69.098H42.4216C42.6021 69.098 42.7093 68.9507 42.6596 68.7692L39.6957 57.9391C39.6486 57.7575 39.4603 57.6102 39.2797 57.6102Z" fill="#E7DFC2"/>
<path d="M41.3802 68.9666L38.8636 59.7753C38.8217 59.6201 38.6621 59.4965 38.5104 59.4965H24.0543C23.8999 59.4965 23.811 59.6201 23.8529 59.7753L26.3695 68.9666C26.3669 68.9613 26.3852 69.0271 26.4061 69.0955H41.4194L41.3802 68.9666Z" fill="#F7F4E3"/>
<path d="M23.4814 58.4231C23.4814 58.6467 23.3009 58.8256 23.0812 58.8256C22.8588 58.8256 22.6809 58.6441 22.6809 58.4231C22.6809 58.2021 22.8614 58.0206 23.0812 58.0206C23.3009 58.0206 23.4814 58.2021 23.4814 58.4231Z" fill="#405050"/>
<path d="M23.2671 58.4231C23.2671 58.5257 23.1834 58.6099 23.0814 58.6099C22.9793 58.6099 22.8956 58.5257 22.8956 58.4231C22.8956 58.3205 22.9793 58.2363 23.0814 58.2363C23.1834 58.2363 23.2671 58.3205 23.2671 58.4231Z" fill="#576E6E"/>
<path d="M38.1916 59.6227H23.7354C23.5811 59.6227 23.4922 59.7463 23.534 59.9015L26.0506 69.0928C26.048 69.0823 26.1291 69.3717 26.1291 69.3717H41.1398L41.064 69.0928L38.5473 59.9015C38.5029 59.7463 38.3459 59.6227 38.1916 59.6227Z" fill="#EBB254"/>
<path d="M41.0612 69.0928L39.4419 63.174H24.4286L26.0479 69.0928C26.0453 69.0822 26.1264 69.3716 26.1264 69.3716H41.1371L41.0612 69.0928Z" fill="#FEDEA6"/>
<path d="M38.2201 70.7948H23.2173L26.1341 69.3717H41.137L38.2201 70.7948Z" fill="#EBB254"/>
<path d="M57.3511 42.1213L87.935 37.01C88.4346 36.9258 88.8898 37.3204 88.8872 37.836L88.7564 57.3498C88.7538 57.7443 88.4817 58.0811 88.1024 58.16L58.2667 64.3682C57.5342 64.5418 56.6631 64.0735 56.6631 62.9924V42.942C56.6657 42.5369 56.9561 42.1897 57.3511 42.1213Z" fill="#FEDEA6"/>
<path d="M58.735 42.0659L87.935 37.1967C88.4346 37.1125 88.8898 37.5045 88.8872 38.0148L88.7616 57.3813C88.759 57.7706 88.4869 58.1047 88.1076 58.1836L59.0332 64.1892C58.5257 64.2944 58.0496 63.9051 58.0496 63.3816V42.8814C58.0522 42.4737 58.3399 42.1317 58.735 42.0659Z" fill="#FAC978"/>
<path d="M71.9327 52.2201L70.2401 61.8691L79.438 59.9698L71.9327 52.2201Z" fill="#EBB254"/>
<path d="M71.5506 69.8792L67.5141 68.5008C66.8679 68.2798 66.9072 67.3486 67.569 67.1829L74.4125 65.4598C74.5329 65.4309 74.6558 65.4335 74.7735 65.4677L78.7473 66.662C79.4039 66.8593 79.396 67.7958 78.7368 67.9826L71.9561 69.8897C71.8227 69.9266 71.6814 69.9239 71.5506 69.8792Z" fill="#EBB254"/>
<path d="M77.5886 51.2994C77.5101 50.9364 77.1622 50.7022 76.7986 50.768L72.4926 51.5519C72.1708 51.6098 71.9354 51.8913 71.9301 52.2201L71.7496 69.9477L81.0103 67.3407L77.5886 51.2994ZM76.4872 65.0837C75.1897 65.2179 73.9837 63.8052 73.7927 61.927C73.6018 60.0514 74.4991 58.4204 75.7966 58.2889C77.0942 58.1547 78.3001 59.5673 78.4911 61.4456C78.6821 63.3212 77.7848 64.9495 76.4872 65.0837Z" fill="#FEDEA6"/>
<path d="M75.1665 19.4693C70.7846 19.4693 67.219 15.8838 67.219 11.4776C67.219 7.07134 70.7846 3.48584 75.1665 3.48584C79.5483 3.48584 83.1139 7.07134 83.1139 11.4776C83.1139 15.8838 79.5483 19.4693 75.1665 19.4693ZM75.1665 5.75078C72.0246 5.75078 69.4688 8.32087 69.4688 11.4802C69.4688 14.6396 72.0246 17.2096 75.1665 17.2096C78.3083 17.2096 80.8642 14.6396 80.8642 11.4802C80.8642 8.32087 78.3083 5.75078 75.1665 5.75078Z" fill="#F5E2D5"/>
<path d="M72.1892 13.4951L71.8361 12.8296L74.8471 11.2223L76.1185 6.43726L76.8431 6.63192L75.488 11.7353L72.1892 13.4951Z" fill="#F5E2D5"/>
</g>
<defs>
<clipPath id="clip0_73_956">
<rect width="98.9222" height="71.2575" fill="white" transform="translate(0.241089 0.544922)"/>
</clipPath>
</defs>
</svg>
