<svg width="126" height="111" viewBox="0 0 126 111" fill="none" xmlns="http://www.w3.org/2000/svg">
<path fill-rule="evenodd" clip-rule="evenodd" d="M39.408 27.9369C41.2501 32.2321 44.9991 33.7367 48.2324 33.0005C50.7729 32.4219 54.0802 27.0868 53.9634 24.6229C53.6142 17.2322 45.4929 3.1526 41.0732 2.21741C37.5023 4.97237 36.4904 21.1318 39.408 27.9369Z" fill="#FEDEA6"/>
<path d="M46.6459 33.3664C45.4594 33.3664 44.2788 33.0799 43.2103 32.522C41.4884 31.6225 40.1135 30.0627 39.2335 28.0106C37.8701 24.83 37.2503 19.2879 37.618 13.5456C37.9071 9.01916 38.9363 3.62656 40.9565 2.06676L41.0259 2.0127L41.1114 2.0311C45.6329 2.98815 53.7981 17.1276 54.152 24.6126C54.2746 27.2031 50.8968 32.5853 48.2741 33.1835C47.7387 33.3065 47.1917 33.3664 46.6459 33.3664ZM41.1207 2.42105C39.548 3.72894 38.3546 7.98044 37.9973 13.5697C37.6342 19.2568 38.2413 24.7334 39.5827 27.8622C41.1415 31.4971 44.0521 32.9833 46.6817 32.9833C47.1998 32.9833 47.7063 32.9258 48.1908 32.8154C50.625 32.2609 53.8895 27.0455 53.775 24.6299C53.6154 21.2422 51.7398 16.0555 48.8812 11.092C46.0781 6.22509 43.1166 2.92028 41.1207 2.42105Z" fill="#F5C371"/>
<path d="M41.196 2.15436L40.8264 2.23938L47.9879 33.0233L48.3574 32.9383L41.196 2.15436Z" fill="#F9CF88"/>
<path d="M43.8891 14.0299L43.5826 13.8067C43.6058 13.7757 45.8977 10.6583 47.4391 8.60046L47.7433 8.82592C46.203 10.8827 43.9122 13.9988 43.8891 14.0299Z" fill="#F9CF88"/>
<path d="M48.4682 10.2236L43.9813 15.467L44.2702 15.7116L48.757 10.4681L48.4682 10.2236Z" fill="#F9CF88"/>
<path d="M37.7476 17.6833L37.562 18.0123L45.6026 22.5008L45.7883 22.1717L37.7476 17.6833Z" fill="#F9CF88"/>
<path d="M53.1891 21.0181L46.7897 27.5028L47.0603 27.7671L53.4597 21.2823L53.1891 21.0181Z" fill="#F9CF88"/>
<path d="M38.1446 22.868L38.0116 23.2213L46.5312 26.395L46.6642 26.0416L38.1446 22.868Z" fill="#F9CF88"/>
<path d="M42.8819 10.9298C42.2228 10.3317 40.4859 8.74653 38.6022 6.9348L38.8658 6.66333C40.7461 8.47046 42.4807 10.0533 43.1387 10.6503L42.8819 10.9298Z" fill="#F9CF88"/>
<path fill-rule="evenodd" clip-rule="evenodd" d="M39.8487 23.8593C39.1537 23.1587 38.3974 22.4559 37.5938 21.7588C30.1351 15.2896 18.6302 9.33217 14.3944 10.6757C12.1707 16.0131 21.2425 34.8205 28.8538 40.5708C33.6586 44.2 38.8068 43.5052 41.9452 40.6364C42.4714 40.1555 42.9409 39.6126 43.3433 39.0202C45.3404 36.0754 45.6723 31.8734 42.9825 27.6553C42.2054 26.4336 41.1311 25.1511 39.8487 23.8593Z" fill="#FEDEA6"/>
<path d="M35.6949 43.2348C33.3197 43.2348 30.9226 42.3698 28.7393 40.7214C25.1996 38.047 20.9938 32.2345 17.7652 25.5501C15.2281 20.299 12.9639 13.6158 14.2186 10.6032L14.2521 10.5226L14.3365 10.4962C16.3706 9.85086 20.1115 10.7826 24.8689 13.1189C29.3371 15.3136 34.0205 18.4114 37.7175 21.6173C38.5339 22.3258 39.2959 23.0356 39.9828 23.7269C41.3196 25.0728 42.3823 26.3599 43.1432 27.5528C45.6329 31.4581 45.7659 35.7832 43.5005 39.1248C43.0923 39.7276 42.6113 40.2832 42.0736 40.7743C40.4269 42.2789 38.2818 43.1509 36.0303 43.2291C35.9193 43.2325 35.8071 43.2348 35.6949 43.2348ZM14.5366 10.8298C13.5895 13.296 14.9506 18.8542 18.1063 25.3868C21.3107 32.0194 25.4737 37.7801 28.9683 40.4201C33.8598 44.1148 38.9455 43.121 41.8168 40.4971C42.3337 40.0243 42.794 39.4918 43.186 38.9143C45.3646 35.7015 45.2282 31.5305 42.8229 27.7553C42.077 26.5854 41.0305 25.3189 39.7134 23.9926C39.0334 23.3082 38.2783 22.6042 37.4688 21.9025C30.3536 15.73 18.8453 9.59204 14.5366 10.8298Z" fill="#F5C371"/>
<path d="M14.5345 10.5479L14.2546 10.8026L41.8076 40.7646L42.0875 40.5099L14.5345 10.5479Z" fill="#F5C371"/>
<path d="M16.544 22.5421L16.5302 22.1648C19.842 22.0395 24.8295 21.8957 24.8793 21.8945L24.8897 22.2718C24.8399 22.2741 19.8548 22.4179 16.544 22.5421Z" fill="#F5C371"/>
<path d="M26.3617 23.5247L17.5128 24.4326L17.5517 24.8079L26.4006 23.9L26.3617 23.5247Z" fill="#F5C371"/>
<path d="M33.3121 18.5232L32.2339 30.2609L32.6116 30.2952L33.6898 18.5576L33.3121 18.5232Z" fill="#F5C371"/>
<path d="M37.1294 35.251L25.5659 37.2689L25.6315 37.6406L37.195 35.6226L37.1294 35.251Z" fill="#F5C371"/>
<path d="M38.535 22.7218L35.7104 34.0071L36.0785 34.0982L38.9031 22.813L38.535 22.7218Z" fill="#F5C371"/>
<path d="M21.8982 19.0659C21.7421 17.9364 21.3189 14.9525 20.7661 11.6615L21.1408 11.5994C21.6947 14.895 22.1191 17.8834 22.2752 19.0153L21.8982 19.0659Z" fill="#F5C371"/>
<path fill-rule="evenodd" clip-rule="evenodd" d="M100.779 85.0843C96.1739 84.1709 92.81 86.4014 91.5958 89.4715C90.6417 91.8837 93.202 97.611 95.3124 98.9062C101.641 102.792 117.909 104.072 121.181 100.97C120.91 96.4837 108.073 86.5302 100.779 85.0843Z" fill="#FEDEA6"/>
<path d="M112.93 102.896C106.815 102.896 99.1446 101.482 95.2129 99.0673C92.9949 97.7054 90.4347 91.8929 91.4199 89.4025C92.0606 87.7829 93.2713 86.4382 94.8278 85.618C96.5462 84.7116 98.6161 84.4642 100.817 84.9002C104.226 85.5754 109.174 88.197 113.731 91.7399C117.324 94.5328 121.218 98.422 121.371 100.962L121.377 101.049L121.314 101.11C120.017 102.334 116.782 102.896 112.93 102.896ZM98.7607 85.0682C95.1724 85.0682 92.7116 87.164 91.7715 89.5405C90.8579 91.8526 93.3419 97.4765 95.4106 98.7464C98.312 100.527 103.674 101.915 109.408 102.371C115.03 102.817 119.444 102.251 120.984 100.894C120.786 98.8637 117.932 95.4841 113.496 92.0355C108.983 88.5271 104.095 85.9343 100.742 85.2695C100.049 85.1314 99.3874 85.0682 98.7607 85.0682Z" fill="#F5C371"/>
<path d="M91.7196 89.2608L91.5815 89.6122L121.166 101.113L121.304 100.762L91.7196 89.2608Z" fill="#F5C371"/>
<path d="M111.931 102.716C111.095 100.29 109.802 96.6505 109.789 96.6137L110.146 96.4883C110.159 96.5251 111.452 100.166 112.289 102.594L111.931 102.716Z" fill="#F5C371"/>
<path d="M108.541 95.8739L108.175 95.9729L109.993 102.617L110.359 102.518L108.541 95.8739Z" fill="#F5C371"/>
<path d="M110.056 89.1749L101.792 93.2424L101.96 93.5806L110.224 89.5131L110.056 89.1749Z" fill="#F5C371"/>
<path d="M96.9728 91.3899L96.6007 91.4629L98.3689 100.378L98.7411 100.305L96.9728 91.3899Z" fill="#F5C371"/>
<path d="M105.483 86.5952L98.0406 91.7994L98.2588 92.1081L105.701 86.9038L105.483 86.5952Z" fill="#F5C371"/>
<path d="M113.017 97.9031L112.93 97.5362C113.801 97.3314 116.102 96.8 118.661 96.2766L118.737 96.6459C116.184 97.1681 113.886 97.6995 113.017 97.9031Z" fill="#F5C371"/>
<path fill-rule="evenodd" clip-rule="evenodd" d="M99.9703 79.5272C96.0074 82.0314 95.1239 85.955 96.3786 89.0102C97.365 91.4097 103.193 93.792 105.618 93.2778C112.893 91.7376 125.543 81.4827 125.754 76.9919C122.442 73.9333 106.248 75.5598 99.9703 79.5272Z" fill="#FEDEA6"/>
<path d="M104.849 93.5378C102.034 93.5378 97.1255 91.3235 96.2039 89.0816C95.5424 87.47 95.4835 85.6664 96.0385 84.003C96.6514 82.1671 97.9755 80.5648 99.8696 79.3685C102.803 77.5142 108.201 76.0084 113.957 75.4379C118.494 74.9881 124.01 75.1239 125.885 76.8539L125.95 76.9137L125.945 77.0012C125.728 81.5943 113.026 91.9021 105.658 93.4619C105.416 93.5137 105.144 93.5378 104.849 93.5378ZM118.302 75.5863C116.978 75.5863 115.531 75.6611 113.994 75.8129C108.294 76.3777 102.959 77.8627 100.073 79.6871C96.0593 82.2235 95.4141 86.1621 96.5554 88.939C97.5002 91.2384 103.202 93.5965 105.58 93.0927C108.914 92.3864 113.755 89.7051 118.217 86.0943C122.591 82.5536 125.39 79.1108 125.561 77.0713C124.432 76.1051 121.802 75.5863 118.302 75.5863Z" fill="#F5C371"/>
<path d="M125.689 76.7507L96.3142 88.77L96.4585 89.1189L125.833 77.0997L125.689 76.7507Z" fill="#F5C371"/>
<path d="M120.28 84.6104C117.99 83.4313 114.528 81.6886 114.493 81.6702L114.664 81.3331C114.699 81.3504 118.162 83.0942 120.453 84.2745L120.28 84.6104Z" fill="#F5C371"/>
<path d="M113.081 81.998L112.885 82.3212L118.813 85.8763L119.009 85.5531L113.081 81.998Z" fill="#F5C371"/>
<path d="M109.512 76.1021L106.362 84.7213L106.718 84.8502L109.869 76.231L109.512 76.1021Z" fill="#F5C371"/>
<path d="M101.595 86.7017L101.376 87.0103L108.846 92.241L109.065 91.9324L101.595 86.7017Z" fill="#F5C371"/>
<path d="M104.419 77.3937L102.652 86.2703L103.024 86.3436L104.791 77.4671L104.419 77.3937Z" fill="#F5C371"/>
<path d="M117.722 80.3842L117.404 80.1783C117.891 79.4329 119.185 77.467 120.673 75.3286L120.985 75.5437C119.5 77.6787 118.209 79.6399 117.722 80.3842Z" fill="#F5C371"/>
<path fill-rule="evenodd" clip-rule="evenodd" d="M53.159 38.9684C20.5503 27.1872 4.21093 34.4629 0.411537 58.4179C-3.38785 82.3729 19.5052 105.417 53.1592 110.109C80.1166 113.867 107.507 96.9684 112.036 57.0934C116.565 17.2184 85.7677 50.7496 53.159 38.9684Z" fill="#F5C371"/>
<path fill-rule="evenodd" clip-rule="evenodd" d="M49.0574 38.725C48.7591 38.7768 48.4619 38.8343 48.1647 38.8941C47.4027 39.0459 46.6429 39.2116 45.8866 39.3887C44.8262 39.6372 43.7716 39.9087 42.7251 40.2077C41.5317 40.5482 40.3476 40.9244 39.1819 41.3511C37.9354 41.8078 36.6946 42.3254 35.5185 42.942C35.4942 42.9546 35.4653 42.9454 35.4526 42.9213C35.4399 42.8971 35.4491 42.8684 35.4734 42.8557C36.6529 42.2357 37.8972 41.7169 39.1484 41.2591C40.3152 40.8323 41.5028 40.455 42.6973 40.1134C43.745 39.8143 44.802 39.5417 45.8635 39.2932C46.6209 39.1161 47.3818 38.9493 48.1451 38.7986C48.4422 38.74 48.7406 38.6813 49.0401 38.6295C49.0667 38.6249 49.0921 38.6422 49.0968 38.6686C49.1025 38.6951 49.084 38.7204 49.0574 38.725Z" fill="white"/>
<path d="M35.4961 42.9727C35.4695 42.9727 35.4441 42.9589 35.4302 42.9335C35.4209 42.9163 35.4186 42.8967 35.4244 42.8772C35.4302 42.8588 35.4429 42.8427 35.4603 42.8335C36.5241 42.2744 37.7268 41.7522 39.1387 41.2357C40.2419 40.8319 41.4041 40.4569 42.69 40.09C43.7053 39.8001 44.7715 39.524 45.8573 39.2698C46.6355 39.0881 47.4034 38.9213 48.14 38.7752C48.4094 38.7211 48.724 38.6602 49.035 38.6061C49.0547 38.6027 49.0744 38.6073 49.0905 38.6188C49.1067 38.6303 49.1171 38.6475 49.1206 38.6659C49.1241 38.6855 49.1195 38.705 49.1079 38.7211C49.0963 38.7372 49.079 38.7476 49.0605 38.751C48.754 38.804 48.4395 38.8661 48.1689 38.919C47.4334 39.0651 46.6679 39.2307 45.892 39.4136C44.8096 39.6667 43.7457 39.9428 42.7316 40.2326C41.448 40.5996 40.2905 40.9734 39.1908 41.3749C37.7858 41.8891 36.5889 42.409 35.5308 42.9646C35.5204 42.9692 35.5077 42.9727 35.4961 42.9727ZM49.0489 38.6533C49.0478 38.6533 49.0466 38.6533 49.0443 38.6533C48.7332 38.7073 48.4198 38.7683 48.1504 38.8224C47.4149 38.9684 46.6483 39.1352 45.87 39.317C44.7853 39.5712 43.7203 39.8473 42.705 40.1372C41.4203 40.5041 40.2593 40.8791 39.1572 41.2817C37.7476 41.7982 36.5461 42.3193 35.4845 42.8772C35.4788 42.8795 35.4753 42.8852 35.473 42.891C35.4707 42.8967 35.4718 42.9036 35.4741 42.9094C35.4799 42.9209 35.495 42.9255 35.5065 42.9186C36.5669 42.3618 37.7661 41.8408 39.1734 41.3254C40.2743 40.9228 41.433 40.549 42.7177 40.182C43.733 39.8921 44.7969 39.6161 45.8804 39.363C46.6575 39.1813 47.4242 39.0145 48.1597 38.8684C48.4302 38.8143 48.7448 38.7533 49.0524 38.6993C49.0582 38.6981 49.0639 38.6947 49.0674 38.6901C49.0709 38.6855 49.072 38.6786 49.0709 38.6728C49.0697 38.6671 49.0663 38.6613 49.0616 38.6579C49.0582 38.6544 49.0535 38.6533 49.0489 38.6533Z" fill="white"/>
<path fill-rule="evenodd" clip-rule="evenodd" d="M78.4095 28.067C80.9663 23.6464 82.6893 19.0119 83.2201 17.5038C83.3912 15.7795 80.4922 10.2788 80.4922 10.2788C77.9551 10.4122 69.1411 10.8091 65.325 10.1373C65.325 10.1373 62.9452 8.76502 61.0834 10.3087C59.2217 11.8524 62.4283 13.9793 62.4283 13.9793L49.049 38.6762C56.6348 47.4576 63.1175 42.6551 63.1175 42.6551L65.0487 36.8921C69.4695 38.7682 73.4614 35.4082 76.5847 30.9439C77.1363 30.0731 77.77 29.0597 78.4095 28.067Z" fill="#FDBCA0"/>
<path fill-rule="evenodd" clip-rule="evenodd" d="M69.2382 100.734L65.6002 105.667L82.014 105.736C78.3598 102.787 69.2382 100.734 69.2382 100.734Z" fill="#FDBCA0"/>
<path fill-rule="evenodd" clip-rule="evenodd" d="M78.4095 28.0669C77.8417 29.0493 77.2323 30.0201 76.5859 30.945C74.7195 33.8966 74.1528 35.8981 74.1528 36.7218C74.1528 37.5454 74.5703 40.2083 74.5703 40.2083L79.4629 40.1048C79.4629 40.1048 79.4629 37.4764 79.8758 36.1731C80.2897 34.8698 82.9101 23.6877 82.0821 23.5497C81.8902 23.5175 81.5918 23.7406 81.2229 24.1375C81.2357 24.1456 80.9246 24.4803 80.7407 24.7034C80.0585 25.5604 79.2282 26.797 78.4095 28.0669Z" fill="#FDBCA0"/>
<path fill-rule="evenodd" clip-rule="evenodd" d="M61.8767 1.87121C52.9112 6.94748 35.4961 42.8978 35.4961 42.8978C40.827 40.0979 49.0489 38.6762 49.0489 38.6762L62.4283 13.9793C62.4283 13.9793 59.2216 11.8524 61.0834 10.3087C62.9452 8.76496 65.325 10.1373 65.325 10.1373C69.1411 10.809 77.955 10.411 80.4921 10.2787C80.4921 10.2787 83.3912 15.7795 83.22 17.5038C82.6881 19.0118 80.9662 23.6475 78.4095 28.067C79.9359 25.6985 81.5005 23.4531 82.0833 23.5497C82.9113 23.6866 80.2898 34.8698 79.8769 36.1731C79.4629 37.4764 79.4641 40.1048 79.4641 40.1048L80.4979 40.083C80.4979 40.083 81.0067 44.7831 81.6161 51.5043C81.9018 54.6469 82.2082 58.2324 82.4961 61.9847C83.4791 60.7205 85.6334 57.7332 85.7398 55.7248C85.8774 53.1182 88.3602 31.7134 87.257 17.1702C86.1526 2.62581 79.8769 3.65533 79.8769 3.65533C79.8769 3.65533 70.8421 -3.20505 61.8767 1.87121Z" fill="#3F4553"/>
<path fill-rule="evenodd" clip-rule="evenodd" d="M76.5858 30.9451C73.4624 35.4094 69.4706 38.7694 65.0497 36.8933L63.1185 42.6562C63.1185 42.6562 71.0594 45.5734 72.8484 49.4142C73.467 43.8664 74.0152 40.2211 74.0152 40.2211L74.5714 40.2096C74.5714 40.2096 74.1539 37.5455 74.1539 36.723C74.1528 35.8983 74.7183 33.8967 76.5858 30.9451Z" fill="#3F4553"/>
<path fill-rule="evenodd" clip-rule="evenodd" d="M32.1854 87.9952C30.8093 87.8733 29.3974 87.7744 27.9519 87.6996C28.8735 86.7069 30.1779 84.1762 31.5633 81.0842C31.7471 83.1847 32.0328 86.325 32.1854 87.9952ZM33.0492 44.4737C28.3589 48.3157 7.11732 81.2453 14.5656 97.4357C14.5656 97.4357 20.3591 103.199 65.6003 105.668L69.2383 100.735L70.153 99.4948C70.153 99.4948 67.0989 97.3679 61.2326 94.9097C61.2326 94.9097 62.7278 91.6428 64.4693 87.7272C64.4693 87.7272 70.7057 99.221 76.3604 102.376C68.8486 95.1064 71.1232 64.8754 72.8485 49.4154C71.0607 45.5745 63.1187 42.6574 63.1187 42.6574C63.1187 42.6574 56.636 47.4598 49.0501 38.6785C49.0501 38.6785 40.8282 40.1002 35.4973 42.9001C34.5745 43.382 33.7396 43.9077 33.0492 44.4737Z" fill="#63A6DC"/>
<path fill-rule="evenodd" clip-rule="evenodd" d="M72.8473 49.4142C71.122 64.8742 68.8474 95.1052 76.3593 102.375C76.3593 102.375 82.014 107.04 83.3935 93.32C84.0746 86.5435 83.3762 73.4773 82.495 61.9858C82.2071 58.2335 81.9006 54.648 81.615 51.5054C81.0056 44.7842 80.4968 40.0841 80.4968 40.0841L79.463 40.106L74.5703 40.2095L74.0141 40.221C74.0141 40.221 73.466 43.8663 72.8473 49.4142Z" fill="#63A6DC"/>
<path fill-rule="evenodd" clip-rule="evenodd" d="M65.7852 59.0043C66.0211 59.8256 66.2547 60.6469 66.4871 61.4694C66.9925 63.2581 67.492 65.0491 67.9789 66.8436C68.4276 68.4919 68.8693 70.1449 69.2775 71.8037C69.4255 72.4076 69.5712 73.0161 69.6973 73.6257C69.7401 73.8351 69.7817 74.0456 69.8141 74.2561C69.8337 74.3849 69.8557 74.5287 69.8557 74.6598C69.8557 74.799 69.8014 74.9923 69.7644 75.1269C69.6904 75.3914 69.6001 75.6537 69.5088 75.9125C69.2278 76.7074 68.9121 77.4953 68.5952 78.2764C68.172 79.3174 67.736 80.3527 67.2943 81.3856C66.7982 82.5474 66.294 83.7058 65.7875 84.8618C65.3654 85.8246 64.9399 86.7863 64.512 87.7468C64.5016 87.771 64.4727 87.7825 64.4472 87.7721C64.423 87.7617 64.4114 87.733 64.4218 87.7077C64.8485 86.7472 65.2741 85.7855 65.6961 84.8227C66.2038 83.6667 66.7068 82.5083 67.2029 81.3465C67.6435 80.3136 68.0806 79.2794 68.5027 78.2384C68.8196 77.4585 69.1341 76.6717 69.4151 75.8792C69.5065 75.6227 69.5955 75.3615 69.6684 75.1004C69.7031 74.9773 69.7563 74.7887 69.7563 74.6598C69.7563 74.5345 69.7354 74.3953 69.7158 74.271C69.6834 74.0617 69.6418 73.8523 69.599 73.6453C69.4741 73.0368 69.3284 72.4306 69.1804 71.8267C68.7733 70.1691 68.3304 68.5161 67.8829 66.8689C67.3949 65.0756 66.8965 63.2845 66.3911 61.4958C66.1587 60.6734 65.9263 59.8521 65.6892 59.0307C65.6823 59.0054 65.6973 58.9778 65.7227 58.9709C65.7517 58.964 65.7783 58.979 65.7852 59.0043Z" fill="#A7D1F3"/>
<path d="M64.4682 87.7997C64.4578 87.7997 64.4486 87.7974 64.4382 87.7928C64.4011 87.7767 64.3838 87.733 64.4 87.6951C64.8533 86.677 65.2696 85.7338 65.6743 84.8101C66.2363 83.5275 66.7301 82.391 67.1811 81.3351C67.7003 80.1192 68.1143 79.1311 68.4808 78.2281C68.7699 77.5161 69.103 76.6879 69.3921 75.87C69.4788 75.6238 69.5702 75.3593 69.6453 75.0924C69.68 74.9682 69.732 74.783 69.732 74.6587C69.732 74.5333 69.7101 74.3896 69.6916 74.2734C69.6569 74.0514 69.6141 73.8328 69.5759 73.6488C69.4487 73.0345 69.2996 72.4122 69.1573 71.8313C68.7457 70.1553 68.29 68.4575 67.8599 66.8735C67.4135 65.2297 66.9255 63.4721 66.3681 61.5005C66.1484 60.7229 65.9114 59.8854 65.6662 59.0365C65.6604 59.0181 65.6628 58.9974 65.6732 58.9801C65.6824 58.9629 65.6986 58.9502 65.7171 58.9445C65.7356 58.9387 65.7564 58.941 65.7738 58.9514C65.7911 58.9606 65.8038 58.9767 65.8096 58.9951C66.0594 59.8613 66.3045 60.7275 66.5115 61.4602C67.0678 63.4295 67.5557 65.1872 68.0033 66.8344C68.4346 68.4195 68.8902 70.1185 69.3019 71.7956C69.4453 72.3777 69.5944 73.0023 69.7216 73.6177C69.7598 73.8041 69.8037 74.0249 69.8384 74.2492C69.8558 74.3631 69.8801 74.5195 69.8801 74.6564C69.8801 74.8002 69.8246 74.9981 69.7876 75.1292C69.7112 75.4007 69.6199 75.6675 69.532 75.916C69.2417 76.7373 68.9076 77.5678 68.6185 78.281C68.2519 79.1852 67.8379 80.1733 67.3175 81.3903C66.8642 82.4497 66.3716 83.5873 65.8096 84.8676C65.4049 85.789 64.9886 86.7334 64.5341 87.7526C64.5237 87.7836 64.4971 87.7997 64.4682 87.7997ZM65.7391 58.9939C65.7368 58.9939 65.7345 58.994 65.7321 58.9951C65.7264 58.9974 65.7206 59.0008 65.7183 59.0066C65.7148 59.0124 65.7148 59.0181 65.716 59.0239C65.9611 59.8739 66.1982 60.7102 66.4179 61.4889C66.9752 63.4606 67.4632 65.2182 67.9096 66.862C68.3398 68.446 68.7954 70.1438 69.2071 71.8209C69.3493 72.4018 69.4996 73.0241 69.6257 73.6396C69.6638 73.8248 69.7078 74.0433 69.7425 74.2665C69.761 74.3838 69.7829 74.5287 69.7829 74.6587C69.7829 74.7899 69.7297 74.9785 69.695 75.1039C69.6187 75.3742 69.5274 75.6399 69.4406 75.8872C69.1504 76.7063 68.8174 77.5356 68.5283 78.2477C68.1617 79.1518 67.7477 80.1388 67.2285 81.3558C66.7763 82.4129 66.2837 83.5494 65.7217 84.832C65.317 85.7557 64.8995 86.6989 64.4474 87.7169C64.4416 87.7284 64.4474 87.7422 64.459 87.748C64.4705 87.7526 64.4844 87.748 64.4902 87.7365C64.9435 86.7173 65.3609 85.7729 65.7645 84.8515C66.3254 83.5724 66.8191 82.4347 67.2713 81.3753C67.7916 80.1583 68.2045 79.1702 68.5722 78.2661C68.8613 77.5529 69.1955 76.7235 69.4857 75.9033C69.5736 75.656 69.665 75.3892 69.7413 75.12C69.7771 74.9912 69.8315 74.7979 69.8315 74.6599C69.8315 74.5264 69.8072 74.3723 69.7899 74.2607C69.7552 74.0376 69.7112 73.8167 69.6731 73.6315C69.5459 73.0161 69.3967 72.3926 69.2533 71.8106C68.8416 70.1335 68.386 68.4356 67.9547 66.8505C67.5072 65.2044 67.0192 63.4468 66.463 61.4774C66.256 60.7447 66.0108 59.8785 65.761 59.0124C65.7599 59.0066 65.7553 59.002 65.7495 58.9986C65.7472 58.9951 65.7425 58.9939 65.7391 58.9939Z" fill="#A7D1F3"/>
<path fill-rule="evenodd" clip-rule="evenodd" d="M28.0582 87.656C33.2377 87.924 38.4009 88.536 43.489 89.5321C48.443 90.5018 53.3437 91.8385 58.0756 93.5927C59.8345 94.2449 61.5737 94.9558 63.2805 95.7322C64.5572 96.3131 65.8176 96.932 67.0527 97.5968C67.8344 98.0179 68.608 98.4573 69.3631 98.9243C69.6372 99.0945 69.9159 99.2694 70.1807 99.4534C70.1922 99.4615 70.1992 99.4718 70.2003 99.4856C70.2026 99.4994 70.1992 99.5109 70.1911 99.5224L65.6396 105.697C65.6234 105.719 65.5933 105.724 65.5713 105.708C65.5494 105.691 65.5447 105.662 65.5609 105.64L70.0835 99.5052C69.8326 99.3326 69.5701 99.167 69.3111 99.0071C68.5583 98.5412 67.7858 98.1018 67.0064 97.682C65.7737 97.0182 64.5144 96.4005 63.2401 95.8208C61.5355 95.0443 59.7987 94.3346 58.0421 93.6835C53.3148 91.9316 48.4187 90.5973 43.4705 89.6276C38.3558 88.6257 33.166 88.0126 27.9588 87.748C27.953 87.7492 27.9472 87.748 27.9414 87.7468C26.4717 87.6721 25.0019 87.6249 23.531 87.6054C23.5044 87.6054 23.4824 87.5824 23.4824 87.5559C23.4824 87.5294 23.5055 87.5076 23.5321 87.5076C24.9996 87.5271 26.4659 87.5743 27.9322 87.6491C28.1346 87.4282 28.3173 87.1786 28.4861 86.9324C28.7151 86.5965 28.9278 86.2469 29.1314 85.8949C29.6575 84.9827 30.1339 84.0314 30.5884 83.0824C31.1435 81.9229 31.6696 80.7484 32.1796 79.5682C32.7358 78.2822 33.2747 76.9881 33.802 75.6894C35.0081 72.7205 36.1599 69.7263 37.2781 66.7229C37.7915 65.3414 38.3026 63.9576 38.7964 62.5691C38.8057 62.5438 38.8334 62.53 38.8589 62.5392C38.8843 62.5484 38.8982 62.576 38.8889 62.6014C38.3952 63.9898 37.8852 65.3747 37.3706 66.7562C36.2524 69.7608 35.1006 72.755 33.8945 75.7262C33.3672 77.0249 32.8283 78.3202 32.2709 79.6062C31.7598 80.7864 31.2337 81.962 30.6786 83.1227C30.223 84.0739 29.7454 85.0275 29.2181 85.942C29.0134 86.2963 28.8006 86.6483 28.5694 86.9865C28.4109 87.2154 28.2421 87.4466 28.0582 87.656Z" fill="#A7D1F3"/>
<path fill-rule="evenodd" clip-rule="evenodd" d="M65.3145 10.1857C65.3099 10.1846 65.3053 10.1834 65.3007 10.18C65.1758 10.1075 65.0312 10.0442 64.8994 9.98902C64.5756 9.85444 64.2333 9.75206 63.8887 9.68995C62.8827 9.5082 61.9148 9.68535 61.1157 10.3479C60.7792 10.6274 60.5445 10.9806 60.5503 11.4292C60.556 11.8801 60.8035 12.3184 61.0729 12.6669C61.3308 13.0016 61.6465 13.3065 61.9726 13.5745C62.1252 13.701 62.2906 13.8299 62.456 13.9391C62.4779 13.9541 62.4849 13.984 62.4698 14.007C62.4548 14.0289 62.4247 14.0358 62.4016 14.0208C62.2328 13.9092 62.0651 13.7781 61.9102 13.6493C61.5783 13.3755 61.258 13.0661 60.9955 12.7256C60.3618 11.9054 60.1652 11.0093 61.0533 10.272C61.8743 9.59102 62.8723 9.40697 63.9061 9.59332C64.2576 9.65659 64.6068 9.76127 64.9376 9.89815C65.0717 9.95336 65.2163 10.0178 65.3435 10.0902C65.8153 10.1731 66.2928 10.2294 66.7693 10.2743C67.3382 10.3284 67.9095 10.3652 68.4796 10.3928C69.7712 10.4549 71.0676 10.4721 72.3604 10.4687C74.3748 10.4641 76.3927 10.41 78.406 10.3272C79.0975 10.2985 79.7901 10.2685 80.4817 10.2317C80.4886 10.2306 80.4944 10.2294 80.5013 10.2306C80.7303 10.2179 80.9581 10.2053 81.1859 10.1915C81.2125 10.1903 81.2356 10.2099 81.2379 10.2375C81.2391 10.2639 81.2194 10.2869 81.1917 10.2892C80.9858 10.3019 80.7789 10.3134 80.573 10.3249C80.758 10.6781 80.9361 11.0358 81.1119 11.3935C81.5178 12.2206 81.9063 13.058 82.2625 13.9069C82.5412 14.5718 82.8083 15.2562 83.0141 15.9464C83.1205 16.3041 83.2512 16.7861 83.2755 17.2048C83.3009 17.1312 83.3264 17.0564 83.3506 16.9828C83.3587 16.9575 83.3865 16.9437 83.4119 16.9518C83.4374 16.9598 83.4513 16.9874 83.4432 17.0127C83.3877 17.1818 83.3287 17.3509 83.2685 17.5189C83.2685 17.52 83.2685 17.52 83.2674 17.5212C83.2639 17.5304 83.257 17.5384 83.2489 17.5442C83.2396 17.5499 83.2292 17.5534 83.2177 17.5522C83.213 17.5522 83.2084 17.5511 83.2049 17.5488C83.1957 17.5453 83.1876 17.5384 83.1818 17.5304C83.176 17.5212 83.1726 17.5108 83.1737 17.4993C83.1945 17.2853 83.1668 17.0484 83.1309 16.8367C83.0812 16.5469 83.0049 16.257 82.9205 15.9752C82.7146 15.2884 82.4498 14.6063 82.1723 13.9449C81.8173 13.0971 81.4287 12.2609 81.024 11.4361C80.8425 11.0657 80.6574 10.6953 80.4666 10.3307C79.7821 10.3675 79.0952 10.3974 78.4106 10.425C76.3962 10.5078 74.3771 10.5619 72.3615 10.5665C71.0675 10.5699 69.7689 10.5527 68.4761 10.4906C67.9037 10.4629 67.3313 10.4261 66.7612 10.3721C66.279 10.3261 65.7956 10.2697 65.3192 10.1857C65.3157 10.1857 65.3157 10.1857 65.3145 10.1857Z" fill="white"/>
<path d="M83.2201 17.5775C83.2178 17.5775 83.2155 17.5775 83.212 17.5775C83.2051 17.5763 83.1981 17.5752 83.1923 17.5729C83.1785 17.5671 83.1657 17.5579 83.1576 17.5441C83.1484 17.5303 83.1438 17.5131 83.1461 17.497C83.1634 17.321 83.1495 17.1116 83.1033 16.8413C83.0593 16.5882 82.9934 16.3156 82.894 15.9832C82.7182 15.3942 82.4881 14.7696 82.147 13.9563C81.8209 13.1799 81.4462 12.3597 80.9998 11.4487C80.8518 11.1473 80.6564 10.7528 80.4494 10.3582C79.8596 10.3893 79.2294 10.418 78.4095 10.4525C76.1893 10.5434 74.2096 10.5894 72.3593 10.594C70.8549 10.5975 69.6199 10.5733 68.4727 10.5181C67.8367 10.487 67.2759 10.4491 66.7567 10.3996C66.1935 10.3467 65.7344 10.2869 65.3123 10.2133H65.3089C65.3019 10.2121 65.2938 10.2087 65.2881 10.2052C65.1528 10.127 64.9955 10.0591 64.8891 10.0154C64.5595 9.87852 64.2207 9.77845 63.8831 9.71748C62.8273 9.52653 61.8756 9.75199 61.1309 10.3697C60.7562 10.6803 60.5689 11.0369 60.5746 11.4314C60.5793 11.8053 60.7539 12.2159 61.0915 12.6542C61.324 12.9556 61.6258 13.2593 61.9877 13.5583C62.1739 13.7113 62.3266 13.8275 62.4688 13.9218C62.485 13.9322 62.4966 13.9494 62.5 13.969C62.5035 13.9885 62.5 14.0081 62.4896 14.0242C62.4665 14.0576 62.4202 14.0668 62.3867 14.0449C62.2398 13.9471 62.0826 13.8287 61.8929 13.6722C61.5217 13.3662 61.213 13.0545 60.9736 12.7439C60.2231 11.7719 60.2439 10.9115 61.0349 10.2558C61.8143 9.60935 62.8076 9.37354 63.9085 9.57139C64.2566 9.63466 64.6058 9.73704 64.9446 9.87852C65.1134 9.94869 65.243 10.0097 65.3493 10.0706C65.7633 10.1431 66.2155 10.2018 66.7694 10.2535C67.284 10.3018 67.8437 10.3409 68.4785 10.3709C69.6222 10.4261 70.8549 10.4491 72.357 10.4468C74.2049 10.4422 76.1823 10.3962 78.4014 10.3053C79.234 10.2708 79.8735 10.242 80.4771 10.2098C80.4818 10.2075 80.4922 10.2075 80.5014 10.2087C80.7246 10.196 80.9524 10.1834 81.1814 10.1696C81.201 10.1684 81.2207 10.1753 81.2346 10.188C81.2496 10.2006 81.2589 10.219 81.26 10.2386C81.2623 10.2788 81.2311 10.3145 81.1906 10.3168C80.9975 10.3283 80.8044 10.3398 80.6101 10.3501C80.7639 10.6446 80.9258 10.9667 81.1305 11.3854C81.578 12.2976 81.9538 13.1201 82.2811 13.9011C82.6246 14.7201 82.857 15.3505 83.0339 15.9429C83.1253 16.2477 83.2455 16.6849 83.286 17.0852C83.2976 17.0495 83.3103 17.0138 83.3219 16.9782C83.3276 16.9598 83.3415 16.9448 83.3589 16.9356C83.3762 16.9264 83.397 16.9253 83.4155 16.931C83.434 16.9368 83.4491 16.9506 83.4583 16.9678C83.4676 16.9851 83.4687 17.0058 83.4629 17.0242C83.4063 17.1956 83.3461 17.3681 83.2883 17.5303C83.2814 17.5476 83.2721 17.5591 83.2582 17.5683C83.249 17.5729 83.2351 17.5775 83.2201 17.5775ZM80.4795 10.3041L80.4876 10.3191C80.698 10.7194 80.8958 11.1208 81.0461 11.4257C81.4925 12.3367 81.8683 13.158 82.1944 13.9356C82.5367 14.7512 82.7668 15.3781 82.9437 15.9682C83.0432 16.303 83.1102 16.5779 83.1542 16.8332C83.2016 17.1093 83.2155 17.321 83.1981 17.5027C83.1981 17.5085 83.1993 17.5131 83.2016 17.5177C83.2039 17.5223 83.2085 17.5246 83.2132 17.5269L83.2201 17.528C83.227 17.528 83.2317 17.5269 83.2351 17.5246C83.2397 17.5223 83.2421 17.5177 83.2444 17.5131C83.3022 17.3497 83.3623 17.1783 83.419 17.0058C83.4213 17 83.4201 16.9931 83.4178 16.9874C83.4155 16.9816 83.4097 16.977 83.404 16.9759C83.3982 16.9736 83.3912 16.9747 83.3855 16.977C83.3797 16.9793 83.375 16.9851 83.3739 16.9908C83.3496 17.0656 83.3242 17.1392 83.2987 17.214L83.2571 17.3348L83.2502 17.2071C83.2259 16.7815 83.0894 16.288 82.99 15.9544C82.813 15.3632 82.5818 14.7351 82.2395 13.9172C81.9122 13.1373 81.5364 12.316 81.09 11.405C80.8773 10.9702 80.7107 10.64 80.5523 10.3363L80.5338 10.3018L80.5731 10.2995C80.779 10.288 80.986 10.2765 81.1918 10.2639C81.2045 10.2627 81.2149 10.2524 81.2138 10.2386C81.2138 10.2328 81.2103 10.2271 81.2057 10.2225C81.201 10.2179 81.1953 10.2156 81.1883 10.2167C80.9605 10.2305 80.7316 10.2432 80.5037 10.2558C80.4957 10.2547 80.4922 10.2547 80.4899 10.2558C79.8816 10.2892 79.2421 10.3179 78.4084 10.3524C76.1881 10.4433 74.2107 10.4893 72.3617 10.4939C70.8584 10.4974 69.6245 10.4732 68.4797 10.418C67.8437 10.387 67.284 10.349 66.7682 10.2995C66.2109 10.2466 65.7576 10.188 65.3401 10.1155L65.332 10.112C65.2268 10.0522 65.0984 9.99125 64.9296 9.92108C64.5931 9.7819 64.2485 9.67952 63.9039 9.61741C62.818 9.4207 61.8386 9.65422 61.0719 10.2903C60.104 11.0932 60.5087 12.048 61.0175 12.7083C61.2546 13.0154 61.561 13.3248 61.9288 13.6285C62.1173 13.7838 62.2734 13.9023 62.4179 13.9977C62.4283 14.0047 62.4434 14.0023 62.4503 13.9908C62.4538 13.9851 62.4549 13.9793 62.4538 13.9736C62.4526 13.9678 62.4491 13.9621 62.4434 13.9586C62.3 13.8632 62.145 13.747 61.9577 13.5917C61.5923 13.2903 61.2881 12.9832 61.0534 12.6795C60.7076 12.232 60.5307 11.811 60.5261 11.4268C60.5203 11.0173 60.7146 10.6469 61.1008 10.326C61.8571 9.69908 62.8227 9.47017 63.8946 9.66342C64.2358 9.72438 64.578 9.82676 64.9111 9.9648C65.0186 10.0097 65.1782 10.0775 65.3158 10.158C65.3181 10.1592 65.3204 10.1603 65.3228 10.1603C65.7448 10.2351 66.2016 10.2938 66.7636 10.3467C67.2817 10.395 67.8425 10.4341 68.4774 10.4652C69.6233 10.5204 70.8584 10.5445 72.3617 10.5411C74.2119 10.5365 76.1904 10.4905 78.4095 10.3996C79.2364 10.3663 79.87 10.3363 80.4644 10.3053L80.4795 10.3041Z" fill="#F0A38B"/>
<path fill-rule="evenodd" clip-rule="evenodd" d="M72.814 49.2352C73.0476 47.1555 73.3009 45.0781 73.5773 43.0041C73.701 42.0735 73.827 41.1417 73.967 40.2134C73.9704 40.1893 73.9901 40.172 74.0144 40.172L74.5139 40.1617C74.4203 39.5635 74.3347 38.9619 74.2572 38.3615C74.2179 38.0509 74.1797 37.7392 74.1497 37.4286C74.1265 37.1974 74.1034 36.9546 74.1034 36.7223C74.1034 36.4451 74.1589 36.1448 74.2225 35.8768C74.3231 35.4489 74.4654 35.0256 74.6226 34.6149C74.8412 34.049 75.0967 33.4957 75.3731 32.9562C75.7304 32.2603 76.1248 31.5816 76.5434 30.9202C76.5573 30.8972 76.5885 30.8903 76.6105 30.9052C76.6336 30.919 76.6405 30.9501 76.6255 30.9719C76.2092 31.6311 75.816 32.3063 75.4599 32.9999C75.1846 33.5371 74.9302 34.087 74.7128 34.6495C74.5567 35.0555 74.4156 35.4754 74.3162 35.8987C74.2549 36.1598 74.1994 36.4531 74.1994 36.7223C74.1994 36.9512 74.2225 37.1905 74.2445 37.4182C74.2746 37.7288 74.3127 38.0394 74.352 38.3488C74.4295 38.9527 74.5151 39.5578 74.6099 40.1594L80.4936 40.0352C80.519 40.0352 80.541 40.0536 80.5433 40.0789C80.6589 41.1475 80.7676 42.2173 80.8752 43.287C81.1516 46.0236 81.4129 48.7625 81.6615 51.5013C81.9784 54.9925 82.2733 58.4871 82.5415 61.9817C82.5439 62.0082 82.523 62.0323 82.4964 62.0335C82.4698 62.0358 82.4456 62.0151 82.4444 61.9886C82.1761 58.494 81.8812 55.0005 81.5644 51.5094C81.3158 48.7705 81.0544 46.0317 80.7781 43.2951C80.6717 42.2403 80.5641 41.1854 80.4508 40.1318L74.0537 40.2675C73.9161 41.182 73.7923 42.0999 73.6709 43.0156C73.3888 45.1402 73.1297 47.2682 72.8915 49.3986C72.8961 49.4124 72.8938 49.4262 72.8869 49.4377C72.858 49.6931 72.8302 49.9496 72.8025 50.2049C72.4336 53.5753 72.1144 56.9526 71.8543 60.3333C71.5571 64.196 71.3373 68.0679 71.2286 71.941C71.1396 75.1388 71.1269 78.3435 71.2379 81.5414C71.2911 83.0598 71.3732 84.5793 71.4946 86.0943C71.6091 87.516 71.7571 88.9355 71.956 90.3469C72.1376 91.6387 72.3619 92.927 72.6498 94.1992C72.9054 95.33 73.213 96.4561 73.6027 97.5501C74.2052 99.2433 75.0806 101.072 76.3907 102.341C76.4104 102.359 76.4104 102.391 76.3919 102.41C76.3734 102.43 76.3422 102.43 76.3225 102.411C75.0008 101.132 74.1184 99.2916 73.5102 97.5834C73.1193 96.4861 72.8106 95.3565 72.5539 94.2211C72.2659 92.9454 72.0416 91.6548 71.8589 90.3607C71.66 88.947 71.5108 87.5252 71.3975 86.1023C71.2761 84.5862 71.194 83.0655 71.1408 81.546C71.0286 78.347 71.0425 75.14 71.1315 71.9398C71.2391 68.0656 71.4599 64.1926 71.7571 60.3276C72.0173 56.9457 72.3353 53.5673 72.7053 50.1957C72.7343 49.9358 72.7632 49.6758 72.7921 49.4158C72.0948 47.9354 70.5209 46.6678 69.183 45.7763C67.8994 44.9205 66.5048 44.1843 65.1021 43.5424C64.6292 43.3262 64.1504 43.1191 63.6682 42.9235C63.4797 42.8476 63.2901 42.7717 63.0993 42.7015C63.0738 42.6923 63.0611 42.6647 63.0704 42.6394L64.9923 36.904C64.8223 36.7016 64.6604 36.4796 64.5077 36.2656C64.0903 35.6801 63.7075 35.0647 63.3571 34.4355C62.2193 32.3914 61.404 30.1483 60.9993 27.8454C60.9947 27.819 61.012 27.7937 61.0386 27.7891C61.0652 27.7845 61.0906 27.8017 61.0953 27.8282C61.4988 30.1196 62.3106 32.3535 63.4427 34.3872C63.7908 35.0118 64.1712 35.6249 64.5875 36.2081C64.7436 36.4267 64.9102 36.6556 65.0848 36.8603C65.0906 36.8672 65.094 36.8741 65.0952 36.8822C65.0963 36.8902 65.0963 36.8983 65.094 36.9075L63.1779 42.6256C63.3548 42.6912 63.5306 42.7614 63.7052 42.8327C64.1886 43.0282 64.6685 43.2364 65.1438 43.4527C66.5522 44.0969 67.9515 44.8353 69.2385 45.6935C70.5522 46.57 72.0786 47.7962 72.814 49.2352Z" fill="#F0A38B"/>
<path d="M76.3592 102.449C76.3396 102.449 76.3211 102.442 76.3072 102.428C75.182 101.339 74.2604 99.757 73.4891 97.591C73.1283 96.5764 72.8149 95.4756 72.5328 94.2264C72.2633 93.0335 72.0355 91.7693 71.8378 90.3637C71.6493 89.0247 71.4978 87.6317 71.3752 86.103C71.2584 84.6524 71.1752 83.1616 71.1185 81.5455C71.0144 78.5789 71.011 75.4363 71.1093 71.9382C71.211 68.2768 71.4157 64.4785 71.7349 60.3248C71.9869 57.0441 72.3061 53.6347 72.6831 50.193C72.7108 49.9353 72.7397 49.6776 72.7687 49.42C72.2067 48.2329 70.9971 47.0147 69.1723 45.7965C67.9951 45.0109 66.6606 44.2816 65.0949 43.5649C64.6104 43.3429 64.1282 43.1347 63.6621 42.9472C63.491 42.8782 63.2909 42.7977 63.0944 42.7252C63.0562 42.7114 63.0365 42.6689 63.0504 42.6309L64.9677 36.9082C64.8 36.708 64.6393 36.4872 64.4901 36.279C64.0912 35.7199 63.7038 35.1034 63.3384 34.4465C62.1739 32.3553 61.3806 30.1352 60.9782 27.8484C60.9747 27.8289 60.9793 27.8093 60.9909 27.7932C61.0025 27.7771 61.0198 27.7668 61.0383 27.7633C61.0788 27.7564 61.1169 27.7829 61.1239 27.8231C61.5228 30.0927 62.3115 32.2978 63.4679 34.3741C63.831 35.0263 64.2149 35.6371 64.6115 36.1927C64.7665 36.4101 64.9342 36.639 65.1076 36.8438C65.1157 36.853 65.1215 36.8645 65.1238 36.8771C65.1261 36.8898 65.1261 36.9036 65.1215 36.9151L63.2135 42.6102C63.373 42.67 63.5315 42.7333 63.7188 42.808C64.186 42.9967 64.6705 43.206 65.1573 43.4292C66.73 44.1481 68.0714 44.882 69.2556 45.6723C70.9982 46.8341 72.1905 48.0028 72.7999 49.1485C73.0358 47.0503 73.2902 44.9821 73.5538 43.0001C73.666 42.1558 73.7978 41.1758 73.9435 40.2095C73.9493 40.1739 73.9794 40.1474 74.0152 40.1463L74.4859 40.1359C74.3945 39.5516 74.3101 38.9557 74.2338 38.3633C74.1852 37.9895 74.1528 37.7019 74.1263 37.4293C74.1054 37.2211 74.08 36.9611 74.08 36.7207C74.08 36.486 74.1182 36.2157 74.1991 35.8694C74.2893 35.4841 74.4211 35.0711 74.6004 34.6041C74.8039 34.0761 75.0502 33.532 75.352 32.9431C75.6908 32.2805 76.0748 31.6145 76.5234 30.9048C76.5338 30.8887 76.55 30.8772 76.5697 30.8726C76.5894 30.868 76.609 30.8714 76.6252 30.8818C76.6425 30.8921 76.6541 30.9082 76.6576 30.9278C76.6622 30.9473 76.6587 30.9669 76.6483 30.983C76.202 31.6881 75.8215 32.3507 75.4838 33.0098C75.1843 33.5953 74.9404 34.1337 74.738 34.657C74.5611 35.1172 74.4315 35.5244 74.3425 35.9028C74.2639 36.2387 74.2269 36.4987 74.2269 36.7207C74.2269 36.9542 74.2511 37.1992 74.272 37.4143C74.2986 37.6835 74.3321 37.9699 74.3795 38.3437C74.4558 38.9407 74.5414 39.5424 74.6339 40.1325L80.4956 40.0082C80.5338 40.0071 80.5673 40.0358 80.5708 40.0738C80.691 41.1896 80.8055 42.3146 80.9027 43.282C81.1709 45.9438 81.4358 48.7079 81.689 51.4974C82.0163 55.1082 82.3123 58.6338 82.569 61.9789C82.5702 61.9985 82.5644 62.018 82.5517 62.033C82.5389 62.0479 82.5204 62.0571 82.5008 62.0583C82.4811 62.0594 82.4615 62.0537 82.4464 62.041C82.4314 62.0284 82.4222 62.01 82.421 61.9904C82.1643 58.6442 81.8682 55.1185 81.541 51.5112C81.2877 48.7194 81.0229 45.9564 80.7546 43.2981C80.6598 42.3525 80.5477 41.2528 80.4297 40.1589L74.0777 40.2935C73.9366 41.2367 73.8071 42.1949 73.6984 43.0209C73.4255 45.073 73.163 47.2183 72.919 49.3981C72.9225 49.4142 72.9213 49.4315 72.9132 49.4464C72.8843 49.7006 72.8565 49.9548 72.8288 50.2091C72.4518 53.6508 72.1327 57.0579 71.8806 60.3363C71.5614 64.4877 71.3579 68.2837 71.2561 71.9428C71.159 75.4374 71.1624 78.5777 71.2654 81.5409C71.322 83.1547 71.4053 84.6444 71.5221 86.0926C71.6447 87.6179 71.795 89.0086 71.9835 90.3441C72.1812 91.7452 72.4079 93.0048 72.6762 94.1942C72.9572 95.4376 73.2694 96.5327 73.6279 97.5415C74.3807 99.6558 75.3162 101.264 76.4101 102.322C76.424 102.336 76.4321 102.354 76.4321 102.374C76.4321 102.393 76.4251 102.412 76.4113 102.427C76.3985 102.441 76.38 102.449 76.3592 102.449C76.3604 102.449 76.3604 102.449 76.3592 102.449ZM61.0487 27.8139C61.0476 27.8139 61.0464 27.8139 61.0441 27.8139C61.0383 27.8151 61.0325 27.8185 61.0291 27.8231C61.0256 27.8289 61.0244 27.8346 61.0256 27.8404C61.4269 30.1214 62.219 32.3357 63.3811 34.4224C63.7454 35.0769 64.1328 35.6923 64.5306 36.2502C64.6809 36.4619 64.844 36.685 65.014 36.8875L65.0232 36.8978L65.0186 36.9116L63.0967 42.647C63.092 42.6597 63.099 42.6723 63.1105 42.6769C63.3083 42.7494 63.5083 42.8299 63.6795 42.8989C64.1455 43.0876 64.6289 43.2958 65.1146 43.5178C66.6838 44.2344 68.0194 44.966 69.2001 45.7528C71.0364 46.9779 72.2529 48.2052 72.8172 49.4027L72.8207 49.4096L72.8195 49.4165C72.7906 49.6765 72.7617 49.9364 72.7328 50.1964C72.3558 53.6381 72.0367 57.0464 71.7846 60.3271C71.4654 64.4797 71.2607 68.2779 71.159 71.9382C71.0618 75.4351 71.0653 78.5766 71.1682 81.542C71.2249 83.1582 71.3093 84.6478 71.4249 86.0984C71.5475 87.6248 71.6978 89.0178 71.8863 90.3556C72.0841 91.7601 72.3107 93.022 72.5813 94.2137C72.8635 95.4606 73.1757 96.5603 73.5365 97.5726C74.3043 99.7305 75.2225 101.306 76.3419 102.39C76.3465 102.395 76.3511 102.399 76.3592 102.397C76.365 102.397 76.372 102.395 76.3754 102.39C76.38 102.385 76.3824 102.38 76.3824 102.373C76.3824 102.367 76.38 102.36 76.3754 102.357C75.2607 101.278 74.3471 99.7075 73.5816 97.5565C73.222 96.5454 72.9097 95.448 72.6276 94.2034C72.3581 93.0128 72.1315 91.7521 71.9338 90.3487C71.7453 89.0121 71.5949 87.6202 71.4724 86.0938C71.3567 84.6444 71.2723 83.1547 71.2156 81.5397C71.1116 78.5754 71.1081 75.434 71.2064 71.9382C71.3081 68.2791 71.5128 64.482 71.832 60.3294C72.0841 57.0499 72.4032 53.6427 72.7802 50.1999C72.808 49.9445 72.8369 49.688 72.8646 49.4326L72.8681 49.4223C72.8716 49.4165 72.8727 49.4096 72.8704 49.4039L72.8693 49.3993L72.8704 49.3935C73.1144 47.2114 73.3769 45.0638 73.6498 43.0105C73.7608 42.1788 73.8904 41.2114 74.0326 40.2613L74.0361 40.2406H74.0569L80.4771 40.1048L80.4794 40.1279C80.5985 41.231 80.7107 42.3387 80.8067 43.2912C81.075 45.9495 81.3398 48.7137 81.593 51.5055C81.9203 55.1128 82.2163 58.6396 82.473 61.9858C82.473 61.9916 82.4765 61.9973 82.4811 62.0019C82.4857 62.0065 82.4915 62.0077 82.4985 62.0077C82.5043 62.0077 82.51 62.0042 82.5147 61.9996C82.5193 61.995 82.5204 61.9893 82.5204 61.9824C82.2637 58.6385 81.9677 55.1116 81.6404 51.502C81.3872 48.7125 81.1224 45.9495 80.8541 43.2877C80.757 42.3203 80.6425 41.1953 80.5222 40.0795C80.5211 40.0669 80.5106 40.06 80.4979 40.0588L74.5911 40.1842L74.5876 40.1624C74.494 39.5654 74.4073 38.9557 74.3298 38.3506C74.2812 37.9768 74.2488 37.6892 74.2222 37.4201C74.2014 37.2026 74.1771 36.9565 74.1771 36.7207C74.1771 36.4941 74.2141 36.2306 74.2939 35.8913C74.383 35.5106 74.5136 35.1011 74.6917 34.6386C74.8941 34.1141 75.1392 33.5735 75.4399 32.9868C75.7776 32.3277 76.1592 31.6628 76.6067 30.9565C76.6102 30.9508 76.6113 30.945 76.6102 30.9393C76.609 30.9335 76.6055 30.9278 76.5998 30.9243C76.594 30.9209 76.5882 30.9197 76.5824 30.9209C76.5766 30.922 76.5708 30.9255 76.5674 30.9312C76.1199 31.6398 75.7371 32.3047 75.3983 32.9649C75.0965 33.5527 74.8513 34.0945 74.6489 34.6214C74.4697 35.0849 74.339 35.4968 74.2488 35.8798C74.1679 36.2226 74.1309 36.4895 74.1309 36.7195C74.1309 36.9576 74.1563 37.2153 74.1771 37.4235C74.2037 37.695 74.2373 37.9825 74.2847 38.3564C74.3622 38.958 74.4477 39.5631 74.5402 40.1566L74.5449 40.1854L74.0164 40.1969C74.0048 40.1969 73.9956 40.2049 73.9933 40.2164C73.8476 41.1827 73.7157 42.1627 73.6036 43.007C73.3364 45.0143 73.0797 47.1102 72.8404 49.2371L72.8311 49.321L72.7929 49.2463C72.1986 48.0856 70.9994 46.8974 69.2267 45.716C68.0448 44.9269 66.7057 44.1953 65.1354 43.4775C64.6485 43.2555 64.1652 43.0462 63.698 42.8575C63.5026 42.7781 63.3384 42.7126 63.1718 42.6516L63.1487 42.6436L63.1568 42.6205L65.0718 36.9001C65.0729 36.8967 65.0729 36.8921 65.0729 36.8886C65.0718 36.8852 65.0706 36.8817 65.0683 36.8783C64.8937 36.6724 64.7249 36.4423 64.5699 36.2237C64.1733 35.667 63.787 35.0539 63.4239 34.4005C62.2652 32.3185 61.4743 30.1088 61.0742 27.8335C61.0707 27.822 61.0603 27.8139 61.0487 27.8139Z" fill="#A7D1F3"/>
<path fill-rule="evenodd" clip-rule="evenodd" d="M78.716 16.9125C78.7842 17.0919 78.8663 17.2725 78.9472 17.4462C79.123 17.8212 79.3231 18.1951 79.5544 18.5402C79.692 18.7461 79.8435 18.9474 80.0158 19.1257C80.0343 19.1452 80.0331 19.1763 80.0146 19.1947C79.995 19.2131 79.9637 19.2131 79.9452 19.1935C79.7695 19.0106 79.6133 18.8047 79.4734 18.5942C79.2398 18.2445 79.0374 17.8672 78.8594 17.4876C78.7773 17.3116 78.6952 17.1287 78.6246 16.947C78.6154 16.9217 78.6281 16.8941 78.6524 16.8837C78.6778 16.8745 78.7056 16.8872 78.716 16.9125Z" fill="#3F4553"/>
<path d="M79.9799 19.3017C79.9788 19.3017 79.9776 19.3017 79.9765 19.3017C79.9383 19.3005 79.9024 19.2856 79.8759 19.258C79.714 19.0889 79.5555 18.8899 79.3936 18.646C79.1762 18.3205 78.9727 17.9547 78.7727 17.5268C78.6686 17.3059 78.5957 17.1368 78.5356 16.9792C78.5217 16.9436 78.5229 16.9045 78.5391 16.87C78.5553 16.8355 78.583 16.809 78.6189 16.7952C78.6547 16.7814 78.694 16.7825 78.7287 16.7987C78.7634 16.8148 78.79 16.8424 78.8039 16.878C78.8617 17.0287 78.9322 17.192 79.0328 17.406C79.2271 17.8213 79.4237 18.1744 79.633 18.4873C79.7868 18.7162 79.9337 18.9037 80.084 19.0601C80.1383 19.1176 80.1372 19.2085 80.0794 19.2626C80.0528 19.2879 80.0181 19.3017 79.9799 19.3017Z" fill="#3F4553"/>
<path fill-rule="evenodd" clip-rule="evenodd" d="M72.6103 14.8927C72.7837 14.9284 72.9583 14.9606 73.1329 14.9916C73.5111 15.0595 73.8927 15.1205 74.2731 15.1688C74.5218 15.1998 74.7727 15.2263 75.0236 15.2413C75.2202 15.2528 75.433 15.2585 75.6284 15.2355C75.655 15.2321 75.6793 15.2516 75.6828 15.2781C75.6862 15.3045 75.6666 15.3287 75.64 15.3321C75.4388 15.3563 75.2202 15.3494 75.0178 15.3379C74.7646 15.3241 74.5114 15.2965 74.2604 15.2654C73.8777 15.2171 73.4949 15.1561 73.1144 15.0883C72.9398 15.0572 72.7641 15.025 72.5894 14.9893C72.5628 14.9836 72.5455 14.9583 72.5513 14.9318C72.5582 14.9042 72.5848 14.887 72.6103 14.8927Z" fill="#3F4553"/>
<path d="M75.3312 15.4425C75.2214 15.4425 75.1127 15.4379 75.0144 15.4321C74.7877 15.4195 74.5449 15.3953 74.25 15.3585C73.8973 15.3136 73.5215 15.2561 73.0994 15.1802C72.9537 15.1538 72.7629 15.1192 72.5721 15.0801C72.4946 15.064 72.4449 14.9881 72.46 14.911C72.468 14.8731 72.49 14.8409 72.5224 14.8202C72.5548 14.7995 72.5929 14.7926 72.6299 14.7995C72.8103 14.8363 72.9942 14.8696 73.1503 14.8984C73.5666 14.9732 73.9378 15.0307 74.2859 15.0744C74.575 15.1112 74.8109 15.1342 75.0306 15.1457C75.2133 15.1561 75.4261 15.1641 75.6192 15.1411C75.6574 15.1365 75.6944 15.1469 75.7256 15.171C75.7556 15.1952 75.7753 15.2285 75.7799 15.2665C75.7892 15.3447 75.7325 15.416 75.6539 15.4252C75.5463 15.4379 75.4376 15.4425 75.3312 15.4425Z" fill="#3F4553"/>
<path fill-rule="evenodd" clip-rule="evenodd" d="M78.0289 21.8335C78.0323 21.9715 78.0474 22.1164 78.0647 22.2522C78.1017 22.5443 78.1642 22.8423 78.2648 23.1195C78.3527 23.3599 78.4799 23.6118 78.6684 23.789C78.688 23.8074 78.6892 23.8384 78.6707 23.858C78.6522 23.8776 78.621 23.8787 78.6013 23.8603C78.4001 23.6716 78.2659 23.4094 78.1723 23.1529C78.0694 22.8699 78.0058 22.5639 77.9676 22.2648C77.9491 22.1256 77.9341 21.9772 77.9306 21.8358C77.9294 21.8093 77.9514 21.7863 77.978 21.7863C78.0057 21.7851 78.0277 21.807 78.0289 21.8335Z" fill="#3F4553"/>
<path d="M78.6349 23.9672C78.5991 23.9672 78.5644 23.9546 78.5366 23.9281C78.3528 23.7556 78.2001 23.5048 78.0833 23.185C77.9874 22.9216 77.9168 22.6156 77.8729 22.2774C77.8509 22.1038 77.8382 21.9646 77.8359 21.8392C77.8347 21.8012 77.8486 21.7644 77.8752 21.7368C77.9018 21.7092 77.9376 21.6931 77.9758 21.6931C78.014 21.6908 78.051 21.7058 78.0787 21.7322C78.1065 21.7587 78.1227 21.7943 78.1238 21.8323C78.1261 21.9473 78.1377 22.0773 78.1585 22.2418C78.199 22.5604 78.2649 22.8445 78.3539 23.0884C78.4545 23.3668 78.5829 23.5796 78.7332 23.7211C78.791 23.7751 78.7934 23.866 78.739 23.9235C78.7112 23.9523 78.6731 23.9672 78.6349 23.9672Z" fill="#3F4553"/>
<path fill-rule="evenodd" clip-rule="evenodd" d="M70.0787 18.5034C70.1736 18.5748 70.2811 18.6426 70.3829 18.7047C70.6442 18.8635 70.9206 19.0038 71.2028 19.1223C72.0516 19.4812 72.9836 19.6606 73.9064 19.5571C73.933 19.5536 73.9573 19.5732 73.9608 19.5996C73.9643 19.6261 73.9446 19.6503 73.918 19.6537C72.979 19.7595 72.0308 19.5778 71.1658 19.212C70.879 19.0912 70.5991 18.9486 70.3332 18.7876C70.2291 18.7243 70.1181 18.6541 70.0209 18.5805C69.9989 18.5644 69.9955 18.5333 70.0117 18.5126C70.0267 18.4908 70.0568 18.4873 70.0787 18.5034Z" fill="#3F4553"/>
<path d="M73.3849 19.7768C72.6449 19.7768 71.8747 19.6146 71.1277 19.2982C70.8316 19.1729 70.5483 19.0279 70.2835 18.8669C70.1841 18.8059 70.0673 18.7335 69.9632 18.6552C69.8996 18.6069 69.888 18.5172 69.9354 18.4551C69.9586 18.4252 69.9921 18.4056 70.0303 18.3999C70.0684 18.3941 70.1066 18.4045 70.1366 18.4275C70.2303 18.4988 70.339 18.5667 70.4327 18.623C70.6848 18.776 70.9565 18.9152 71.2398 19.0348C72.1268 19.4098 73.045 19.5582 73.8949 19.4627C73.9331 19.4581 73.9701 19.4696 74.0001 19.4926C74.0302 19.5168 74.0487 19.5502 74.0533 19.5881C74.0626 19.6663 74.0059 19.7377 73.9273 19.7469C73.7492 19.7676 73.5677 19.7768 73.3849 19.7768Z" fill="#3F4553"/>
<path fill-rule="evenodd" clip-rule="evenodd" d="M68.8289 29.5773C69.0313 29.6716 69.2672 29.8948 69.4094 30.0593C69.857 30.5758 70.1102 31.2487 70.2351 31.9113C70.2397 31.9378 70.2224 31.9631 70.1958 31.9677C70.1692 31.9723 70.1437 31.955 70.1391 31.9286C70.0165 31.2832 69.7714 30.6252 69.3354 30.1226C69.2221 29.9914 69.0926 29.8683 68.9515 29.7671C68.903 29.7326 68.8428 29.6912 68.7885 29.6659C68.7642 29.6544 68.7538 29.6256 68.7653 29.6015C68.7746 29.5762 68.8047 29.5658 68.8289 29.5773Z" fill="#3F4553"/>
<path d="M70.1876 32.0619C70.1194 32.0619 70.0593 32.0136 70.0465 31.9457C69.9101 31.2268 69.6395 30.6171 69.2637 30.1835C69.1457 30.0477 69.022 29.9327 68.8959 29.8418C68.8566 29.8131 68.7977 29.7728 68.7479 29.7498C68.7132 29.7337 68.6866 29.7049 68.6739 29.6693C68.6612 29.6336 68.6624 29.5945 68.6785 29.56C68.6947 29.5255 68.7236 29.499 68.7595 29.4864C68.7953 29.4737 68.8347 29.4749 68.8693 29.491C69.0844 29.5911 69.3261 29.8177 69.4811 29.996C69.895 30.4745 70.1807 31.1118 70.3287 31.8917C70.3356 31.9296 70.3275 31.9676 70.3067 31.9987C70.2847 32.0297 70.2524 32.0516 70.2142 32.0585C70.2049 32.0619 70.1957 32.0619 70.1876 32.0619ZM68.8266 29.5795C68.8266 29.5795 68.8277 29.5795 68.8266 29.5795C68.8277 29.5795 68.8266 29.5795 68.8266 29.5795Z" fill="#3F4553"/>
<path fill-rule="evenodd" clip-rule="evenodd" d="M75.8886 23.7694C75.6573 24.5102 75.4145 25.251 75.1601 25.9849C74.9901 26.4761 74.8132 26.973 74.6143 27.4527C74.5461 27.6172 74.4732 27.7874 74.3876 27.9427C74.3529 28.006 74.2743 28.1498 74.1922 28.159C73.9586 28.1843 73.7192 28.0911 73.5238 27.9715C73.1468 27.7414 72.8173 27.3584 72.5617 27.0064C72.5455 26.9845 72.5513 26.9546 72.5721 26.9385C72.5941 26.9224 72.6241 26.9282 72.6403 26.9489C72.8878 27.2893 73.2104 27.6655 73.5747 27.8875C73.7516 27.9945 73.9702 28.0842 74.1806 28.0612C74.2153 28.0497 74.2951 27.9071 74.3125 27.8748C74.3957 27.7207 74.4663 27.5539 74.5333 27.3917C74.7288 26.9201 74.9011 26.4324 75.0687 25.9504C75.3232 25.2177 75.5648 24.478 75.7961 23.7384C75.8042 23.7131 75.832 23.6981 75.8574 23.7062C75.8828 23.7165 75.8967 23.7441 75.8886 23.7694Z" fill="#3F4553"/>
<path d="M74.1148 28.2591C73.9159 28.2591 73.6962 28.1889 73.4741 28.0543C73.1492 27.8565 72.8254 27.5321 72.4843 27.0639C72.4623 27.0329 72.4531 26.9949 72.4588 26.9581C72.4646 26.9201 72.4854 26.8868 72.5167 26.8649C72.5814 26.8189 72.6705 26.8327 72.7179 26.8971C73.0312 27.3273 73.3365 27.6345 73.6245 27.8105C73.7574 27.891 73.9529 27.983 74.1414 27.9727C74.1622 27.9462 74.1992 27.8887 74.2281 27.8335C74.3113 27.6793 74.383 27.5079 74.4455 27.3596C74.6467 26.8718 74.8259 26.3622 74.9786 25.924C75.226 25.2096 75.4712 24.4665 75.7048 23.7142C75.7163 23.6774 75.7406 23.6475 75.7753 23.6303C75.8088 23.6119 75.8482 23.6084 75.8852 23.6199C75.921 23.6314 75.9511 23.6556 75.9696 23.6901C75.9881 23.7234 75.9916 23.7626 75.98 23.7994C75.7452 24.554 75.4989 25.3005 75.2503 26.0172C75.0942 26.4692 74.9092 26.9926 74.7022 27.4907C74.634 27.654 74.56 27.8277 74.4709 27.9899C74.3981 28.1211 74.3171 28.2418 74.2038 28.2545C74.1737 28.2568 74.1448 28.2591 74.1148 28.2591Z" fill="#3F4553"/>
</svg>
