<svg width="155" height="117" viewBox="0 0 155 117" fill="none" xmlns="http://www.w3.org/2000/svg">
<g clip-path="url(#clip0_73_721)">
<path d="M144.472 50.8196H141.286V66.2005H144.472V50.8196Z" fill="#9BA3FF"/>
<path d="M149.465 55.9896H146.279V66.2003H149.465V55.9896Z" fill="#9BA3FF"/>
<path d="M154.465 60.8624H151.279V66.2006H154.465V60.8624Z" fill="#9BA3FF"/>
</g>
<g clip-path="url(#clip1_73_721)">
<path d="M73.8069 116.443C90.0451 116.443 103.209 114.24 103.209 111.523C103.209 108.806 90.0451 106.603 73.8069 106.603C57.5688 106.603 44.4052 108.806 44.4052 111.523C44.4052 114.24 57.5688 116.443 73.8069 116.443Z" fill="#808AFF"/>
</g>
<path d="M68.8484 47.6956C68.8484 47.6956 67.6966 59.9459 72.4677 59.7614C77.5856 59.5608 76.209 47.6956 76.209 47.6956C75.5401 45.7831 75.2737 44.649 75.5734 42.6429H69.3591C69.6589 44.649 69.5146 45.7831 68.8484 47.6956Z" fill="#FDBCA0"/>
<path d="M69.4839 45.0126C70.1889 45.2159 70.8994 45.4032 71.6349 45.462C72.3316 45.5182 73.0476 45.4754 73.7415 45.4032C74.3188 45.3416 74.9349 45.2427 75.5122 45.0581C75.4207 44.3306 75.4345 43.5816 75.5761 42.6401H69.3618C69.4978 43.5629 69.5394 44.3012 69.4839 45.0126Z" fill="#F0A38B"/>
<path d="M72.4674 44.3146C74.2409 44.3146 75.9478 43.6405 77.1968 42.4262C78.6845 40.9818 79.8502 39.3716 80.1915 37.4806C80.6301 35.0519 79.778 32.6259 77.9184 30.6733H67.0136C65.154 32.6232 64.302 35.0519 64.7405 37.4806C65.0819 39.3716 66.2504 40.9818 67.7352 42.4262C68.987 43.6379 70.6939 44.3146 72.4674 44.3146Z" fill="#FDBCA0"/>
<path d="M73.0089 49.1238C72.7841 49.3619 72.5732 49.6213 72.3734 49.8808C72.1319 49.7203 71.9404 49.5251 71.7295 49.3244C71.71 49.3057 71.6712 49.3244 71.6795 49.3512C71.7988 49.6668 72.0486 49.9236 72.304 50.1429C72.3595 50.1884 72.4372 50.1938 72.4927 50.1429C72.7619 49.8888 73.0256 49.5919 73.2337 49.287C73.3226 49.1613 73.1172 49.0088 73.0089 49.1238Z" fill="#DF8370"/>
<path d="M79.0095 48.6559C77.3525 48.7923 75.7178 49.0518 74.1052 49.4476C74.0081 49.4717 74.0497 49.6135 74.1468 49.5921C75.7511 49.2497 77.3719 49.017 79.0095 48.91C79.1815 48.8993 79.1788 48.6425 79.0095 48.6559Z" fill="#DF8370"/>
<path d="M65.9231 48.6559C67.5801 48.7923 69.2148 49.0518 70.8274 49.4476C70.9245 49.4717 70.8829 49.6135 70.7857 49.5921C69.1815 49.2497 67.5606 49.017 65.9231 48.91C65.7538 48.8993 65.7538 48.6425 65.9231 48.6559Z" fill="#DF8370"/>
<path d="M66.2088 26.6345C63.8913 27.9131 62.2593 29.9271 62.2316 32.634C62.2038 35.6859 66.0617 40.5459 66.009 40.4255C64.7267 37.4566 64.3909 33.3695 67.591 31.3234C67.9102 31.1201 68.3099 31.0024 68.5957 30.7643C68.5874 29.1515 67.6632 27.5894 66.2088 26.6345Z" fill="#3F4553"/>
<path d="M78.4983 26.6345C80.8158 27.9131 82.4478 29.9271 82.4756 32.634C82.5033 35.6859 80.6077 38.4008 78.7204 40.7064C79.2005 39.7007 80.3135 33.3669 77.1134 31.3234C76.7942 31.1201 76.3945 31.0024 76.1086 30.7643C76.1197 29.1515 77.0467 27.5894 78.4983 26.6345Z" fill="#424495"/>
<path d="M111.774 25.019C110.003 24.1711 107.935 23.9892 106.009 24.3664C105.077 24.5482 104.194 24.8665 103.353 25.2972C102.795 25.5807 102.229 25.9873 101.58 26.0354C100.791 26.0916 100.1 25.5967 99.5146 25.1581C97.6939 23.794 95.8427 22.5984 93.5002 22.2694C92.3678 22.1089 91.1022 22.2266 90.2251 22.8953C89.3259 21.7505 87.9853 20.9347 86.5088 20.6351C84.5548 20.2392 82.698 20.8036 81.1632 21.9377C80.2973 21.5285 78.7818 20.94 78.5903 20.8892C72.8174 19.3592 64.935 23.2403 65.9564 29.7854C66.8335 35.4104 74.2245 38.0103 79.3453 36.8548C80.4499 38.8689 83.0977 39.3369 85.1377 38.2884C85.2931 38.4035 85.4485 38.5185 85.6067 38.6308C88.8623 40.9311 92.6509 42.4263 96.7419 41.7469C98.2962 41.4874 99.7505 40.9471 101.088 40.1715C102.359 41.0916 104.033 41.3831 105.573 40.6716C106.72 40.1447 107.489 39.1711 107.763 38.0691C107.783 38.0691 107.802 38.0691 107.822 38.0691C111.224 38.029 114.832 36.4001 115.701 32.963C116.492 29.8389 114.732 26.4339 111.774 25.019Z" fill="#4E5567"/>
<path d="M96.3032 23.9999C97.4217 24.8799 98.085 26.0862 97.3884 27.4156C96.8222 28.4989 95.8036 29.2879 95.0626 30.2482C94.1938 31.3716 94.044 32.8132 95.4678 33.6344C96.8694 34.4422 98.6263 33.4365 99.7947 32.6742C101.238 31.73 102.787 28.9991 104.03 27.8275C109.553 22.6251 115.038 28.1859 115.06 28.2047C114.344 26.8512 113.2 25.7038 111.774 25.019C110.003 24.1711 107.935 23.9892 106.009 24.3664C105.076 24.5483 104.194 24.8666 103.353 25.2972C102.795 25.5807 102.229 25.9873 101.579 26.0354C100.791 26.0916 100.1 25.5968 99.5144 25.1581C97.6937 23.794 95.8425 22.5984 93.5 22.2694C92.3926 22.1142 91.1575 22.2266 90.2832 22.8578C92.1899 22.1437 94.7739 22.7936 96.3032 23.9999Z" fill="#3F4553"/>
<path d="M111.013 37.1865C109.661 37.3389 108.396 37.2667 107.152 36.7344C106.617 38.0745 105.52 39.4279 103.972 39.6392C102.931 39.781 101.701 39.468 101.488 38.4062C94.1715 44.1462 85.97 37.7428 85.179 36.5419C82.8976 37.9755 80.0222 36.2262 79.1701 33.9875C77.4327 34.6374 75.4288 34.4368 73.7413 33.7387C70.5967 32.4415 68.8537 28.8653 69.9528 25.7091C70.8687 23.0852 73.3084 21.2904 76.0117 20.5602C70.7411 20.5308 65.0819 24.1792 65.9561 29.7854C66.8332 35.4104 74.2215 38.0103 79.345 36.8548C80.4496 38.8689 83.0974 39.337 85.1374 38.2885C85.2928 38.4035 85.4483 38.5185 85.6065 38.6308C88.8621 40.9311 92.6506 42.4263 96.7416 41.7469C98.2959 41.4875 99.7502 40.9472 101.088 40.1715C102.359 41.0916 104.033 41.3832 105.573 40.6717C106.719 40.1448 107.488 39.1711 107.763 38.0691C107.782 38.0691 107.802 38.0691 107.821 38.0691C109.445 38.0504 111.113 37.6679 112.512 36.903C112.021 37.0447 111.51 37.1303 111.013 37.1865Z" fill="#3F4553"/>
<path d="M70.5192 38.9144C69.5477 39.0696 67.9685 39.1204 67.072 38.1949C66.8944 38.0103 66.6529 38.219 66.875 38.4035C66.911 38.433 66.9471 38.4597 66.9832 38.4865C66.8777 38.5159 66.7667 38.5292 66.6502 38.5212C66.6474 38.5212 66.6474 38.5239 66.6502 38.5266C66.7917 38.572 66.936 38.5854 67.0776 38.5587C67.0804 38.5613 67.0831 38.564 67.0859 38.564C66.9638 38.6416 66.8167 38.6737 66.6724 38.7192C66.6696 38.7192 66.6696 38.7218 66.6724 38.7245C66.85 38.7406 67.0359 38.7192 67.183 38.6282C67.1997 38.6389 67.2164 38.6443 67.233 38.655C67.122 38.7379 66.9971 38.7994 66.8555 38.8315C66.8417 38.8342 66.8444 38.8556 66.8583 38.8556C67.0387 38.8636 67.2108 38.8208 67.3551 38.7245C67.3857 38.7406 67.419 38.7539 67.4495 38.77C67.3468 38.8422 67.2413 38.9064 67.122 38.9599C67.1109 38.9652 67.1164 38.984 67.1275 38.984C67.2857 38.9893 67.4245 38.9117 67.5494 38.8208C67.5883 38.8395 67.6271 38.8529 67.6688 38.8689C67.616 38.9198 67.555 38.9679 67.4967 39.0161C67.4883 39.0241 67.4967 39.0348 67.5078 39.0348C67.6077 39.0107 67.6993 38.9706 67.777 38.9144C68.6679 39.2675 69.7115 39.2782 70.6052 38.9679C70.6996 38.9305 70.6274 38.8984 70.5192 38.9144Z" fill="#3F4553"/>
<path d="M74.5076 38.9144C75.479 39.0695 77.0582 39.1204 77.9547 38.1949C78.1323 38.0103 78.3738 38.219 78.1517 38.4035C78.1157 38.433 78.0796 38.4597 78.0435 38.4864C78.1517 38.5159 78.26 38.5292 78.3765 38.5212C78.3793 38.5212 78.3793 38.5239 78.3765 38.5266C78.235 38.572 78.0907 38.5854 77.9491 38.5587C77.9464 38.5613 77.9436 38.564 77.9408 38.564C78.0629 38.6416 78.21 38.6737 78.3543 38.7192C78.3571 38.7192 78.3571 38.7218 78.3543 38.7245C78.1767 38.7406 77.9908 38.7192 77.8437 38.6282C77.827 38.6389 77.8104 38.6443 77.7937 38.655C77.9047 38.7379 78.0296 38.7994 78.1712 38.8315C78.185 38.8342 78.1823 38.8556 78.1684 38.8556C77.988 38.8636 77.8159 38.8208 77.6716 38.7245C77.641 38.7406 77.6077 38.7539 77.5772 38.77C77.6799 38.8422 77.7854 38.9064 77.9047 38.9599C77.9158 38.9652 77.9103 38.984 77.8992 38.984C77.741 38.9893 77.6022 38.9117 77.4773 38.8208C77.4384 38.8395 77.3996 38.8529 77.3607 38.8689C77.4135 38.9198 77.4745 38.9679 77.5328 39.0161C77.5411 39.0241 77.5328 39.0348 77.5217 39.0348C77.4218 39.0107 77.3302 38.9706 77.2525 38.9144C76.3616 39.2675 75.318 39.2782 74.4215 38.9679C74.3299 38.9305 74.3993 38.8984 74.5076 38.9144Z" fill="#3F4553"/>
<path d="M73.1251 40.8644C72.6699 41.0918 72.2175 41.1827 71.7485 40.9099C71.7152 40.8912 71.6763 40.9366 71.7069 40.9634C72.1093 41.3084 72.8254 41.3967 73.2278 40.9928C73.2944 40.9233 73.2112 40.8216 73.1251 40.8644Z" fill="#3F4553"/>
<path d="M74.166 42.4422C73.597 42.6053 73.0363 42.6669 72.4812 42.6428C71.9261 42.6669 71.3655 42.6053 70.7965 42.4422C70.7827 42.4368 70.7716 42.4609 70.7854 42.4663C71.3322 42.6909 71.9067 42.8113 72.4812 42.8247C73.0558 42.8113 73.6303 42.6909 74.1771 42.4663C74.1909 42.4609 74.1798 42.4395 74.166 42.4422Z" fill="#3F4553"/>
<path d="M69.8723 40.225C69.8251 40.2036 69.7752 40.1849 69.7252 40.1715C69.0896 40.0137 68.3375 39.7141 67.6742 39.8238C67.2051 39.9013 67.0969 40.4497 67.3633 40.7733C67.6492 41.121 68.2098 41.22 68.6428 41.2521C69.0785 41.2842 69.7613 41.3297 70.086 41.0007C70.3802 40.7038 70.1804 40.3694 69.8723 40.225Z" fill="#FBAD8B"/>
<path d="M75.0678 40.225C75.115 40.2036 75.165 40.1849 75.2149 40.1715C75.8505 40.0137 76.6026 39.7141 77.266 39.8238C77.735 39.9013 77.8433 40.4497 77.5768 40.7733C77.2909 41.121 76.7303 41.22 76.2973 41.2521C75.8616 41.2842 75.1788 41.3297 74.8541 41.0007C74.5599 40.7038 74.7625 40.3694 75.0678 40.225Z" fill="#FBAD8B"/>
<path d="M64.0857 36.2208C63.4279 36.1272 62.7229 36.3893 62.8423 37.1409C62.9367 37.7401 63.6055 38.3365 64.6269 38.1573C64.3494 37.5368 64.1579 36.8842 64.0857 36.2208Z" fill="#F9CDB9"/>
<path d="M63.4501 36.8095C63.6305 36.6651 63.9109 36.6009 64.1523 36.6383C64.1384 36.5661 64.1301 36.4912 64.119 36.419C63.7887 36.3896 63.4002 36.5207 63.2114 36.7507C62.9172 37.1118 63.1393 37.513 63.464 37.7591C63.5112 37.7965 63.5778 37.7377 63.5334 37.6922C63.2975 37.4515 63.1337 37.0636 63.4501 36.8095Z" fill="#F8C4AB"/>
<path d="M64.2827 37.2105C64.1107 37.0607 63.8858 36.9778 63.6277 36.9885C63.5694 36.9911 63.5472 37.0848 63.6139 37.0928C63.8498 37.1249 64.0524 37.2426 64.1773 37.4245C64.0329 37.4994 63.9275 37.6625 64.0746 37.7962C64.1911 37.9032 64.3632 37.9273 64.527 37.9113C64.4354 37.6812 64.3493 37.4485 64.2827 37.2105Z" fill="#F8C4AB"/>
<path d="M64.0275 37.9835C64.0247 37.9809 64.0192 37.9835 64.0219 37.9862C64.1274 38.2376 64.2773 38.8261 63.9165 38.9464C63.675 39.0267 63.6528 38.7271 63.6889 38.5693C63.7222 38.4249 63.8054 38.2751 63.8748 38.1467C63.8748 38.1467 63.7083 38.1119 63.5556 38.037C63.3475 38.2082 63.2725 38.4623 63.3086 38.7298C63.3419 38.9732 63.5029 39.2406 63.7888 39.2487C64.0441 39.2567 64.2273 39.0454 64.2662 38.8207C64.3106 38.5292 64.1885 38.2216 64.0275 37.9835Z" fill="#FDCA27"/>
<path d="M117.139 84.0481C115.579 82.2587 112.204 82.1143 109.989 81.8923C103.331 81.2236 96.503 81.3894 89.8419 81.9083C86.5252 82.1678 83.2251 82.5556 79.939 83.0665C77.5604 83.4383 74.9043 83.6977 72.5285 84.4306C70.1527 83.6977 67.4966 83.4356 65.118 83.0665C61.8346 82.553 58.5318 82.1651 55.2151 81.9083C48.554 81.3894 41.7236 81.2236 35.068 81.8923C32.8559 82.1143 29.4782 82.2587 27.9184 84.0481C26.4113 85.776 28.2709 87.8703 29.703 88.9697C31.6819 90.4889 34.1937 91.2378 36.5917 91.8932C39.6031 92.7116 42.6839 93.268 45.7813 93.6906C59.6448 95.5736 67.1718 94.1854 74.4186 94.0998C74.6961 94.4395 74.957 94.7926 75.1957 95.159C82.5424 95.2045 91.979 94.6401 99.2729 93.6906C102.373 93.2867 105.451 92.7143 108.462 91.8932C110.863 91.2405 113.372 90.4916 115.351 88.9697C116.783 87.8703 118.643 85.776 117.139 84.0481Z" fill="#93BFA8"/>
<path d="M107.302 85.2865C107.533 85.003 108.929 84.6526 109.478 84.4172C106.889 84.6178 104.288 84.9174 101.704 85.1742C96.7887 85.661 91.8678 86.9154 87.2106 88.4855C84.9819 89.2371 82.7587 90.0262 80.5439 90.8179C78.7898 91.4438 77.0552 92.1285 75.4093 92.9818C75.6619 92.9069 75.9144 92.832 76.167 92.7598C78.7926 92.0162 89.492 86.4393 109.303 85.7519C108.845 85.6556 107.213 85.3962 107.302 85.2865Z" fill="#66A986"/>
<path d="M38.0461 84.8932C37.8157 84.6097 36.4197 84.2593 35.8701 84.0239C38.4596 84.2245 41.0602 84.5241 43.6442 84.7809C48.5596 85.2677 53.4805 86.5221 58.1377 88.0922C60.3664 88.8438 62.5896 89.6329 64.8044 90.4246C66.5585 91.0505 68.2931 91.7352 69.939 92.5885C69.6864 92.5136 69.4339 92.4387 69.1813 92.3665C66.5557 91.6229 55.8563 86.046 36.045 85.3586C36.5001 85.2623 38.1321 85.0029 38.0461 84.8932Z" fill="#66A986"/>
<path d="M79.2258 90.8074C78.11 90.3768 76.9305 90.3661 75.8452 90.8127C73.9912 91.5804 71.7181 90.4035 69.792 90.6148C68.0184 90.8101 66.9388 92.7546 68.296 93.9957C68.6235 94.2953 71.9152 95.4454 77.1303 93.1023C77.702 92.8456 78.2599 92.6985 78.9066 92.7065C79.0565 92.7092 79.198 92.8456 79.3562 92.8295C79.6948 92.7894 79.9724 92.7305 80.1611 92.4149C80.6052 91.6713 79.8641 91.0535 79.2258 90.8074Z" fill="#FDB597"/>
<path d="M66.2089 94.7525C67.1498 94.033 68.2794 93.6959 69.4478 93.827C71.4517 94.0517 73.2808 92.297 75.1903 91.9681C76.9472 91.6658 78.5597 93.2305 77.6272 94.7979C77.4023 95.1751 74.588 97.1838 68.8955 96.376C68.271 96.2878 67.6938 96.3011 67.0776 96.4857C66.936 96.5285 66.8389 96.6997 66.6807 96.7264C66.3449 96.7826 66.0618 96.8013 65.787 96.5526C65.1431 95.9614 65.6704 95.1644 66.2089 94.7525Z" fill="#FDBCA0"/>
<path d="M104.032 50.8116C103.391 51.1299 102.717 51.4883 102.087 51.8226C102.42 51.5605 104.268 49.747 104.987 49.3004C105.065 49.2522 104.882 48.5167 102.992 49.9717C102.428 50.405 101.762 50.8437 101.232 51.3171C101.906 50.0841 102.47 48.8349 103.352 47.7062C103.389 47.6607 103.377 47.6099 103.347 47.5751C103.167 47.4387 102.714 47.5939 102.512 47.8025C102.151 48.1716 100.78 49.5999 100.113 51.1058C100.125 50.5896 100.077 49.7524 99.6972 49.5812C99.4585 49.4715 99.0616 49.616 98.8063 49.6347C98.3039 49.6695 97.6461 49.739 97.1771 49.5464C97.1077 49.5197 96.9328 49.4983 96.9966 49.7203C97.2104 50.4478 98.265 50.5388 98.92 50.6992C99.1421 51.2181 98.5176 52.0687 98.1235 52.3255C97.4824 52.7454 96.547 52.3335 96.708 51.5097C96.8495 50.7848 97.2992 50.4558 96.9023 49.7444C96.7718 49.509 96.2112 49.295 96.3361 49.6748C96.658 50.6457 95.7338 51.4615 95.6145 52.4004C95.5201 53.144 95.9281 53.8046 96.3389 54.4011C96.3139 54.4626 96.2944 54.5241 96.2722 54.583C95.7144 55.5138 95.2814 56.4954 94.9678 57.5225C95.6838 57.7499 97.7877 57.6054 97.7793 57.5894C97.7877 57.6054 98.0319 56.1664 98.5925 55.5592C99.2059 54.8932 99.9775 54.3797 100.716 53.8554C102.267 52.7508 103.844 51.6782 105.442 50.635C105.534 50.5789 105.459 50.1028 104.032 50.8116Z" fill="#FDBCA0"/>
<path d="M41.1933 50.8116C41.8345 51.1299 42.5089 51.4883 43.139 51.8226C42.8059 51.5605 40.9574 49.747 40.2386 49.3004C40.1609 49.2522 40.3441 48.5167 42.2341 49.9717C42.7976 50.405 43.4637 50.8437 43.9938 51.3171C43.3194 50.0841 42.7559 48.8349 41.8733 47.7062C41.8373 47.6607 41.8484 47.6099 41.8789 47.5751C42.0593 47.4387 42.5117 47.5939 42.7143 47.8025C43.0751 48.1716 44.4462 49.5999 45.1123 51.1058C45.1012 50.5896 45.1484 49.7524 45.5286 49.5812C45.7673 49.4715 46.1642 49.616 46.4196 49.6347C46.9219 49.6695 47.5797 49.739 48.0488 49.5464C48.1181 49.5197 48.293 49.4983 48.2292 49.7203C48.0154 50.4478 46.9608 50.5388 46.3058 50.6992C46.0837 51.2181 46.7082 52.0687 47.1023 52.3255C47.7435 52.7454 48.6788 52.3335 48.5178 51.5097C48.3763 50.7848 47.9266 50.4558 48.3235 49.7444C48.454 49.509 49.0146 49.295 48.8897 49.6748C48.5678 50.6457 49.492 51.4615 49.6113 52.4004C49.7057 53.144 49.2977 53.8046 48.8869 54.4011C48.9119 54.4626 48.9314 54.5241 48.9536 54.583C49.5114 55.5138 49.9444 56.4954 50.258 57.5225C49.542 57.7499 47.4382 57.6054 47.4465 57.5894C47.4382 57.6054 47.1939 56.1664 46.6333 55.5592C46.0199 54.8932 45.2483 54.3797 44.51 53.8554C42.9585 52.7508 41.3821 51.6782 39.7834 50.635C39.6918 50.5789 39.7668 50.1028 41.1933 50.8116Z" fill="#FDBCA0"/>
<path d="M94.2188 56.5758C93.178 59.1622 89.6476 68.7111 88.1738 72.7607C87.2968 70.5941 84.9265 61.187 82.931 50.266C82.3093 46.8718 78.3376 47.3559 76.2116 47.6956C76.0589 49.9745 73.7636 56.2922 72.5313 56.3056C71.299 56.2922 68.8566 50.4212 68.851 47.6956C66.7278 47.3559 62.7533 46.8718 62.1316 50.266C60.1333 61.187 57.7658 70.5968 56.8888 72.7607C55.4122 68.7111 51.8846 59.1622 50.8438 56.5758C49.5088 57.1829 48.0322 57.5173 46.5585 57.6002C47.6992 60.5237 51.4655 81.2262 57.0164 81.2262C59.4228 81.2262 60.9465 78.7628 63.4 69.6366C63.5221 71.1612 63.5638 74.09 63.5027 77.1687C63.4583 79.386 61.868 81.9484 59.7392 81.4536C59.309 81.3546 58.7483 81.6676 59.2812 82.2239C59.4255 82.3764 59.6115 82.4887 59.803 82.5743C63.203 84.1257 63.3362 86.4447 65.3428 87.7954C66.5557 88.6112 68.0489 88.868 69.4727 89.1462C71.0159 89.4457 72.6062 89.6704 74.1771 89.4431C76.7889 89.0659 78.8177 87.3835 80.9798 86.0675C82.1871 85.332 83.4139 84.7435 84.8322 84.5429C88.4819 84.0267 88.2404 81.5445 87.4772 81.5954C84.921 81.7639 81.5543 78.6237 81.5349 75.1679C81.521 72.8677 81.5682 70.8268 81.6626 69.6366C84.1161 78.7628 85.6398 81.2262 88.0462 81.2262C93.5971 81.2262 97.3634 60.5237 98.5041 57.6002C97.0303 57.5173 95.5538 57.1802 94.2188 56.5758Z" fill="#F2EDE4"/>
<path d="M79.534 65.6163C79.5063 65.635 79.484 65.6538 79.4618 65.6725C79.0094 66.0978 78.657 66.6087 78.2129 67.042C77.7688 67.4726 77.1943 67.8337 76.5643 67.831C75.0516 67.823 74.2939 66.0737 73.3836 65.183C71.9847 63.8189 70.6275 66.927 69.5867 67.5368C68.5182 68.1627 67.7938 67.7856 67.0055 67.0446C66.5226 66.5899 66.1118 66.0791 65.665 65.5922C65.5484 65.4639 65.282 65.6003 65.3541 65.7661C65.8759 66.9751 67.0555 68.9812 68.6125 69.0133C69.5673 69.032 70.35 68.5051 70.9772 67.8578C71.2853 67.5395 72.1346 65.8303 72.6869 66.055C72.7896 66.0978 72.8618 66.186 72.9312 66.2716C73.2059 66.6194 73.4613 66.9858 73.7555 67.3175C73.9081 67.4887 74.3494 67.7722 74.3494 68.0076C74.9739 68.6201 75.8315 69.1015 76.7169 68.9972C77.6217 68.8902 78.3378 68.2082 78.8623 67.4887C79.2343 66.9778 79.5479 66.4268 79.7949 65.849C79.831 65.7661 79.8615 65.6618 79.7977 65.5949C79.7283 65.5254 79.6228 65.5575 79.534 65.6163Z" fill="#D9C9AC"/>
<g clip-path="url(#clip2_73_721)">
<path d="M145.981 105.065L156.467 101.685L151.211 86.8472L140.724 90.2271C140.313 90.3589 140.091 90.7837 140.233 91.1755L144.986 104.593C145.125 104.984 145.57 105.197 145.981 105.065Z" fill="#3F4553"/>
<path d="M145.988 104.772L156.736 101.308L151.671 87.0156L140.924 90.4797C140.659 90.564 140.517 90.8386 140.605 91.0949L145.343 104.468C145.435 104.721 145.723 104.856 145.988 104.772Z" fill="#DDDDE3"/>
<path d="M146.215 104.699L156.963 101.235L151.898 86.9425L141.15 90.4066C140.886 90.4909 140.743 90.7655 140.832 91.0218L145.57 104.395C145.662 104.648 145.95 104.787 146.215 104.699Z" fill="#E2E5FF"/>
<path d="M146.795 104.801L157.281 101.421L152.025 86.587L141.538 89.9669C141.127 90.0988 140.905 90.5235 141.047 90.9154L145.8 104.332C145.939 104.724 146.384 104.933 146.795 104.801Z" fill="#4E5567"/>
<path d="M151.437 86.7767L151.211 86.8494L156.468 101.687L156.693 101.615L151.437 86.7767Z" fill="#3F4553"/>
<path d="M152.935 98.3673L153.169 97.8912L153.66 98.1329L149.821 87.2974C149.751 87.107 149.579 87.1217 149.379 87.1876C149.179 87.2535 149.03 87.3414 149.099 87.5318L152.935 98.3673Z" fill="#93BFA8"/>
<path d="M129.373 90.7108L136.431 82.7305L135.004 81.5831L127.947 89.5634L129.373 90.7108Z" fill="#3F4553"/>
<path d="M127.945 89.5607L129.37 90.7068L127.312 91.7871C127.243 91.8237 127.15 91.7468 127.174 91.6772L127.945 89.5607Z" fill="#F2EDE4"/>
<path d="M127.316 91.7907L127.873 91.4978L127.389 91.106L127.181 91.6772C127.155 91.7468 127.247 91.8237 127.316 91.7907Z" fill="#3F4553"/>
<path d="M128.901 90.3307L135.958 82.3503L135.474 81.9608L128.416 89.9411L128.901 90.3307Z" fill="#4E5567"/>
</g>
<g clip-path="url(#clip3_73_721)">
<path d="M51.4368 13.7244C42.3395 13.7244 34.9692 20.8118 34.9692 29.5602C34.9692 38.3036 42.3395 45.396 51.4368 45.396C60.529 45.396 67.9044 38.3086 67.9044 29.5602C67.8992 20.8118 60.529 13.7244 51.4368 13.7244ZM51.4368 42.7176C43.8799 42.7176 37.7545 36.8272 37.7545 29.5602C37.7545 22.2932 43.8799 16.4027 51.4368 16.4027C58.9938 16.4027 65.1192 22.2932 65.1192 29.5602C65.1192 36.8272 58.9938 42.7176 51.4368 42.7176Z" fill="#808AFF"/>
<path d="M64.0614 34.6331C66.9767 27.9289 63.6884 20.2214 56.7167 17.4179C49.745 14.6144 41.73 17.7766 38.8147 24.4808C35.8993 31.185 39.1877 38.8925 46.1594 41.696C53.1311 44.4995 61.1461 41.3373 64.0614 34.6331Z" fill="#AEB4FC"/>
<path d="M51.4635 17.58C50.504 17.58 50.4988 19.0164 51.4635 19.0164C52.4283 19.0164 52.4283 17.58 51.4635 17.58Z" fill="#808AFF"/>
<path d="M63.8895 29.5844C63.8895 28.6617 62.3958 28.6567 62.3958 29.5844C62.3958 30.5121 63.8895 30.5121 63.8895 29.5844Z" fill="#808AFF"/>
<path d="M51.4051 41.5352C52.3646 41.5352 52.3698 40.0988 51.4051 40.0988C50.4455 40.0988 50.4403 41.5352 51.4051 41.5352Z" fill="#808AFF"/>
<path d="M38.979 29.5303C38.979 30.4531 40.4728 30.458 40.4728 29.5303C40.4728 28.6076 38.979 28.6026 38.979 29.5303Z" fill="#808AFF"/>
<path d="M57.3187 33.4056C57.2305 33.4056 57.1424 33.3856 57.0646 33.3358L51.1777 29.9691C51.0273 29.8843 50.934 29.7247 50.934 29.5551V20.5075C50.934 20.2432 51.157 20.0287 51.4319 20.0287C51.7068 20.0287 51.9298 20.2432 51.9298 20.5075V29.2858L57.5729 32.5128C57.8115 32.6475 57.8893 32.9417 57.744 33.1712C57.6559 33.3208 57.4899 33.4056 57.3187 33.4056Z" fill="#808AFF"/>
</g>
<path d="M15.1062 40.5214L14.8086 38.8971L13.0827 39.1801C12.8089 38.4217 12.3626 37.7538 11.7853 37.2105L12.797 35.8465L11.3806 34.9014L10.3748 36.2597C9.64868 35.9201 8.83928 35.7333 7.99417 35.739L7.69064 34.092L5.98256 34.375L6.28014 36.0163C5.48264 36.2767 4.78036 36.7011 4.20902 37.2501L2.77471 36.288L1.78081 37.635L3.20917 38.5915C2.85208 39.2819 2.65568 40.0517 2.66163 40.8553L0.94165 41.1383L1.23922 42.7626L2.96516 42.4796C3.23893 43.238 3.68529 43.9059 4.26258 44.4492L3.25083 45.8132L4.66728 46.7583L5.67309 45.4C6.39917 45.7396 7.20857 45.9264 8.05368 45.9207L8.35721 47.5677L10.0653 47.2847L9.76771 45.6434C10.5652 45.383 11.2675 44.9586 11.8388 44.4096L13.2731 45.3717L14.267 44.0247L12.8387 43.0682C13.1958 42.3778 13.3922 41.6081 13.3862 40.8044L15.1062 40.5214ZM8.29769 42.3382C7.42282 42.4853 6.58962 41.925 6.43488 41.093C6.28014 40.2611 6.86934 39.4687 7.74421 39.3216C8.61907 39.1744 9.45228 39.7347 9.60702 40.5667C9.76176 41.3987 9.17851 42.191 8.29769 42.3382Z" fill="#9BA3FF"/>
<path d="M31.3898 37.2444V35.2013H29.2175C29.0568 34.2165 28.658 33.311 28.0748 32.5299L29.6162 31.0641L28.0986 29.6209L26.5631 31.0811C25.7478 30.5208 24.8015 30.1303 23.7659 29.9661V27.889H21.6174V29.9548C20.5819 30.1076 19.6237 30.4868 18.8083 31.0415L17.2669 29.5756L15.7493 31.0188L17.2847 32.479C16.6955 33.2544 16.2849 34.1543 16.1123 35.139H13.9281V37.1822H16.1004C16.2611 38.167 16.6598 39.0725 17.2431 39.8535L15.7016 41.3194L17.2193 42.7626L18.7548 41.3024C19.5701 41.8627 20.5164 42.2532 21.552 42.4173V44.4944H23.7005V42.4287C24.736 42.2759 25.6882 41.8967 26.5096 41.342L28.051 42.8079L29.5686 41.3646L28.0331 39.9045C28.6223 39.1291 29.033 38.2292 29.2056 37.2444H31.3898ZM22.6589 38.0934C21.5579 38.0934 20.6592 37.2444 20.6592 36.1917C20.6592 35.1447 21.552 34.2901 22.6589 34.2901C23.76 34.2901 24.6586 35.139 24.6586 36.1917C24.6527 37.2388 23.76 38.0934 22.6589 38.0934Z" fill="#AEB4FC"/>
<g opacity="0.3">
<path d="M132.18 22.0651L116.219 18.6136C116.062 18.5808 115.963 18.4304 116 18.28L118.01 9.67041C118.044 9.51999 118.2 9.42426 118.356 9.45982L134.318 12.914C134.474 12.9469 134.574 13.0973 134.537 13.2477L132.524 21.8573C132.49 22.0049 132.336 22.1007 132.18 22.0651Z" fill="#ECECEC"/>
<path d="M116.264 18.4111C116.222 18.4029 116.196 18.3619 116.207 18.3236L118.22 9.71404C118.228 9.67301 118.271 9.6484 118.311 9.65934L134.272 13.1136C134.315 13.1218 134.34 13.1628 134.329 13.2011L132.316 21.8106C132.308 21.8517 132.265 21.8763 132.225 21.8653L116.264 18.4111Z" fill="#F5F4F5"/>
<path d="M132.071 12.4254L120.606 9.94482L120.559 10.1449L132.024 12.6255L132.071 12.4254Z" fill="#706F6E"/>
<path d="M119.491 11.1826L118.962 11.0677C118.897 11.0541 118.854 10.9912 118.868 10.9255L118.951 10.5672C118.965 10.5043 119.03 10.4633 119.098 10.477L119.627 10.5919C119.693 10.6055 119.735 10.6684 119.721 10.7341L119.639 11.0924C119.622 11.1553 119.556 11.1963 119.491 11.1826Z" fill="#585857"/>
<path d="M118.984 10.9667C118.976 10.964 118.97 10.9558 118.973 10.9476L119.055 10.5893C119.058 10.5811 119.067 10.5756 119.075 10.5783L119.604 10.6932C119.613 10.6959 119.618 10.7042 119.615 10.7124L119.533 11.0706C119.53 11.0788 119.522 11.0843 119.513 11.0816L118.984 10.9667Z" fill="#5E5E5D"/>
<path d="M120.46 11.3906L119.931 11.2758C119.866 11.2621 119.823 11.1992 119.837 11.1335L119.92 10.7753C119.934 10.7124 119.999 10.6713 120.067 10.685L120.596 10.7999C120.662 10.8135 120.704 10.8765 120.69 10.9421L120.608 11.3004C120.59 11.366 120.525 11.4043 120.46 11.3906Z" fill="#585857"/>
<path d="M119.954 11.1772C119.945 11.1744 119.94 11.1662 119.943 11.158L120.025 10.7997C120.028 10.7915 120.036 10.7861 120.045 10.7888L120.574 10.9037C120.582 10.9064 120.588 10.9146 120.585 10.9228L120.502 11.2811C120.5 11.2893 120.491 11.2948 120.483 11.292L119.954 11.1772Z" fill="#5E5E5D"/>
<path d="M121.429 11.6011L120.9 11.4862C120.835 11.4725 120.792 11.4096 120.807 11.344L120.889 10.9857C120.903 10.9228 120.969 10.8818 121.037 10.8955L121.566 11.0103C121.631 11.024 121.674 11.0869 121.659 11.1525L121.577 11.5108C121.56 11.5737 121.495 11.6147 121.429 11.6011Z" fill="#585857"/>
<path d="M120.923 11.3852C120.915 11.3824 120.909 11.3742 120.912 11.366L120.994 11.0077C120.997 10.9995 121.006 10.9941 121.014 10.9968L121.543 11.1117C121.551 11.1144 121.557 11.1226 121.554 11.1308L121.472 11.4891C121.469 11.4973 121.46 11.5028 121.452 11.5L120.923 11.3852Z" fill="#5E5E5D"/>
<path d="M122.399 11.8088L121.87 11.694C121.804 11.6803 121.762 11.6174 121.776 11.5518L121.858 11.1935C121.873 11.1306 121.938 11.0895 122.006 11.1032L122.535 11.2181C122.6 11.2318 122.643 11.2947 122.629 11.3603L122.546 11.7186C122.529 11.7842 122.464 11.8252 122.399 11.8088Z" fill="#585857"/>
<path d="M121.893 11.5956C121.884 11.5929 121.879 11.5847 121.881 11.5765L121.964 11.2182C121.967 11.21 121.975 11.2045 121.984 11.2073L122.512 11.3221C122.521 11.3249 122.527 11.3331 122.524 11.3413L122.441 11.6995C122.439 11.7077 122.43 11.7132 122.421 11.7105L121.893 11.5956Z" fill="#5E5E5D"/>
<path d="M123.365 12.0196L122.836 11.9048C122.771 11.8911 122.728 11.8282 122.742 11.7626L122.825 11.4043C122.839 11.3414 122.905 11.3004 122.973 11.314L123.501 11.4289C123.567 11.4426 123.609 11.5055 123.595 11.5711L123.513 11.9294C123.499 11.995 123.433 12.0333 123.365 12.0196Z" fill="#585857"/>
<path d="M122.862 11.8062C122.854 11.8035 122.848 11.7953 122.851 11.7871L122.933 11.4288C122.936 11.4206 122.945 11.4151 122.953 11.4178L123.482 11.5327C123.49 11.5354 123.496 11.5436 123.493 11.5518L123.411 11.9101C123.408 11.9183 123.399 11.9238 123.391 11.9211L122.862 11.8062Z" fill="#5E5E5D"/>
<path d="M124.334 12.23L123.806 12.1151C123.74 12.1014 123.698 12.0385 123.712 11.9729L123.794 11.6146C123.809 11.5517 123.874 11.5107 123.942 11.5244L124.471 11.6392C124.536 11.6529 124.579 11.7158 124.565 11.7814L124.482 12.1397C124.468 12.2026 124.403 12.2437 124.334 12.23Z" fill="#585857"/>
<path d="M123.831 12.0139C123.823 12.0112 123.817 12.003 123.82 11.9948L123.902 11.6365C123.905 11.6283 123.914 11.6229 123.922 11.6256L124.451 11.7405C124.459 11.7432 124.465 11.7514 124.462 11.7596L124.38 12.1179C124.377 12.1261 124.368 12.1316 124.36 12.1288L123.831 12.0139Z" fill="#5E5E5D"/>
<path d="M125.304 12.438L124.775 12.3231C124.71 12.3095 124.667 12.2466 124.681 12.1809L124.764 11.8226C124.778 11.7597 124.843 11.7187 124.911 11.7324L125.44 11.8472C125.506 11.8609 125.548 11.9238 125.534 11.9895L125.452 12.3477C125.437 12.4134 125.369 12.4544 125.304 12.438Z" fill="#585857"/>
<path d="M124.801 12.2248C124.792 12.222 124.786 12.2138 124.789 12.2056L124.872 11.8473C124.874 11.8391 124.883 11.8337 124.892 11.8364L125.42 11.9513C125.429 11.954 125.434 11.9622 125.432 11.9704L125.349 12.3287C125.346 12.3369 125.338 12.3424 125.329 12.3396L124.801 12.2248Z" fill="#5E5E5D"/>
<path d="M126.273 12.6487L125.744 12.5338C125.679 12.5201 125.636 12.4572 125.651 12.3916L125.733 12.0333C125.747 11.9704 125.813 11.9294 125.881 11.9431L126.41 12.0579C126.475 12.0716 126.518 12.1345 126.503 12.2001L126.421 12.5584C126.404 12.624 126.339 12.6623 126.273 12.6487Z" fill="#585857"/>
<path d="M125.77 12.4352C125.761 12.4325 125.756 12.4243 125.759 12.4161L125.841 12.0578C125.844 12.0496 125.852 12.0441 125.861 12.0469L126.39 12.1617C126.398 12.1645 126.404 12.1727 126.401 12.1809L126.319 12.5391C126.316 12.5473 126.307 12.5528 126.299 12.5501L125.77 12.4352Z" fill="#5E5E5D"/>
<path d="M127.243 12.8591L126.714 12.7443C126.649 12.7306 126.606 12.6677 126.62 12.602L126.703 12.2438C126.717 12.1809 126.782 12.1398 126.85 12.1535L127.379 12.2684C127.445 12.2821 127.487 12.345 127.473 12.4106L127.391 12.7689C127.373 12.8318 127.308 12.8728 127.243 12.8591Z" fill="#585857"/>
<path d="M126.736 12.6432C126.728 12.6405 126.722 12.6323 126.725 12.6241L126.807 12.2658C126.81 12.2576 126.819 12.2521 126.827 12.2549L127.356 12.3697C127.365 12.3725 127.37 12.3807 127.367 12.3889L127.285 12.7472C127.282 12.7554 127.274 12.7608 127.265 12.7581L126.736 12.6432Z" fill="#5E5E5D"/>
<path d="M128.212 13.067L127.683 12.9521C127.618 12.9385 127.575 12.8756 127.589 12.8099L127.672 12.4517C127.686 12.3887 127.751 12.3477 127.819 12.3614L128.348 12.4763C128.414 12.4899 128.456 12.5528 128.442 12.6185L128.36 12.9768C128.342 13.0424 128.277 13.0834 128.212 13.067Z" fill="#585857"/>
<path d="M127.706 12.8539C127.697 12.8512 127.692 12.843 127.694 12.8348L127.777 12.4765C127.78 12.4683 127.788 12.4628 127.797 12.4656L128.326 12.5804C128.334 12.5832 128.34 12.5914 128.337 12.5996L128.254 12.9579C128.252 12.9661 128.243 12.9715 128.235 12.9688L127.706 12.8539Z" fill="#5E5E5D"/>
<path d="M129.181 13.2776L128.652 13.1627C128.587 13.149 128.544 13.0861 128.559 13.0205L128.641 12.6622C128.655 12.5993 128.721 12.5583 128.789 12.572L129.318 12.6868C129.383 12.7005 129.426 12.7634 129.411 12.829L129.329 13.1873C129.312 13.253 129.247 13.2912 129.181 13.2776Z" fill="#585857"/>
<path d="M128.675 13.0642C128.666 13.0615 128.661 13.0533 128.663 13.0451L128.746 12.6868C128.749 12.6786 128.757 12.6731 128.766 12.6759L129.295 12.7907C129.303 12.7935 129.309 12.8017 129.306 12.8099L129.223 13.1682C129.221 13.1764 129.212 13.1818 129.204 13.1791L128.675 13.0642Z" fill="#5E5E5D"/>
<path d="M130.15 13.4883L129.621 13.3734C129.556 13.3597 129.513 13.2968 129.528 13.2312L129.61 12.8729C129.624 12.81 129.69 12.769 129.758 12.7827L130.287 12.8975C130.352 12.9112 130.395 12.9741 130.38 13.0397L130.298 13.398C130.281 13.4609 130.216 13.5019 130.15 13.4883Z" fill="#585857"/>
<path d="M129.644 13.2721C129.636 13.2694 129.63 13.2612 129.633 13.253L129.715 12.8947C129.718 12.8865 129.727 12.881 129.735 12.8838L130.264 12.9986C130.273 13.0014 130.278 13.0096 130.275 13.0178L130.193 13.3761C130.19 13.3843 130.182 13.3897 130.173 13.387L129.644 13.2721Z" fill="#5E5E5D"/>
<path d="M131.12 13.696L130.591 13.5812C130.526 13.5675 130.483 13.5046 130.497 13.4389L130.58 13.0807C130.594 13.0178 130.659 12.9768 130.727 12.9904L131.256 13.1053C131.321 13.119 131.364 13.1819 131.35 13.2475L131.267 13.6058C131.25 13.6714 131.185 13.7124 131.12 13.696Z" fill="#585857"/>
<path d="M130.614 13.4828C130.605 13.4801 130.599 13.4719 130.602 13.4637L130.685 13.1054C130.687 13.0972 130.696 13.0917 130.705 13.0945L131.233 13.2093C131.242 13.2121 131.247 13.2203 131.245 13.2285L131.162 13.5867C131.159 13.595 131.151 13.6004 131.142 13.5977L130.614 13.4828Z" fill="#5E5E5D"/>
<path d="M132.089 13.9066L131.56 13.7918C131.495 13.7781 131.452 13.7152 131.466 13.6495L131.549 13.2913C131.563 13.2283 131.629 13.1873 131.697 13.201L132.225 13.3159C132.291 13.3295 132.333 13.3924 132.319 13.4581L132.237 13.8164C132.22 13.882 132.154 13.9203 132.089 13.9066Z" fill="#585857"/>
<path d="M131.583 13.6934C131.575 13.6906 131.569 13.6824 131.572 13.6742L131.654 13.316C131.657 13.3078 131.665 13.3023 131.674 13.305L132.203 13.4199C132.211 13.4226 132.217 13.4308 132.214 13.439L132.132 13.7973C132.129 13.8055 132.12 13.811 132.112 13.8082L131.583 13.6934Z" fill="#5E5E5D"/>
<path d="M133.055 14.1172L132.527 14.0023C132.461 13.9886 132.419 13.9257 132.433 13.8601L132.515 13.5018C132.529 13.4389 132.595 13.3979 132.663 13.4116L133.192 13.5264C133.257 13.5401 133.3 13.603 133.286 13.6687L133.203 14.0269C133.189 14.0898 133.124 14.1309 133.055 14.1172Z" fill="#585857"/>
<path d="M132.552 13.9012C132.544 13.8984 132.538 13.8902 132.541 13.882L132.623 13.5237C132.626 13.5155 132.635 13.5101 132.643 13.5128L133.172 13.6277C133.181 13.6304 133.186 13.6386 133.183 13.6468L133.101 14.0051C133.098 14.0133 133.09 14.0188 133.081 14.016L132.552 13.9012Z" fill="#5E5E5D"/>
<path d="M118.95 11.1909L119.604 11.3331C119.678 11.3495 119.726 11.4207 119.709 11.4945L119.564 12.1126C119.547 12.1837 119.473 12.2302 119.397 12.2138L118.743 12.0716C118.669 12.0552 118.621 11.984 118.638 11.9102L118.783 11.2921C118.8 11.221 118.874 11.1745 118.95 11.1909Z" fill="#585857"/>
<path d="M118.769 11.9702C118.752 11.9675 118.74 11.9483 118.743 11.9319L118.888 11.3139C118.891 11.2974 118.911 11.2865 118.928 11.2892L119.582 11.4315C119.599 11.4342 119.61 11.4533 119.607 11.4697L119.462 12.0878C119.459 12.1042 119.44 12.1152 119.423 12.1124L118.769 11.9702Z" fill="#5E5E5D"/>
<path d="M120.067 11.4342L120.721 11.5764C120.795 11.5928 120.843 11.664 120.826 11.7378L120.681 12.3559C120.664 12.427 120.59 12.4735 120.514 12.4571L119.86 12.3149C119.786 12.2985 119.738 12.2274 119.755 12.1535L119.9 11.5354C119.917 11.4616 119.991 11.4178 120.067 11.4342Z" fill="#585857"/>
<path d="M119.886 12.2136C119.869 12.2109 119.857 12.1918 119.86 12.1754L120.005 11.5573C120.008 11.5409 120.028 11.5299 120.045 11.5326L120.699 11.6749C120.716 11.6776 120.727 11.6967 120.724 11.7132L120.579 12.3312C120.576 12.3477 120.556 12.3586 120.539 12.3559L119.886 12.2136Z" fill="#5E5E5D"/>
<path d="M121.185 11.6751L121.839 11.8173C121.913 11.8337 121.961 11.9048 121.944 11.9786L121.799 12.5967C121.782 12.6678 121.708 12.7143 121.631 12.6979L120.978 12.5557C120.904 12.5393 120.855 12.4682 120.872 12.3943L121.017 11.7762C121.034 11.7051 121.111 11.6586 121.185 11.6751Z" fill="#585857"/>
<path d="M121.003 12.4544C120.986 12.4516 120.975 12.4325 120.977 12.4161L121.122 11.798C121.125 11.7816 121.145 11.7706 121.162 11.7734L121.816 11.9156C121.833 11.9183 121.844 11.9375 121.842 11.9539L121.697 12.572C121.694 12.5884 121.674 12.5993 121.657 12.5966L121.003 12.4544Z" fill="#5E5E5D"/>
<path d="M122.302 11.9157L122.956 12.0579C123.03 12.0743 123.078 12.1454 123.061 12.2192L122.916 12.8373C122.899 12.9084 122.825 12.9549 122.748 12.9385L122.094 12.7963C122.021 12.7799 121.972 12.7088 121.989 12.6349L122.134 12.0168C122.151 11.9457 122.228 11.8992 122.302 11.9157Z" fill="#585857"/>
<path d="M122.12 12.6978C122.103 12.695 122.092 12.6759 122.095 12.6595L122.24 12.0414C122.242 12.025 122.262 12.014 122.279 12.0168L122.933 12.159C122.95 12.1617 122.962 12.1809 122.959 12.1973L122.814 12.8154C122.811 12.8318 122.791 12.8427 122.774 12.84L122.12 12.6978Z" fill="#5E5E5D"/>
<path d="M123.419 12.1592L124.073 12.3014C124.147 12.3178 124.195 12.3889 124.178 12.4628L124.033 13.0809C124.016 13.152 123.942 13.1985 123.865 13.1821L123.211 13.0399C123.137 13.0235 123.089 12.9523 123.106 12.8785L123.251 12.2604C123.271 12.1865 123.345 12.1428 123.419 12.1592Z" fill="#585857"/>
<path d="M123.237 12.9384C123.22 12.9356 123.209 12.9165 123.211 12.9001L123.356 12.282C123.359 12.2656 123.379 12.2546 123.396 12.2574L124.05 12.3996C124.067 12.4023 124.078 12.4215 124.076 12.4379L123.931 13.056C123.928 13.0724 123.908 13.0833 123.891 13.0806L123.237 12.9384Z" fill="#5E5E5D"/>
<path d="M124.536 12.3999L125.19 12.5421C125.264 12.5585 125.312 12.6296 125.295 12.7035L125.15 13.3216C125.133 13.3927 125.059 13.4392 124.982 13.4228L124.329 13.2806C124.255 13.2641 124.206 13.193 124.224 13.1192L124.368 12.5011C124.388 12.43 124.462 12.3835 124.536 12.3999Z" fill="#585857"/>
<path d="M124.354 13.1793C124.337 13.1766 124.325 13.1575 124.328 13.1411L124.473 12.523C124.476 12.5065 124.496 12.4956 124.513 12.4983L125.167 12.6406C125.184 12.6433 125.195 12.6624 125.192 12.6788L125.047 13.2969C125.045 13.3134 125.025 13.3243 125.008 13.3216L124.354 13.1793Z" fill="#5E5E5D"/>
<path d="M125.654 12.643L126.307 12.7852C126.381 12.8016 126.43 12.8727 126.413 12.9465L126.268 13.5646C126.251 13.6357 126.177 13.6822 126.1 13.6658L125.446 13.5236C125.372 13.5072 125.324 13.4361 125.341 13.3622L125.486 12.7442C125.506 12.6703 125.58 12.6266 125.654 12.643Z" fill="#585857"/>
<path d="M125.471 13.4225C125.454 13.4198 125.443 13.4006 125.446 13.3842L125.591 12.7661C125.594 12.7497 125.613 12.7388 125.631 12.7415L126.284 12.8837C126.301 12.8865 126.313 12.9056 126.31 12.922L126.165 13.5401C126.162 13.5565 126.142 13.5675 126.125 13.5647L125.471 13.4225Z" fill="#5E5E5D"/>
<path d="M126.773 12.8839L127.427 13.0261C127.501 13.0425 127.549 13.1137 127.532 13.1875L127.387 13.8056C127.37 13.8767 127.296 13.9232 127.22 13.9068L126.566 13.7646C126.492 13.7482 126.444 13.677 126.461 13.6032L126.606 12.9851C126.623 12.914 126.697 12.8675 126.773 12.8839Z" fill="#585857"/>
<path d="M126.589 13.6634C126.572 13.6606 126.56 13.6415 126.563 13.6251L126.708 13.007C126.711 12.9906 126.731 12.9796 126.748 12.9824L127.402 13.1246C127.419 13.1273 127.43 13.1464 127.427 13.1629L127.282 13.781C127.279 13.7974 127.259 13.8083 127.242 13.8056L126.589 13.6634Z" fill="#5E5E5D"/>
<path d="M127.89 13.1244L128.544 13.2666C128.618 13.283 128.667 13.3541 128.649 13.428L128.504 14.0461C128.487 14.1172 128.414 14.1637 128.337 14.1473L127.683 14.005C127.609 13.9886 127.561 13.9175 127.578 13.8437L127.723 13.2256C127.74 13.1545 127.814 13.108 127.89 13.1244Z" fill="#585857"/>
<path d="M127.709 13.9066C127.692 13.9039 127.68 13.8848 127.683 13.8683L127.828 13.2503C127.831 13.2338 127.851 13.2229 127.868 13.2256L128.522 13.3679C128.539 13.3706 128.55 13.3897 128.547 13.4061L128.402 14.0242C128.4 14.0407 128.38 14.0516 128.363 14.0489L127.709 13.9066Z" fill="#5E5E5D"/>
<path d="M129.008 13.3679L129.662 13.5102C129.735 13.5266 129.784 13.5977 129.767 13.6715L129.622 14.2896C129.605 14.3607 129.531 14.4072 129.454 14.3908L128.8 14.2486C128.726 14.2322 128.678 14.1611 128.695 14.0872L128.84 13.4691C128.857 13.3953 128.931 13.3515 129.008 13.3679Z" fill="#585857"/>
<path d="M128.826 14.1475C128.809 14.1447 128.797 14.1256 128.8 14.1092L128.945 13.4911C128.948 13.4747 128.968 13.4637 128.985 13.4665L129.639 13.6087C129.656 13.6114 129.667 13.6306 129.664 13.647L129.519 14.2651C129.516 14.2815 129.496 14.2924 129.479 14.2897L128.826 14.1475Z" fill="#5E5E5D"/>
<path d="M130.125 13.6085L130.779 13.7507C130.853 13.7672 130.901 13.8383 130.884 13.9121L130.739 14.5302C130.722 14.6013 130.648 14.6478 130.571 14.6314L129.92 14.4892C129.846 14.4728 129.798 14.4017 129.815 14.3278L129.96 13.7097C129.974 13.6386 130.048 13.5921 130.125 13.6085Z" fill="#585857"/>
<path d="M129.943 14.3881C129.926 14.3853 129.914 14.3662 129.917 14.3498L130.062 13.7317C130.065 13.7153 130.085 13.7043 130.102 13.7071L130.756 13.8493C130.773 13.852 130.784 13.8712 130.781 13.8876L130.634 14.5057C130.631 14.5221 130.611 14.533 130.594 14.5303L129.943 14.3881Z" fill="#5E5E5D"/>
<path d="M131.242 13.8521L131.896 13.9943C131.97 14.0107 132.018 14.0818 132.001 14.1556L131.856 14.7737C131.839 14.8449 131.765 14.8913 131.688 14.8749L131.035 14.7327C130.961 14.7163 130.912 14.6452 130.929 14.5714L131.074 13.9533C131.091 13.8794 131.168 13.8357 131.242 13.8521Z" fill="#585857"/>
<path d="M131.06 14.6315C131.043 14.6288 131.032 14.6096 131.035 14.5932L131.18 13.9751C131.183 13.9587 131.202 13.9478 131.22 13.9505L131.873 14.0927C131.89 14.0954 131.902 14.1146 131.899 14.131L131.754 14.7491C131.751 14.7655 131.731 14.7764 131.714 14.7737L131.06 14.6315Z" fill="#5E5E5D"/>
<path d="M132.359 14.0925L133.013 14.2348C133.087 14.2512 133.135 14.3223 133.118 14.3961L132.973 15.0142C132.956 15.0853 132.882 15.1318 132.805 15.1154L132.151 14.9732C132.077 14.9568 132.029 14.8857 132.046 14.8118L132.194 14.1937C132.208 14.1226 132.285 14.0761 132.359 14.0925Z" fill="#585857"/>
<path d="M132.177 14.8722C132.16 14.8695 132.149 14.8503 132.151 14.8339L132.296 14.2158C132.299 14.1994 132.319 14.1885 132.336 14.1912L132.99 14.3334C133.007 14.3362 133.018 14.3553 133.016 14.3717L132.871 14.9898C132.868 15.0062 132.848 15.0172 132.831 15.0144L132.177 14.8722Z" fill="#5E5E5D"/>
<path d="M118.714 12.1919L119.368 12.3341C119.442 12.3505 119.49 12.4216 119.473 12.4955L119.328 13.1136C119.311 13.1847 119.237 13.2312 119.161 13.2148L118.507 13.0725C118.433 13.0561 118.385 12.985 118.402 12.9112L118.549 12.2931C118.566 12.222 118.64 12.1755 118.714 12.1919Z" fill="#585857"/>
<path d="M118.533 12.9713C118.516 12.9686 118.504 12.9495 118.507 12.933L118.652 12.315C118.655 12.2985 118.675 12.2876 118.692 12.2903L119.346 12.4326C119.363 12.4353 119.374 12.4544 119.371 12.4708L119.226 13.0889C119.223 13.1053 119.203 13.1163 119.186 13.1136L118.533 12.9713Z" fill="#5E5E5D"/>
<path d="M119.835 12.4352L120.488 12.5774C120.562 12.5938 120.611 12.6649 120.594 12.7388L120.449 13.3569C120.432 13.428 120.358 13.4745 120.281 13.4581L119.627 13.3159C119.553 13.2994 119.505 13.2283 119.522 13.1545L119.667 12.5364C119.684 12.4625 119.758 12.4188 119.835 12.4352Z" fill="#585857"/>
<path d="M119.65 13.2148C119.633 13.212 119.621 13.1929 119.624 13.1765L119.769 12.5584C119.772 12.5419 119.792 12.531 119.809 12.5337L120.463 12.676C120.48 12.6787 120.491 12.6978 120.488 12.7143L120.344 13.3324C120.341 13.3488 120.321 13.3597 120.304 13.357L119.65 13.2148Z" fill="#5E5E5D"/>
<path d="M120.951 12.6759L121.605 12.8181C121.679 12.8345 121.728 12.9056 121.71 12.9795L121.566 13.5976C121.548 13.6687 121.475 13.7152 121.398 13.6988L120.744 13.5566C120.67 13.5402 120.622 13.469 120.639 13.3952L120.784 12.7771C120.801 12.706 120.875 12.6595 120.951 12.6759Z" fill="#585857"/>
<path d="M120.77 13.4553C120.753 13.4526 120.741 13.4335 120.744 13.4171L120.889 12.799C120.892 12.7825 120.912 12.7716 120.929 12.7743L121.583 12.9166C121.6 12.9193 121.611 12.9384 121.608 12.9549L121.463 13.5729C121.461 13.5894 121.441 13.6003 121.424 13.5976L120.77 13.4553Z" fill="#5E5E5D"/>
<path d="M122.069 12.9166L122.722 13.0588C122.796 13.0753 122.845 13.1464 122.828 13.2202L122.683 13.8383C122.666 13.9094 122.592 13.9559 122.515 13.9395L121.861 13.7973C121.787 13.7809 121.739 13.7098 121.756 13.6359L121.901 13.0178C121.918 12.9467 121.992 12.9002 122.069 12.9166Z" fill="#585857"/>
<path d="M121.887 13.6961C121.87 13.6933 121.858 13.6742 121.861 13.6578L122.006 13.0397C122.009 13.0233 122.029 13.0123 122.046 13.0151L122.7 13.1573C122.717 13.16 122.728 13.1792 122.725 13.1956L122.58 13.8137C122.578 13.8301 122.558 13.841 122.541 13.8383L121.887 13.6961Z" fill="#5E5E5D"/>
<path d="M123.186 13.1599L123.84 13.3021C123.914 13.3186 123.962 13.3897 123.945 13.4635L123.8 14.0816C123.783 14.1527 123.709 14.1992 123.633 14.1828L122.979 14.0406C122.905 14.0242 122.856 13.9531 122.874 13.8792L123.019 13.2611C123.036 13.1873 123.112 13.1435 123.186 13.1599Z" fill="#585857"/>
<path d="M123.004 13.9395C122.987 13.9367 122.976 13.9176 122.979 13.9012L123.124 13.2831C123.126 13.2667 123.146 13.2557 123.163 13.2585L123.817 13.4007C123.834 13.4034 123.846 13.4226 123.843 13.439L123.698 14.0571C123.695 14.0735 123.675 14.0844 123.658 14.0817L123.004 13.9395Z" fill="#5E5E5D"/>
<path d="M124.303 13.4005L124.957 13.5427C125.031 13.5591 125.079 13.6303 125.062 13.7041L124.917 14.3222C124.9 14.3933 124.826 14.4398 124.749 14.4234L124.096 14.2812C124.022 14.2648 123.973 14.1936 123.99 14.1198L124.135 13.5017C124.152 13.4306 124.229 13.3841 124.303 13.4005Z" fill="#585857"/>
<path d="M124.121 14.1801C124.104 14.1773 124.093 14.1582 124.096 14.1418L124.241 13.5237C124.244 13.5073 124.263 13.4963 124.281 13.4991L124.934 13.6413C124.951 13.644 124.963 13.6632 124.96 13.6796L124.815 14.2977C124.812 14.3141 124.792 14.325 124.775 14.3223L124.121 14.1801Z" fill="#5E5E5D"/>
<path d="M125.42 13.6441L126.074 13.7863C126.148 13.8027 126.196 13.8738 126.179 13.9476L126.034 14.5657C126.017 14.6368 125.943 14.6833 125.866 14.6669L125.213 14.5247C125.139 14.5083 125.09 14.4372 125.107 14.3633L125.252 13.7453C125.272 13.6714 125.346 13.6277 125.42 13.6441Z" fill="#585857"/>
<path d="M125.238 14.4235C125.221 14.4207 125.21 14.4016 125.213 14.3852L125.358 13.7671C125.361 13.7507 125.381 13.7397 125.398 13.7425L126.051 13.8847C126.068 13.8874 126.08 13.9066 126.077 13.923L125.932 14.5411C125.929 14.5575 125.909 14.5684 125.892 14.5657L125.238 14.4235Z" fill="#5E5E5D"/>
<path d="M126.537 13.8846L127.191 14.0269C127.265 14.0433 127.313 14.1144 127.296 14.1882L127.151 14.8063C127.134 14.8774 127.06 14.9239 126.984 14.9075L126.33 14.7653C126.256 14.7489 126.208 14.6778 126.225 14.6039L126.37 13.9858C126.39 13.9147 126.464 13.8682 126.537 13.8846Z" fill="#585857"/>
<path d="M126.355 14.6642C126.338 14.6615 126.327 14.6423 126.33 14.6259L126.475 14.0078C126.477 13.9914 126.497 13.9805 126.514 13.9832L127.168 14.1254C127.185 14.1282 127.197 14.1473 127.194 14.1637L127.049 14.7818C127.046 14.7982 127.026 14.8092 127.009 14.8064L126.355 14.6642Z" fill="#5E5E5D"/>
<path d="M127.655 14.1255L128.308 14.2677C128.382 14.2841 128.431 14.3552 128.414 14.4291L128.269 15.0472C128.252 15.1183 128.178 15.1648 128.101 15.1484L127.447 15.0061C127.373 14.9897 127.325 14.9186 127.342 14.8448L127.487 14.2267C127.507 14.1556 127.581 14.1091 127.655 14.1255Z" fill="#585857"/>
<path d="M127.473 14.9049C127.455 14.9022 127.444 14.883 127.447 14.8666L127.592 14.2485C127.595 14.2321 127.615 14.2212 127.632 14.2239L128.286 14.3661C128.303 14.3689 128.314 14.388 128.311 14.4044L128.166 15.0225C128.163 15.0389 128.143 15.0499 128.126 15.0471L127.473 14.9049Z" fill="#5E5E5D"/>
<path d="M128.772 14.3689L129.425 14.5111C129.499 14.5275 129.548 14.5987 129.531 14.6725L129.386 15.2906C129.369 15.3617 129.295 15.4082 129.218 15.3918L128.564 15.2496C128.49 15.2332 128.442 15.162 128.459 15.0882L128.604 14.4701C128.624 14.3963 128.698 14.3525 128.772 14.3689Z" fill="#585857"/>
<path d="M128.59 15.1483C128.573 15.1456 128.561 15.1265 128.564 15.11L128.709 14.492C128.712 14.4755 128.732 14.4646 128.749 14.4673L129.403 14.6096C129.42 14.6123 129.431 14.6314 129.428 14.6478L129.283 15.2659C129.281 15.2823 129.261 15.2933 129.244 15.2906L128.59 15.1483Z" fill="#5E5E5D"/>
<path d="M129.892 14.6095L130.545 14.7517C130.619 14.7681 130.668 14.8392 130.651 14.9131L130.506 15.5312C130.489 15.6023 130.415 15.6488 130.338 15.6324L129.684 15.4902C129.61 15.4737 129.562 15.4026 129.579 15.3288L129.724 14.7107C129.741 14.6396 129.815 14.5931 129.892 14.6095Z" fill="#585857"/>
<path d="M129.707 15.389C129.69 15.3863 129.678 15.3672 129.681 15.3508L129.826 14.7327C129.829 14.7163 129.849 14.7053 129.866 14.7081L130.52 14.8503C130.537 14.853 130.548 14.8722 130.545 14.8886L130.4 15.5066C130.398 15.5231 130.378 15.534 130.361 15.5313L129.707 15.389Z" fill="#5E5E5D"/>
<path d="M131.009 14.8529L131.663 14.9951C131.737 15.0115 131.785 15.0827 131.768 15.1565L131.623 15.7746C131.606 15.8457 131.532 15.8922 131.455 15.8758L130.801 15.7336C130.727 15.7172 130.679 15.646 130.696 15.5722L130.841 14.9541C130.858 14.8803 130.932 14.8365 131.009 14.8529Z" fill="#585857"/>
<path d="M130.827 15.6325C130.81 15.6297 130.799 15.6106 130.802 15.5942L130.947 14.9761C130.949 14.9597 130.969 14.9487 130.986 14.9515L131.64 15.0937C131.657 15.0964 131.669 15.1156 131.666 15.132L131.521 15.7501C131.518 15.7665 131.498 15.7774 131.481 15.7747L130.827 15.6325Z" fill="#5E5E5D"/>
<path d="M132.126 15.0936L132.78 15.2358C132.854 15.2523 132.902 15.3234 132.885 15.3972L132.74 16.0153C132.723 16.0864 132.649 16.1329 132.572 16.1165L131.919 15.9743C131.845 15.9579 131.796 15.8868 131.813 15.8129L131.958 15.1948C131.976 15.1237 132.049 15.0772 132.126 15.0936Z" fill="#585857"/>
<path d="M131.944 15.8731C131.927 15.8703 131.916 15.8512 131.918 15.8348L132.063 15.2167C132.066 15.2003 132.086 15.1893 132.103 15.1921L132.757 15.3343C132.774 15.337 132.785 15.3562 132.783 15.3726L132.638 15.9907C132.635 16.0071 132.615 16.018 132.598 16.0153L131.944 15.8731Z" fill="#5E5E5D"/>
<path d="M118.482 13.1929L119.136 13.3351C119.209 13.3515 119.258 13.4226 119.241 13.4965L119.096 14.1145C119.079 14.1857 119.005 14.2322 118.928 14.2157L118.274 14.0735C118.2 14.0571 118.152 13.986 118.169 13.9122L118.314 13.2941C118.334 13.223 118.408 13.1765 118.482 13.1929Z" fill="#585857"/>
<path d="M118.299 13.9723C118.282 13.9696 118.271 13.9504 118.274 13.934L118.419 13.3159C118.422 13.2995 118.442 13.2886 118.459 13.2913L119.112 13.4335C119.13 13.4363 119.141 13.4554 119.138 13.4718L118.993 14.0899C118.99 14.1063 118.97 14.1173 118.953 14.1145L118.299 13.9723Z" fill="#5E5E5D"/>
<path d="M119.599 13.4334L120.252 13.5756C120.326 13.592 120.375 13.6631 120.358 13.737L120.213 14.3551C120.196 14.4262 120.122 14.4727 120.045 14.4563L119.391 14.3141C119.317 14.2976 119.269 14.2265 119.286 14.1527L119.431 13.5346C119.451 13.4635 119.525 13.4197 119.599 13.4334Z" fill="#585857"/>
<path d="M119.417 14.2158C119.4 14.2131 119.388 14.194 119.391 14.1776L119.536 13.5595C119.539 13.543 119.559 13.5321 119.576 13.5348L120.23 13.6771C120.247 13.6798 120.258 13.6989 120.255 13.7153L120.11 14.3334C120.108 14.3499 120.088 14.3608 120.071 14.3581L119.417 14.2158Z" fill="#5E5E5D"/>
<path d="M120.716 13.6769L121.369 13.8191C121.443 13.8355 121.492 13.9066 121.475 13.9805L121.33 14.5985C121.312 14.6697 121.239 14.7161 121.162 14.6997L120.508 14.5575C120.434 14.5411 120.386 14.47 120.403 14.3962L120.548 13.7781C120.568 13.707 120.642 13.6605 120.716 13.6769Z" fill="#585857"/>
<path d="M120.534 14.4565C120.517 14.4537 120.505 14.4346 120.508 14.4182L120.653 13.8001C120.656 13.7836 120.676 13.7727 120.693 13.7754L121.347 13.9177C121.364 13.9204 121.375 13.9395 121.372 13.956L121.227 14.5741C121.224 14.5905 121.205 14.6014 121.188 14.5987L120.534 14.4565Z" fill="#5E5E5D"/>
<path d="M121.836 13.9177L122.49 14.0599C122.564 14.0764 122.612 14.1475 122.595 14.2213L122.45 14.8394C122.433 14.9105 122.359 14.957 122.282 14.9406L121.629 14.7984C121.555 14.782 121.506 14.7109 121.523 14.637L121.668 14.0189C121.685 13.9478 121.759 13.9013 121.836 13.9177Z" fill="#585857"/>
<path d="M121.651 14.697C121.634 14.6943 121.623 14.6752 121.625 14.6587L121.77 14.0407C121.773 14.0242 121.793 14.0133 121.81 14.016L122.464 14.1583C122.481 14.161 122.492 14.1801 122.49 14.1965L122.345 14.8146C122.342 14.831 122.322 14.842 122.305 14.8392L121.651 14.697Z" fill="#5E5E5D"/>
<path d="M122.953 14.1613L123.607 14.3035C123.681 14.3199 123.729 14.391 123.712 14.4649L123.567 15.0829C123.55 15.1541 123.476 15.2006 123.399 15.1841L122.745 15.0419C122.671 15.0255 122.623 14.9544 122.64 14.8806L122.785 14.2625C122.802 14.1886 122.876 14.1449 122.953 14.1613Z" fill="#585857"/>
<path d="M122.771 14.9405C122.754 14.9377 122.743 14.9186 122.745 14.9022L122.89 14.2841C122.893 14.2677 122.913 14.2567 122.93 14.2595L123.584 14.4017C123.601 14.4044 123.612 14.4235 123.61 14.44L123.465 15.0581C123.462 15.0745 123.442 15.0854 123.425 15.0827L122.771 14.9405Z" fill="#5E5E5D"/>
<path d="M124.07 14.4017L124.724 14.544C124.798 14.5604 124.846 14.6315 124.829 14.7053L124.684 15.3234C124.667 15.3945 124.593 15.441 124.516 15.4246L123.863 15.2824C123.789 15.266 123.74 15.1949 123.757 15.121L123.902 14.5029C123.919 14.4318 123.993 14.3853 124.07 14.4017Z" fill="#585857"/>
<path d="M123.888 15.1812C123.871 15.1784 123.859 15.1593 123.862 15.1429L124.007 14.5248C124.01 14.5084 124.03 14.4974 124.047 14.5002L124.701 14.6424C124.718 14.6451 124.729 14.6643 124.726 14.6807L124.581 15.2988C124.579 15.3152 124.559 15.3261 124.542 15.3234L123.888 15.1812Z" fill="#5E5E5D"/>
<path d="M125.188 14.6423L125.841 14.7845C125.915 14.8009 125.964 14.872 125.947 14.9458L125.802 15.5639C125.785 15.635 125.711 15.6815 125.634 15.6651L124.98 15.5229C124.906 15.5065 124.858 15.4354 124.875 15.3615L125.02 14.7435C125.037 14.6723 125.111 14.6286 125.188 14.6423Z" fill="#585857"/>
<path d="M125.005 15.4246C124.988 15.4218 124.977 15.4027 124.98 15.3863L125.125 14.7682C125.127 14.7518 125.147 14.7408 125.164 14.7436L125.818 14.8858C125.835 14.8885 125.847 14.9077 125.844 14.9241L125.699 15.5422C125.696 15.5586 125.676 15.5695 125.659 15.5668L125.005 15.4246Z" fill="#5E5E5D"/>
<path d="M126.304 14.8858L126.958 15.028C127.032 15.0444 127.08 15.1155 127.063 15.1893L126.918 15.8074C126.901 15.8785 126.827 15.925 126.751 15.9086L126.097 15.7664C126.023 15.75 125.975 15.6789 125.992 15.605L126.137 14.987C126.154 14.9131 126.23 14.8694 126.304 14.8858Z" fill="#585857"/>
<path d="M126.123 15.6652C126.106 15.6624 126.094 15.6433 126.097 15.6269L126.242 15.0088C126.245 14.9924 126.265 14.9814 126.282 14.9842L126.936 15.1264C126.953 15.1291 126.964 15.1483 126.961 15.1647L126.816 15.7828C126.813 15.7992 126.793 15.8101 126.776 15.8074L126.123 15.6652Z" fill="#5E5E5D"/>
<path d="M127.421 15.1265L128.075 15.2687C128.149 15.2851 128.197 15.3562 128.18 15.43L128.035 16.0481C128.018 16.1193 127.944 16.1657 127.868 16.1493L127.214 16.0071C127.14 15.9907 127.092 15.9196 127.109 15.8458L127.254 15.2277C127.271 15.1566 127.347 15.1101 127.421 15.1265Z" fill="#585857"/>
<path d="M127.24 15.9059C127.223 15.9032 127.211 15.884 127.214 15.8676L127.359 15.2495C127.362 15.2331 127.382 15.2222 127.399 15.2249L128.053 15.3671C128.07 15.3699 128.081 15.389 128.078 15.4054L127.93 16.0235C127.928 16.0399 127.908 16.0508 127.891 16.0481L127.24 15.9059Z" fill="#5E5E5D"/>
<path d="M128.539 15.3699L129.192 15.5121C129.266 15.5285 129.315 15.5996 129.298 15.6735L129.153 16.2916C129.135 16.3627 129.062 16.4092 128.985 16.3927L128.331 16.2505C128.257 16.2341 128.209 16.163 128.226 16.0892L128.371 15.4711C128.391 15.3972 128.465 15.3535 128.539 15.3699Z" fill="#585857"/>
<path d="M128.356 16.1492C128.339 16.1465 128.328 16.13 128.331 16.1109L128.476 15.4928C128.479 15.4764 128.499 15.4655 128.516 15.4682L129.169 15.6104C129.187 15.6131 129.198 15.6323 129.195 15.6487L129.05 16.2668C129.047 16.2832 129.027 16.2941 129.01 16.2914L128.356 16.1492Z" fill="#5E5E5D"/>
<path d="M129.656 15.6106L130.31 15.7528C130.384 15.7692 130.432 15.8403 130.415 15.9142L130.27 16.5323C130.253 16.6034 130.179 16.6499 130.102 16.6335L129.448 16.4912C129.374 16.4748 129.326 16.4037 129.343 16.3299L129.488 15.7118C129.508 15.6407 129.582 15.5942 129.656 15.6106Z" fill="#585857"/>
<path d="M129.474 16.39C129.457 16.3873 129.445 16.3682 129.448 16.3517L129.593 15.7337C129.596 15.7172 129.616 15.7063 129.633 15.709L130.287 15.8513C130.304 15.854 130.315 15.8731 130.312 15.8895L130.167 16.5076C130.165 16.524 130.145 16.535 130.128 16.5323L129.474 16.39Z" fill="#5E5E5D"/>
<path d="M130.773 15.8512L131.427 15.9934C131.501 16.0098 131.549 16.0809 131.532 16.1548L131.387 16.7729C131.37 16.844 131.296 16.8905 131.219 16.8741L130.565 16.7319C130.491 16.7155 130.443 16.6443 130.46 16.5705L130.605 15.9524C130.625 15.8813 130.699 15.8348 130.773 15.8512Z" fill="#585857"/>
<path d="M130.591 16.6333C130.574 16.6306 130.563 16.6114 130.566 16.595L130.711 15.9769C130.713 15.9605 130.733 15.9496 130.75 15.9523L131.404 16.0945C131.421 16.0973 131.433 16.1164 131.43 16.1328L131.285 16.7482C131.282 16.7646 131.262 16.7755 131.245 16.7728L130.591 16.6333Z" fill="#5E5E5D"/>
<path d="M131.893 16.0945L132.547 16.2367C132.62 16.2531 132.669 16.3242 132.652 16.3981L132.507 17.0162C132.49 17.0873 132.416 17.1338 132.339 17.1174L131.685 16.9751C131.611 16.9587 131.563 16.8876 131.58 16.8138L131.725 16.1957C131.742 16.1219 131.816 16.0781 131.893 16.0945Z" fill="#585857"/>
<path d="M131.708 16.8739C131.691 16.8712 131.68 16.852 131.682 16.8356L131.827 16.2175C131.83 16.2011 131.85 16.1902 131.867 16.1929L132.521 16.3351C132.538 16.3379 132.549 16.357 132.547 16.3734L132.402 16.9915C132.399 17.0079 132.379 17.0189 132.362 17.0161L131.708 16.8739Z" fill="#5E5E5D"/>
<path d="M118.248 14.194L118.902 14.3362C118.976 14.3526 119.024 14.4237 119.007 14.4976L118.862 15.1156C118.845 15.1868 118.771 15.2332 118.695 15.2168L118.041 15.0746C117.967 15.0582 117.919 14.9871 117.936 14.9133L118.081 14.2952C118.098 14.2241 118.174 14.1776 118.248 14.194Z" fill="#585857"/>
<path d="M118.067 14.9734C118.049 14.9707 118.038 14.9515 118.041 14.9351L118.186 14.317C118.189 14.3006 118.209 14.2897 118.226 14.2924L118.88 14.4346C118.897 14.4374 118.908 14.4565 118.905 14.4729L118.76 15.091C118.757 15.1074 118.737 15.1183 118.72 15.1156L118.067 14.9734Z" fill="#5E5E5D"/>
<path d="M119.366 14.4346L120.019 14.5768C120.093 14.5932 120.142 14.6643 120.125 14.7382L119.98 15.3562C119.963 15.4274 119.889 15.4739 119.812 15.4574L119.158 15.3152C119.084 15.2988 119.036 15.2277 119.053 15.1539L119.198 14.5358C119.215 14.4647 119.292 14.4182 119.366 14.4346Z" fill="#585857"/>
<path d="M119.184 15.214C119.167 15.2113 119.155 15.1921 119.158 15.1757L119.303 14.5576C119.306 14.5412 119.326 14.5303 119.343 14.533L119.997 14.6752C120.014 14.678 120.025 14.6971 120.022 14.7135L119.877 15.3316C119.875 15.348 119.855 15.359 119.838 15.3562L119.184 15.214Z" fill="#5E5E5D"/>
<path d="M120.483 14.678L121.137 14.8202C121.21 14.8366 121.259 14.9077 121.242 14.9816L121.097 15.5997C121.08 15.6708 121.006 15.7173 120.929 15.7009L120.275 15.5587C120.201 15.5423 120.153 15.4711 120.17 15.3973L120.318 14.7792C120.335 14.7053 120.409 14.6616 120.483 14.678Z" fill="#585857"/>
<path d="M120.301 15.4573C120.284 15.4546 120.272 15.4354 120.275 15.419L120.42 14.8009C120.423 14.7845 120.443 14.7736 120.46 14.7763L121.114 14.9185C121.131 14.9212 121.142 14.9404 121.139 14.9568L120.994 15.5749C120.991 15.5913 120.972 15.6022 120.954 15.5995L120.301 15.4573Z" fill="#5E5E5D"/>
<path d="M121.6 14.9187L122.254 15.0609C122.328 15.0773 122.376 15.1484 122.359 15.2223L122.214 15.8404C122.197 15.9115 122.123 15.958 122.046 15.9416L121.392 15.7994C121.318 15.7829 121.27 15.7118 121.287 15.638L121.432 15.0199C121.452 14.9488 121.526 14.9023 121.6 14.9187Z" fill="#585857"/>
<path d="M121.418 15.6981C121.401 15.6954 121.39 15.6763 121.393 15.6599L121.538 15.0418C121.54 15.0253 121.56 15.0144 121.577 15.0171L122.231 15.1594C122.248 15.1621 122.26 15.1812 122.257 15.1976L122.112 15.8157C122.109 15.8322 122.089 15.8431 122.072 15.8404L121.418 15.6981Z" fill="#5E5E5D"/>
<path d="M126.722 16.0263L122.711 15.1593C122.637 15.1429 122.566 15.1867 122.549 15.2578L122.393 15.9224C122.381 15.9716 122.413 16.0208 122.464 16.0318L126.512 16.907C126.586 16.9234 126.662 16.8769 126.679 16.8058L126.824 16.1877C126.844 16.1166 126.799 16.0427 126.722 16.0263Z" fill="#585857"/>
<path d="M122.504 15.9331L122.657 15.2795C122.66 15.2658 122.677 15.2549 122.691 15.2603L126.702 16.1273C126.719 16.1301 126.731 16.1492 126.728 16.1656L126.583 16.7837C126.58 16.8001 126.56 16.8111 126.543 16.8083L122.504 15.9331Z" fill="#5E5E5D"/>
<path d="M127.189 16.1276L127.842 16.2698C127.916 16.2862 127.965 16.3573 127.948 16.4311L127.803 17.0492C127.785 17.1203 127.712 17.1668 127.635 17.1504L126.981 17.0082C126.907 16.9918 126.859 16.9207 126.876 16.8468L127.021 16.2288C127.038 16.1577 127.112 16.1112 127.189 16.1276Z" fill="#585857"/>
<path d="M127.006 16.9069C126.989 16.9041 126.978 16.885 126.981 16.8686L127.126 16.2505C127.129 16.2341 127.149 16.2231 127.166 16.2259L127.819 16.3681C127.837 16.3708 127.848 16.39 127.845 16.4064L127.7 17.0245C127.697 17.0409 127.677 17.0518 127.66 17.0491L127.006 16.9069Z" fill="#5E5E5D"/>
<path d="M128.306 16.3709L128.959 16.5131C129.033 16.5295 129.082 16.6006 129.065 16.6744L128.92 17.2925C128.903 17.3637 128.829 17.4101 128.752 17.3937L128.098 17.2515C128.024 17.2351 127.976 17.164 127.993 17.0902L128.138 16.4721C128.155 16.3982 128.232 16.3545 128.306 16.3709Z" fill="#585857"/>
<path d="M128.124 17.1504C128.107 17.1477 128.095 17.1285 128.098 17.1121L128.243 16.494C128.246 16.4776 128.266 16.4667 128.283 16.4694L128.937 16.6116C128.954 16.6144 128.965 16.6335 128.962 16.6499L128.817 17.268C128.815 17.2844 128.795 17.2954 128.778 17.2926L128.124 17.1504Z" fill="#5E5E5D"/>
<path d="M129.422 16.6116L130.076 16.7538C130.15 16.7702 130.198 16.8413 130.181 16.9152L130.036 17.5332C130.019 17.6043 129.945 17.6508 129.869 17.6344L129.215 17.4922C129.141 17.4758 129.093 17.4047 129.11 17.3309L129.255 16.7128C129.272 16.6417 129.349 16.5952 129.422 16.6116Z" fill="#585857"/>
<path d="M129.241 17.3911C129.224 17.3884 129.212 17.3693 129.215 17.3528L129.36 16.7348C129.363 16.7183 129.383 16.7074 129.4 16.7101L130.054 16.8524C130.071 16.8551 130.082 16.8742 130.079 16.8906L129.934 17.5087C129.931 17.5251 129.914 17.5361 129.894 17.5334L129.241 17.3911Z" fill="#5E5E5D"/>
<path d="M130.54 16.8522L131.194 16.9944C131.267 17.0108 131.316 17.0819 131.299 17.1558L131.154 17.7738C131.137 17.8449 131.063 17.8914 130.986 17.875L130.332 17.7328C130.258 17.7164 130.21 17.6453 130.227 17.5715L130.372 16.9534C130.392 16.8823 130.466 16.8358 130.54 16.8522Z" fill="#585857"/>
<path d="M130.358 17.6317C130.341 17.629 130.329 17.6098 130.332 17.5934L130.477 16.9754C130.48 16.9589 130.5 16.948 130.517 16.9507L131.171 17.093C131.188 17.0957 131.199 17.1148 131.196 17.1312L131.051 17.7493C131.048 17.7657 131.029 17.7767 131.011 17.7739L130.358 17.6317Z" fill="#5E5E5D"/>
<path d="M131.657 17.0957L132.311 17.2379C132.385 17.2544 132.433 17.3255 132.416 17.3993L132.271 18.0174C132.254 18.0885 132.18 18.135 132.103 18.1186L131.45 17.9764C131.376 17.96 131.327 17.8889 131.344 17.815L131.489 17.1969C131.509 17.1231 131.583 17.0793 131.657 17.0957Z" fill="#585857"/>
<path d="M131.475 17.8751C131.458 17.8724 131.447 17.8533 131.45 17.8368L131.595 17.2188C131.598 17.2023 131.617 17.1914 131.635 17.1941L132.288 17.3364C132.305 17.3391 132.317 17.3582 132.314 17.3746L132.169 17.9927C132.166 18.0091 132.146 18.0201 132.129 18.0173L131.475 17.8751Z" fill="#5E5E5D"/>
<path d="M126.52 17.7711L123.24 17.0628C123.092 17.03 122.944 17.1202 122.913 17.2624L122.518 18.9499C122.484 19.0921 122.578 19.2343 122.725 19.2644L126.006 19.9727C126.154 20.0056 126.301 19.9153 126.333 19.7731L126.728 18.0856C126.762 17.9434 126.668 17.8039 126.52 17.7711Z" fill="#EDEDED"/>
<path d="M126.546 17.6699L123.265 16.9616C123.061 16.9178 122.856 17.0409 122.811 17.2378L122.415 18.9253C122.37 19.1222 122.498 19.3191 122.703 19.3629L125.983 20.0712C126.188 20.115 126.392 19.9919 126.438 19.795L126.833 18.1075C126.878 17.9106 126.75 17.7164 126.546 17.6699ZM126.335 19.7731C126.301 19.9153 126.156 20.0056 126.008 19.9728L122.728 19.2644C122.58 19.2316 122.486 19.0921 122.521 18.9499L122.916 17.2624C122.95 17.1202 123.095 17.03 123.243 17.0628L126.523 17.7711C126.671 17.8039 126.765 17.9434 126.731 18.0856L126.335 19.7731Z" fill="#9D9B9B"/>
<path d="M122.714 18.1184L122.521 18.9498C122.487 19.092 122.581 19.2343 122.728 19.2643L126.009 19.9727C126.157 20.0055 126.304 19.9153 126.336 19.773L126.529 18.9416L122.714 18.1184Z" fill="#DFDFDE"/>
<path d="M124.607 18.5261L122.714 18.1158L122.521 18.9473C122.487 19.0895 122.581 19.2317 122.728 19.2618L124.354 19.6146L124.607 18.5261Z" fill="#D9D9DA"/>
<path d="M134.392 12.9276L118.285 9.44325C118.192 9.42137 118.126 9.33658 118.135 9.2436L119.82 0.376948C119.843 0.133539 120.082 -0.0332922 120.329 0.0214065L136.734 3.57135C136.981 3.62605 137.123 3.87493 137.035 4.10466L134.616 12.8099C134.582 12.8975 134.488 12.9494 134.392 12.9276Z" fill="#E3E1E1"/>
<path d="M118.837 8.59267L120.392 1.10716C120.414 0.877423 120.639 0.718797 120.872 0.77076L135.907 4.0226C136.14 4.07183 136.273 4.30976 136.191 4.52582L134.269 11.9293C134.201 12.1098 134.005 12.211 133.809 12.17L119.147 8.99744C118.951 8.95642 118.82 8.78138 118.837 8.59267Z" fill="#C7C7C6"/>
<path d="M118.945 8.60347L120.5 1.11249C120.517 0.945663 120.679 0.830795 120.849 0.869085L135.89 4.12365C136.057 4.15921 136.157 4.33151 136.097 4.4874L134.17 11.8963C134.122 12.0276 133.979 12.1014 133.837 12.0714L119.166 8.89611C119.027 8.86602 118.931 8.74022 118.945 8.60347Z" fill="#C6E6F2"/>
<path opacity="0.24" d="M119.178 7.88699C119.456 7.40564 119.837 6.95164 120.258 6.57422C121.35 5.59785 122.87 5.05907 124.303 4.7637C125.992 4.41362 127.882 3.69707 129.599 3.84202C131.981 4.03894 133.593 4.38901 135.85 5.13565L136.097 4.48747C136.157 4.33158 136.06 4.15928 135.89 4.12372L120.849 0.869152C120.682 0.833597 120.517 0.948465 120.5 1.11256L118.97 8.33278C119.022 8.17142 119.104 8.01553 119.178 7.88699Z" fill="#B6E0ED"/>
<path d="M132.058 12.4244L120.596 9.94379L120.602 9.75781L132.157 12.2575L132.058 12.4244Z" fill="#585857"/>
<path d="M128.326 2.0999C128.343 2.03153 128.414 1.98778 128.485 2.00418C128.556 2.02059 128.601 2.08897 128.584 2.15734C128.567 2.22571 128.496 2.26946 128.425 2.25306C128.354 2.23938 128.309 2.17101 128.326 2.0999Z" fill="#3C3C3B"/>
<path d="M128.362 2.1086C128.374 2.0591 128.425 2.02885 128.477 2.03985C128.528 2.05085 128.56 2.10035 128.548 2.14985C128.537 2.19934 128.485 2.22959 128.434 2.21859C128.382 2.20759 128.351 2.1581 128.362 2.1086Z" fill="#585857"/>
<path d="M128.416 2.12229C128.422 2.10283 128.442 2.08894 128.462 2.0945C128.482 2.10005 128.496 2.11951 128.491 2.13896C128.485 2.15841 128.465 2.17231 128.445 2.16675C128.425 2.16119 128.411 2.14174 128.416 2.12229Z" fill="#B6E0ED"/>
</g>
<path d="M26.3445 63.6691C25.5801 60.5602 22.349 58.6429 19.1352 59.3813C15.9171 60.1197 13.9323 63.2411 14.6967 66.3458C15.2352 68.5274 16.9898 70.1217 19.1004 70.621C19.222 70.9314 19.4479 72.8152 19.8518 73.4193C20.0342 73.692 20.2644 73.7382 20.6161 73.6669C20.8984 74.636 22.0797 75.5255 23.0525 75.4374C23.7344 75.3744 24.2295 74.9213 24.451 74.313C24.6247 73.8389 24.7637 73.2935 24.8505 72.7648C25.3196 72.7523 25.5454 72.7061 25.5237 72.2824C25.4846 71.5482 24.6594 69.5259 24.629 69.2155C26.1274 67.8436 26.857 65.7542 26.3445 63.6691Z" fill="#FDFFFC"/>
<path d="M23.2306 63.4594C23.1394 63.1447 22.818 62.9349 22.4793 63.0147C22.1622 63.086 21.9234 63.4258 22.0189 63.7405C22.0754 63.9335 22.223 64.0887 22.4011 64.16C22.2708 64.9739 22.1058 65.7753 22.0363 66.5976C21.9712 67.3612 21.906 68.108 21.7323 68.8506C20.7899 67.487 19.8518 66.1277 18.8138 64.8313C19.1005 64.567 18.8833 63.9754 18.4012 64.0845C17.8323 64.2146 18.0408 65.0704 18.614 64.9404C18.6184 64.9404 18.6227 64.9362 18.6271 64.932C19.7041 66.4046 20.7595 67.8982 21.6367 69.4925C21.7323 69.6645 21.9929 69.6267 22.0537 69.4505C22.3403 68.6282 22.4228 67.7891 22.4836 66.929C22.5531 66.0018 22.7399 65.0914 22.818 64.1684C23.109 64.0761 23.3175 63.7573 23.2306 63.4594Z" fill="#AEB4FC"/>
<path d="M15.9992 58.3913C14.7875 57.8124 13.5715 57.2292 12.3598 56.646C12.1079 56.5286 11.8777 56.8768 12.1296 57.0068C13.3109 57.6362 14.4966 58.2613 15.6778 58.8906C16.0253 59.0752 16.3467 58.5592 15.9992 58.3913Z" fill="#808AFF"/>
<path d="M18.2794 53.9439C18.1795 53.73 17.8929 53.8852 17.9146 54.0782C18.0623 55.2865 18.527 56.52 18.8918 57.6863C18.983 57.9716 19.439 57.8751 19.3652 57.5772C19.0655 56.3773 18.8049 55.0725 18.2794 53.9439Z" fill="#808AFF"/>
<path d="M23.9255 53.5916C23.6128 53.8559 23.4217 54.2755 23.2263 54.6279C23.0222 54.9971 22.8398 55.3747 22.6661 55.7565C22.5271 56.067 23.0613 56.2306 23.1959 55.9117C23.3566 55.5216 23.5303 55.144 23.7301 54.7706C23.8995 54.4475 24.147 54.1328 24.2469 53.7846C24.3034 53.5958 24.0688 53.4658 23.9255 53.5916Z" fill="#808AFF"/>
<defs>
<clipPath id="clip0_73_721">
<rect width="13.172" height="15.381" fill="white" transform="translate(141.286 50.8196)"/>
</clipPath>
<clipPath id="clip1_73_721">
<rect width="58.8036" height="9.83931" fill="white" transform="translate(44.4052 106.603)"/>
</clipPath>
<clipPath id="clip2_73_721">
<rect width="30.1074" height="23.5238" fill="white" transform="translate(127.173 81.5815)"/>
</clipPath>
<clipPath id="clip3_73_721">
<rect width="32.93" height="31.6667" fill="white" transform="translate(34.9692 13.7244)"/>
</clipPath>
</defs>
</svg>
