<svg width="102" height="80" viewBox="0 0 102 80" fill="none" xmlns="http://www.w3.org/2000/svg">
<path d="M27.9744 12.9668C27.9744 12.9668 31.1696 21.8461 31.0682 24.7334C30.9687 27.6212 29.0691 27.8219 29.0691 27.8219L30.2153 34.0111C30.2153 34.0111 24.0866 37.5112 20.1768 34.6555C20.1768 34.6555 20.3529 26.3244 19.9237 22.8703C19.4943 19.4161 21.7527 17.4062 21.775 17.248C21.7969 17.091 23.0308 13.2236 23.0308 13.2236C23.0308 13.2236 24.0767 13.2335 24.1743 13.0102C24.2721 12.7872 27.9744 12.9668 27.9744 12.9668Z" fill="#F03655"/>
<path d="M24.4979 10.9004C24.4979 10.9004 25.7061 7.67886 28.306 7.39809C30.9046 7.11731 32.1502 11.2396 30.121 12.7441C28.0922 14.2503 25.8621 15.4867 26.1435 18.251L26.4139 19.5844C26.4139 19.5844 25.5038 18.3187 24.6951 18.88C23.8871 19.4409 24.1971 21.7644 26.208 22.1317C26.208 22.1317 26.8944 24.7951 24.7966 26.4166C22.6981 28.0376 20.1879 27.8554 20.1879 27.8554C20.1879 27.8554 19.332 20.4682 18.6578 18.7508C17.9842 17.0338 17.1021 12.1273 20.6953 12.6093C20.6953 12.6093 20.1879 10.3727 21.8167 9.68487C23.4451 8.99702 24.4979 10.9004 24.4979 10.9004Z" fill="#50194B"/>
<path d="M27.3655 19.4187C27.5363 20.7941 28.5852 21.7394 29.7077 21.5299C30.831 21.3199 31.603 20.0355 31.4318 18.6596C31.2604 17.2847 30.2112 16.3395 29.0887 16.5484C27.9661 16.7587 27.1941 18.0436 27.3655 19.4187Z" fill="#50194B"/>
<path d="M19.5992 32.8956L35.9095 34.507C35.9095 34.507 39.4873 34.507 40.9607 41.7262C42.4333 48.9443 46.8538 66.4758 46.8538 66.4758C46.8538 66.4758 47.8528 71.2453 44.6966 72.5987C41.539 73.9516 38.8035 72.2125 38.0667 69.3114L38.8035 72.2125C38.8035 72.2125 34.5414 69.6339 31.3323 72.5987C28.1223 75.5632 15.8631 84.8448 9.8651 76.7883L10.3912 64.8642C10.3912 64.8642 8.12857 69.9559 4.76184 69.44C1.39419 68.9252 -0.97331 65.0575 0.3943 60.288C1.76308 55.5182 10.3387 34.8083 10.3387 34.8083C10.3387 34.8083 10.7598 31.4345 19.5992 32.8956Z" fill="#F9A91D"/>
<path d="M101.781 58.1079C101.781 58.1079 101.268 61.3354 98.1418 62.5219L99.039 69.6118L73.9648 71.6161V59.4049L101.781 58.1079Z" fill="#ED3B1F"/>
<path d="M80.6834 10.8031C80.6834 10.8031 79.0033 18.4165 79.3726 20.7207C79.742 23.0253 81.288 22.9027 81.288 22.9027L80.9856 28.0463C80.9856 28.0463 86.2596 29.9389 89.1147 27.0585C89.1147 27.0585 88.1406 20.392 88.1406 17.5527C88.1406 14.7131 86.1254 13.4364 86.0911 13.3129C86.0585 13.19 84.6807 10.2678 84.6807 10.2678C84.6807 10.2678 83.8414 10.4327 83.7399 10.2678C83.6387 10.1029 80.6834 10.8031 80.6834 10.8031Z" fill="#F9A91D"/>
<path d="M83.2698 8.62141C83.2698 8.62141 81.9765 6.21453 79.8602 6.37803C77.7438 6.54295 77.1554 10.0416 78.9356 10.9471C80.7165 11.8512 82.6314 12.5108 82.6823 14.7736L82.598 15.8849C82.598 15.8849 83.2028 14.7322 83.9079 15.062C84.6137 15.3916 84.5969 17.3048 83.0183 17.9019C83.0183 17.9019 82.732 20.1439 84.5808 21.1319C86.428 22.1197 88.4264 21.5968 88.4264 21.5968C88.4264 21.5968 88.3765 15.5331 88.7465 14.0523C89.1147 12.5717 89.3343 8.49821 86.4961 9.42398C86.4961 9.42398 86.6802 7.55131 85.3022 7.24319C83.9252 6.93451 83.2698 8.62141 83.2698 8.62141Z" fill="#120F0E"/>
<path d="M79.3194 27.264C79.3194 27.264 85.8563 29.9375 89.6191 26.0289C89.6191 26.0289 90.6694 28.1128 92.2819 28.1562C93.8944 28.2004 102.436 27.9837 101.983 45.7621L101.781 58.108L73.9648 59.405V30.3299C73.9648 30.3299 75.4503 28.7738 78.3733 28.6568C78.3733 28.6568 79.4174 28.5497 79.3194 27.264Z" fill="#ED3B1F"/>
<path d="M74.8376 51.668C74.8376 51.668 74.0319 59.8172 69.3282 59.405C64.6246 58.994 63.8185 51.01 64.3556 41.6272C64.8927 32.2443 68.589 27.5106 68.589 27.5106L72.3518 27.0993C72.3518 27.0993 72.4524 30.4734 73.965 30.3299L78.4319 39.3632L76.2485 47.1823L74.8376 51.668Z" fill="#ED3B1F"/>
<path d="M73.4259 22.5367C73.4588 22.6426 73.416 22.7633 73.3279 22.8047L70.1809 24.2884C70.0942 24.3298 69.9975 24.2768 69.9625 24.1694L67.9183 17.6603C67.8841 17.554 67.9275 17.4339 68.015 17.3919L71.1615 15.9097C71.2494 15.8683 71.3467 15.9213 71.3803 16.0284L73.4259 22.5367Z" fill="#F2F2F2"/>
<path d="M68.5889 27.5109L68.4547 23.2733C68.4547 23.2733 67.8665 20.7621 68.1525 20.0627C68.4374 19.3628 69.2604 20.1653 69.2776 22.5313C69.2776 22.5313 71.1421 22.6554 71.2266 24.5483L72.5852 23.9112L72.3516 27.0996L68.5889 27.5109Z" fill="#F9A91D"/>
<path d="M81.8169 15.8957C81.8169 17.0267 81.0683 17.9431 80.1455 17.9431C79.2227 17.9431 78.4741 17.0267 78.4741 15.8957C78.4741 14.7644 79.2227 13.8479 80.1455 13.8479C81.0683 13.8479 81.8169 14.7644 81.8169 15.8957Z" fill="#120F0E"/>
<path d="M73.8062 8.54959C73.8062 9.5743 73.1289 10.4056 72.2922 10.4056C71.455 10.4056 70.7764 9.5743 70.7764 8.54959C70.7764 7.52628 71.455 6.69439 72.2922 6.69439C73.1289 6.69439 73.8062 7.52628 73.8062 8.54959Z" fill="#F7CA31"/>
<path d="M68.2842 13.7659C68.2842 14.7901 67.6055 15.62 66.7702 15.62C65.9346 15.62 65.2578 14.7901 65.2578 13.7659C65.2578 12.7426 65.9346 11.9135 66.7702 11.9135C67.6055 11.9135 68.2842 12.7426 68.2842 13.7659Z" fill="#F7CA31"/>
<path d="M70.0622 3.2199C70.0622 4.99729 68.8853 6.44006 67.4344 6.44006C65.9832 6.44006 64.8059 4.99729 64.8059 3.2199C64.8059 1.44109 65.9832 1.66893e-05 67.4344 1.66893e-05C68.8853 1.66893e-05 70.0622 1.44109 70.0622 3.2199Z" fill="#F7CA31"/>
</svg>
